%TF.GenerationSoftware,KiCad,Pcbnew,10.0.0*%
%TF.CreationDate,2026-05-12T12:02:40-03:00*%
%TF.ProjectId,PCB-FLM-FTE-12V,5043422d-464c-44d2-9d46-54452d313256,01*%
%TF.SameCoordinates,Original*%
%TF.FileFunction,Legend,Bot*%
%TF.FilePolarity,Positive*%
%FSLAX46Y46*%
G04 Gerber Fmt 4.6, Leading zero omitted, Abs format (unit mm)*
G04 Created by KiCad (PCBNEW 10.0.0) date 2026-05-12 12:02:40*
%MOMM*%
%LPD*%
G01*
G04 APERTURE LIST*
%ADD10C,0.100000*%
%ADD11C,0.250000*%
%ADD12C,0.500000*%
%ADD13C,0.150000*%
%ADD14C,0.254000*%
%ADD15C,0.127000*%
%ADD16C,0.200000*%
G04 APERTURE END LIST*
D10*
X188239584Y-126107292D02*
X188239584Y-144892708D01*
X206760417Y-144892708D01*
X206760417Y-126107292D01*
X188239584Y-126107292D01*
D11*
X117250000Y-145000000D02*
X117250000Y-125750000D01*
X207000000Y-125750000D02*
X117250000Y-125750000D01*
X161000000Y-125750000D02*
X161000000Y-145000000D01*
X188000000Y-125750000D02*
X188000000Y-145000000D01*
X188000000Y-135750000D02*
X117250000Y-135750000D01*
X207000000Y-73500000D02*
X210018000Y-73504000D01*
X26500000Y-148000000D02*
X26500000Y-145000000D01*
G36*
X208643584Y-124833729D02*
G01*
X208780369Y-124854167D01*
X208891438Y-124888540D01*
X208988784Y-124936521D01*
X209074193Y-124998026D01*
X209170072Y-125094791D01*
X209248884Y-125208445D01*
X209311108Y-125341187D01*
X209353753Y-125482576D01*
X209380443Y-125640933D01*
X209389755Y-125818682D01*
X209383371Y-125970765D01*
X209365178Y-126105336D01*
X209336387Y-126224369D01*
X209273317Y-126390699D01*
X209199734Y-126516850D01*
X209110455Y-126622331D01*
X209017406Y-126699055D01*
X208910972Y-126756246D01*
X208778293Y-126799806D01*
X208632777Y-126824924D01*
X208456625Y-126834000D01*
X207733910Y-126834000D01*
X207733910Y-126601480D01*
X207998914Y-126601480D01*
X208426583Y-126601480D01*
X208613751Y-126590899D01*
X208737382Y-126564355D01*
X208841170Y-126518056D01*
X208917023Y-126459575D01*
X208973233Y-126391773D01*
X209022322Y-126307457D01*
X209063812Y-126203853D01*
X209091825Y-126095541D01*
X209109951Y-125966835D01*
X209116447Y-125814530D01*
X209108682Y-125651655D01*
X209087367Y-125519342D01*
X209054981Y-125412687D01*
X209013254Y-125327387D01*
X208936221Y-125222605D01*
X208852983Y-125148140D01*
X208762661Y-125099265D01*
X208689446Y-125078639D01*
X208579057Y-125063714D01*
X208419744Y-125057866D01*
X207998914Y-125057866D01*
X207998914Y-126601480D01*
X207733910Y-126601480D01*
X207733910Y-124825346D01*
X208423774Y-124825346D01*
X208643584Y-124833729D01*
G37*
G36*
X119177826Y-129626500D02*
G01*
X119177826Y-128120010D01*
X119381799Y-128120010D01*
X120170765Y-129302817D01*
X120170765Y-128120010D01*
X120361366Y-128120010D01*
X120361366Y-129626500D01*
X120157484Y-129626500D01*
X119368427Y-128442685D01*
X119368427Y-129626500D01*
X119177826Y-129626500D01*
G37*
G36*
X121936091Y-129626500D02*
G01*
X121709586Y-129626500D01*
X121534372Y-129169277D01*
X120906241Y-129169277D01*
X120741285Y-129626500D01*
X120530168Y-129626500D01*
X120768124Y-129005146D01*
X120963669Y-129005146D01*
X121472915Y-129005146D01*
X121316111Y-128589231D01*
X121250593Y-128407735D01*
X121209591Y-128277821D01*
X121175160Y-128421243D01*
X121128624Y-128564684D01*
X120963669Y-129005146D01*
X120768124Y-129005146D01*
X121107100Y-128120010D01*
X121321240Y-128120010D01*
X121936091Y-129626500D01*
G37*
G36*
X122088590Y-129626500D02*
G01*
X122088590Y-128120010D01*
X122387726Y-128120010D01*
X122743283Y-129187137D01*
X122814999Y-129410253D01*
X122894958Y-129168636D01*
X123254636Y-128120010D01*
X123522082Y-128120010D01*
X123522082Y-129626500D01*
X123330473Y-129626500D01*
X123330473Y-128364924D01*
X122893950Y-129626500D01*
X122714615Y-129626500D01*
X122280199Y-128343400D01*
X122280199Y-129626500D01*
X122088590Y-129626500D01*
G37*
G36*
X123847047Y-129626500D02*
G01*
X123847047Y-128120010D01*
X124933225Y-128120010D01*
X124933225Y-128294399D01*
X124045891Y-128294399D01*
X124045891Y-128758949D01*
X124876897Y-128758949D01*
X124876897Y-128933338D01*
X124045891Y-128933338D01*
X124045891Y-129452110D01*
X124968122Y-129452110D01*
X124968122Y-129626500D01*
X123847047Y-129626500D01*
G37*
G36*
X162983818Y-128125470D02*
G01*
X163083138Y-128139787D01*
X163154370Y-128160310D01*
X163218939Y-128193747D01*
X163274262Y-128240669D01*
X163321340Y-128302642D01*
X163356028Y-128372812D01*
X163376837Y-128447481D01*
X163383897Y-128527956D01*
X163377171Y-128605827D01*
X163357650Y-128675533D01*
X163325613Y-128738622D01*
X163280399Y-128796226D01*
X163225883Y-128842863D01*
X163156483Y-128881999D01*
X163069300Y-128913113D01*
X162960746Y-128934895D01*
X163033734Y-128975296D01*
X163080547Y-129010550D01*
X163163303Y-129099031D01*
X163245595Y-129212783D01*
X163506812Y-129626500D01*
X163256860Y-129626500D01*
X163058016Y-129309961D01*
X162914584Y-129100400D01*
X162857553Y-129034978D01*
X162813651Y-128998643D01*
X162768042Y-128973721D01*
X162722976Y-128958159D01*
X162612334Y-128950924D01*
X162381799Y-128950924D01*
X162381799Y-129626500D01*
X162182955Y-129626500D01*
X162182955Y-128782396D01*
X162381799Y-128782396D01*
X162809072Y-128782396D01*
X162937649Y-128774434D01*
X163022204Y-128754461D01*
X163070274Y-128731466D01*
X163108754Y-128701673D01*
X163138983Y-128664793D01*
X163168973Y-128600362D01*
X163178916Y-128530887D01*
X163170122Y-128463784D01*
X163144597Y-128406568D01*
X163101522Y-128356773D01*
X163045705Y-128321351D01*
X162966812Y-128297558D01*
X162857248Y-128288537D01*
X162381799Y-128288537D01*
X162381799Y-128782396D01*
X162182955Y-128782396D01*
X162182955Y-128120010D01*
X162849005Y-128120010D01*
X162983818Y-128125470D01*
G37*
G36*
X163699245Y-129626500D02*
G01*
X163699245Y-128120010D01*
X164785424Y-128120010D01*
X164785424Y-128294399D01*
X163898089Y-128294399D01*
X163898089Y-128758949D01*
X164729095Y-128758949D01*
X164729095Y-128933338D01*
X163898089Y-128933338D01*
X163898089Y-129452110D01*
X164820320Y-129452110D01*
X164820320Y-129626500D01*
X163699245Y-129626500D01*
G37*
G36*
X165524014Y-129626500D02*
G01*
X164942044Y-128120010D01*
X165157192Y-128120010D01*
X165547644Y-129214798D01*
X165626504Y-129461544D01*
X165707471Y-129214798D01*
X166113219Y-128120010D01*
X166316094Y-128120010D01*
X165727987Y-129626500D01*
X165524014Y-129626500D01*
G37*
G36*
X166528035Y-129626500D02*
G01*
X166528035Y-128120010D01*
X166726788Y-128120010D01*
X166726788Y-129626500D01*
X166528035Y-129626500D01*
G37*
G36*
X167009804Y-129138869D02*
G01*
X167197383Y-129122382D01*
X167210983Y-129197680D01*
X167231895Y-129259849D01*
X167259298Y-129310968D01*
X167296094Y-129355331D01*
X167345680Y-129395058D01*
X167410424Y-129430128D01*
X167480089Y-129454952D01*
X167556591Y-129470268D01*
X167641050Y-129475557D01*
X167750621Y-129466657D01*
X167841818Y-129441669D01*
X167897124Y-129414981D01*
X167939631Y-129383953D01*
X167971419Y-129348704D01*
X168003474Y-129286515D01*
X168014009Y-129219652D01*
X168003600Y-129152821D01*
X167972976Y-129095912D01*
X167922318Y-129049622D01*
X167837788Y-129006978D01*
X167758905Y-128981869D01*
X167570342Y-128933521D01*
X167379802Y-128880283D01*
X167280364Y-128839457D01*
X167212505Y-128797128D01*
X167159745Y-128750422D01*
X167119988Y-128699232D01*
X167090796Y-128641494D01*
X167073220Y-128579391D01*
X167067232Y-128511745D01*
X167074356Y-128437538D01*
X167095636Y-128366873D01*
X167131712Y-128298521D01*
X167180370Y-128238689D01*
X167242537Y-128188609D01*
X167320298Y-128147945D01*
X167404392Y-128119827D01*
X167495904Y-128102520D01*
X167595987Y-128096562D01*
X167706290Y-128102946D01*
X167803903Y-128121217D01*
X167890544Y-128150418D01*
X167970499Y-128192853D01*
X168035254Y-128245462D01*
X168086732Y-128308687D01*
X168125254Y-128380876D01*
X168149861Y-128459257D01*
X168160554Y-128545267D01*
X167969953Y-128559647D01*
X167950355Y-128468684D01*
X167915443Y-128398202D01*
X167865906Y-128343950D01*
X167802680Y-128305627D01*
X167717589Y-128280360D01*
X167604139Y-128270952D01*
X167485086Y-128279834D01*
X167400307Y-128303059D01*
X167341272Y-128337080D01*
X167294404Y-128385670D01*
X167267740Y-128438144D01*
X167258840Y-128496540D01*
X167265492Y-128547912D01*
X167284783Y-128591709D01*
X167317275Y-128629806D01*
X167361263Y-128658005D01*
X167452615Y-128693465D01*
X167616961Y-128736967D01*
X167839514Y-128793706D01*
X167949437Y-128832771D01*
X168032577Y-128878928D01*
X168096087Y-128930053D01*
X168143061Y-128986095D01*
X168177542Y-129050419D01*
X168198440Y-129121138D01*
X168205617Y-129199868D01*
X168198071Y-129277885D01*
X168175442Y-129352839D01*
X168136924Y-129426007D01*
X168085461Y-129490525D01*
X168020366Y-129545413D01*
X167939728Y-129591054D01*
X167852224Y-129623257D01*
X167756198Y-129643099D01*
X167650209Y-129649947D01*
X167515038Y-129642569D01*
X167402286Y-129622031D01*
X167308483Y-129590229D01*
X167222393Y-129543094D01*
X167150887Y-129483430D01*
X167092328Y-129410436D01*
X167048541Y-129327447D01*
X167021035Y-129237487D01*
X167009804Y-129138869D01*
G37*
G36*
X168510799Y-129626500D02*
G01*
X168510799Y-128120010D01*
X168709551Y-128120010D01*
X168709551Y-129626500D01*
X168510799Y-129626500D01*
G37*
G36*
X169822187Y-128102986D02*
G01*
X169918393Y-128121827D01*
X170008718Y-128152767D01*
X170094042Y-128195939D01*
X170172717Y-128250572D01*
X170240926Y-128314495D01*
X170299452Y-128388285D01*
X170348665Y-128472910D01*
X170396604Y-128594115D01*
X170426121Y-128727672D01*
X170436318Y-128875819D01*
X170425616Y-129025794D01*
X170394594Y-129161219D01*
X170344086Y-129284407D01*
X170292401Y-129370162D01*
X170231924Y-129443519D01*
X170162333Y-129505647D01*
X170082868Y-129557257D01*
X169967211Y-129608743D01*
X169846173Y-129639551D01*
X169718061Y-129649947D01*
X169612871Y-129643297D01*
X169515336Y-129623841D01*
X169424323Y-129591960D01*
X169338874Y-129547548D01*
X169260156Y-129491441D01*
X169192208Y-129426560D01*
X169134226Y-129352381D01*
X169085807Y-129268012D01*
X169037981Y-129147492D01*
X169009406Y-129023021D01*
X169000000Y-128895878D01*
X169204693Y-128895878D01*
X169214859Y-129031495D01*
X169243505Y-129145875D01*
X169288880Y-129242691D01*
X169350689Y-129324799D01*
X169428795Y-129393623D01*
X169514655Y-129441978D01*
X169609935Y-129471314D01*
X169717053Y-129481419D01*
X169826284Y-129471143D01*
X169922675Y-129441412D01*
X170008804Y-129392573D01*
X170086440Y-129323241D01*
X170147115Y-129240621D01*
X170192243Y-129140731D01*
X170221089Y-129020079D01*
X170231428Y-128874262D01*
X170224043Y-128752945D01*
X170202984Y-128646684D01*
X170169421Y-128553327D01*
X170120969Y-128467651D01*
X170060758Y-128397343D01*
X169988071Y-128340653D01*
X169905729Y-128298860D01*
X169816969Y-128273677D01*
X169720076Y-128265090D01*
X169617298Y-128274349D01*
X169523689Y-128301453D01*
X169437329Y-128346385D01*
X169356825Y-128410445D01*
X169306405Y-128469925D01*
X169264997Y-128544839D01*
X169233134Y-128638195D01*
X169212274Y-128753751D01*
X169204693Y-128895878D01*
X169000000Y-128895878D01*
X168999803Y-128893221D01*
X169008882Y-128741598D01*
X169034670Y-128609887D01*
X169075579Y-128495242D01*
X169130846Y-128395253D01*
X169200571Y-128308046D01*
X169285202Y-128232202D01*
X169377974Y-128173710D01*
X169480045Y-128131534D01*
X169593061Y-128105551D01*
X169719068Y-128096562D01*
X169822187Y-128102986D01*
G37*
G36*
X170690666Y-129626500D02*
G01*
X170690666Y-128120010D01*
X170894639Y-128120010D01*
X171683605Y-129302817D01*
X171683605Y-128120010D01*
X171874206Y-128120010D01*
X171874206Y-129626500D01*
X171670324Y-129626500D01*
X170881267Y-128442685D01*
X170881267Y-129626500D01*
X170690666Y-129626500D01*
G37*
G36*
X162112247Y-138138869D02*
G01*
X162299825Y-138122382D01*
X162313426Y-138197680D01*
X162334338Y-138259849D01*
X162361741Y-138310968D01*
X162398537Y-138355331D01*
X162448122Y-138395058D01*
X162512866Y-138430128D01*
X162582531Y-138454952D01*
X162659034Y-138470268D01*
X162743492Y-138475557D01*
X162853063Y-138466657D01*
X162944260Y-138441669D01*
X162999567Y-138414981D01*
X163042073Y-138383953D01*
X163073861Y-138348704D01*
X163105916Y-138286515D01*
X163116451Y-138219652D01*
X163106043Y-138152821D01*
X163075418Y-138095912D01*
X163024761Y-138049622D01*
X162940230Y-138006978D01*
X162861347Y-137981869D01*
X162672784Y-137933521D01*
X162482245Y-137880283D01*
X162382807Y-137839457D01*
X162314947Y-137797128D01*
X162262187Y-137750422D01*
X162222431Y-137699232D01*
X162193239Y-137641494D01*
X162175663Y-137579391D01*
X162169674Y-137511745D01*
X162176798Y-137437538D01*
X162198079Y-137366873D01*
X162234154Y-137298521D01*
X162282812Y-137238689D01*
X162344979Y-137188609D01*
X162422740Y-137147945D01*
X162506835Y-137119827D01*
X162598346Y-137102520D01*
X162698430Y-137096562D01*
X162808733Y-137102946D01*
X162906345Y-137121217D01*
X162992986Y-137150418D01*
X163072941Y-137192853D01*
X163137697Y-137245462D01*
X163189174Y-137308687D01*
X163227696Y-137380876D01*
X163252303Y-137459257D01*
X163262997Y-137545267D01*
X163072396Y-137559647D01*
X163052797Y-137468684D01*
X163017886Y-137398202D01*
X162968348Y-137343950D01*
X162905123Y-137305627D01*
X162820031Y-137280360D01*
X162706581Y-137270952D01*
X162587529Y-137279834D01*
X162502750Y-137303059D01*
X162443715Y-137337080D01*
X162396846Y-137385670D01*
X162370183Y-137438144D01*
X162361283Y-137496540D01*
X162367935Y-137547912D01*
X162387226Y-137591709D01*
X162419718Y-137629806D01*
X162463705Y-137658005D01*
X162555058Y-137693465D01*
X162719404Y-137736967D01*
X162941957Y-137793706D01*
X163051879Y-137832771D01*
X163135019Y-137878928D01*
X163198530Y-137930053D01*
X163245503Y-137986095D01*
X163279985Y-138050419D01*
X163300882Y-138121138D01*
X163308060Y-138199868D01*
X163300513Y-138277885D01*
X163277885Y-138352839D01*
X163239366Y-138426007D01*
X163187903Y-138490525D01*
X163122809Y-138545413D01*
X163042171Y-138591054D01*
X162954666Y-138623257D01*
X162858641Y-138643099D01*
X162752651Y-138649947D01*
X162617481Y-138642569D01*
X162504728Y-138622031D01*
X162410925Y-138590229D01*
X162324835Y-138543094D01*
X162253329Y-138483430D01*
X162194770Y-138410436D01*
X162150983Y-138327447D01*
X162123477Y-138237487D01*
X162112247Y-138138869D01*
G37*
G36*
X163585581Y-138626500D02*
G01*
X163585581Y-137120010D01*
X163784333Y-137120010D01*
X163784333Y-137741363D01*
X164565147Y-137741363D01*
X164565147Y-137120010D01*
X164763900Y-137120010D01*
X164763900Y-138626500D01*
X164565147Y-138626500D01*
X164565147Y-137915753D01*
X163784333Y-137915753D01*
X163784333Y-138626500D01*
X163585581Y-138626500D01*
G37*
G36*
X165098757Y-138626500D02*
G01*
X165098757Y-137120010D01*
X166184935Y-137120010D01*
X166184935Y-137294399D01*
X165297601Y-137294399D01*
X165297601Y-137758949D01*
X166128607Y-137758949D01*
X166128607Y-137933338D01*
X165297601Y-137933338D01*
X165297601Y-138452110D01*
X166219831Y-138452110D01*
X166219831Y-138626500D01*
X165098757Y-138626500D01*
G37*
G36*
X166498268Y-138626500D02*
G01*
X166498268Y-137120010D01*
X167584447Y-137120010D01*
X167584447Y-137294399D01*
X166697112Y-137294399D01*
X166697112Y-137758949D01*
X167528118Y-137758949D01*
X167528118Y-137933338D01*
X166697112Y-137933338D01*
X166697112Y-138452110D01*
X167619343Y-138452110D01*
X167619343Y-138626500D01*
X166498268Y-138626500D01*
G37*
G36*
X168275959Y-138626500D02*
G01*
X168275959Y-137294399D01*
X167781001Y-137294399D01*
X167781001Y-137120010D01*
X168971685Y-137120010D01*
X168971685Y-137294399D01*
X168474712Y-137294399D01*
X168474712Y-138626500D01*
X168275959Y-138626500D01*
G37*
G36*
X119927079Y-131830884D02*
G01*
X120044046Y-131844397D01*
X120182904Y-131881273D01*
X120291342Y-131937820D01*
X120352404Y-131988756D01*
X120405822Y-132052500D01*
X120451810Y-132130772D01*
X120485322Y-132215254D01*
X120505679Y-132305705D01*
X120512626Y-132403347D01*
X120502053Y-132528317D01*
X120471358Y-132640408D01*
X120421018Y-132742016D01*
X120350083Y-132834924D01*
X120283744Y-132892267D01*
X120196868Y-132940065D01*
X120084947Y-132977432D01*
X119942382Y-133002260D01*
X119762678Y-133011390D01*
X119248914Y-133011390D01*
X119248914Y-133834000D01*
X118983910Y-133834000D01*
X118983910Y-132778870D01*
X119248914Y-132778870D01*
X119766709Y-132778870D01*
X119899295Y-132771271D01*
X120000190Y-132750949D01*
X120075812Y-132720837D01*
X120131485Y-132682639D01*
X120190192Y-132611830D01*
X120226473Y-132523246D01*
X120239441Y-132411529D01*
X120232002Y-132329123D01*
X120210657Y-132257559D01*
X120175937Y-132194764D01*
X120128701Y-132141108D01*
X120073341Y-132101810D01*
X120008509Y-132075695D01*
X119927489Y-132063443D01*
X119761213Y-132057866D01*
X119248914Y-132057866D01*
X119248914Y-132778870D01*
X118983910Y-132778870D01*
X118983910Y-131825346D01*
X119739353Y-131825346D01*
X119927079Y-131830884D01*
G37*
G36*
X122278990Y-133130580D02*
G01*
X122543994Y-133197503D01*
X122491417Y-133357026D01*
X122423575Y-133490773D01*
X122341218Y-133602306D01*
X122244064Y-133694293D01*
X122131806Y-133768009D01*
X122007673Y-133821145D01*
X121869524Y-133853909D01*
X121714667Y-133865263D01*
X121551349Y-133855983D01*
X121411280Y-133829802D01*
X121291106Y-133788619D01*
X121187958Y-133733494D01*
X121094035Y-133661465D01*
X121011588Y-133574829D01*
X120939997Y-133472204D01*
X120879235Y-133351620D01*
X120820763Y-133182098D01*
X120785364Y-133003697D01*
X120773355Y-132814652D01*
X120787500Y-132608880D01*
X120827972Y-132428257D01*
X120892912Y-132268891D01*
X120959944Y-132158075D01*
X121038597Y-132063030D01*
X121129322Y-131982291D01*
X121233143Y-131914983D01*
X121384208Y-131848151D01*
X121545283Y-131807807D01*
X121718819Y-131794083D01*
X121868279Y-131804310D01*
X122000692Y-131833688D01*
X122118655Y-131881015D01*
X122224280Y-131946124D01*
X122317607Y-132028372D01*
X122395991Y-132125741D01*
X122460119Y-132239946D01*
X122509800Y-132373427D01*
X122248949Y-132434976D01*
X122191872Y-132296036D01*
X122124191Y-132192639D01*
X122046715Y-132118071D01*
X121953769Y-132064198D01*
X121843996Y-132030642D01*
X121713324Y-132018787D01*
X121562875Y-132032024D01*
X121435673Y-132069551D01*
X121327298Y-132129795D01*
X121234396Y-132211973D01*
X121162176Y-132310453D01*
X121109434Y-132427649D01*
X121074566Y-132553563D01*
X121053666Y-132681834D01*
X121046663Y-132813187D01*
X121055586Y-132982871D01*
X121080933Y-133131032D01*
X121121035Y-133260517D01*
X121181427Y-133379541D01*
X121258335Y-133473554D01*
X121352577Y-133546037D01*
X121460561Y-133598673D01*
X121573372Y-133630008D01*
X121692808Y-133640559D01*
X121802698Y-133632087D01*
X121900941Y-133607590D01*
X121989504Y-133567708D01*
X122069919Y-133512087D01*
X122138167Y-133443329D01*
X122195931Y-133358603D01*
X122243168Y-133255426D01*
X122278990Y-133130580D01*
G37*
G36*
X123763588Y-131833172D02*
G01*
X123884412Y-131854402D01*
X123978921Y-131886285D01*
X124065203Y-131934468D01*
X124137106Y-131996542D01*
X124196175Y-132073619D01*
X124240325Y-132160500D01*
X124266139Y-132248207D01*
X124274699Y-132338134D01*
X124266999Y-132421936D01*
X124243974Y-132502234D01*
X124204967Y-132580301D01*
X124152198Y-132649443D01*
X124082945Y-132710414D01*
X123994674Y-132763483D01*
X124109576Y-132809137D01*
X124201520Y-132869977D01*
X124274088Y-132946055D01*
X124327929Y-133036262D01*
X124360542Y-133136899D01*
X124371785Y-133250748D01*
X124356759Y-133387794D01*
X124312312Y-133513553D01*
X124243889Y-133623563D01*
X124165400Y-133700887D01*
X124069878Y-133757296D01*
X123946070Y-133800416D01*
X123806700Y-133824828D01*
X123623059Y-133834000D01*
X122859311Y-133834000D01*
X122859311Y-133601480D01*
X123124437Y-133601480D01*
X123623059Y-133601480D01*
X123803432Y-133591711D01*
X123889796Y-133568665D01*
X123956328Y-133536267D01*
X124011465Y-133489600D01*
X124057445Y-133423183D01*
X124086853Y-133344727D01*
X124097134Y-133251725D01*
X124090471Y-133177637D01*
X124071226Y-133112293D01*
X124039737Y-133054010D01*
X123996779Y-133003790D01*
X123944195Y-132964672D01*
X123880491Y-132936041D01*
X123767397Y-132911832D01*
X123587521Y-132901969D01*
X123124437Y-132901969D01*
X123124437Y-133601480D01*
X122859311Y-133601480D01*
X122859311Y-132669450D01*
X123124437Y-132669450D01*
X123557480Y-132669450D01*
X123721251Y-132662349D01*
X123810271Y-132646002D01*
X123900776Y-132604359D01*
X123962556Y-132545252D01*
X124000370Y-132468065D01*
X124013847Y-132368542D01*
X124001547Y-132272522D01*
X123965976Y-132191100D01*
X123929535Y-132145378D01*
X123884447Y-132110677D01*
X123829322Y-132086198D01*
X123724670Y-132066543D01*
X123524629Y-132057866D01*
X123124437Y-132057866D01*
X123124437Y-132669450D01*
X122859311Y-132669450D01*
X122859311Y-131825346D01*
X123610725Y-131825346D01*
X123763588Y-131833172D01*
G37*
G36*
X124609189Y-133232185D02*
G01*
X124609189Y-132982080D01*
X125364755Y-132982080D01*
X125364755Y-133232185D01*
X124609189Y-133232185D01*
G37*
G36*
X125682026Y-133834000D02*
G01*
X125682026Y-131825346D01*
X127033177Y-131825346D01*
X127033177Y-132057866D01*
X125947030Y-132057866D01*
X125947030Y-132685081D01*
X126886998Y-132685081D01*
X126886998Y-132917600D01*
X125947030Y-132917600D01*
X125947030Y-133834000D01*
X125682026Y-133834000D01*
G37*
G36*
X127367057Y-133834000D02*
G01*
X127367057Y-131825346D01*
X127632183Y-131825346D01*
X127632183Y-133601480D01*
X128618558Y-133601480D01*
X128618558Y-133834000D01*
X127367057Y-133834000D01*
G37*
G36*
X128925205Y-133834000D02*
G01*
X128925205Y-131825346D01*
X129324053Y-131825346D01*
X129798129Y-133248183D01*
X129893750Y-133545671D01*
X130000362Y-133223515D01*
X130479933Y-131825346D01*
X130836527Y-131825346D01*
X130836527Y-133834000D01*
X130581049Y-133834000D01*
X130581049Y-132151899D01*
X129999018Y-133834000D01*
X129759905Y-133834000D01*
X129180683Y-132123200D01*
X129180683Y-133834000D01*
X128925205Y-133834000D01*
G37*
G36*
X131137312Y-133232185D02*
G01*
X131137312Y-132982080D01*
X131892877Y-132982080D01*
X131892877Y-133232185D01*
X131137312Y-133232185D01*
G37*
G36*
X132210149Y-133834000D02*
G01*
X132210149Y-131825346D01*
X133561300Y-131825346D01*
X133561300Y-132057866D01*
X132475152Y-132057866D01*
X132475152Y-132685081D01*
X133415121Y-132685081D01*
X133415121Y-132917600D01*
X132475152Y-132917600D01*
X132475152Y-133834000D01*
X132210149Y-133834000D01*
G37*
G36*
X134415784Y-133834000D02*
G01*
X134415784Y-132057866D01*
X133755840Y-132057866D01*
X133755840Y-131825346D01*
X135343418Y-131825346D01*
X135343418Y-132057866D01*
X134680787Y-132057866D01*
X134680787Y-133834000D01*
X134415784Y-133834000D01*
G37*
G36*
X135621244Y-133834000D02*
G01*
X135621244Y-131825346D01*
X137069482Y-131825346D01*
X137069482Y-132057866D01*
X135886370Y-132057866D01*
X135886370Y-132677265D01*
X136994378Y-132677265D01*
X136994378Y-132909785D01*
X135886370Y-132909785D01*
X135886370Y-133601480D01*
X137116011Y-133601480D01*
X137116011Y-133834000D01*
X135621244Y-133834000D01*
G37*
G36*
X137354758Y-133232185D02*
G01*
X137354758Y-132982080D01*
X138110323Y-132982080D01*
X138110323Y-133232185D01*
X137354758Y-133232185D01*
G37*
G36*
X139240435Y-133834000D02*
G01*
X138994482Y-133834000D01*
X138994482Y-132262785D01*
X138896613Y-132344214D01*
X138761597Y-132432656D01*
X138619507Y-132509539D01*
X138502699Y-132560029D01*
X138502699Y-132325556D01*
X138636465Y-132254394D01*
X138756310Y-132175243D01*
X138863324Y-132088152D01*
X138961502Y-131990309D01*
X139032907Y-131900486D01*
X139081921Y-131817531D01*
X139240435Y-131817531D01*
X139240435Y-133834000D01*
G37*
G36*
X141161893Y-133601480D02*
G01*
X141161893Y-133834000D01*
X139838097Y-133834000D01*
X139843888Y-133746929D01*
X139866796Y-133663518D01*
X139930746Y-133532521D01*
X140028607Y-133397660D01*
X140155346Y-133265403D01*
X140350397Y-133094921D01*
X140566505Y-132907967D01*
X140707297Y-132769278D01*
X140791621Y-132668717D01*
X140858456Y-132559622D01*
X140894981Y-132461484D01*
X140906415Y-132371351D01*
X140894618Y-132277908D01*
X140860151Y-132196367D01*
X140801879Y-132123689D01*
X140726830Y-132068460D01*
X140637370Y-132034613D01*
X140529427Y-132022695D01*
X140415421Y-132035438D01*
X140322200Y-132071455D01*
X140245128Y-132130039D01*
X140187446Y-132207671D01*
X140150997Y-132304860D01*
X140137295Y-132427161D01*
X139884503Y-132401027D01*
X139908204Y-132260153D01*
X139949406Y-132143371D01*
X140006635Y-132046624D01*
X140079898Y-131966885D01*
X140168193Y-131903624D01*
X140271431Y-131857172D01*
X140392439Y-131827894D01*
X140534800Y-131817531D01*
X140678010Y-131828625D01*
X140799416Y-131859988D01*
X140902830Y-131909893D01*
X140991168Y-131978242D01*
X141065068Y-132063893D01*
X141116961Y-132157507D01*
X141148399Y-132260827D01*
X141159207Y-132376358D01*
X141147046Y-132495438D01*
X141109992Y-132613884D01*
X141047828Y-132728769D01*
X140946715Y-132859715D01*
X140810979Y-132997644D01*
X140567651Y-133213867D01*
X140367096Y-133387614D01*
X140283352Y-133467513D01*
X140225065Y-133535554D01*
X140179671Y-133601480D01*
X141161893Y-133601480D01*
G37*
G36*
X142096977Y-133834000D02*
G01*
X141321018Y-131825346D01*
X141607881Y-131825346D01*
X142128484Y-133285064D01*
X142233631Y-133614059D01*
X142341586Y-133285064D01*
X142882584Y-131825346D01*
X143153083Y-131825346D01*
X142368942Y-133834000D01*
X142096977Y-133834000D01*
G37*
G36*
X119877196Y-140933172D02*
G01*
X119998019Y-140954402D01*
X120092528Y-140986285D01*
X120178811Y-141034468D01*
X120250713Y-141096542D01*
X120309782Y-141173619D01*
X120353933Y-141260500D01*
X120379747Y-141348207D01*
X120388307Y-141438134D01*
X120380607Y-141521936D01*
X120357582Y-141602234D01*
X120318575Y-141680301D01*
X120265806Y-141749443D01*
X120196552Y-141810414D01*
X120108282Y-141863483D01*
X120223184Y-141909137D01*
X120315128Y-141969977D01*
X120387696Y-142046055D01*
X120441537Y-142136262D01*
X120474150Y-142236899D01*
X120485393Y-142350748D01*
X120470366Y-142487794D01*
X120425920Y-142613553D01*
X120357496Y-142723563D01*
X120279008Y-142800887D01*
X120183486Y-142857296D01*
X120059678Y-142900416D01*
X119920308Y-142924828D01*
X119736667Y-142934000D01*
X118972919Y-142934000D01*
X118972919Y-142701480D01*
X119238045Y-142701480D01*
X119736667Y-142701480D01*
X119917040Y-142691711D01*
X120003404Y-142668665D01*
X120069936Y-142636267D01*
X120125073Y-142589600D01*
X120171053Y-142523183D01*
X120200461Y-142444727D01*
X120210742Y-142351725D01*
X120204079Y-142277637D01*
X120184834Y-142212293D01*
X120153345Y-142154010D01*
X120110387Y-142103790D01*
X120057803Y-142064672D01*
X119994099Y-142036041D01*
X119881005Y-142011832D01*
X119701129Y-142001969D01*
X119238045Y-142001969D01*
X119238045Y-142701480D01*
X118972919Y-142701480D01*
X118972919Y-141769450D01*
X119238045Y-141769450D01*
X119671087Y-141769450D01*
X119834858Y-141762349D01*
X119923879Y-141746002D01*
X120014384Y-141704359D01*
X120076164Y-141645252D01*
X120113977Y-141568065D01*
X120127455Y-141468542D01*
X120115155Y-141372522D01*
X120079584Y-141291100D01*
X120043143Y-141245378D01*
X119998055Y-141210677D01*
X119942930Y-141186198D01*
X119838277Y-141166543D01*
X119638237Y-141157866D01*
X119238045Y-141157866D01*
X119238045Y-141769450D01*
X118972919Y-141769450D01*
X118972919Y-140925346D01*
X119724332Y-140925346D01*
X119877196Y-140933172D01*
G37*
G36*
X121553841Y-141461946D02*
G01*
X121682074Y-141499180D01*
X121795433Y-141559818D01*
X121896384Y-141645008D01*
X121976856Y-141748124D01*
X122035837Y-141870104D01*
X122073063Y-142014655D01*
X122086283Y-142186616D01*
X122075416Y-142372580D01*
X122046120Y-142516736D01*
X122002263Y-142627230D01*
X121937674Y-142726330D01*
X121856677Y-142808934D01*
X121757654Y-142876480D01*
X121647792Y-142925669D01*
X121531578Y-142955239D01*
X121407288Y-142965263D01*
X121257712Y-142952240D01*
X121128061Y-142914943D01*
X121014634Y-142854506D01*
X120914772Y-142769990D01*
X120836156Y-142667482D01*
X120777737Y-142542770D01*
X120740367Y-142391272D01*
X120726949Y-142207133D01*
X120726996Y-142206400D01*
X120979618Y-142206400D01*
X120988647Y-142347303D01*
X121013429Y-142460332D01*
X121051385Y-142550552D01*
X121101251Y-142622101D01*
X121166740Y-142683039D01*
X121238528Y-142725577D01*
X121318009Y-142751268D01*
X121407288Y-142760099D01*
X121495811Y-142751255D01*
X121574835Y-142725487D01*
X121646435Y-142682737D01*
X121711981Y-142621369D01*
X121761639Y-142549592D01*
X121799613Y-142458273D01*
X121824512Y-142342988D01*
X121833614Y-142198340D01*
X121824657Y-142062815D01*
X121799929Y-141952861D01*
X121761774Y-141863918D01*
X121711248Y-141792286D01*
X121645433Y-141731124D01*
X121573840Y-141688562D01*
X121495132Y-141662946D01*
X121407288Y-141654167D01*
X121317973Y-141662966D01*
X121238478Y-141688558D01*
X121166703Y-141730914D01*
X121101251Y-141791554D01*
X121051407Y-141862755D01*
X121013452Y-141952692D01*
X120988657Y-142065537D01*
X120979618Y-142206400D01*
X120726996Y-142206400D01*
X120737407Y-142042776D01*
X120766704Y-141904741D01*
X120812568Y-141788809D01*
X120873939Y-141691492D01*
X120951042Y-141610203D01*
X121048837Y-141540191D01*
X121156150Y-141490192D01*
X121274828Y-141459572D01*
X121407288Y-141449003D01*
X121553841Y-141461946D01*
G37*
G36*
X122910725Y-142709296D02*
G01*
X122946262Y-142934000D01*
X122760393Y-142949631D01*
X122635389Y-142937761D01*
X122552787Y-142907377D01*
X122489145Y-142857503D01*
X122448983Y-142796124D01*
X122428644Y-142708196D01*
X122418942Y-142505964D01*
X122418942Y-141671752D01*
X122238568Y-141671752D01*
X122238568Y-141480266D01*
X122418942Y-141480266D01*
X122418942Y-141120130D01*
X122663429Y-140972241D01*
X122663429Y-141480266D01*
X122910725Y-141480266D01*
X122910725Y-141671752D01*
X122663429Y-141671752D01*
X122663429Y-142523305D01*
X122667683Y-142619618D01*
X122676374Y-142659104D01*
X122693388Y-142686056D01*
X122718750Y-142707098D01*
X122751927Y-142719909D01*
X122802769Y-142724928D01*
X122910725Y-142709296D01*
G37*
G36*
X123688394Y-142709296D02*
G01*
X123723931Y-142934000D01*
X123538062Y-142949631D01*
X123413058Y-142937761D01*
X123330456Y-142907377D01*
X123266814Y-142857503D01*
X123226653Y-142796124D01*
X123206314Y-142708196D01*
X123196611Y-142505964D01*
X123196611Y-141671752D01*
X123016237Y-141671752D01*
X123016237Y-141480266D01*
X123196611Y-141480266D01*
X123196611Y-141120130D01*
X123441098Y-140972241D01*
X123441098Y-141480266D01*
X123688394Y-141480266D01*
X123688394Y-141671752D01*
X123441098Y-141671752D01*
X123441098Y-142523305D01*
X123445352Y-142619618D01*
X123454043Y-142659104D01*
X123471057Y-142686056D01*
X123496419Y-142707098D01*
X123529597Y-142719909D01*
X123580438Y-142724928D01*
X123688394Y-142709296D01*
G37*
G36*
X124664518Y-141461946D02*
G01*
X124792751Y-141499180D01*
X124906110Y-141559818D01*
X125007061Y-141645008D01*
X125087533Y-141748124D01*
X125146514Y-141870104D01*
X125183739Y-142014655D01*
X125196960Y-142186616D01*
X125186093Y-142372580D01*
X125156797Y-142516736D01*
X125112940Y-142627230D01*
X125048351Y-142726330D01*
X124967354Y-142808934D01*
X124868331Y-142876480D01*
X124758469Y-142925669D01*
X124642255Y-142955239D01*
X124517965Y-142965263D01*
X124368389Y-142952240D01*
X124238738Y-142914943D01*
X124125311Y-142854506D01*
X124025449Y-142769990D01*
X123946833Y-142667482D01*
X123888414Y-142542770D01*
X123851044Y-142391272D01*
X123837626Y-142207133D01*
X123837673Y-142206400D01*
X124090295Y-142206400D01*
X124099324Y-142347303D01*
X124124106Y-142460332D01*
X124162062Y-142550552D01*
X124211928Y-142622101D01*
X124277417Y-142683039D01*
X124349205Y-142725577D01*
X124428686Y-142751268D01*
X124517965Y-142760099D01*
X124606488Y-142751255D01*
X124685512Y-142725487D01*
X124757112Y-142682737D01*
X124822658Y-142621369D01*
X124872316Y-142549592D01*
X124910289Y-142458273D01*
X124935189Y-142342988D01*
X124944290Y-142198340D01*
X124935334Y-142062815D01*
X124910606Y-141952861D01*
X124872451Y-141863918D01*
X124821925Y-141792286D01*
X124756110Y-141731124D01*
X124684517Y-141688562D01*
X124605809Y-141662946D01*
X124517965Y-141654167D01*
X124428650Y-141662966D01*
X124349155Y-141688558D01*
X124277380Y-141730914D01*
X124211928Y-141791554D01*
X124162084Y-141862755D01*
X124124129Y-141952692D01*
X124099334Y-142065537D01*
X124090295Y-142206400D01*
X123837673Y-142206400D01*
X123848083Y-142042776D01*
X123877381Y-141904741D01*
X123923245Y-141788809D01*
X123984616Y-141691492D01*
X124061719Y-141610203D01*
X124159514Y-141540191D01*
X124266827Y-141490192D01*
X124385505Y-141459572D01*
X124517965Y-141449003D01*
X124664518Y-141461946D01*
G37*
G36*
X125484434Y-142934000D02*
G01*
X125484434Y-141480266D01*
X125704496Y-141480266D01*
X125704496Y-141683232D01*
X125783638Y-141588312D01*
X125886091Y-141513361D01*
X125963986Y-141478033D01*
X126049542Y-141456439D01*
X126144378Y-141449003D01*
X126250090Y-141457140D01*
X126337023Y-141479831D01*
X126408648Y-141515437D01*
X126470620Y-141565454D01*
X126518828Y-141626737D01*
X126554217Y-141700939D01*
X126630406Y-141606966D01*
X126712203Y-141537160D01*
X126800343Y-141488405D01*
X126896348Y-141459043D01*
X127002403Y-141449003D01*
X127109845Y-141457420D01*
X127198872Y-141480984D01*
X127272850Y-141518134D01*
X127334329Y-141568682D01*
X127382072Y-141631296D01*
X127418253Y-141710838D01*
X127441855Y-141811167D01*
X127450466Y-141937122D01*
X127450466Y-142934000D01*
X127205979Y-142934000D01*
X127205979Y-142017600D01*
X127198758Y-141880056D01*
X127182043Y-141804621D01*
X127148750Y-141746342D01*
X127095215Y-141699840D01*
X127028159Y-141670311D01*
X126947692Y-141660029D01*
X126849944Y-141671753D01*
X126766343Y-141705630D01*
X126693558Y-141762122D01*
X126640751Y-141836802D01*
X126605683Y-141942240D01*
X126592441Y-142088797D01*
X126592441Y-142934000D01*
X126346611Y-142934000D01*
X126346611Y-141988780D01*
X126338685Y-141880316D01*
X126317655Y-141800317D01*
X126286405Y-141742217D01*
X126240354Y-141698193D01*
X126176785Y-141670318D01*
X126089667Y-141660029D01*
X125989775Y-141673736D01*
X125897692Y-141714861D01*
X125844852Y-141756497D01*
X125802459Y-141809325D01*
X125769953Y-141875085D01*
X125741817Y-141992595D01*
X125730386Y-142179167D01*
X125730386Y-142934000D01*
X125484434Y-142934000D01*
G37*
G36*
X128534416Y-142283825D02*
G01*
X128784521Y-142261843D01*
X128802655Y-142362241D01*
X128830537Y-142445132D01*
X128867075Y-142513291D01*
X128916136Y-142572441D01*
X128982250Y-142625410D01*
X129068575Y-142672171D01*
X129161462Y-142705270D01*
X129263465Y-142725691D01*
X129376077Y-142732743D01*
X129522171Y-142720876D01*
X129643767Y-142687558D01*
X129717509Y-142651975D01*
X129774184Y-142610604D01*
X129816569Y-142563605D01*
X129859309Y-142480687D01*
X129873355Y-142391536D01*
X129859478Y-142302428D01*
X129818645Y-142226550D01*
X129751102Y-142164829D01*
X129638394Y-142107970D01*
X129533217Y-142074492D01*
X129281799Y-142010029D01*
X129027747Y-141939044D01*
X128895163Y-141884610D01*
X128804683Y-141828171D01*
X128734337Y-141765896D01*
X128681328Y-141697642D01*
X128642405Y-141620658D01*
X128618971Y-141537855D01*
X128610986Y-141447660D01*
X128620485Y-141348717D01*
X128648859Y-141254497D01*
X128696960Y-141163361D01*
X128761837Y-141083586D01*
X128844726Y-141016813D01*
X128948408Y-140962593D01*
X129060533Y-140925103D01*
X129182548Y-140902026D01*
X129315993Y-140894083D01*
X129463064Y-140902595D01*
X129593214Y-140926956D01*
X129708736Y-140965891D01*
X129815342Y-141022471D01*
X129901683Y-141092616D01*
X129970320Y-141176916D01*
X130021682Y-141273168D01*
X130054491Y-141377676D01*
X130068750Y-141492356D01*
X129814615Y-141511529D01*
X129788484Y-141390245D01*
X129741935Y-141296270D01*
X129675885Y-141223933D01*
X129591584Y-141172836D01*
X129478129Y-141139147D01*
X129326862Y-141126602D01*
X129168126Y-141138446D01*
X129055087Y-141169412D01*
X128976374Y-141214774D01*
X128913882Y-141279560D01*
X128878331Y-141349525D01*
X128866464Y-141427387D01*
X128875334Y-141495883D01*
X128901054Y-141554279D01*
X128944378Y-141605074D01*
X129003028Y-141642674D01*
X129124831Y-141689954D01*
X129343959Y-141747956D01*
X129640696Y-141823608D01*
X129787260Y-141875695D01*
X129898113Y-141937238D01*
X129982793Y-142005405D01*
X130045424Y-142080127D01*
X130091400Y-142165892D01*
X130119263Y-142260184D01*
X130128833Y-142365158D01*
X130118772Y-142469180D01*
X130088600Y-142569119D01*
X130037242Y-142666676D01*
X129968625Y-142752701D01*
X129881832Y-142825884D01*
X129774315Y-142886739D01*
X129657642Y-142929677D01*
X129529608Y-142956132D01*
X129388289Y-142965263D01*
X129208062Y-142955425D01*
X129057725Y-142928042D01*
X128932654Y-142885639D01*
X128817867Y-142822793D01*
X128722526Y-142743240D01*
X128644448Y-142645915D01*
X128586065Y-142535263D01*
X128549390Y-142415316D01*
X128534416Y-142283825D01*
G37*
G36*
X130460637Y-141206714D02*
G01*
X130460637Y-140925346D01*
X130706468Y-140925346D01*
X130706468Y-141206714D01*
X130460637Y-141206714D01*
G37*
G36*
X130460637Y-142934000D02*
G01*
X130460637Y-141480266D01*
X130706468Y-141480266D01*
X130706468Y-142934000D01*
X130460637Y-142934000D01*
G37*
G36*
X131075152Y-142934000D02*
G01*
X131075152Y-140925346D01*
X131320983Y-140925346D01*
X131320983Y-142934000D01*
X131075152Y-142934000D01*
G37*
G36*
X131703345Y-142934000D02*
G01*
X131703345Y-140925346D01*
X131949175Y-140925346D01*
X131949175Y-142071578D01*
X132531206Y-141480266D01*
X132849577Y-141480266D01*
X132294901Y-142019554D01*
X132905630Y-142934000D01*
X132602281Y-142934000D01*
X132122710Y-142190646D01*
X131949175Y-142357709D01*
X131949175Y-142934000D01*
X131703345Y-142934000D01*
G37*
G36*
X133002595Y-142495584D02*
G01*
X133245739Y-142457237D01*
X133268695Y-142550574D01*
X133306864Y-142624247D01*
X133359800Y-142682063D01*
X133426497Y-142723622D01*
X133512005Y-142750349D01*
X133621506Y-142760099D01*
X133732725Y-142751129D01*
X133814125Y-142727322D01*
X133872832Y-142691711D01*
X133919632Y-142641785D01*
X133946119Y-142588942D01*
X133954898Y-142531243D01*
X133946835Y-142480068D01*
X133923287Y-142437512D01*
X133882480Y-142401306D01*
X133812532Y-142370581D01*
X133631032Y-142318752D01*
X133382271Y-142248680D01*
X133255997Y-142200538D01*
X133162974Y-142140049D01*
X133097483Y-142062419D01*
X133057099Y-141969904D01*
X133043505Y-141867513D01*
X133054711Y-141773658D01*
X133087958Y-141687750D01*
X133140406Y-141611977D01*
X133208858Y-141550242D01*
X133272865Y-141512866D01*
X133365295Y-141478434D01*
X133466722Y-141456530D01*
X133577787Y-141449003D01*
X133742094Y-141462133D01*
X133877595Y-141498829D01*
X133959768Y-141538064D01*
X134022195Y-141583165D01*
X134068226Y-141633895D01*
X134118419Y-141728705D01*
X134152979Y-141861651D01*
X133912521Y-141894502D01*
X133893976Y-141822849D01*
X133862344Y-141764791D01*
X133817511Y-141717792D01*
X133761697Y-141684067D01*
X133689234Y-141662194D01*
X133595494Y-141654167D01*
X133483021Y-141661853D01*
X133405466Y-141681610D01*
X133353694Y-141709854D01*
X133312070Y-141750908D01*
X133288884Y-141793832D01*
X133281276Y-141840280D01*
X133288755Y-141885406D01*
X133311318Y-141925887D01*
X133347883Y-141960494D01*
X133405595Y-141991100D01*
X133622849Y-142053626D01*
X133863286Y-142122912D01*
X133986893Y-142167565D01*
X134079841Y-142222664D01*
X134148826Y-142296526D01*
X134180672Y-142355532D01*
X134200550Y-142424803D01*
X134207567Y-142506697D01*
X134199703Y-142586509D01*
X134176107Y-142663200D01*
X134135882Y-142738117D01*
X134082154Y-142803832D01*
X134013873Y-142859656D01*
X133928886Y-142905912D01*
X133836930Y-142938293D01*
X133735430Y-142958327D01*
X133622849Y-142965263D01*
X133479189Y-142956531D01*
X133362415Y-142932450D01*
X133267892Y-142895443D01*
X133191761Y-142846805D01*
X133126412Y-142782921D01*
X133073046Y-142704729D01*
X133031491Y-142609972D01*
X133002595Y-142495584D01*
G37*
G36*
X135446733Y-142402527D02*
G01*
X135688533Y-142433912D01*
X135659677Y-142556012D01*
X135615987Y-142660118D01*
X135558119Y-142748908D01*
X135485690Y-142824334D01*
X135400360Y-142885433D01*
X135306296Y-142929154D01*
X135201825Y-142955984D01*
X135084765Y-142965263D01*
X134938745Y-142952287D01*
X134812558Y-142915145D01*
X134702462Y-142854935D01*
X134605805Y-142770601D01*
X134530185Y-142668859D01*
X134473856Y-142545152D01*
X134437778Y-142394973D01*
X134424821Y-142212628D01*
X134434080Y-142057492D01*
X134460500Y-141921320D01*
X134502612Y-141801445D01*
X134564527Y-141692439D01*
X134643102Y-141605217D01*
X134739650Y-141537175D01*
X134848664Y-141488280D01*
X134963590Y-141458935D01*
X135086108Y-141449003D01*
X135203843Y-141457259D01*
X135305933Y-141480767D01*
X135394861Y-141518318D01*
X135472623Y-141569659D01*
X135539647Y-141634678D01*
X135593990Y-141712173D01*
X135636058Y-141803906D01*
X135665330Y-141912332D01*
X135426217Y-141949212D01*
X135395849Y-141855235D01*
X135355308Y-141782932D01*
X135305316Y-141728295D01*
X135244015Y-141687380D01*
X135174869Y-141662691D01*
X135095634Y-141654167D01*
X135005281Y-141662813D01*
X134926247Y-141687752D01*
X134856249Y-141728640D01*
X134793750Y-141786669D01*
X134746845Y-141855026D01*
X134710552Y-141944153D01*
X134686487Y-142059055D01*
X134677612Y-142205789D01*
X134686267Y-142355171D01*
X134709638Y-142471312D01*
X134744671Y-142560593D01*
X134789598Y-142628330D01*
X134850102Y-142686160D01*
X134917871Y-142726790D01*
X134994400Y-142751528D01*
X135081956Y-142760099D01*
X135175123Y-142749913D01*
X135254729Y-142720642D01*
X135323757Y-142672415D01*
X135377869Y-142607777D01*
X135419407Y-142519897D01*
X135446733Y-142402527D01*
G37*
G36*
X135896262Y-142934000D02*
G01*
X135896262Y-141480266D01*
X136117546Y-141480266D01*
X136117546Y-141699718D01*
X136206296Y-141563497D01*
X136273983Y-141497852D01*
X136349432Y-141461184D01*
X136431764Y-141449003D01*
X136512711Y-141457251D01*
X136596468Y-141482800D01*
X136684556Y-141527771D01*
X136599926Y-141754429D01*
X136508001Y-141713903D01*
X136419552Y-141701062D01*
X136343038Y-141713215D01*
X136274716Y-141749666D01*
X136220377Y-141806712D01*
X136183125Y-141884610D01*
X136152763Y-142020063D01*
X136142214Y-142172328D01*
X136142214Y-142934000D01*
X135896262Y-142934000D01*
G37*
G36*
X137568795Y-141462003D02*
G01*
X137693294Y-141499464D01*
X137803603Y-141560678D01*
X137902106Y-141647084D01*
X137979629Y-141750673D01*
X138037025Y-141875069D01*
X138073570Y-142024436D01*
X138086632Y-142204080D01*
X138085166Y-142269659D01*
X137003170Y-142269659D01*
X137018157Y-142388665D01*
X137046552Y-142486821D01*
X137086794Y-142567616D01*
X137138359Y-142633825D01*
X137226112Y-142703970D01*
X137325926Y-142745724D01*
X137441709Y-142760099D01*
X137529596Y-142751876D01*
X137605807Y-142728262D01*
X137672640Y-142689757D01*
X137729097Y-142636886D01*
X137779802Y-142563522D01*
X137824315Y-142465053D01*
X138078450Y-142496438D01*
X138025361Y-142637075D01*
X137951236Y-142750967D01*
X137855700Y-142842286D01*
X137771969Y-142894491D01*
X137676298Y-142932801D01*
X137566610Y-142956824D01*
X137440365Y-142965263D01*
X137283432Y-142951960D01*
X137149618Y-142914157D01*
X137034676Y-142853447D01*
X136935515Y-142769258D01*
X136856955Y-142666431D01*
X136798984Y-142543403D01*
X136762171Y-142396143D01*
X136749036Y-142219467D01*
X136760323Y-142064495D01*
X137016848Y-142064495D01*
X137827002Y-142064495D01*
X137807456Y-141946548D01*
X137775719Y-141858583D01*
X137734067Y-141794118D01*
X137670473Y-141732505D01*
X137599640Y-141689378D01*
X137520050Y-141663211D01*
X137429374Y-141654167D01*
X137320981Y-141666947D01*
X137227204Y-141704007D01*
X137144587Y-141765908D01*
X137080262Y-141846750D01*
X137037515Y-141944831D01*
X137016848Y-142064495D01*
X136760323Y-142064495D01*
X136762375Y-142036313D01*
X136799704Y-141883960D01*
X136858352Y-141757012D01*
X136937591Y-141651236D01*
X137038270Y-141563178D01*
X137151492Y-141500665D01*
X137279770Y-141462329D01*
X137426688Y-141449003D01*
X137568795Y-141462003D01*
G37*
G36*
X139124134Y-141462003D02*
G01*
X139248633Y-141499464D01*
X139358941Y-141560678D01*
X139457445Y-141647084D01*
X139534967Y-141750673D01*
X139592364Y-141875069D01*
X139628909Y-142024436D01*
X139641970Y-142204080D01*
X139640505Y-142269659D01*
X138558509Y-142269659D01*
X138573495Y-142388665D01*
X138601890Y-142486821D01*
X138642132Y-142567616D01*
X138693697Y-142633825D01*
X138781450Y-142703970D01*
X138881264Y-142745724D01*
X138997047Y-142760099D01*
X139084934Y-142751876D01*
X139161146Y-142728262D01*
X139227979Y-142689757D01*
X139284436Y-142636886D01*
X139335141Y-142563522D01*
X139379653Y-142465053D01*
X139633788Y-142496438D01*
X139580700Y-142637075D01*
X139506574Y-142750967D01*
X139411039Y-142842286D01*
X139327308Y-142894491D01*
X139231637Y-142932801D01*
X139121949Y-142956824D01*
X138995704Y-142965263D01*
X138838771Y-142951960D01*
X138704957Y-142914157D01*
X138590015Y-142853447D01*
X138490854Y-142769258D01*
X138412293Y-142666431D01*
X138354323Y-142543403D01*
X138317509Y-142396143D01*
X138304374Y-142219467D01*
X138315661Y-142064495D01*
X138572187Y-142064495D01*
X139382340Y-142064495D01*
X139362795Y-141946548D01*
X139331057Y-141858583D01*
X139289406Y-141794118D01*
X139225811Y-141732505D01*
X139154978Y-141689378D01*
X139075389Y-141663211D01*
X138984713Y-141654167D01*
X138876319Y-141666947D01*
X138782543Y-141704007D01*
X138699926Y-141765908D01*
X138635600Y-141846750D01*
X138592854Y-141944831D01*
X138572187Y-142064495D01*
X138315661Y-142064495D01*
X138317713Y-142036313D01*
X138355043Y-141883960D01*
X138413691Y-141757012D01*
X138492930Y-141651236D01*
X138593609Y-141563178D01*
X138706830Y-141500665D01*
X138835108Y-141462329D01*
X138982026Y-141449003D01*
X139124134Y-141462003D01*
G37*
G36*
X139941656Y-142934000D02*
G01*
X139941656Y-141480266D01*
X140163062Y-141480266D01*
X140163062Y-141685919D01*
X140233295Y-141600017D01*
X140312999Y-141534735D01*
X140403314Y-141487965D01*
X140506306Y-141459083D01*
X140624803Y-141449003D01*
X140752007Y-141461086D01*
X140865871Y-141496264D01*
X140964561Y-141552671D01*
X141030491Y-141619973D01*
X141076355Y-141702221D01*
X141107061Y-141801812D01*
X141116527Y-141882989D01*
X141120739Y-142041048D01*
X141120739Y-142934000D01*
X140874786Y-142934000D01*
X140874786Y-142049108D01*
X140866363Y-141908152D01*
X140846087Y-141823794D01*
X140806799Y-141757134D01*
X140744360Y-141704603D01*
X140666394Y-141671559D01*
X140572902Y-141660029D01*
X140471886Y-141671383D01*
X140382397Y-141704535D01*
X140301670Y-141760046D01*
X140256642Y-141813305D01*
X140221078Y-141889405D01*
X140196809Y-141995239D01*
X140187609Y-142139478D01*
X140187609Y-142934000D01*
X139941656Y-142934000D01*
G37*
G36*
X167393092Y-131325164D02*
G01*
X167486677Y-131347098D01*
X167569953Y-131382499D01*
X167645837Y-131431814D01*
X167712577Y-131493893D01*
X167770843Y-131569956D01*
X167839798Y-131701515D01*
X167895163Y-131868176D01*
X167927446Y-132059242D01*
X167940226Y-132342129D01*
X167930880Y-132578074D01*
X167905561Y-132765259D01*
X167867808Y-132911826D01*
X167809160Y-133049955D01*
X167736871Y-133160247D01*
X167651286Y-133246927D01*
X167549456Y-133311418D01*
X167429650Y-133351246D01*
X167287242Y-133365263D01*
X167146312Y-133351474D01*
X167026049Y-133312072D01*
X166922262Y-133247958D01*
X166832218Y-133157290D01*
X166768093Y-133058456D01*
X166714198Y-132933247D01*
X166672083Y-132776367D01*
X166644275Y-132581638D01*
X166634137Y-132342129D01*
X166634166Y-132341397D01*
X166886928Y-132341397D01*
X166897062Y-132604419D01*
X166923130Y-132789838D01*
X166959564Y-132915609D01*
X167002333Y-132997066D01*
X167066494Y-133071281D01*
X167134421Y-133121124D01*
X167207281Y-133150274D01*
X167287242Y-133160099D01*
X167367097Y-133150244D01*
X167439900Y-133120990D01*
X167507823Y-133070932D01*
X167572030Y-132996334D01*
X167614898Y-132914529D01*
X167651369Y-132788635D01*
X167677433Y-132603501D01*
X167687556Y-132341397D01*
X167677393Y-132077545D01*
X167651271Y-131891884D01*
X167614797Y-131766243D01*
X167572030Y-131685116D01*
X167507930Y-131611405D01*
X167439598Y-131561720D01*
X167365837Y-131532554D01*
X167284434Y-131522695D01*
X167203412Y-131531788D01*
X167132746Y-131558175D01*
X167070039Y-131602115D01*
X167013935Y-131665943D01*
X166965823Y-131757304D01*
X166925787Y-131891198D01*
X166897695Y-132080792D01*
X166886928Y-132341397D01*
X166634166Y-132341397D01*
X166643586Y-132104184D01*
X166669141Y-131916165D01*
X166707166Y-131769624D01*
X166766273Y-131631507D01*
X166838808Y-131521478D01*
X166924420Y-131435256D01*
X167026259Y-131371057D01*
X167145695Y-131331452D01*
X167287242Y-131317531D01*
X167393092Y-131325164D01*
G37*
G36*
X169115766Y-133334000D02*
G01*
X168869814Y-133334000D01*
X168869814Y-131762785D01*
X168771944Y-131844214D01*
X168636928Y-131932656D01*
X168494839Y-132009539D01*
X168378031Y-132060029D01*
X168378031Y-131825556D01*
X168511796Y-131754394D01*
X168631641Y-131675243D01*
X168738655Y-131588152D01*
X168836834Y-131490309D01*
X168908239Y-131400486D01*
X168957253Y-131317531D01*
X169115766Y-131317531D01*
X169115766Y-133334000D01*
G37*
G36*
X167668383Y-141880580D02*
G01*
X167938882Y-141880580D01*
X167938882Y-142105284D01*
X167668383Y-142105284D01*
X167668383Y-142584000D01*
X167422431Y-142584000D01*
X167422431Y-142105284D01*
X166553537Y-142105284D01*
X166553537Y-141880580D01*
X166795337Y-141880580D01*
X167422431Y-141880580D01*
X167422431Y-140977859D01*
X166795337Y-141880580D01*
X166553537Y-141880580D01*
X167467494Y-140583162D01*
X167668383Y-140583162D01*
X167668383Y-141880580D01*
G37*
G36*
X168851007Y-142615263D02*
G01*
X169431695Y-140544083D01*
X169628432Y-140544083D01*
X169049088Y-142615263D01*
X168851007Y-142615263D01*
G37*
G36*
X171556729Y-141880580D02*
G01*
X171827228Y-141880580D01*
X171827228Y-142105284D01*
X171556729Y-142105284D01*
X171556729Y-142584000D01*
X171310777Y-142584000D01*
X171310777Y-142105284D01*
X170441883Y-142105284D01*
X170441883Y-141880580D01*
X170683683Y-141880580D01*
X171310777Y-141880580D01*
X171310777Y-140977859D01*
X170683683Y-141880580D01*
X170441883Y-141880580D01*
X171355840Y-140583162D01*
X171556729Y-140583162D01*
X171556729Y-141880580D01*
G37*
G36*
X119171689Y-138626500D02*
G01*
X119171689Y-137120010D01*
X119370534Y-137120010D01*
X119370534Y-138452110D01*
X120110315Y-138452110D01*
X120110315Y-138626500D01*
X119171689Y-138626500D01*
G37*
G36*
X121587312Y-138626500D02*
G01*
X121360807Y-138626500D01*
X121185594Y-138169277D01*
X120557462Y-138169277D01*
X120392507Y-138626500D01*
X120181389Y-138626500D01*
X120419345Y-138005146D01*
X120614890Y-138005146D01*
X121124136Y-138005146D01*
X120967332Y-137589231D01*
X120901814Y-137407735D01*
X120860812Y-137277821D01*
X120826381Y-137421243D01*
X120779845Y-137564684D01*
X120614890Y-138005146D01*
X120419345Y-138005146D01*
X120758321Y-137120010D01*
X120972461Y-137120010D01*
X121587312Y-138626500D01*
G37*
G36*
X122013760Y-138626500D02*
G01*
X122013760Y-137987560D01*
X121434813Y-137120010D01*
X121676613Y-137120010D01*
X121972819Y-137574393D01*
X122125501Y-137829291D01*
X122289449Y-137563036D01*
X122580434Y-137120010D01*
X122811976Y-137120010D01*
X122212513Y-137987560D01*
X122212513Y-138626500D01*
X122013760Y-138626500D01*
G37*
G36*
X122994151Y-138626500D02*
G01*
X122994151Y-137120010D01*
X124080329Y-137120010D01*
X124080329Y-137294399D01*
X123192995Y-137294399D01*
X123192995Y-137758949D01*
X124024001Y-137758949D01*
X124024001Y-137933338D01*
X123192995Y-137933338D01*
X123192995Y-138452110D01*
X124115226Y-138452110D01*
X124115226Y-138626500D01*
X122994151Y-138626500D01*
G37*
G36*
X125193518Y-137125470D02*
G01*
X125292838Y-137139787D01*
X125364070Y-137160310D01*
X125428639Y-137193747D01*
X125483962Y-137240669D01*
X125531040Y-137302642D01*
X125565728Y-137372812D01*
X125586537Y-137447481D01*
X125593597Y-137527956D01*
X125586871Y-137605827D01*
X125567350Y-137675533D01*
X125535313Y-137738622D01*
X125490099Y-137796226D01*
X125435583Y-137842863D01*
X125366183Y-137881999D01*
X125279000Y-137913113D01*
X125170446Y-137934895D01*
X125243434Y-137975296D01*
X125290247Y-138010550D01*
X125373002Y-138099031D01*
X125455295Y-138212783D01*
X125716512Y-138626500D01*
X125466560Y-138626500D01*
X125267716Y-138309961D01*
X125124284Y-138100400D01*
X125067253Y-138034978D01*
X125023351Y-137998643D01*
X124977741Y-137973721D01*
X124932676Y-137958159D01*
X124822034Y-137950924D01*
X124591499Y-137950924D01*
X124591499Y-138626500D01*
X124392655Y-138626500D01*
X124392655Y-137782396D01*
X124591499Y-137782396D01*
X125018771Y-137782396D01*
X125147349Y-137774434D01*
X125231904Y-137754461D01*
X125279974Y-137731466D01*
X125318454Y-137701673D01*
X125348683Y-137664793D01*
X125378673Y-137600362D01*
X125388616Y-137530887D01*
X125379822Y-137463784D01*
X125354297Y-137406568D01*
X125311222Y-137356773D01*
X125255405Y-137321351D01*
X125176512Y-137297558D01*
X125066948Y-137288537D01*
X124591499Y-137288537D01*
X124591499Y-137782396D01*
X124392655Y-137782396D01*
X124392655Y-137120010D01*
X125058705Y-137120010D01*
X125193518Y-137125470D01*
G37*
X159250000Y-3000000D02*
X159250000Y0D01*
X14268200Y-73503600D02*
X4500200Y-73499600D01*
X14250200Y-37499600D02*
X17250200Y-37499600D01*
X200Y-147999800D02*
X210000200Y-147999800D01*
X210000200Y200D01*
X200Y200D01*
X200Y-147999800D01*
X207000200Y-144999600D02*
X14268200Y-144999600D01*
X14268200Y-3003600D01*
X207000200Y-3003600D01*
X207000200Y-144999600D01*
X17250200Y-2999600D02*
X17250200Y-144999600D01*
X207000200Y-5999600D02*
X14268200Y-6003600D01*
X14268200Y-3003600D02*
X3000200Y-3003600D01*
X3000200Y-144999600D01*
X14268200Y-144999600D01*
X14268200Y-3003600D01*
X207000000Y-106000000D02*
X210000000Y-106000000D01*
X207000000Y-37500000D02*
X210000000Y-37500000D01*
X0Y-37500000D02*
X3000000Y-37500000D01*
X18200Y-73503800D02*
X4518200Y-73503800D01*
X0Y-106000000D02*
X3000000Y-106000000D01*
G36*
X209144975Y-88876580D02*
G01*
X209409979Y-88943503D01*
X209357402Y-89103026D01*
X209289559Y-89236773D01*
X209207203Y-89348306D01*
X209110048Y-89440293D01*
X208997791Y-89514009D01*
X208873657Y-89567145D01*
X208735509Y-89599909D01*
X208580652Y-89611263D01*
X208417334Y-89601983D01*
X208277264Y-89575802D01*
X208157090Y-89534619D01*
X208053942Y-89479494D01*
X207960020Y-89407465D01*
X207877572Y-89320829D01*
X207805982Y-89218204D01*
X207745219Y-89097620D01*
X207686748Y-88928098D01*
X207651348Y-88749697D01*
X207639340Y-88560652D01*
X207653485Y-88354880D01*
X207693956Y-88174257D01*
X207758897Y-88014891D01*
X207825929Y-87904075D01*
X207904581Y-87809030D01*
X207995307Y-87728291D01*
X208099127Y-87660983D01*
X208250193Y-87594151D01*
X208411267Y-87553807D01*
X208584804Y-87540083D01*
X208734264Y-87550310D01*
X208866677Y-87579688D01*
X208984640Y-87627015D01*
X209090265Y-87692124D01*
X209183592Y-87774372D01*
X209261976Y-87871741D01*
X209326104Y-87985946D01*
X209375785Y-88119427D01*
X209114933Y-88180976D01*
X209057857Y-88042036D01*
X208990176Y-87938639D01*
X208912700Y-87864071D01*
X208819753Y-87810198D01*
X208709980Y-87776642D01*
X208579309Y-87764787D01*
X208428860Y-87778024D01*
X208301658Y-87815551D01*
X208193283Y-87875795D01*
X208100381Y-87957973D01*
X208028160Y-88056453D01*
X207975418Y-88173649D01*
X207940550Y-88299563D01*
X207919650Y-88427834D01*
X207912648Y-88559187D01*
X207921571Y-88728871D01*
X207946918Y-88877032D01*
X207987020Y-89006517D01*
X208047412Y-89125541D01*
X208124320Y-89219554D01*
X208218562Y-89292037D01*
X208326545Y-89344673D01*
X208439357Y-89376008D01*
X208558792Y-89386559D01*
X208668683Y-89378087D01*
X208766925Y-89353590D01*
X208855488Y-89313708D01*
X208935903Y-89258087D01*
X209004152Y-89189329D01*
X209061915Y-89104603D01*
X209109153Y-89001426D01*
X209144975Y-88876580D01*
G37*
G36*
X208609196Y-53829172D02*
G01*
X208730019Y-53850402D01*
X208824528Y-53882285D01*
X208910811Y-53930468D01*
X208982713Y-53992542D01*
X209041782Y-54069619D01*
X209085933Y-54156500D01*
X209111747Y-54244207D01*
X209120307Y-54334134D01*
X209112607Y-54417936D01*
X209089582Y-54498234D01*
X209050575Y-54576301D01*
X208997806Y-54645443D01*
X208928552Y-54706414D01*
X208840282Y-54759483D01*
X208955184Y-54805137D01*
X209047128Y-54865977D01*
X209119696Y-54942055D01*
X209173537Y-55032262D01*
X209206150Y-55132899D01*
X209217393Y-55246748D01*
X209202366Y-55383794D01*
X209157920Y-55509553D01*
X209089496Y-55619563D01*
X209011008Y-55696887D01*
X208915486Y-55753296D01*
X208791678Y-55796416D01*
X208652308Y-55820828D01*
X208468667Y-55830000D01*
X207704919Y-55830000D01*
X207704919Y-55597480D01*
X207970045Y-55597480D01*
X208468667Y-55597480D01*
X208649040Y-55587711D01*
X208735404Y-55564665D01*
X208801936Y-55532267D01*
X208857073Y-55485600D01*
X208903053Y-55419183D01*
X208932461Y-55340727D01*
X208942742Y-55247725D01*
X208936079Y-55173637D01*
X208916834Y-55108293D01*
X208885345Y-55050010D01*
X208842387Y-54999790D01*
X208789803Y-54960672D01*
X208726099Y-54932041D01*
X208613005Y-54907832D01*
X208433129Y-54897969D01*
X207970045Y-54897969D01*
X207970045Y-55597480D01*
X207704919Y-55597480D01*
X207704919Y-54665450D01*
X207970045Y-54665450D01*
X208403087Y-54665450D01*
X208566858Y-54658349D01*
X208655879Y-54642002D01*
X208746384Y-54600359D01*
X208808164Y-54541252D01*
X208845977Y-54464065D01*
X208859455Y-54364542D01*
X208847155Y-54268522D01*
X208811584Y-54187100D01*
X208775143Y-54141378D01*
X208730055Y-54106677D01*
X208674930Y-54082198D01*
X208570277Y-54062543D01*
X208370237Y-54053866D01*
X207970045Y-54053866D01*
X207970045Y-54665450D01*
X207704919Y-54665450D01*
X207704919Y-53821346D01*
X208456332Y-53821346D01*
X208609196Y-53829172D01*
G37*
G36*
X209370411Y-17830000D02*
G01*
X209068405Y-17830000D01*
X208834787Y-17220369D01*
X207997278Y-17220369D01*
X207777337Y-17830000D01*
X207495847Y-17830000D01*
X207813122Y-17001528D01*
X208073848Y-17001528D01*
X208752843Y-17001528D01*
X208543771Y-16446974D01*
X208456413Y-16204980D01*
X208401744Y-16031762D01*
X208355837Y-16222990D01*
X208293789Y-16414246D01*
X208073848Y-17001528D01*
X207813122Y-17001528D01*
X208265090Y-15821346D01*
X208550610Y-15821346D01*
X209370411Y-17830000D01*
G37*
G36*
X2144975Y-88876580D02*
G01*
X2409979Y-88943503D01*
X2357402Y-89103026D01*
X2289559Y-89236773D01*
X2207203Y-89348306D01*
X2110048Y-89440293D01*
X1997791Y-89514009D01*
X1873657Y-89567145D01*
X1735509Y-89599909D01*
X1580652Y-89611263D01*
X1417334Y-89601983D01*
X1277264Y-89575802D01*
X1157090Y-89534619D01*
X1053942Y-89479494D01*
X960020Y-89407465D01*
X877572Y-89320829D01*
X805982Y-89218204D01*
X745219Y-89097620D01*
X686748Y-88928098D01*
X651348Y-88749697D01*
X639340Y-88560652D01*
X653485Y-88354880D01*
X693956Y-88174257D01*
X758897Y-88014891D01*
X825929Y-87904075D01*
X904581Y-87809030D01*
X995307Y-87728291D01*
X1099127Y-87660983D01*
X1250193Y-87594151D01*
X1411267Y-87553807D01*
X1584804Y-87540083D01*
X1734264Y-87550310D01*
X1866677Y-87579688D01*
X1984640Y-87627015D01*
X2090265Y-87692124D01*
X2183592Y-87774372D01*
X2261976Y-87871741D01*
X2326104Y-87985946D01*
X2375785Y-88119427D01*
X2114933Y-88180976D01*
X2057857Y-88042036D01*
X1990176Y-87938639D01*
X1912700Y-87864071D01*
X1819753Y-87810198D01*
X1709980Y-87776642D01*
X1579309Y-87764787D01*
X1428860Y-87778024D01*
X1301658Y-87815551D01*
X1193283Y-87875795D01*
X1100381Y-87957973D01*
X1028160Y-88056453D01*
X975418Y-88173649D01*
X940550Y-88299563D01*
X919650Y-88427834D01*
X912648Y-88559187D01*
X921571Y-88728871D01*
X946918Y-88877032D01*
X987020Y-89006517D01*
X1047412Y-89125541D01*
X1124320Y-89219554D01*
X1218562Y-89292037D01*
X1326545Y-89344673D01*
X1439357Y-89376008D01*
X1558792Y-89386559D01*
X1668683Y-89378087D01*
X1766925Y-89353590D01*
X1855488Y-89313708D01*
X1935903Y-89258087D01*
X2004152Y-89189329D01*
X2061915Y-89104603D01*
X2109153Y-89001426D01*
X2144975Y-88876580D01*
G37*
G36*
X1609196Y-53829172D02*
G01*
X1730019Y-53850402D01*
X1824528Y-53882285D01*
X1910811Y-53930468D01*
X1982713Y-53992542D01*
X2041782Y-54069619D01*
X2085933Y-54156500D01*
X2111747Y-54244207D01*
X2120307Y-54334134D01*
X2112607Y-54417936D01*
X2089582Y-54498234D01*
X2050575Y-54576301D01*
X1997806Y-54645443D01*
X1928552Y-54706414D01*
X1840282Y-54759483D01*
X1955184Y-54805137D01*
X2047128Y-54865977D01*
X2119696Y-54942055D01*
X2173537Y-55032262D01*
X2206150Y-55132899D01*
X2217393Y-55246748D01*
X2202366Y-55383794D01*
X2157920Y-55509553D01*
X2089496Y-55619563D01*
X2011008Y-55696887D01*
X1915486Y-55753296D01*
X1791678Y-55796416D01*
X1652308Y-55820828D01*
X1468667Y-55830000D01*
X704919Y-55830000D01*
X704919Y-55597480D01*
X970045Y-55597480D01*
X1468667Y-55597480D01*
X1649040Y-55587711D01*
X1735404Y-55564665D01*
X1801936Y-55532267D01*
X1857073Y-55485600D01*
X1903053Y-55419183D01*
X1932461Y-55340727D01*
X1942742Y-55247725D01*
X1936079Y-55173637D01*
X1916834Y-55108293D01*
X1885345Y-55050010D01*
X1842387Y-54999790D01*
X1789803Y-54960672D01*
X1726099Y-54932041D01*
X1613005Y-54907832D01*
X1433129Y-54897969D01*
X970045Y-54897969D01*
X970045Y-55597480D01*
X704919Y-55597480D01*
X704919Y-54665450D01*
X970045Y-54665450D01*
X1403087Y-54665450D01*
X1566858Y-54658349D01*
X1655879Y-54642002D01*
X1746384Y-54600359D01*
X1808164Y-54541252D01*
X1845977Y-54464065D01*
X1859455Y-54364542D01*
X1847155Y-54268522D01*
X1811584Y-54187100D01*
X1775143Y-54141378D01*
X1730055Y-54106677D01*
X1674930Y-54082198D01*
X1570277Y-54062543D01*
X1370237Y-54053866D01*
X970045Y-54053866D01*
X970045Y-54665450D01*
X704919Y-54665450D01*
X704919Y-53821346D01*
X1456332Y-53821346D01*
X1609196Y-53829172D01*
G37*
G36*
X2370411Y-17830000D02*
G01*
X2068405Y-17830000D01*
X1834787Y-17220369D01*
X997278Y-17220369D01*
X777337Y-17830000D01*
X495847Y-17830000D01*
X813122Y-17001528D01*
X1073848Y-17001528D01*
X1752843Y-17001528D01*
X1543771Y-16446974D01*
X1456413Y-16204980D01*
X1401744Y-16031762D01*
X1355837Y-16222990D01*
X1293789Y-16414246D01*
X1073848Y-17001528D01*
X813122Y-17001528D01*
X1265090Y-15821346D01*
X1550610Y-15821346D01*
X2370411Y-17830000D01*
G37*
G36*
X1643584Y-124833729D02*
G01*
X1780369Y-124854167D01*
X1891438Y-124888540D01*
X1988784Y-124936521D01*
X2074193Y-124998026D01*
X2170072Y-125094791D01*
X2248884Y-125208445D01*
X2311108Y-125341187D01*
X2353753Y-125482576D01*
X2380443Y-125640933D01*
X2389755Y-125818682D01*
X2383371Y-125970765D01*
X2365178Y-126105336D01*
X2336387Y-126224369D01*
X2273317Y-126390699D01*
X2199734Y-126516850D01*
X2110455Y-126622331D01*
X2017406Y-126699055D01*
X1910972Y-126756246D01*
X1778293Y-126799806D01*
X1632777Y-126824924D01*
X1456625Y-126834000D01*
X733910Y-126834000D01*
X733910Y-126601480D01*
X998914Y-126601480D01*
X1426583Y-126601480D01*
X1613751Y-126590899D01*
X1737382Y-126564355D01*
X1841170Y-126518056D01*
X1917023Y-126459575D01*
X1973233Y-126391773D01*
X2022322Y-126307457D01*
X2063812Y-126203853D01*
X2091825Y-126095541D01*
X2109951Y-125966835D01*
X2116447Y-125814530D01*
X2108682Y-125651655D01*
X2087367Y-125519342D01*
X2054981Y-125412687D01*
X2013254Y-125327387D01*
X1936221Y-125222605D01*
X1852983Y-125148140D01*
X1762661Y-125099265D01*
X1689446Y-125078639D01*
X1579057Y-125063714D01*
X1419744Y-125057866D01*
X998914Y-125057866D01*
X998914Y-126601480D01*
X733910Y-126601480D01*
X733910Y-124825346D01*
X1423774Y-124825346D01*
X1643584Y-124833729D01*
G37*
X14250200Y-23499600D02*
X17250200Y-23499600D01*
X14250200Y-53999600D02*
X17250200Y-53999600D01*
X14250200Y-68999600D02*
X17250200Y-68999600D01*
X14250200Y-83499600D02*
X17250200Y-83499600D01*
X14250200Y-97749600D02*
X17250200Y-97749600D01*
X14250200Y-111499600D02*
X17250200Y-111499600D01*
X14250200Y-125999600D02*
X17250200Y-125999600D01*
G36*
X16042628Y-17829600D02*
G01*
X15796675Y-17829600D01*
X15796675Y-16258385D01*
X15698806Y-16339814D01*
X15563790Y-16428256D01*
X15421700Y-16505139D01*
X15304892Y-16555629D01*
X15304892Y-16321156D01*
X15438658Y-16249994D01*
X15558503Y-16170843D01*
X15665517Y-16083752D01*
X15763695Y-15985909D01*
X15835100Y-15896086D01*
X15884114Y-15813131D01*
X16042628Y-15813131D01*
X16042628Y-17829600D01*
G37*
G36*
X16408748Y-31097080D02*
G01*
X16408748Y-31329600D01*
X15084952Y-31329600D01*
X15090742Y-31242529D01*
X15113650Y-31159118D01*
X15177601Y-31028121D01*
X15275461Y-30893260D01*
X15402200Y-30761003D01*
X15597251Y-30590521D01*
X15813359Y-30403567D01*
X15954152Y-30264878D01*
X16038476Y-30164317D01*
X16105310Y-30055222D01*
X16141835Y-29957084D01*
X16153270Y-29866951D01*
X16141473Y-29773508D01*
X16107006Y-29691967D01*
X16048734Y-29619289D01*
X15973685Y-29564060D01*
X15884225Y-29530213D01*
X15776281Y-29518295D01*
X15662275Y-29531038D01*
X15569054Y-29567055D01*
X15491982Y-29625639D01*
X15434301Y-29703271D01*
X15397852Y-29800460D01*
X15384149Y-29922761D01*
X15131358Y-29896627D01*
X15155058Y-29755753D01*
X15196261Y-29638971D01*
X15253489Y-29542224D01*
X15326752Y-29462485D01*
X15415047Y-29399224D01*
X15518286Y-29352772D01*
X15639293Y-29323494D01*
X15781654Y-29313131D01*
X15924865Y-29324225D01*
X16046271Y-29355588D01*
X16149684Y-29405493D01*
X16238022Y-29473842D01*
X16311923Y-29559493D01*
X16363815Y-29653107D01*
X16395253Y-29756427D01*
X16406061Y-29871958D01*
X16393900Y-29991038D01*
X16356846Y-30109484D01*
X16294683Y-30224369D01*
X16193570Y-30355315D01*
X16057834Y-30493244D01*
X15814505Y-30709467D01*
X15613951Y-30883214D01*
X15530206Y-30963113D01*
X15471919Y-31031154D01*
X15426525Y-31097080D01*
X16408748Y-31097080D01*
G37*
G36*
X16150583Y-61376180D02*
G01*
X16421082Y-61376180D01*
X16421082Y-61600884D01*
X16150583Y-61600884D01*
X16150583Y-62079600D01*
X15904631Y-62079600D01*
X15904631Y-61600884D01*
X15035737Y-61600884D01*
X15035737Y-61376180D01*
X15277537Y-61376180D01*
X15904631Y-61376180D01*
X15904631Y-60473459D01*
X15277537Y-61376180D01*
X15035737Y-61376180D01*
X15949694Y-60078762D01*
X16150583Y-60078762D01*
X16150583Y-61376180D01*
G37*
G36*
X15117680Y-45799593D02*
G01*
X15363633Y-45766864D01*
X15401847Y-45900638D01*
X15450491Y-45997144D01*
X15507736Y-46064596D01*
X15580055Y-46114944D01*
X15661804Y-46145242D01*
X15755765Y-46155699D01*
X15866494Y-46142116D01*
X15962972Y-46102528D01*
X16048734Y-46035897D01*
X16115052Y-45949778D01*
X16154649Y-45852008D01*
X16168291Y-45738898D01*
X16155508Y-45630925D01*
X16118719Y-45539335D01*
X16057649Y-45460339D01*
X15978085Y-45399904D01*
X15885572Y-45363387D01*
X15776281Y-45350674D01*
X15702947Y-45356756D01*
X15602747Y-45378029D01*
X15629980Y-45162241D01*
X15669669Y-45165050D01*
X15771923Y-45155763D01*
X15865537Y-45128516D01*
X15952380Y-45083228D01*
X16006959Y-45037220D01*
X16045623Y-44981324D01*
X16069635Y-44913592D01*
X16078165Y-44830803D01*
X16067658Y-44744562D01*
X16037291Y-44670946D01*
X15986574Y-44606955D01*
X15920865Y-44558352D01*
X15843230Y-44528697D01*
X15750269Y-44518295D01*
X15658148Y-44528647D01*
X15579447Y-44558440D01*
X15511156Y-44607687D01*
X15457527Y-44673131D01*
X15416046Y-44760648D01*
X15388179Y-44875866D01*
X15142349Y-44832147D01*
X15173610Y-44710938D01*
X15218487Y-44608385D01*
X15276288Y-44521763D01*
X15347269Y-44449052D01*
X15430633Y-44390400D01*
X15523421Y-44348199D01*
X15627383Y-44322169D01*
X15744774Y-44313131D01*
X15852387Y-44321151D01*
X15952596Y-44344729D01*
X16046780Y-44383717D01*
X16132891Y-44437411D01*
X16202626Y-44501323D01*
X16257806Y-44576058D01*
X16298732Y-44659725D01*
X16322886Y-44745548D01*
X16330957Y-44834833D01*
X16323112Y-44919466D01*
X16299961Y-44997943D01*
X16261225Y-45071749D01*
X16208893Y-45136513D01*
X16140954Y-45193033D01*
X16054962Y-45241498D01*
X16166956Y-45279704D01*
X16257750Y-45336244D01*
X16330835Y-45411491D01*
X16384366Y-45502049D01*
X16417569Y-45608352D01*
X16429264Y-45734258D01*
X16417102Y-45861365D01*
X16381555Y-45976158D01*
X16322541Y-46081307D01*
X16238022Y-46178657D01*
X16137203Y-46257662D01*
X16024655Y-46314113D01*
X15898091Y-46348815D01*
X15754421Y-46360863D01*
X15624363Y-46350472D01*
X15509693Y-46320575D01*
X15407746Y-46272084D01*
X15316494Y-46204547D01*
X15239033Y-46120973D01*
X15180554Y-46026847D01*
X15140014Y-45920515D01*
X15117680Y-45799593D01*
G37*
G36*
X15941160Y-89322049D02*
G01*
X16043173Y-89347544D01*
X16132598Y-89388550D01*
X16211400Y-89445144D01*
X16277991Y-89515732D01*
X16330276Y-89598670D01*
X16368639Y-89695860D01*
X16392384Y-89809921D01*
X16147897Y-89828971D01*
X16105085Y-89699064D01*
X16054962Y-89621854D01*
X15983044Y-89564173D01*
X15902078Y-89530006D01*
X15809010Y-89518295D01*
X15732841Y-89525751D01*
X15664660Y-89547483D01*
X15602747Y-89583507D01*
X15532819Y-89646125D01*
X15471743Y-89727151D01*
X15419564Y-89829704D01*
X15384980Y-89939986D01*
X15360497Y-90090236D01*
X15349955Y-90290468D01*
X15415001Y-90206561D01*
X15487189Y-90140341D01*
X15567087Y-90089945D01*
X15654629Y-90053340D01*
X15744040Y-90031624D01*
X15836365Y-90024366D01*
X15955533Y-90035861D01*
X16063523Y-90069515D01*
X16162815Y-90125499D01*
X16255119Y-90205838D01*
X16329588Y-90301345D01*
X16383167Y-90409579D01*
X16416336Y-90532975D01*
X16427921Y-90674784D01*
X16418729Y-90798867D01*
X16391604Y-90915488D01*
X16346588Y-91026128D01*
X16284509Y-91127389D01*
X16210290Y-91209512D01*
X16123228Y-91274645D01*
X16025403Y-91322126D01*
X15918634Y-91350968D01*
X15800828Y-91360863D01*
X15651751Y-91346206D01*
X15520782Y-91303808D01*
X15404158Y-91234003D01*
X15299397Y-91134449D01*
X15236299Y-91044265D01*
X15183516Y-90929881D01*
X15142378Y-90786410D01*
X15125356Y-90674540D01*
X15388179Y-90674540D01*
X15401647Y-90798829D01*
X15442157Y-90917928D01*
X15483910Y-90990619D01*
X15534096Y-91049016D01*
X15593099Y-91094882D01*
X15693460Y-91140769D01*
X15796675Y-91155699D01*
X15895056Y-91141923D01*
X15983262Y-91100965D01*
X16064488Y-91030036D01*
X16124795Y-90940081D01*
X16162806Y-90828144D01*
X16176473Y-90688218D01*
X16162987Y-90553920D01*
X16125475Y-90446798D01*
X16065831Y-90360932D01*
X15985598Y-90294386D01*
X15893954Y-90254863D01*
X15787150Y-90241253D01*
X15681047Y-90254709D01*
X15587896Y-90294123D01*
X15504317Y-90360932D01*
X15440864Y-90446937D01*
X15401916Y-90549877D01*
X15388179Y-90674540D01*
X15125356Y-90674540D01*
X15115241Y-90608062D01*
X15105346Y-90388288D01*
X15116185Y-90143016D01*
X15146019Y-89942256D01*
X15191423Y-89779205D01*
X15249879Y-89647821D01*
X15319913Y-89542963D01*
X15400164Y-89460070D01*
X15489184Y-89396593D01*
X15588165Y-89350986D01*
X15698974Y-89322883D01*
X15824031Y-89313131D01*
X15941160Y-89322049D01*
G37*
G36*
X15116337Y-76298127D02*
G01*
X15374502Y-76276267D01*
X15404126Y-76397801D01*
X15449012Y-76490642D01*
X15507736Y-76560566D01*
X15582027Y-76613323D01*
X15665130Y-76644866D01*
X15759795Y-76655699D01*
X15845717Y-76647199D01*
X15923299Y-76622327D01*
X15994418Y-76580918D01*
X16060336Y-76521365D01*
X16112773Y-76451014D01*
X16150972Y-76369661D01*
X16174888Y-76275226D01*
X16183312Y-76165015D01*
X16175142Y-76060216D01*
X16152066Y-75971561D01*
X16115363Y-75896207D01*
X16065098Y-75831990D01*
X15979619Y-75765002D01*
X15878082Y-75724276D01*
X15755765Y-75709990D01*
X15641648Y-75723987D01*
X15541197Y-75764945D01*
X15455225Y-75828538D01*
X15390988Y-75907339D01*
X15160056Y-75877297D01*
X15354107Y-74844394D01*
X16350008Y-74844394D01*
X16350008Y-75076913D01*
X15550845Y-75076913D01*
X15442890Y-75621819D01*
X15567877Y-75549041D01*
X15693209Y-75506972D01*
X15821344Y-75493103D01*
X15949085Y-75504831D01*
X16063788Y-75538981D01*
X16168106Y-75595355D01*
X16263912Y-75675552D01*
X16342023Y-75772061D01*
X16397886Y-75880707D01*
X16432302Y-76003856D01*
X16444285Y-76144743D01*
X16433968Y-76279237D01*
X16403939Y-76401369D01*
X16354739Y-76513271D01*
X16285772Y-76616620D01*
X16202918Y-76704713D01*
X16110535Y-76772132D01*
X16007347Y-76820585D01*
X15891320Y-76850474D01*
X15759795Y-76860863D01*
X15624515Y-76850444D01*
X15506953Y-76820681D01*
X15404113Y-76772822D01*
X15313685Y-76706745D01*
X15237246Y-76624330D01*
X15179209Y-76530128D01*
X15138737Y-76422276D01*
X15116337Y-76298127D01*
G37*
G36*
X15899203Y-117573482D02*
G01*
X16010810Y-117602952D01*
X16107441Y-117650240D01*
X16191494Y-117715538D01*
X16262170Y-117796860D01*
X16311496Y-117884624D01*
X16341194Y-117980362D01*
X16351351Y-118086299D01*
X16342901Y-118176842D01*
X16318426Y-118256993D01*
X16278200Y-118328832D01*
X16223423Y-118390229D01*
X16150610Y-118443321D01*
X16056306Y-118487956D01*
X16172631Y-118538066D01*
X16264994Y-118602831D01*
X16337063Y-118682373D01*
X16389884Y-118775964D01*
X16422198Y-118881785D01*
X16433417Y-119002820D01*
X16421743Y-119128046D01*
X16387761Y-119240273D01*
X16331639Y-119342176D01*
X16251700Y-119435618D01*
X16155947Y-119510856D01*
X16046251Y-119565208D01*
X15919945Y-119599008D01*
X15773472Y-119610863D01*
X15627044Y-119598966D01*
X15500754Y-119565040D01*
X15391043Y-119510467D01*
X15295245Y-119434886D01*
X15215622Y-119341209D01*
X15159508Y-119238278D01*
X15125403Y-119124132D01*
X15113762Y-118997202D01*
X15366320Y-118997202D01*
X15378628Y-119099700D01*
X15416145Y-119200046D01*
X15454826Y-119260521D01*
X15503890Y-119310861D01*
X15564400Y-119351965D01*
X15666435Y-119392227D01*
X15776281Y-119405699D01*
X15889119Y-119392610D01*
X15984778Y-119354996D01*
X16067174Y-119292736D01*
X16130554Y-119211221D01*
X16168712Y-119116706D01*
X16181969Y-119005262D01*
X16168371Y-118892270D01*
X16129133Y-118796005D01*
X16063755Y-118712537D01*
X15979022Y-118648565D01*
X15881695Y-118610095D01*
X15767977Y-118596766D01*
X15657125Y-118609938D01*
X15562523Y-118647943D01*
X15480381Y-118711194D01*
X15417257Y-118793349D01*
X15379409Y-118887458D01*
X15366320Y-118997202D01*
X15113762Y-118997202D01*
X15113650Y-118995981D01*
X15125385Y-118868755D01*
X15158771Y-118760704D01*
X15212691Y-118668085D01*
X15286471Y-118590592D01*
X15379291Y-118530627D01*
X15494791Y-118487956D01*
X15397765Y-118443088D01*
X15323429Y-118389728D01*
X15268012Y-118328099D01*
X15227628Y-118255750D01*
X15202863Y-118173650D01*
X15194250Y-118079460D01*
X15194979Y-118071766D01*
X15445576Y-118071766D01*
X15456203Y-118161863D01*
X15486664Y-118237578D01*
X15537045Y-118302209D01*
X15602911Y-118351184D01*
X15681005Y-118381096D01*
X15774816Y-118391602D01*
X15865955Y-118381240D01*
X15942537Y-118351601D01*
X16007823Y-118302820D01*
X16058448Y-118238945D01*
X16088420Y-118167325D01*
X16098682Y-118085322D01*
X16088064Y-117999862D01*
X16057128Y-117925606D01*
X16005015Y-117859763D01*
X15937940Y-117809159D01*
X15861287Y-117778793D01*
X15772129Y-117768295D01*
X15681961Y-117778648D01*
X15605097Y-117808451D01*
X15538511Y-117857810D01*
X15486386Y-117922123D01*
X15455904Y-117992625D01*
X15445576Y-118071766D01*
X15194979Y-118071766D01*
X15204307Y-117973344D01*
X15233610Y-117878159D01*
X15282089Y-117791611D01*
X15351299Y-117712119D01*
X15433916Y-117648444D01*
X15529382Y-117602200D01*
X15640150Y-117573302D01*
X15769442Y-117563131D01*
X15899203Y-117573482D01*
G37*
G36*
X15132701Y-103576913D02*
G01*
X15132701Y-103344394D01*
X16429264Y-103344394D01*
X16429264Y-103535636D01*
X16309334Y-103677553D01*
X16183054Y-103856802D01*
X16050077Y-104079198D01*
X15933626Y-104308899D01*
X15837074Y-104541108D01*
X15759795Y-104776389D01*
X15717372Y-104946164D01*
X15685706Y-105130155D01*
X15665517Y-105329600D01*
X15412848Y-105329600D01*
X15423559Y-105171910D01*
X15453196Y-104981922D01*
X15505660Y-104754530D01*
X15573330Y-104532963D01*
X15658163Y-104316468D01*
X15760527Y-104104477D01*
X15877986Y-103899557D01*
X15995762Y-103724726D01*
X16113703Y-103576913D01*
X15132701Y-103576913D01*
G37*
G36*
X15873261Y-132824955D02*
G01*
X15991638Y-132859917D01*
X16103444Y-132918521D01*
X16201606Y-132997533D01*
X16283342Y-133096649D01*
X16349397Y-133218696D01*
X16392387Y-133351935D01*
X16422126Y-133535627D01*
X16433417Y-133783019D01*
X16422554Y-134040015D01*
X16393316Y-134240702D01*
X16350008Y-134395091D01*
X16283001Y-134539064D01*
X16200376Y-134653195D01*
X16102101Y-134741916D01*
X15987370Y-134807423D01*
X15859799Y-134847166D01*
X15716075Y-134860863D01*
X15599669Y-134851965D01*
X15498485Y-134826551D01*
X15409965Y-134785700D01*
X15332126Y-134729338D01*
X15266806Y-134659071D01*
X15215170Y-134575515D01*
X15177016Y-134476549D01*
X15153218Y-134359310D01*
X15389523Y-134337206D01*
X15418145Y-134445436D01*
X15456930Y-134524303D01*
X15504317Y-134580228D01*
X15564682Y-134621430D01*
X15636105Y-134646778D01*
X15721571Y-134655699D01*
X15829568Y-134642279D01*
X15920384Y-134603675D01*
X15997831Y-134543049D01*
X16060336Y-134464579D01*
X16108183Y-134368373D01*
X16151927Y-134229495D01*
X16179575Y-134080118D01*
X16188807Y-133927855D01*
X16187464Y-133878518D01*
X16132757Y-133951311D01*
X16065998Y-134014594D01*
X15985964Y-134068905D01*
X15898415Y-134109419D01*
X15806630Y-134133637D01*
X15709236Y-134141812D01*
X15588553Y-134130344D01*
X15479750Y-134096858D01*
X15380288Y-134041336D01*
X15288406Y-133961927D01*
X15214620Y-133867234D01*
X15161239Y-133758561D01*
X15128003Y-133633239D01*
X15117062Y-133496766D01*
X15369128Y-133496766D01*
X15382713Y-133618930D01*
X15421355Y-133720481D01*
X15484533Y-133805978D01*
X15567668Y-133872170D01*
X15661456Y-133911446D01*
X15769442Y-133924924D01*
X15878056Y-133911295D01*
X15970285Y-133871914D01*
X16050077Y-133805978D01*
X16109221Y-133720478D01*
X16146609Y-133612697D01*
X16160109Y-133476372D01*
X16146435Y-133340177D01*
X16108268Y-133230635D01*
X16047391Y-133142004D01*
X15965801Y-133072398D01*
X15876510Y-133031956D01*
X15776281Y-133018295D01*
X15672653Y-133032803D01*
X15578522Y-133076154D01*
X15490639Y-133151529D01*
X15424360Y-133246706D01*
X15383531Y-133360125D01*
X15369128Y-133496766D01*
X15117062Y-133496766D01*
X15116337Y-133487729D01*
X15128504Y-133337558D01*
X15163172Y-133208270D01*
X15218886Y-133096176D01*
X15295978Y-132998511D01*
X15391585Y-132917332D01*
X15496971Y-132860039D01*
X15614181Y-132825164D01*
X15746117Y-132813131D01*
X15873261Y-132824955D01*
G37*
X53018000Y-148004000D02*
X53000000Y-145000000D01*
X79500000Y-148000000D02*
X79500000Y-145000000D01*
X106000000Y-148000000D02*
X106000000Y-145000000D01*
X132500000Y-148000000D02*
X132500000Y-145000000D01*
X159000000Y-148000000D02*
X159000000Y-145000000D01*
X185500000Y-148000000D02*
X185500000Y-145000000D01*
G36*
X13292628Y-147579800D02*
G01*
X13046675Y-147579800D01*
X13046675Y-146008585D01*
X12948806Y-146090014D01*
X12813790Y-146178456D01*
X12671700Y-146255339D01*
X12554892Y-146305829D01*
X12554892Y-146071356D01*
X12688658Y-146000194D01*
X12808503Y-145921043D01*
X12915517Y-145833952D01*
X13013695Y-145736109D01*
X13085100Y-145646286D01*
X13134114Y-145563331D01*
X13292628Y-145563331D01*
X13292628Y-147579800D01*
G37*
G36*
X40158748Y-147347280D02*
G01*
X40158748Y-147579800D01*
X38834952Y-147579800D01*
X38840742Y-147492729D01*
X38863650Y-147409318D01*
X38927601Y-147278321D01*
X39025461Y-147143460D01*
X39152200Y-147011203D01*
X39347251Y-146840721D01*
X39563359Y-146653767D01*
X39704152Y-146515078D01*
X39788476Y-146414517D01*
X39855310Y-146305422D01*
X39891835Y-146207284D01*
X39903270Y-146117151D01*
X39891473Y-146023708D01*
X39857006Y-145942167D01*
X39798734Y-145869489D01*
X39723685Y-145814260D01*
X39634225Y-145780413D01*
X39526281Y-145768495D01*
X39412275Y-145781238D01*
X39319054Y-145817255D01*
X39241982Y-145875839D01*
X39184301Y-145953471D01*
X39147852Y-146050660D01*
X39134149Y-146172961D01*
X38881358Y-146146827D01*
X38905058Y-146005953D01*
X38946261Y-145889171D01*
X39003489Y-145792424D01*
X39076752Y-145712685D01*
X39165047Y-145649424D01*
X39268286Y-145602972D01*
X39389293Y-145573694D01*
X39531654Y-145563331D01*
X39674865Y-145574425D01*
X39796271Y-145605788D01*
X39899684Y-145655693D01*
X39988022Y-145724042D01*
X40061923Y-145809693D01*
X40113815Y-145903307D01*
X40145253Y-146006627D01*
X40156061Y-146122158D01*
X40143900Y-146241238D01*
X40106846Y-146359684D01*
X40044683Y-146474569D01*
X39943570Y-146605515D01*
X39807834Y-146743444D01*
X39564505Y-146959667D01*
X39363951Y-147133414D01*
X39280206Y-147213313D01*
X39221919Y-147281354D01*
X39176525Y-147347280D01*
X40158748Y-147347280D01*
G37*
G36*
X65367680Y-147049793D02*
G01*
X65613633Y-147017064D01*
X65651847Y-147150838D01*
X65700491Y-147247344D01*
X65757736Y-147314796D01*
X65830055Y-147365144D01*
X65911804Y-147395442D01*
X66005765Y-147405899D01*
X66116494Y-147392316D01*
X66212972Y-147352728D01*
X66298734Y-147286097D01*
X66365052Y-147199978D01*
X66404649Y-147102208D01*
X66418291Y-146989098D01*
X66405508Y-146881125D01*
X66368719Y-146789535D01*
X66307649Y-146710539D01*
X66228085Y-146650104D01*
X66135572Y-146613587D01*
X66026281Y-146600874D01*
X65952947Y-146606956D01*
X65852747Y-146628229D01*
X65879980Y-146412441D01*
X65919669Y-146415250D01*
X66021923Y-146405963D01*
X66115537Y-146378716D01*
X66202380Y-146333428D01*
X66256959Y-146287420D01*
X66295623Y-146231524D01*
X66319635Y-146163792D01*
X66328165Y-146081003D01*
X66317658Y-145994762D01*
X66287291Y-145921146D01*
X66236574Y-145857155D01*
X66170865Y-145808552D01*
X66093230Y-145778897D01*
X66000269Y-145768495D01*
X65908148Y-145778847D01*
X65829447Y-145808640D01*
X65761156Y-145857887D01*
X65707527Y-145923331D01*
X65666046Y-146010848D01*
X65638179Y-146126066D01*
X65392349Y-146082347D01*
X65423610Y-145961138D01*
X65468487Y-145858585D01*
X65526288Y-145771963D01*
X65597269Y-145699252D01*
X65680633Y-145640600D01*
X65773421Y-145598399D01*
X65877383Y-145572369D01*
X65994774Y-145563331D01*
X66102387Y-145571351D01*
X66202596Y-145594929D01*
X66296780Y-145633917D01*
X66382891Y-145687611D01*
X66452626Y-145751523D01*
X66507806Y-145826258D01*
X66548732Y-145909925D01*
X66572886Y-145995748D01*
X66580957Y-146085033D01*
X66573112Y-146169666D01*
X66549961Y-146248143D01*
X66511225Y-146321949D01*
X66458893Y-146386713D01*
X66390954Y-146443233D01*
X66304962Y-146491698D01*
X66416956Y-146529904D01*
X66507750Y-146586444D01*
X66580835Y-146661691D01*
X66634366Y-146752249D01*
X66667569Y-146858552D01*
X66679264Y-146984458D01*
X66667102Y-147111565D01*
X66631555Y-147226358D01*
X66572541Y-147331507D01*
X66488022Y-147428857D01*
X66387203Y-147507862D01*
X66274655Y-147564313D01*
X66148091Y-147599015D01*
X66004421Y-147611063D01*
X65874363Y-147600672D01*
X65759693Y-147570775D01*
X65657746Y-147522284D01*
X65566494Y-147454747D01*
X65489033Y-147371173D01*
X65430554Y-147277047D01*
X65390014Y-147170715D01*
X65367680Y-147049793D01*
G37*
G36*
X92900583Y-146876380D02*
G01*
X93171082Y-146876380D01*
X93171082Y-147101084D01*
X92900583Y-147101084D01*
X92900583Y-147579800D01*
X92654631Y-147579800D01*
X92654631Y-147101084D01*
X91785737Y-147101084D01*
X91785737Y-146876380D01*
X92027537Y-146876380D01*
X92654631Y-146876380D01*
X92654631Y-145973659D01*
X92027537Y-146876380D01*
X91785737Y-146876380D01*
X92699694Y-145578962D01*
X92900583Y-145578962D01*
X92900583Y-146876380D01*
G37*
G36*
X118366137Y-147048527D02*
G01*
X118624302Y-147026667D01*
X118653926Y-147148201D01*
X118698812Y-147241042D01*
X118757536Y-147310966D01*
X118831827Y-147363723D01*
X118914930Y-147395266D01*
X119009595Y-147406099D01*
X119095517Y-147397599D01*
X119173099Y-147372727D01*
X119244218Y-147331318D01*
X119310136Y-147271765D01*
X119362573Y-147201414D01*
X119400772Y-147120061D01*
X119424688Y-147025626D01*
X119433112Y-146915415D01*
X119424942Y-146810616D01*
X119401866Y-146721961D01*
X119365163Y-146646607D01*
X119314898Y-146582390D01*
X119229419Y-146515402D01*
X119127882Y-146474676D01*
X119005565Y-146460390D01*
X118891448Y-146474387D01*
X118790997Y-146515345D01*
X118705025Y-146578938D01*
X118640788Y-146657739D01*
X118409856Y-146627697D01*
X118603907Y-145594794D01*
X119599808Y-145594794D01*
X119599808Y-145827313D01*
X118800645Y-145827313D01*
X118692690Y-146372219D01*
X118817677Y-146299441D01*
X118943009Y-146257372D01*
X119071144Y-146243503D01*
X119198885Y-146255231D01*
X119313588Y-146289381D01*
X119417906Y-146345755D01*
X119513712Y-146425952D01*
X119591823Y-146522461D01*
X119647686Y-146631107D01*
X119682102Y-146754256D01*
X119694085Y-146895143D01*
X119683768Y-147029637D01*
X119653739Y-147151769D01*
X119604539Y-147263671D01*
X119535572Y-147367020D01*
X119452718Y-147455113D01*
X119360335Y-147522532D01*
X119257147Y-147570985D01*
X119141120Y-147600874D01*
X119009595Y-147611263D01*
X118874315Y-147600844D01*
X118756753Y-147571081D01*
X118653913Y-147523222D01*
X118563485Y-147457145D01*
X118487046Y-147374730D01*
X118429009Y-147280528D01*
X118388537Y-147172676D01*
X118366137Y-147048527D01*
G37*
G36*
X145690960Y-145572449D02*
G01*
X145792973Y-145597944D01*
X145882398Y-145638950D01*
X145961200Y-145695544D01*
X146027791Y-145766132D01*
X146080076Y-145849070D01*
X146118439Y-145946260D01*
X146142184Y-146060321D01*
X145897697Y-146079371D01*
X145854885Y-145949464D01*
X145804762Y-145872254D01*
X145732844Y-145814573D01*
X145651878Y-145780406D01*
X145558810Y-145768695D01*
X145482641Y-145776151D01*
X145414460Y-145797883D01*
X145352547Y-145833907D01*
X145282619Y-145896525D01*
X145221543Y-145977551D01*
X145169364Y-146080104D01*
X145134780Y-146190386D01*
X145110297Y-146340636D01*
X145099755Y-146540868D01*
X145164801Y-146456961D01*
X145236989Y-146390741D01*
X145316887Y-146340345D01*
X145404429Y-146303740D01*
X145493840Y-146282024D01*
X145586165Y-146274766D01*
X145705333Y-146286261D01*
X145813323Y-146319915D01*
X145912615Y-146375899D01*
X146004919Y-146456238D01*
X146079388Y-146551745D01*
X146132967Y-146659979D01*
X146166136Y-146783375D01*
X146177721Y-146925184D01*
X146168529Y-147049267D01*
X146141404Y-147165888D01*
X146096388Y-147276528D01*
X146034309Y-147377789D01*
X145960090Y-147459912D01*
X145873028Y-147525045D01*
X145775203Y-147572526D01*
X145668434Y-147601368D01*
X145550628Y-147611263D01*
X145401551Y-147596606D01*
X145270582Y-147554208D01*
X145153958Y-147484403D01*
X145049197Y-147384849D01*
X144986099Y-147294665D01*
X144933316Y-147180281D01*
X144892178Y-147036810D01*
X144875156Y-146924940D01*
X145137979Y-146924940D01*
X145151447Y-147049229D01*
X145191957Y-147168328D01*
X145233710Y-147241019D01*
X145283896Y-147299416D01*
X145342899Y-147345282D01*
X145443260Y-147391169D01*
X145546475Y-147406099D01*
X145644856Y-147392323D01*
X145733062Y-147351365D01*
X145814288Y-147280436D01*
X145874595Y-147190481D01*
X145912606Y-147078544D01*
X145926273Y-146938618D01*
X145912787Y-146804320D01*
X145875275Y-146697198D01*
X145815631Y-146611332D01*
X145735398Y-146544786D01*
X145643754Y-146505263D01*
X145536950Y-146491653D01*
X145430847Y-146505109D01*
X145337696Y-146544523D01*
X145254117Y-146611332D01*
X145190664Y-146697337D01*
X145151716Y-146800277D01*
X145137979Y-146924940D01*
X144875156Y-146924940D01*
X144865041Y-146858462D01*
X144855146Y-146638688D01*
X144865985Y-146393416D01*
X144895819Y-146192656D01*
X144941223Y-146029605D01*
X144999679Y-145898221D01*
X145069713Y-145793363D01*
X145149964Y-145710470D01*
X145238984Y-145646993D01*
X145337965Y-145601386D01*
X145448774Y-145573283D01*
X145573831Y-145563531D01*
X145690960Y-145572449D01*
G37*
G36*
X171382501Y-145827313D02*
G01*
X171382501Y-145594794D01*
X172679064Y-145594794D01*
X172679064Y-145786036D01*
X172559134Y-145927953D01*
X172432854Y-146107202D01*
X172299877Y-146329598D01*
X172183426Y-146559299D01*
X172086874Y-146791508D01*
X172009595Y-147026789D01*
X171967172Y-147196564D01*
X171935506Y-147380555D01*
X171915317Y-147580000D01*
X171662648Y-147580000D01*
X171673359Y-147422310D01*
X171702996Y-147232322D01*
X171755460Y-147004930D01*
X171823130Y-146783363D01*
X171907963Y-146566868D01*
X172010327Y-146354877D01*
X172127786Y-146149957D01*
X172245562Y-145975126D01*
X172363503Y-145827313D01*
X171382501Y-145827313D01*
G37*
G36*
X198649003Y-145573882D02*
G01*
X198760610Y-145603352D01*
X198857241Y-145650640D01*
X198941294Y-145715938D01*
X199011970Y-145797260D01*
X199061296Y-145885024D01*
X199090994Y-145980762D01*
X199101151Y-146086699D01*
X199092701Y-146177242D01*
X199068226Y-146257393D01*
X199028000Y-146329232D01*
X198973223Y-146390629D01*
X198900410Y-146443721D01*
X198806106Y-146488356D01*
X198922431Y-146538466D01*
X199014794Y-146603231D01*
X199086863Y-146682773D01*
X199139684Y-146776364D01*
X199171998Y-146882185D01*
X199183217Y-147003220D01*
X199171543Y-147128446D01*
X199137561Y-147240673D01*
X199081439Y-147342576D01*
X199001500Y-147436018D01*
X198905747Y-147511256D01*
X198796051Y-147565608D01*
X198669745Y-147599408D01*
X198523272Y-147611263D01*
X198376844Y-147599366D01*
X198250554Y-147565440D01*
X198140843Y-147510867D01*
X198045045Y-147435286D01*
X197965422Y-147341609D01*
X197909308Y-147238678D01*
X197875203Y-147124532D01*
X197863562Y-146997602D01*
X198116120Y-146997602D01*
X198128428Y-147100100D01*
X198165945Y-147200446D01*
X198204626Y-147260921D01*
X198253690Y-147311261D01*
X198314200Y-147352365D01*
X198416235Y-147392627D01*
X198526081Y-147406099D01*
X198638919Y-147393010D01*
X198734578Y-147355396D01*
X198816974Y-147293136D01*
X198880354Y-147211621D01*
X198918512Y-147117106D01*
X198931769Y-147005662D01*
X198918171Y-146892670D01*
X198878933Y-146796405D01*
X198813555Y-146712937D01*
X198728822Y-146648965D01*
X198631495Y-146610495D01*
X198517777Y-146597166D01*
X198406925Y-146610338D01*
X198312323Y-146648343D01*
X198230181Y-146711594D01*
X198167057Y-146793749D01*
X198129209Y-146887858D01*
X198116120Y-146997602D01*
X197863562Y-146997602D01*
X197863450Y-146996381D01*
X197875185Y-146869155D01*
X197908571Y-146761104D01*
X197962491Y-146668485D01*
X198036271Y-146590992D01*
X198129091Y-146531027D01*
X198244591Y-146488356D01*
X198147565Y-146443488D01*
X198073229Y-146390128D01*
X198017812Y-146328499D01*
X197977428Y-146256150D01*
X197952663Y-146174050D01*
X197944050Y-146079860D01*
X197944779Y-146072166D01*
X198195376Y-146072166D01*
X198206003Y-146162263D01*
X198236464Y-146237978D01*
X198286845Y-146302609D01*
X198352711Y-146351584D01*
X198430805Y-146381496D01*
X198524616Y-146392002D01*
X198615755Y-146381640D01*
X198692337Y-146352001D01*
X198757623Y-146303220D01*
X198808248Y-146239345D01*
X198838220Y-146167725D01*
X198848482Y-146085722D01*
X198837864Y-146000262D01*
X198806928Y-145926006D01*
X198754815Y-145860163D01*
X198687740Y-145809559D01*
X198611087Y-145779193D01*
X198521929Y-145768695D01*
X198431761Y-145779048D01*
X198354897Y-145808851D01*
X198288311Y-145858210D01*
X198236186Y-145922523D01*
X198205704Y-145993025D01*
X198195376Y-146072166D01*
X197944779Y-146072166D01*
X197954107Y-145973744D01*
X197983410Y-145878559D01*
X198031889Y-145792011D01*
X198101099Y-145712519D01*
X198183716Y-145648844D01*
X198279182Y-145602600D01*
X198389950Y-145573702D01*
X198519242Y-145563531D01*
X198649003Y-145573882D01*
G37*
G36*
X171382701Y-827113D02*
G01*
X171382701Y-594594D01*
X172679264Y-594594D01*
X172679264Y-785836D01*
X172559334Y-927753D01*
X172433054Y-1107002D01*
X172300077Y-1329398D01*
X172183626Y-1559099D01*
X172087074Y-1791308D01*
X172009795Y-2026589D01*
X171967372Y-2196364D01*
X171935706Y-2380355D01*
X171915517Y-2579800D01*
X171662848Y-2579800D01*
X171673559Y-2422110D01*
X171703196Y-2232122D01*
X171755660Y-2004730D01*
X171823330Y-1783163D01*
X171908163Y-1566668D01*
X172010527Y-1354677D01*
X172127986Y-1149757D01*
X172245762Y-974926D01*
X172363703Y-827113D01*
X171382701Y-827113D01*
G37*
G36*
X118366337Y-2048327D02*
G01*
X118624502Y-2026467D01*
X118654126Y-2148001D01*
X118699012Y-2240842D01*
X118757736Y-2310766D01*
X118832027Y-2363523D01*
X118915130Y-2395066D01*
X119009795Y-2405899D01*
X119095717Y-2397399D01*
X119173299Y-2372527D01*
X119244418Y-2331118D01*
X119310336Y-2271565D01*
X119362773Y-2201214D01*
X119400972Y-2119861D01*
X119424888Y-2025426D01*
X119433312Y-1915215D01*
X119425142Y-1810416D01*
X119402066Y-1721761D01*
X119365363Y-1646407D01*
X119315098Y-1582190D01*
X119229619Y-1515202D01*
X119128082Y-1474476D01*
X119005765Y-1460190D01*
X118891648Y-1474187D01*
X118791197Y-1515145D01*
X118705225Y-1578738D01*
X118640988Y-1657539D01*
X118410056Y-1627497D01*
X118604107Y-594594D01*
X119600008Y-594594D01*
X119600008Y-827113D01*
X118800845Y-827113D01*
X118692890Y-1372019D01*
X118817877Y-1299241D01*
X118943209Y-1257172D01*
X119071344Y-1243303D01*
X119199085Y-1255031D01*
X119313788Y-1289181D01*
X119418106Y-1345555D01*
X119513912Y-1425752D01*
X119592023Y-1522261D01*
X119647886Y-1630907D01*
X119682302Y-1754056D01*
X119694285Y-1894943D01*
X119683968Y-2029437D01*
X119653939Y-2151569D01*
X119604739Y-2263471D01*
X119535772Y-2366820D01*
X119452918Y-2454913D01*
X119360535Y-2522332D01*
X119257347Y-2570785D01*
X119141320Y-2600674D01*
X119009795Y-2611063D01*
X118874515Y-2600644D01*
X118756953Y-2570881D01*
X118654113Y-2523022D01*
X118563685Y-2456945D01*
X118487246Y-2374530D01*
X118429209Y-2280328D01*
X118388737Y-2172476D01*
X118366337Y-2048327D01*
G37*
G36*
X145691160Y-572249D02*
G01*
X145793173Y-597744D01*
X145882598Y-638750D01*
X145961400Y-695344D01*
X146027991Y-765932D01*
X146080276Y-848870D01*
X146118639Y-946060D01*
X146142384Y-1060121D01*
X145897897Y-1079171D01*
X145855085Y-949264D01*
X145804962Y-872054D01*
X145733044Y-814373D01*
X145652078Y-780206D01*
X145559010Y-768495D01*
X145482841Y-775951D01*
X145414660Y-797683D01*
X145352747Y-833707D01*
X145282819Y-896325D01*
X145221743Y-977351D01*
X145169564Y-1079904D01*
X145134980Y-1190186D01*
X145110497Y-1340436D01*
X145099955Y-1540668D01*
X145165001Y-1456761D01*
X145237189Y-1390541D01*
X145317087Y-1340145D01*
X145404629Y-1303540D01*
X145494040Y-1281824D01*
X145586365Y-1274566D01*
X145705533Y-1286061D01*
X145813523Y-1319715D01*
X145912815Y-1375699D01*
X146005119Y-1456038D01*
X146079588Y-1551545D01*
X146133167Y-1659779D01*
X146166336Y-1783175D01*
X146177921Y-1924984D01*
X146168729Y-2049067D01*
X146141604Y-2165688D01*
X146096588Y-2276328D01*
X146034509Y-2377589D01*
X145960290Y-2459712D01*
X145873228Y-2524845D01*
X145775403Y-2572326D01*
X145668634Y-2601168D01*
X145550828Y-2611063D01*
X145401751Y-2596406D01*
X145270782Y-2554008D01*
X145154158Y-2484203D01*
X145049397Y-2384649D01*
X144986299Y-2294465D01*
X144933516Y-2180081D01*
X144892378Y-2036610D01*
X144875356Y-1924740D01*
X145138179Y-1924740D01*
X145151647Y-2049029D01*
X145192157Y-2168128D01*
X145233910Y-2240819D01*
X145284096Y-2299216D01*
X145343099Y-2345082D01*
X145443460Y-2390969D01*
X145546675Y-2405899D01*
X145645056Y-2392123D01*
X145733262Y-2351165D01*
X145814488Y-2280236D01*
X145874795Y-2190281D01*
X145912806Y-2078344D01*
X145926473Y-1938418D01*
X145912987Y-1804120D01*
X145875475Y-1696998D01*
X145815831Y-1611132D01*
X145735598Y-1544586D01*
X145643954Y-1505063D01*
X145537150Y-1491453D01*
X145431047Y-1504909D01*
X145337896Y-1544323D01*
X145254317Y-1611132D01*
X145190864Y-1697137D01*
X145151916Y-1800077D01*
X145138179Y-1924740D01*
X144875356Y-1924740D01*
X144865241Y-1858262D01*
X144855346Y-1638488D01*
X144866185Y-1393216D01*
X144896019Y-1192456D01*
X144941423Y-1029405D01*
X144999879Y-898021D01*
X145069913Y-793163D01*
X145150164Y-710270D01*
X145239184Y-646793D01*
X145338165Y-601186D01*
X145448974Y-573083D01*
X145574031Y-563331D01*
X145691160Y-572249D01*
G37*
G36*
X198649203Y-573682D02*
G01*
X198760810Y-603152D01*
X198857441Y-650440D01*
X198941494Y-715738D01*
X199012170Y-797060D01*
X199061496Y-884824D01*
X199091194Y-980562D01*
X199101351Y-1086499D01*
X199092901Y-1177042D01*
X199068426Y-1257193D01*
X199028200Y-1329032D01*
X198973423Y-1390429D01*
X198900610Y-1443521D01*
X198806306Y-1488156D01*
X198922631Y-1538266D01*
X199014994Y-1603031D01*
X199087063Y-1682573D01*
X199139884Y-1776164D01*
X199172198Y-1881985D01*
X199183417Y-2003020D01*
X199171743Y-2128246D01*
X199137761Y-2240473D01*
X199081639Y-2342376D01*
X199001700Y-2435818D01*
X198905947Y-2511056D01*
X198796251Y-2565408D01*
X198669945Y-2599208D01*
X198523472Y-2611063D01*
X198377044Y-2599166D01*
X198250754Y-2565240D01*
X198141043Y-2510667D01*
X198045245Y-2435086D01*
X197965622Y-2341409D01*
X197909508Y-2238478D01*
X197875403Y-2124332D01*
X197863762Y-1997402D01*
X198116320Y-1997402D01*
X198128628Y-2099900D01*
X198166145Y-2200246D01*
X198204826Y-2260721D01*
X198253890Y-2311061D01*
X198314400Y-2352165D01*
X198416435Y-2392427D01*
X198526281Y-2405899D01*
X198639119Y-2392810D01*
X198734778Y-2355196D01*
X198817174Y-2292936D01*
X198880554Y-2211421D01*
X198918712Y-2116906D01*
X198931969Y-2005462D01*
X198918371Y-1892470D01*
X198879133Y-1796205D01*
X198813755Y-1712737D01*
X198729022Y-1648765D01*
X198631695Y-1610295D01*
X198517977Y-1596966D01*
X198407125Y-1610138D01*
X198312523Y-1648143D01*
X198230381Y-1711394D01*
X198167257Y-1793549D01*
X198129409Y-1887658D01*
X198116320Y-1997402D01*
X197863762Y-1997402D01*
X197863650Y-1996181D01*
X197875385Y-1868955D01*
X197908771Y-1760904D01*
X197962691Y-1668285D01*
X198036471Y-1590792D01*
X198129291Y-1530827D01*
X198244791Y-1488156D01*
X198147765Y-1443288D01*
X198073429Y-1389928D01*
X198018012Y-1328299D01*
X197977628Y-1255950D01*
X197952863Y-1173850D01*
X197944250Y-1079660D01*
X197944979Y-1071966D01*
X198195576Y-1071966D01*
X198206203Y-1162063D01*
X198236664Y-1237778D01*
X198287045Y-1302409D01*
X198352911Y-1351384D01*
X198431005Y-1381296D01*
X198524816Y-1391802D01*
X198615955Y-1381440D01*
X198692537Y-1351801D01*
X198757823Y-1303020D01*
X198808448Y-1239145D01*
X198838420Y-1167525D01*
X198848682Y-1085522D01*
X198838064Y-1000062D01*
X198807128Y-925806D01*
X198755015Y-859963D01*
X198687940Y-809359D01*
X198611287Y-778993D01*
X198522129Y-768495D01*
X198431961Y-778848D01*
X198355097Y-808651D01*
X198288511Y-858010D01*
X198236386Y-922323D01*
X198205904Y-992825D01*
X198195576Y-1071966D01*
X197944979Y-1071966D01*
X197954307Y-973544D01*
X197983610Y-878359D01*
X198032089Y-791811D01*
X198101299Y-712319D01*
X198183916Y-648644D01*
X198279382Y-602400D01*
X198390150Y-573502D01*
X198519442Y-563331D01*
X198649203Y-573682D01*
G37*
G36*
X92900583Y-1876380D02*
G01*
X93171082Y-1876380D01*
X93171082Y-2101084D01*
X92900583Y-2101084D01*
X92900583Y-2579800D01*
X92654631Y-2579800D01*
X92654631Y-2101084D01*
X91785737Y-2101084D01*
X91785737Y-1876380D01*
X92027537Y-1876380D01*
X92654631Y-1876380D01*
X92654631Y-973659D01*
X92027537Y-1876380D01*
X91785737Y-1876380D01*
X92699694Y-578962D01*
X92900583Y-578962D01*
X92900583Y-1876380D01*
G37*
X53000000Y-3000000D02*
X53018000Y-4000D01*
X79500000Y-3000000D02*
X79500000Y0D01*
X185500000Y-3000000D02*
X185518000Y-4000D01*
X26500000Y-3000000D02*
X26500000Y0D01*
X132500000Y-3000000D02*
X132500000Y0D01*
X106000000Y-3000000D02*
X106000000Y0D01*
G36*
X13292428Y-2580000D02*
G01*
X13046475Y-2580000D01*
X13046475Y-1008785D01*
X12948606Y-1090214D01*
X12813590Y-1178656D01*
X12671500Y-1255539D01*
X12554692Y-1306029D01*
X12554692Y-1071556D01*
X12688458Y-1000394D01*
X12808303Y-921243D01*
X12915317Y-834152D01*
X13013495Y-736309D01*
X13084900Y-646486D01*
X13133914Y-563531D01*
X13292428Y-563531D01*
X13292428Y-2580000D01*
G37*
G36*
X40158748Y-2347280D02*
G01*
X40158748Y-2579800D01*
X38834952Y-2579800D01*
X38840742Y-2492729D01*
X38863650Y-2409318D01*
X38927601Y-2278321D01*
X39025461Y-2143460D01*
X39152200Y-2011203D01*
X39347251Y-1840721D01*
X39563359Y-1653767D01*
X39704152Y-1515078D01*
X39788476Y-1414517D01*
X39855310Y-1305422D01*
X39891835Y-1207284D01*
X39903270Y-1117151D01*
X39891473Y-1023708D01*
X39857006Y-942167D01*
X39798734Y-869489D01*
X39723685Y-814260D01*
X39634225Y-780413D01*
X39526281Y-768495D01*
X39412275Y-781238D01*
X39319054Y-817255D01*
X39241982Y-875839D01*
X39184301Y-953471D01*
X39147852Y-1050660D01*
X39134149Y-1172961D01*
X38881358Y-1146827D01*
X38905058Y-1005953D01*
X38946261Y-889171D01*
X39003489Y-792424D01*
X39076752Y-712685D01*
X39165047Y-649424D01*
X39268286Y-602972D01*
X39389293Y-573694D01*
X39531654Y-563331D01*
X39674865Y-574425D01*
X39796271Y-605788D01*
X39899684Y-655693D01*
X39988022Y-724042D01*
X40061923Y-809693D01*
X40113815Y-903307D01*
X40145253Y-1006627D01*
X40156061Y-1122158D01*
X40143900Y-1241238D01*
X40106846Y-1359684D01*
X40044683Y-1474569D01*
X39943570Y-1605515D01*
X39807834Y-1743444D01*
X39564505Y-1959667D01*
X39363951Y-2133414D01*
X39280206Y-2213313D01*
X39221919Y-2281354D01*
X39176525Y-2347280D01*
X40158748Y-2347280D01*
G37*
G36*
X65367680Y-2049793D02*
G01*
X65613633Y-2017064D01*
X65651847Y-2150838D01*
X65700491Y-2247344D01*
X65757736Y-2314796D01*
X65830055Y-2365144D01*
X65911804Y-2395442D01*
X66005765Y-2405899D01*
X66116494Y-2392316D01*
X66212972Y-2352728D01*
X66298734Y-2286097D01*
X66365052Y-2199978D01*
X66404649Y-2102208D01*
X66418291Y-1989098D01*
X66405508Y-1881125D01*
X66368719Y-1789535D01*
X66307649Y-1710539D01*
X66228085Y-1650104D01*
X66135572Y-1613587D01*
X66026281Y-1600874D01*
X65952947Y-1606956D01*
X65852747Y-1628229D01*
X65879980Y-1412441D01*
X65919669Y-1415250D01*
X66021923Y-1405963D01*
X66115537Y-1378716D01*
X66202380Y-1333428D01*
X66256959Y-1287420D01*
X66295623Y-1231524D01*
X66319635Y-1163792D01*
X66328165Y-1081003D01*
X66317658Y-994762D01*
X66287291Y-921146D01*
X66236574Y-857155D01*
X66170865Y-808552D01*
X66093230Y-778897D01*
X66000269Y-768495D01*
X65908148Y-778847D01*
X65829447Y-808640D01*
X65761156Y-857887D01*
X65707527Y-923331D01*
X65666046Y-1010848D01*
X65638179Y-1126066D01*
X65392349Y-1082347D01*
X65423610Y-961138D01*
X65468487Y-858585D01*
X65526288Y-771963D01*
X65597269Y-699252D01*
X65680633Y-640600D01*
X65773421Y-598399D01*
X65877383Y-572369D01*
X65994774Y-563331D01*
X66102387Y-571351D01*
X66202596Y-594929D01*
X66296780Y-633917D01*
X66382891Y-687611D01*
X66452626Y-751523D01*
X66507806Y-826258D01*
X66548732Y-909925D01*
X66572886Y-995748D01*
X66580957Y-1085033D01*
X66573112Y-1169666D01*
X66549961Y-1248143D01*
X66511225Y-1321949D01*
X66458893Y-1386713D01*
X66390954Y-1443233D01*
X66304962Y-1491698D01*
X66416956Y-1529904D01*
X66507750Y-1586444D01*
X66580835Y-1661691D01*
X66634366Y-1752249D01*
X66667569Y-1858552D01*
X66679264Y-1984458D01*
X66667102Y-2111565D01*
X66631555Y-2226358D01*
X66572541Y-2331507D01*
X66488022Y-2428857D01*
X66387203Y-2507862D01*
X66274655Y-2564313D01*
X66148091Y-2599015D01*
X66004421Y-2611063D01*
X65874363Y-2600672D01*
X65759693Y-2570775D01*
X65657746Y-2522284D01*
X65566494Y-2454747D01*
X65489033Y-2371173D01*
X65430554Y-2277047D01*
X65390014Y-2170715D01*
X65367680Y-2049793D01*
G37*
X32750200Y-5999600D02*
X32750200Y-2999600D01*
D12*
X-205481800Y74496200D02*
X-209981800Y74496200D01*
D11*
X32750200Y-5999600D02*
X32750200Y-2999600D01*
X48250200Y-5999600D02*
X48250200Y-2999600D01*
G36*
X40359396Y-3578972D02*
G01*
X40480219Y-3600202D01*
X40574728Y-3632085D01*
X40661011Y-3680268D01*
X40732913Y-3742342D01*
X40791982Y-3819419D01*
X40836133Y-3906300D01*
X40861947Y-3994007D01*
X40870507Y-4083934D01*
X40862807Y-4167736D01*
X40839782Y-4248034D01*
X40800775Y-4326101D01*
X40748006Y-4395243D01*
X40678752Y-4456214D01*
X40590482Y-4509283D01*
X40705384Y-4554937D01*
X40797328Y-4615777D01*
X40869896Y-4691855D01*
X40923737Y-4782062D01*
X40956350Y-4882699D01*
X40967593Y-4996548D01*
X40952566Y-5133594D01*
X40908120Y-5259353D01*
X40839696Y-5369363D01*
X40761208Y-5446687D01*
X40665686Y-5503096D01*
X40541878Y-5546216D01*
X40402508Y-5570628D01*
X40218867Y-5579800D01*
X39455119Y-5579800D01*
X39455119Y-5347280D01*
X39720245Y-5347280D01*
X40218867Y-5347280D01*
X40399240Y-5337511D01*
X40485604Y-5314465D01*
X40552136Y-5282067D01*
X40607273Y-5235400D01*
X40653253Y-5168983D01*
X40682661Y-5090527D01*
X40692942Y-4997525D01*
X40686279Y-4923437D01*
X40667034Y-4858093D01*
X40635545Y-4799810D01*
X40592587Y-4749590D01*
X40540003Y-4710472D01*
X40476299Y-4681841D01*
X40363205Y-4657632D01*
X40183329Y-4647769D01*
X39720245Y-4647769D01*
X39720245Y-5347280D01*
X39455119Y-5347280D01*
X39455119Y-4415250D01*
X39720245Y-4415250D01*
X40153287Y-4415250D01*
X40317058Y-4408149D01*
X40406079Y-4391802D01*
X40496584Y-4350159D01*
X40558364Y-4291052D01*
X40596177Y-4213865D01*
X40609655Y-4114342D01*
X40597355Y-4018322D01*
X40561784Y-3936900D01*
X40525343Y-3891178D01*
X40480255Y-3856477D01*
X40425130Y-3831998D01*
X40320477Y-3812343D01*
X40120437Y-3803666D01*
X39720245Y-3803666D01*
X39720245Y-4415250D01*
X39455119Y-4415250D01*
X39455119Y-3571146D01*
X40206532Y-3571146D01*
X40359396Y-3578972D01*
G37*
X63750200Y-5999600D02*
X63750200Y-2999600D01*
G36*
X56395175Y-4876380D02*
G01*
X56660179Y-4943303D01*
X56607602Y-5102826D01*
X56539759Y-5236573D01*
X56457403Y-5348106D01*
X56360248Y-5440093D01*
X56247991Y-5513809D01*
X56123857Y-5566945D01*
X55985709Y-5599709D01*
X55830852Y-5611063D01*
X55667534Y-5601783D01*
X55527464Y-5575602D01*
X55407290Y-5534419D01*
X55304142Y-5479294D01*
X55210220Y-5407265D01*
X55127772Y-5320629D01*
X55056182Y-5218004D01*
X54995419Y-5097420D01*
X54936948Y-4927898D01*
X54901548Y-4749497D01*
X54889540Y-4560452D01*
X54903685Y-4354680D01*
X54944156Y-4174057D01*
X55009097Y-4014691D01*
X55076129Y-3903875D01*
X55154781Y-3808830D01*
X55245507Y-3728091D01*
X55349327Y-3660783D01*
X55500393Y-3593951D01*
X55661467Y-3553607D01*
X55835004Y-3539883D01*
X55984464Y-3550110D01*
X56116877Y-3579488D01*
X56234840Y-3626815D01*
X56340465Y-3691924D01*
X56433792Y-3774172D01*
X56512176Y-3871541D01*
X56576304Y-3985746D01*
X56625985Y-4119227D01*
X56365133Y-4180776D01*
X56308057Y-4041836D01*
X56240376Y-3938439D01*
X56162900Y-3863871D01*
X56069953Y-3809998D01*
X55960180Y-3776442D01*
X55829509Y-3764587D01*
X55679060Y-3777824D01*
X55551858Y-3815351D01*
X55443483Y-3875595D01*
X55350581Y-3957773D01*
X55278360Y-4056253D01*
X55225618Y-4173449D01*
X55190750Y-4299363D01*
X55169850Y-4427634D01*
X55162848Y-4558987D01*
X55171771Y-4728671D01*
X55197118Y-4876832D01*
X55237220Y-5006317D01*
X55297612Y-5125341D01*
X55374520Y-5219354D01*
X55468762Y-5291837D01*
X55576745Y-5344473D01*
X55689557Y-5375808D01*
X55808992Y-5386359D01*
X55918883Y-5377887D01*
X56017125Y-5353390D01*
X56105688Y-5313508D01*
X56186103Y-5257887D01*
X56254352Y-5189129D01*
X56312115Y-5104403D01*
X56359353Y-5001226D01*
X56395175Y-4876380D01*
G37*
X79250200Y-5999600D02*
X79250200Y-2999600D01*
G36*
X71375784Y-3579529D02*
G01*
X71512569Y-3599967D01*
X71623638Y-3634340D01*
X71720984Y-3682321D01*
X71806393Y-3743826D01*
X71902272Y-3840591D01*
X71981084Y-3954245D01*
X72043308Y-4086987D01*
X72085953Y-4228376D01*
X72112643Y-4386733D01*
X72121955Y-4564482D01*
X72115571Y-4716565D01*
X72097378Y-4851136D01*
X72068587Y-4970169D01*
X72005517Y-5136499D01*
X71931934Y-5262650D01*
X71842655Y-5368131D01*
X71749606Y-5444855D01*
X71643172Y-5502046D01*
X71510493Y-5545606D01*
X71364977Y-5570724D01*
X71188825Y-5579800D01*
X70466110Y-5579800D01*
X70466110Y-5347280D01*
X70731114Y-5347280D01*
X71158783Y-5347280D01*
X71345951Y-5336699D01*
X71469582Y-5310155D01*
X71573370Y-5263856D01*
X71649223Y-5205375D01*
X71705433Y-5137573D01*
X71754522Y-5053257D01*
X71796012Y-4949653D01*
X71824025Y-4841341D01*
X71842151Y-4712635D01*
X71848647Y-4560330D01*
X71840882Y-4397455D01*
X71819567Y-4265142D01*
X71787181Y-4158487D01*
X71745454Y-4073187D01*
X71668421Y-3968405D01*
X71585183Y-3893940D01*
X71494861Y-3845065D01*
X71421646Y-3824439D01*
X71311257Y-3809514D01*
X71151944Y-3803666D01*
X70731114Y-3803666D01*
X70731114Y-5347280D01*
X70466110Y-5347280D01*
X70466110Y-3571146D01*
X71155974Y-3571146D01*
X71375784Y-3579529D01*
G37*
X94750200Y-5999600D02*
X94750200Y-2999600D01*
G36*
X85971484Y-5579800D02*
G01*
X85971484Y-3571146D01*
X87419721Y-3571146D01*
X87419721Y-3803666D01*
X86236609Y-3803666D01*
X86236609Y-4423065D01*
X87344617Y-4423065D01*
X87344617Y-4655585D01*
X86236609Y-4655585D01*
X86236609Y-5347280D01*
X87466250Y-5347280D01*
X87466250Y-5579800D01*
X85971484Y-5579800D01*
G37*
X110250200Y-5999600D02*
X110250200Y-2999600D01*
G36*
X101479788Y-5579800D02*
G01*
X101479788Y-3571146D01*
X102830939Y-3571146D01*
X102830939Y-3803666D01*
X101744791Y-3803666D01*
X101744791Y-4430881D01*
X102684760Y-4430881D01*
X102684760Y-4663400D01*
X101744791Y-4663400D01*
X101744791Y-5579800D01*
X101479788Y-5579800D01*
G37*
X125750200Y-5999600D02*
X125750200Y-2999600D01*
G36*
X117903270Y-4788453D02*
G01*
X117903270Y-4555933D01*
X118751770Y-4554590D01*
X118751770Y-5298432D01*
X118617445Y-5395340D01*
X118483261Y-5472904D01*
X118348647Y-5532539D01*
X118208511Y-5576289D01*
X118066768Y-5602360D01*
X117922443Y-5611063D01*
X117728830Y-5596585D01*
X117550958Y-5554261D01*
X117386086Y-5484667D01*
X117272075Y-5413804D01*
X117174254Y-5329834D01*
X117091170Y-5232096D01*
X117022042Y-5119280D01*
X116954448Y-4955919D01*
X116913208Y-4778747D01*
X116899066Y-4584998D01*
X116912868Y-4392921D01*
X116953637Y-4211714D01*
X117021309Y-4039238D01*
X117090732Y-3918408D01*
X117172170Y-3816608D01*
X117265961Y-3731841D01*
X117373141Y-3662860D01*
X117530441Y-3595679D01*
X117705561Y-3554245D01*
X117901927Y-3539883D01*
X118045431Y-3548043D01*
X118175779Y-3571663D01*
X118294669Y-3609859D01*
X118406347Y-3664428D01*
X118497170Y-3729451D01*
X118569931Y-3804887D01*
X118628732Y-3892342D01*
X118679626Y-3999858D01*
X118721728Y-4130829D01*
X118482614Y-4196408D01*
X118429317Y-4054422D01*
X118370507Y-3956684D01*
X118321340Y-3904034D01*
X118258353Y-3857477D01*
X118179264Y-3817099D01*
X118050091Y-3778095D01*
X117903270Y-3764587D01*
X117783027Y-3771269D01*
X117679046Y-3790184D01*
X117589052Y-3820030D01*
X117467121Y-3885727D01*
X117375217Y-3965843D01*
X117302740Y-4060976D01*
X117248821Y-4164168D01*
X117206732Y-4290331D01*
X117181106Y-4424452D01*
X117172373Y-4567901D01*
X117183668Y-4744988D01*
X117215243Y-4893087D01*
X117264575Y-5016942D01*
X117336079Y-5127885D01*
X117424982Y-5216510D01*
X117532998Y-5285121D01*
X117653088Y-5333801D01*
X117777416Y-5362896D01*
X117907422Y-5372682D01*
X118020890Y-5365384D01*
X118132589Y-5343482D01*
X118243378Y-5306614D01*
X118394870Y-5234133D01*
X118492139Y-5165564D01*
X118492139Y-4788453D01*
X117903270Y-4788453D01*
G37*
X141250200Y-5999600D02*
X141250200Y-2999600D01*
G36*
X132474292Y-5579800D02*
G01*
X132474292Y-3571146D01*
X132739296Y-3571146D01*
X132739296Y-4399618D01*
X133780381Y-4399618D01*
X133780381Y-3571146D01*
X134045384Y-3571146D01*
X134045384Y-5579800D01*
X133780381Y-5579800D01*
X133780381Y-4632137D01*
X132739296Y-4632137D01*
X132739296Y-5579800D01*
X132474292Y-5579800D01*
G37*
X156750200Y-5999600D02*
X156750200Y-2999600D01*
G36*
X148011173Y-5579800D02*
G01*
X148011173Y-3571146D01*
X148276176Y-3571146D01*
X148276176Y-5579800D01*
X148011173Y-5579800D01*
G37*
X172250200Y-5999600D02*
X172250200Y-2999600D01*
G36*
X163330800Y-5010836D02*
G01*
X163569913Y-4977985D01*
X163586594Y-5131015D01*
X163616835Y-5231194D01*
X163655887Y-5293547D01*
X163712013Y-5339907D01*
X163781323Y-5368408D01*
X163867768Y-5378543D01*
X163962230Y-5366627D01*
X164039837Y-5332626D01*
X164101156Y-5278255D01*
X164139610Y-5207818D01*
X164158775Y-5117110D01*
X164166965Y-4956125D01*
X164166965Y-3571146D01*
X164431969Y-3571146D01*
X164431969Y-4937929D01*
X164423908Y-5106153D01*
X164402489Y-5233406D01*
X164371152Y-5327863D01*
X164322537Y-5412988D01*
X164258838Y-5482654D01*
X164178567Y-5538522D01*
X164088031Y-5578005D01*
X163985644Y-5602513D01*
X163869111Y-5611063D01*
X163738128Y-5600468D01*
X163629815Y-5570800D01*
X163539945Y-5523952D01*
X163465377Y-5459998D01*
X163407756Y-5381184D01*
X163365079Y-5283085D01*
X163338488Y-5161423D01*
X163330800Y-5010836D01*
G37*
X187750200Y-5999600D02*
X187750200Y-2999600D01*
G36*
X178955119Y-5579800D02*
G01*
X178955119Y-3571146D01*
X179220245Y-3571146D01*
X179220245Y-4568512D01*
X180214802Y-3571146D01*
X180574083Y-3571146D01*
X179733888Y-4385330D01*
X180610964Y-5579800D01*
X180261208Y-5579800D01*
X179548141Y-4563017D01*
X179220245Y-4884196D01*
X179220245Y-5579800D01*
X178955119Y-5579800D01*
G37*
X32750200Y-5999600D02*
X32750200Y-2999600D01*
G36*
X25620611Y-5579600D02*
G01*
X25318605Y-5579600D01*
X25084987Y-4969969D01*
X24247478Y-4969969D01*
X24027537Y-5579600D01*
X23746047Y-5579600D01*
X24063322Y-4751128D01*
X24324048Y-4751128D01*
X25003043Y-4751128D01*
X24793971Y-4196574D01*
X24706613Y-3954580D01*
X24651944Y-3781362D01*
X24606037Y-3972590D01*
X24543989Y-4163846D01*
X24324048Y-4751128D01*
X24063322Y-4751128D01*
X24515290Y-3570946D01*
X24800810Y-3570946D01*
X25620611Y-5579600D01*
G37*
G36*
X194455119Y-5579800D02*
G01*
X194455119Y-3571146D01*
X194720245Y-3571146D01*
X194720245Y-5347280D01*
X195706620Y-5347280D01*
X195706620Y-5579800D01*
X194455119Y-5579800D01*
G37*
D13*
X62810017Y-89535301D02*
X63286207Y-89535301D01*
X63286207Y-89535301D02*
X63286207Y-88535301D01*
X61952874Y-89535301D02*
X62524302Y-89535301D01*
X62238588Y-89535301D02*
X62238588Y-88535301D01*
X62238588Y-88535301D02*
X62333826Y-88678158D01*
X62333826Y-88678158D02*
X62429064Y-88773396D01*
X62429064Y-88773396D02*
X62524302Y-88821015D01*
X106075819Y-96815952D02*
X105599628Y-96482619D01*
X106075819Y-96244524D02*
X105075819Y-96244524D01*
X105075819Y-96244524D02*
X105075819Y-96625476D01*
X105075819Y-96625476D02*
X105123438Y-96720714D01*
X105123438Y-96720714D02*
X105171057Y-96768333D01*
X105171057Y-96768333D02*
X105266295Y-96815952D01*
X105266295Y-96815952D02*
X105409152Y-96815952D01*
X105409152Y-96815952D02*
X105504390Y-96768333D01*
X105504390Y-96768333D02*
X105552009Y-96720714D01*
X105552009Y-96720714D02*
X105599628Y-96625476D01*
X105599628Y-96625476D02*
X105599628Y-96244524D01*
X105552009Y-97244524D02*
X105552009Y-97577857D01*
X106075819Y-97720714D02*
X106075819Y-97244524D01*
X106075819Y-97244524D02*
X105075819Y-97244524D01*
X105075819Y-97244524D02*
X105075819Y-97720714D01*
X105123438Y-98673095D02*
X105075819Y-98577857D01*
X105075819Y-98577857D02*
X105075819Y-98435000D01*
X105075819Y-98435000D02*
X105123438Y-98292143D01*
X105123438Y-98292143D02*
X105218676Y-98196905D01*
X105218676Y-98196905D02*
X105313914Y-98149286D01*
X105313914Y-98149286D02*
X105504390Y-98101667D01*
X105504390Y-98101667D02*
X105647247Y-98101667D01*
X105647247Y-98101667D02*
X105837723Y-98149286D01*
X105837723Y-98149286D02*
X105932961Y-98196905D01*
X105932961Y-98196905D02*
X106028200Y-98292143D01*
X106028200Y-98292143D02*
X106075819Y-98435000D01*
X106075819Y-98435000D02*
X106075819Y-98530238D01*
X106075819Y-98530238D02*
X106028200Y-98673095D01*
X106028200Y-98673095D02*
X105980580Y-98720714D01*
X105980580Y-98720714D02*
X105647247Y-98720714D01*
X105647247Y-98720714D02*
X105647247Y-98530238D01*
X105075819Y-99054048D02*
X105075819Y-99673095D01*
X105075819Y-99673095D02*
X105456771Y-99339762D01*
X105456771Y-99339762D02*
X105456771Y-99482619D01*
X105456771Y-99482619D02*
X105504390Y-99577857D01*
X105504390Y-99577857D02*
X105552009Y-99625476D01*
X105552009Y-99625476D02*
X105647247Y-99673095D01*
X105647247Y-99673095D02*
X105885342Y-99673095D01*
X105885342Y-99673095D02*
X105980580Y-99625476D01*
X105980580Y-99625476D02*
X106028200Y-99577857D01*
X106028200Y-99577857D02*
X106075819Y-99482619D01*
X106075819Y-99482619D02*
X106075819Y-99196905D01*
X106075819Y-99196905D02*
X106028200Y-99101667D01*
X106028200Y-99101667D02*
X105980580Y-99054048D01*
X56714670Y-93186387D02*
X55714670Y-93186387D01*
X55714670Y-93186387D02*
X55714670Y-93424482D01*
X55714670Y-93424482D02*
X55762289Y-93567339D01*
X55762289Y-93567339D02*
X55857527Y-93662577D01*
X55857527Y-93662577D02*
X55952765Y-93710196D01*
X55952765Y-93710196D02*
X56143241Y-93757815D01*
X56143241Y-93757815D02*
X56286098Y-93757815D01*
X56286098Y-93757815D02*
X56476574Y-93710196D01*
X56476574Y-93710196D02*
X56571812Y-93662577D01*
X56571812Y-93662577D02*
X56667051Y-93567339D01*
X56667051Y-93567339D02*
X56714670Y-93424482D01*
X56714670Y-93424482D02*
X56714670Y-93186387D01*
X55714670Y-94614958D02*
X55714670Y-94424482D01*
X55714670Y-94424482D02*
X55762289Y-94329244D01*
X55762289Y-94329244D02*
X55809908Y-94281625D01*
X55809908Y-94281625D02*
X55952765Y-94186387D01*
X55952765Y-94186387D02*
X56143241Y-94138768D01*
X56143241Y-94138768D02*
X56524193Y-94138768D01*
X56524193Y-94138768D02*
X56619431Y-94186387D01*
X56619431Y-94186387D02*
X56667051Y-94234006D01*
X56667051Y-94234006D02*
X56714670Y-94329244D01*
X56714670Y-94329244D02*
X56714670Y-94519720D01*
X56714670Y-94519720D02*
X56667051Y-94614958D01*
X56667051Y-94614958D02*
X56619431Y-94662577D01*
X56619431Y-94662577D02*
X56524193Y-94710196D01*
X56524193Y-94710196D02*
X56286098Y-94710196D01*
X56286098Y-94710196D02*
X56190860Y-94662577D01*
X56190860Y-94662577D02*
X56143241Y-94614958D01*
X56143241Y-94614958D02*
X56095622Y-94519720D01*
X56095622Y-94519720D02*
X56095622Y-94329244D01*
X56095622Y-94329244D02*
X56143241Y-94234006D01*
X56143241Y-94234006D02*
X56190860Y-94186387D01*
X56190860Y-94186387D02*
X56286098Y-94138768D01*
X69729819Y-74815952D02*
X69253628Y-74482619D01*
X69729819Y-74244524D02*
X68729819Y-74244524D01*
X68729819Y-74244524D02*
X68729819Y-74625476D01*
X68729819Y-74625476D02*
X68777438Y-74720714D01*
X68777438Y-74720714D02*
X68825057Y-74768333D01*
X68825057Y-74768333D02*
X68920295Y-74815952D01*
X68920295Y-74815952D02*
X69063152Y-74815952D01*
X69063152Y-74815952D02*
X69158390Y-74768333D01*
X69158390Y-74768333D02*
X69206009Y-74720714D01*
X69206009Y-74720714D02*
X69253628Y-74625476D01*
X69253628Y-74625476D02*
X69253628Y-74244524D01*
X69206009Y-75244524D02*
X69206009Y-75577857D01*
X69729819Y-75720714D02*
X69729819Y-75244524D01*
X69729819Y-75244524D02*
X68729819Y-75244524D01*
X68729819Y-75244524D02*
X68729819Y-75720714D01*
X68777438Y-76673095D02*
X68729819Y-76577857D01*
X68729819Y-76577857D02*
X68729819Y-76435000D01*
X68729819Y-76435000D02*
X68777438Y-76292143D01*
X68777438Y-76292143D02*
X68872676Y-76196905D01*
X68872676Y-76196905D02*
X68967914Y-76149286D01*
X68967914Y-76149286D02*
X69158390Y-76101667D01*
X69158390Y-76101667D02*
X69301247Y-76101667D01*
X69301247Y-76101667D02*
X69491723Y-76149286D01*
X69491723Y-76149286D02*
X69586961Y-76196905D01*
X69586961Y-76196905D02*
X69682200Y-76292143D01*
X69682200Y-76292143D02*
X69729819Y-76435000D01*
X69729819Y-76435000D02*
X69729819Y-76530238D01*
X69729819Y-76530238D02*
X69682200Y-76673095D01*
X69682200Y-76673095D02*
X69634580Y-76720714D01*
X69634580Y-76720714D02*
X69301247Y-76720714D01*
X69301247Y-76720714D02*
X69301247Y-76530238D01*
X68825057Y-77101667D02*
X68777438Y-77149286D01*
X68777438Y-77149286D02*
X68729819Y-77244524D01*
X68729819Y-77244524D02*
X68729819Y-77482619D01*
X68729819Y-77482619D02*
X68777438Y-77577857D01*
X68777438Y-77577857D02*
X68825057Y-77625476D01*
X68825057Y-77625476D02*
X68920295Y-77673095D01*
X68920295Y-77673095D02*
X69015533Y-77673095D01*
X69015533Y-77673095D02*
X69158390Y-77625476D01*
X69158390Y-77625476D02*
X69729819Y-77054048D01*
X69729819Y-77054048D02*
X69729819Y-77673095D01*
X143431904Y-77559819D02*
X143431904Y-78369342D01*
X143431904Y-78369342D02*
X143384285Y-78464580D01*
X143384285Y-78464580D02*
X143336666Y-78512200D01*
X143336666Y-78512200D02*
X143241428Y-78559819D01*
X143241428Y-78559819D02*
X143050952Y-78559819D01*
X143050952Y-78559819D02*
X142955714Y-78512200D01*
X142955714Y-78512200D02*
X142908095Y-78464580D01*
X142908095Y-78464580D02*
X142860476Y-78369342D01*
X142860476Y-78369342D02*
X142860476Y-77559819D01*
X141860476Y-78559819D02*
X142431904Y-78559819D01*
X142146190Y-78559819D02*
X142146190Y-77559819D01*
X142146190Y-77559819D02*
X142241428Y-77702676D01*
X142241428Y-77702676D02*
X142336666Y-77797914D01*
X142336666Y-77797914D02*
X142431904Y-77845533D01*
%TO.C,L1*%
D14*
X62033351Y-90240482D02*
X62033351Y-102240482D01*
X64858351Y-90240482D02*
X62033351Y-90240482D01*
X64858351Y-102240482D02*
X62033351Y-102240482D01*
X74033351Y-90240482D02*
X71208351Y-90240482D01*
X74033351Y-90240482D02*
X74033351Y-102240482D01*
X74033351Y-102240482D02*
X71208351Y-102240482D01*
%TO.C,REG3*%
X92856000Y-94379000D02*
X104794000Y-94379000D01*
X92856000Y-101491000D02*
X92856000Y-94379000D01*
X92856000Y-101491000D02*
X104794000Y-101491000D01*
X104794000Y-101491000D02*
X104794000Y-94379000D01*
%TO.C,D6*%
D15*
X57023351Y-91549482D02*
X57023351Y-96299482D01*
X57596351Y-91549482D02*
X57023351Y-91549482D01*
X57596351Y-96299482D02*
X57023351Y-96299482D01*
X60963351Y-91549482D02*
X60390351Y-91549482D01*
X60963351Y-91549482D02*
X60963351Y-96299482D01*
X60963351Y-96299482D02*
X60390351Y-96299482D01*
G36*
X56961351Y-90786482D02*
G01*
X57723351Y-90786482D01*
X57723351Y-91294482D01*
X56961351Y-91294482D01*
X56961351Y-90786482D01*
G37*
G36*
X60263351Y-90786482D02*
G01*
X61025351Y-90786482D01*
X61025351Y-91294482D01*
X60263351Y-91294482D01*
X60263351Y-90786482D01*
G37*
%TO.C,REG2*%
D16*
X85375000Y-70535000D02*
X70075000Y-70535000D01*
X85375000Y-81335000D02*
X70075000Y-81335000D01*
D11*
X82450000Y-71760000D02*
G75*
G02*
X82200000Y-71760000I-125000J0D01*
G01*
X82200000Y-71760000D02*
G75*
G02*
X82450000Y-71760000I125000J0D01*
G01*
%TO.C,U1*%
D15*
X133585000Y-79315000D02*
X133585000Y-80180000D01*
X133585000Y-79315000D02*
X136248000Y-79315000D01*
D10*
X133585000Y-86550000D02*
X133585000Y-81525000D01*
X133585000Y-90325000D02*
X133585000Y-87775000D01*
X133585000Y-94225000D02*
X133585000Y-91600000D01*
X133585000Y-97960000D02*
X133585000Y-96675000D01*
D15*
X133585000Y-97960000D02*
X133585000Y-104815000D01*
X133585000Y-98625000D02*
X151585000Y-98625000D01*
X133585000Y-104815000D02*
X151585000Y-104815000D01*
X148922000Y-79315000D02*
X151585000Y-79315000D01*
X151585000Y-79315000D02*
X151585000Y-80180000D01*
D10*
X151585000Y-81425000D02*
X151585000Y-82725000D01*
X151585000Y-83925000D02*
X151585000Y-85325000D01*
X151585000Y-86450000D02*
X151585000Y-87850000D01*
X151585000Y-89050000D02*
X151585000Y-91650000D01*
X151585000Y-94175000D02*
X151585000Y-95475000D01*
X151585000Y-96725000D02*
X151585000Y-97960000D01*
D15*
X151585000Y-97960000D02*
X151585000Y-104815000D01*
%TD*%
M02*
