%TF.GenerationSoftware,KiCad,Pcbnew,10.0.0*%
%TF.CreationDate,2026-05-13T07:48:53-03:00*%
%TF.ProjectId,PCB-FLM-FTE-12V,5043422d-464c-44d2-9d46-54452d313256,01*%
%TF.SameCoordinates,Original*%
%TF.FileFunction,Legend,Top*%
%TF.FilePolarity,Positive*%
%FSLAX46Y46*%
G04 Gerber Fmt 4.6, Leading zero omitted, Abs format (unit mm)*
G04 Created by KiCad (PCBNEW 10.0.0) date 2026-05-13 07:48:53*
%MOMM*%
%LPD*%
G01*
G04 APERTURE LIST*
%ADD10C,0.150000*%
%ADD11C,0.200000*%
%ADD12C,0.300000*%
%ADD13C,0.152400*%
%ADD14C,0.120000*%
%ADD15C,0.254000*%
%ADD16C,0.248920*%
%ADD17C,0.127000*%
%ADD18C,0.203200*%
%ADD19C,0.250000*%
%ADD20C,0.000000*%
G04 APERTURE END LIST*
D10*
X97145000Y-91515000D02*
X97135000Y-103165000D01*
X99915000Y-103075000D02*
X99915000Y-91675000D01*
X111125000Y-72925000D02*
X155865000Y-72955000D01*
X155135000Y-101455000D02*
X155135000Y-91045000D01*
X158195000Y-91225000D02*
X158195000Y-101455000D01*
X161145000Y-82175000D02*
X161155000Y-101535000D01*
X53037969Y-87304819D02*
X52561779Y-87304819D01*
X52561779Y-87304819D02*
X52561779Y-86304819D01*
X53895112Y-87304819D02*
X53323684Y-87304819D01*
X53609398Y-87304819D02*
X53609398Y-86304819D01*
X53609398Y-86304819D02*
X53514160Y-86447676D01*
X53514160Y-86447676D02*
X53418922Y-86542914D01*
X53418922Y-86542914D02*
X53323684Y-86590533D01*
X58337969Y-87404819D02*
X57861779Y-87404819D01*
X57861779Y-87404819D02*
X57861779Y-86404819D01*
X58623684Y-86500057D02*
X58671303Y-86452438D01*
X58671303Y-86452438D02*
X58766541Y-86404819D01*
X58766541Y-86404819D02*
X59004636Y-86404819D01*
X59004636Y-86404819D02*
X59099874Y-86452438D01*
X59099874Y-86452438D02*
X59147493Y-86500057D01*
X59147493Y-86500057D02*
X59195112Y-86595295D01*
X59195112Y-86595295D02*
X59195112Y-86690533D01*
X59195112Y-86690533D02*
X59147493Y-86833390D01*
X59147493Y-86833390D02*
X58576065Y-87404819D01*
X58576065Y-87404819D02*
X59195112Y-87404819D01*
X94347493Y-97354819D02*
X94347493Y-98069104D01*
X94347493Y-98069104D02*
X94299874Y-98211961D01*
X94299874Y-98211961D02*
X94204636Y-98307200D01*
X94204636Y-98307200D02*
X94061779Y-98354819D01*
X94061779Y-98354819D02*
X93966541Y-98354819D01*
X94823684Y-98354819D02*
X94823684Y-97354819D01*
X94823684Y-97354819D02*
X95204636Y-97354819D01*
X95204636Y-97354819D02*
X95299874Y-97402438D01*
X95299874Y-97402438D02*
X95347493Y-97450057D01*
X95347493Y-97450057D02*
X95395112Y-97545295D01*
X95395112Y-97545295D02*
X95395112Y-97688152D01*
X95395112Y-97688152D02*
X95347493Y-97783390D01*
X95347493Y-97783390D02*
X95299874Y-97831009D01*
X95299874Y-97831009D02*
X95204636Y-97878628D01*
X95204636Y-97878628D02*
X94823684Y-97878628D01*
X96347493Y-98354819D02*
X95776065Y-98354819D01*
X96061779Y-98354819D02*
X96061779Y-97354819D01*
X96061779Y-97354819D02*
X95966541Y-97497676D01*
X95966541Y-97497676D02*
X95871303Y-97592914D01*
X95871303Y-97592914D02*
X95776065Y-97640533D01*
X101367493Y-97354819D02*
X101367493Y-98069104D01*
X101367493Y-98069104D02*
X101319874Y-98211961D01*
X101319874Y-98211961D02*
X101224636Y-98307200D01*
X101224636Y-98307200D02*
X101081779Y-98354819D01*
X101081779Y-98354819D02*
X100986541Y-98354819D01*
X101843684Y-98354819D02*
X101843684Y-97354819D01*
X101843684Y-97354819D02*
X102224636Y-97354819D01*
X102224636Y-97354819D02*
X102319874Y-97402438D01*
X102319874Y-97402438D02*
X102367493Y-97450057D01*
X102367493Y-97450057D02*
X102415112Y-97545295D01*
X102415112Y-97545295D02*
X102415112Y-97688152D01*
X102415112Y-97688152D02*
X102367493Y-97783390D01*
X102367493Y-97783390D02*
X102319874Y-97831009D01*
X102319874Y-97831009D02*
X102224636Y-97878628D01*
X102224636Y-97878628D02*
X101843684Y-97878628D01*
X102796065Y-97450057D02*
X102843684Y-97402438D01*
X102843684Y-97402438D02*
X102938922Y-97354819D01*
X102938922Y-97354819D02*
X103177017Y-97354819D01*
X103177017Y-97354819D02*
X103272255Y-97402438D01*
X103272255Y-97402438D02*
X103319874Y-97450057D01*
X103319874Y-97450057D02*
X103367493Y-97545295D01*
X103367493Y-97545295D02*
X103367493Y-97640533D01*
X103367493Y-97640533D02*
X103319874Y-97783390D01*
X103319874Y-97783390D02*
X102748446Y-98354819D01*
X102748446Y-98354819D02*
X103367493Y-98354819D01*
X110247493Y-74404819D02*
X110247493Y-75119104D01*
X110247493Y-75119104D02*
X110199874Y-75261961D01*
X110199874Y-75261961D02*
X110104636Y-75357200D01*
X110104636Y-75357200D02*
X109961779Y-75404819D01*
X109961779Y-75404819D02*
X109866541Y-75404819D01*
X110723684Y-75404819D02*
X110723684Y-74404819D01*
X110723684Y-74404819D02*
X111104636Y-74404819D01*
X111104636Y-74404819D02*
X111199874Y-74452438D01*
X111199874Y-74452438D02*
X111247493Y-74500057D01*
X111247493Y-74500057D02*
X111295112Y-74595295D01*
X111295112Y-74595295D02*
X111295112Y-74738152D01*
X111295112Y-74738152D02*
X111247493Y-74833390D01*
X111247493Y-74833390D02*
X111199874Y-74881009D01*
X111199874Y-74881009D02*
X111104636Y-74928628D01*
X111104636Y-74928628D02*
X110723684Y-74928628D01*
X112152255Y-74738152D02*
X112152255Y-75404819D01*
X111914160Y-74357200D02*
X111676065Y-75071485D01*
X111676065Y-75071485D02*
X112295112Y-75071485D01*
X137566541Y-51304819D02*
X138185588Y-51304819D01*
X138185588Y-51304819D02*
X137852255Y-51685771D01*
X137852255Y-51685771D02*
X137995112Y-51685771D01*
X137995112Y-51685771D02*
X138090350Y-51733390D01*
X138090350Y-51733390D02*
X138137969Y-51781009D01*
X138137969Y-51781009D02*
X138185588Y-51876247D01*
X138185588Y-51876247D02*
X138185588Y-52114342D01*
X138185588Y-52114342D02*
X138137969Y-52209580D01*
X138137969Y-52209580D02*
X138090350Y-52257200D01*
X138090350Y-52257200D02*
X137995112Y-52304819D01*
X137995112Y-52304819D02*
X137709398Y-52304819D01*
X137709398Y-52304819D02*
X137614160Y-52257200D01*
X137614160Y-52257200D02*
X137566541Y-52209580D01*
X137614160Y-56300057D02*
X137661779Y-56252438D01*
X137661779Y-56252438D02*
X137757017Y-56204819D01*
X137757017Y-56204819D02*
X137995112Y-56204819D01*
X137995112Y-56204819D02*
X138090350Y-56252438D01*
X138090350Y-56252438D02*
X138137969Y-56300057D01*
X138137969Y-56300057D02*
X138185588Y-56395295D01*
X138185588Y-56395295D02*
X138185588Y-56490533D01*
X138185588Y-56490533D02*
X138137969Y-56633390D01*
X138137969Y-56633390D02*
X137566541Y-57204819D01*
X137566541Y-57204819D02*
X138185588Y-57204819D01*
X138185588Y-62304819D02*
X137614160Y-62304819D01*
X137899874Y-62304819D02*
X137899874Y-61304819D01*
X137899874Y-61304819D02*
X137804636Y-61447676D01*
X137804636Y-61447676D02*
X137709398Y-61542914D01*
X137709398Y-61542914D02*
X137614160Y-61590533D01*
X154157493Y-102884819D02*
X154157493Y-103599104D01*
X154157493Y-103599104D02*
X154109874Y-103741961D01*
X154109874Y-103741961D02*
X154014636Y-103837200D01*
X154014636Y-103837200D02*
X153871779Y-103884819D01*
X153871779Y-103884819D02*
X153776541Y-103884819D01*
X154633684Y-103884819D02*
X154633684Y-102884819D01*
X154633684Y-102884819D02*
X155014636Y-102884819D01*
X155014636Y-102884819D02*
X155109874Y-102932438D01*
X155109874Y-102932438D02*
X155157493Y-102980057D01*
X155157493Y-102980057D02*
X155205112Y-103075295D01*
X155205112Y-103075295D02*
X155205112Y-103218152D01*
X155205112Y-103218152D02*
X155157493Y-103313390D01*
X155157493Y-103313390D02*
X155109874Y-103361009D01*
X155109874Y-103361009D02*
X155014636Y-103408628D01*
X155014636Y-103408628D02*
X154633684Y-103408628D01*
X155586065Y-102980057D02*
X155633684Y-102932438D01*
X155633684Y-102932438D02*
X155728922Y-102884819D01*
X155728922Y-102884819D02*
X155967017Y-102884819D01*
X155967017Y-102884819D02*
X156062255Y-102932438D01*
X156062255Y-102932438D02*
X156109874Y-102980057D01*
X156109874Y-102980057D02*
X156157493Y-103075295D01*
X156157493Y-103075295D02*
X156157493Y-103170533D01*
X156157493Y-103170533D02*
X156109874Y-103313390D01*
X156109874Y-103313390D02*
X155538446Y-103884819D01*
X155538446Y-103884819D02*
X156157493Y-103884819D01*
X154947493Y-74304819D02*
X154947493Y-75019104D01*
X154947493Y-75019104D02*
X154899874Y-75161961D01*
X154899874Y-75161961D02*
X154804636Y-75257200D01*
X154804636Y-75257200D02*
X154661779Y-75304819D01*
X154661779Y-75304819D02*
X154566541Y-75304819D01*
X155423684Y-75304819D02*
X155423684Y-74304819D01*
X155423684Y-74304819D02*
X155804636Y-74304819D01*
X155804636Y-74304819D02*
X155899874Y-74352438D01*
X155899874Y-74352438D02*
X155947493Y-74400057D01*
X155947493Y-74400057D02*
X155995112Y-74495295D01*
X155995112Y-74495295D02*
X155995112Y-74638152D01*
X155995112Y-74638152D02*
X155947493Y-74733390D01*
X155947493Y-74733390D02*
X155899874Y-74781009D01*
X155899874Y-74781009D02*
X155804636Y-74828628D01*
X155804636Y-74828628D02*
X155423684Y-74828628D01*
X156852255Y-74638152D02*
X156852255Y-75304819D01*
X156614160Y-74257200D02*
X156376065Y-74971485D01*
X156376065Y-74971485D02*
X156995112Y-74971485D01*
X157307493Y-102884819D02*
X157307493Y-103599104D01*
X157307493Y-103599104D02*
X157259874Y-103741961D01*
X157259874Y-103741961D02*
X157164636Y-103837200D01*
X157164636Y-103837200D02*
X157021779Y-103884819D01*
X157021779Y-103884819D02*
X156926541Y-103884819D01*
X157783684Y-103884819D02*
X157783684Y-102884819D01*
X157783684Y-102884819D02*
X158164636Y-102884819D01*
X158164636Y-102884819D02*
X158259874Y-102932438D01*
X158259874Y-102932438D02*
X158307493Y-102980057D01*
X158307493Y-102980057D02*
X158355112Y-103075295D01*
X158355112Y-103075295D02*
X158355112Y-103218152D01*
X158355112Y-103218152D02*
X158307493Y-103313390D01*
X158307493Y-103313390D02*
X158259874Y-103361009D01*
X158259874Y-103361009D02*
X158164636Y-103408628D01*
X158164636Y-103408628D02*
X157783684Y-103408628D01*
X159307493Y-103884819D02*
X158736065Y-103884819D01*
X159021779Y-103884819D02*
X159021779Y-102884819D01*
X159021779Y-102884819D02*
X158926541Y-103027676D01*
X158926541Y-103027676D02*
X158831303Y-103122914D01*
X158831303Y-103122914D02*
X158736065Y-103170533D01*
X157985588Y-79192438D02*
X157890350Y-79144819D01*
X157890350Y-79144819D02*
X157747493Y-79144819D01*
X157747493Y-79144819D02*
X157604636Y-79192438D01*
X157604636Y-79192438D02*
X157509398Y-79287676D01*
X157509398Y-79287676D02*
X157461779Y-79382914D01*
X157461779Y-79382914D02*
X157414160Y-79573390D01*
X157414160Y-79573390D02*
X157414160Y-79716247D01*
X157414160Y-79716247D02*
X157461779Y-79906723D01*
X157461779Y-79906723D02*
X157509398Y-80001961D01*
X157509398Y-80001961D02*
X157604636Y-80097200D01*
X157604636Y-80097200D02*
X157747493Y-80144819D01*
X157747493Y-80144819D02*
X157842731Y-80144819D01*
X157842731Y-80144819D02*
X157985588Y-80097200D01*
X157985588Y-80097200D02*
X158033207Y-80049580D01*
X158033207Y-80049580D02*
X158033207Y-79716247D01*
X158033207Y-79716247D02*
X157842731Y-79716247D01*
X158461779Y-80144819D02*
X158461779Y-79144819D01*
X158461779Y-79144819D02*
X159033207Y-80144819D01*
X159033207Y-80144819D02*
X159033207Y-79144819D01*
X159509398Y-80144819D02*
X159509398Y-79144819D01*
X159509398Y-79144819D02*
X159747493Y-79144819D01*
X159747493Y-79144819D02*
X159890350Y-79192438D01*
X159890350Y-79192438D02*
X159985588Y-79287676D01*
X159985588Y-79287676D02*
X160033207Y-79382914D01*
X160033207Y-79382914D02*
X160080826Y-79573390D01*
X160080826Y-79573390D02*
X160080826Y-79716247D01*
X160080826Y-79716247D02*
X160033207Y-79906723D01*
X160033207Y-79906723D02*
X159985588Y-80001961D01*
X159985588Y-80001961D02*
X159890350Y-80097200D01*
X159890350Y-80097200D02*
X159747493Y-80144819D01*
X159747493Y-80144819D02*
X159509398Y-80144819D01*
X157461779Y-82350533D02*
X158223684Y-82350533D01*
X157842731Y-82731486D02*
X157842731Y-81969581D01*
X159176064Y-81731486D02*
X158699874Y-81731486D01*
X158699874Y-81731486D02*
X158652255Y-82207676D01*
X158652255Y-82207676D02*
X158699874Y-82160057D01*
X158699874Y-82160057D02*
X158795112Y-82112438D01*
X158795112Y-82112438D02*
X159033207Y-82112438D01*
X159033207Y-82112438D02*
X159128445Y-82160057D01*
X159128445Y-82160057D02*
X159176064Y-82207676D01*
X159176064Y-82207676D02*
X159223683Y-82302914D01*
X159223683Y-82302914D02*
X159223683Y-82541009D01*
X159223683Y-82541009D02*
X159176064Y-82636247D01*
X159176064Y-82636247D02*
X159128445Y-82683867D01*
X159128445Y-82683867D02*
X159033207Y-82731486D01*
X159033207Y-82731486D02*
X158795112Y-82731486D01*
X158795112Y-82731486D02*
X158699874Y-82683867D01*
X158699874Y-82683867D02*
X158652255Y-82636247D01*
X159509398Y-81731486D02*
X159842731Y-82731486D01*
X159842731Y-82731486D02*
X160176064Y-81731486D01*
X157414160Y-85270533D02*
X157557017Y-85318152D01*
X157557017Y-85318152D02*
X157795112Y-85318152D01*
X157795112Y-85318152D02*
X157890350Y-85270533D01*
X157890350Y-85270533D02*
X157937969Y-85222913D01*
X157937969Y-85222913D02*
X157985588Y-85127675D01*
X157985588Y-85127675D02*
X157985588Y-85032437D01*
X157985588Y-85032437D02*
X157937969Y-84937199D01*
X157937969Y-84937199D02*
X157890350Y-84889580D01*
X157890350Y-84889580D02*
X157795112Y-84841961D01*
X157795112Y-84841961D02*
X157604636Y-84794342D01*
X157604636Y-84794342D02*
X157509398Y-84746723D01*
X157509398Y-84746723D02*
X157461779Y-84699104D01*
X157461779Y-84699104D02*
X157414160Y-84603866D01*
X157414160Y-84603866D02*
X157414160Y-84508628D01*
X157414160Y-84508628D02*
X157461779Y-84413390D01*
X157461779Y-84413390D02*
X157509398Y-84365771D01*
X157509398Y-84365771D02*
X157604636Y-84318152D01*
X157604636Y-84318152D02*
X157842731Y-84318152D01*
X157842731Y-84318152D02*
X157985588Y-84365771D01*
X158414160Y-85318152D02*
X158414160Y-84318152D01*
X158414160Y-84318152D02*
X158652255Y-84318152D01*
X158652255Y-84318152D02*
X158795112Y-84365771D01*
X158795112Y-84365771D02*
X158890350Y-84461009D01*
X158890350Y-84461009D02*
X158937969Y-84556247D01*
X158937969Y-84556247D02*
X158985588Y-84746723D01*
X158985588Y-84746723D02*
X158985588Y-84889580D01*
X158985588Y-84889580D02*
X158937969Y-85080056D01*
X158937969Y-85080056D02*
X158890350Y-85175294D01*
X158890350Y-85175294D02*
X158795112Y-85270533D01*
X158795112Y-85270533D02*
X158652255Y-85318152D01*
X158652255Y-85318152D02*
X158414160Y-85318152D01*
X159366541Y-85032437D02*
X159842731Y-85032437D01*
X159271303Y-85318152D02*
X159604636Y-84318152D01*
X159604636Y-84318152D02*
X159937969Y-85318152D01*
X157414160Y-87857200D02*
X157557017Y-87904819D01*
X157557017Y-87904819D02*
X157795112Y-87904819D01*
X157795112Y-87904819D02*
X157890350Y-87857200D01*
X157890350Y-87857200D02*
X157937969Y-87809580D01*
X157937969Y-87809580D02*
X157985588Y-87714342D01*
X157985588Y-87714342D02*
X157985588Y-87619104D01*
X157985588Y-87619104D02*
X157937969Y-87523866D01*
X157937969Y-87523866D02*
X157890350Y-87476247D01*
X157890350Y-87476247D02*
X157795112Y-87428628D01*
X157795112Y-87428628D02*
X157604636Y-87381009D01*
X157604636Y-87381009D02*
X157509398Y-87333390D01*
X157509398Y-87333390D02*
X157461779Y-87285771D01*
X157461779Y-87285771D02*
X157414160Y-87190533D01*
X157414160Y-87190533D02*
X157414160Y-87095295D01*
X157414160Y-87095295D02*
X157461779Y-87000057D01*
X157461779Y-87000057D02*
X157509398Y-86952438D01*
X157509398Y-86952438D02*
X157604636Y-86904819D01*
X157604636Y-86904819D02*
X157842731Y-86904819D01*
X157842731Y-86904819D02*
X157985588Y-86952438D01*
X158985588Y-87809580D02*
X158937969Y-87857200D01*
X158937969Y-87857200D02*
X158795112Y-87904819D01*
X158795112Y-87904819D02*
X158699874Y-87904819D01*
X158699874Y-87904819D02*
X158557017Y-87857200D01*
X158557017Y-87857200D02*
X158461779Y-87761961D01*
X158461779Y-87761961D02*
X158414160Y-87666723D01*
X158414160Y-87666723D02*
X158366541Y-87476247D01*
X158366541Y-87476247D02*
X158366541Y-87333390D01*
X158366541Y-87333390D02*
X158414160Y-87142914D01*
X158414160Y-87142914D02*
X158461779Y-87047676D01*
X158461779Y-87047676D02*
X158557017Y-86952438D01*
X158557017Y-86952438D02*
X158699874Y-86904819D01*
X158699874Y-86904819D02*
X158795112Y-86904819D01*
X158795112Y-86904819D02*
X158937969Y-86952438D01*
X158937969Y-86952438D02*
X158985588Y-87000057D01*
X159890350Y-87904819D02*
X159414160Y-87904819D01*
X159414160Y-87904819D02*
X159414160Y-86904819D01*
X162367493Y-91524819D02*
X162367493Y-92239104D01*
X162367493Y-92239104D02*
X162319874Y-92381961D01*
X162319874Y-92381961D02*
X162224636Y-92477200D01*
X162224636Y-92477200D02*
X162081779Y-92524819D01*
X162081779Y-92524819D02*
X161986541Y-92524819D01*
X162843684Y-92524819D02*
X162843684Y-91524819D01*
X162843684Y-91524819D02*
X163224636Y-91524819D01*
X163224636Y-91524819D02*
X163319874Y-91572438D01*
X163319874Y-91572438D02*
X163367493Y-91620057D01*
X163367493Y-91620057D02*
X163415112Y-91715295D01*
X163415112Y-91715295D02*
X163415112Y-91858152D01*
X163415112Y-91858152D02*
X163367493Y-91953390D01*
X163367493Y-91953390D02*
X163319874Y-92001009D01*
X163319874Y-92001009D02*
X163224636Y-92048628D01*
X163224636Y-92048628D02*
X162843684Y-92048628D01*
X163748446Y-91524819D02*
X164367493Y-91524819D01*
X164367493Y-91524819D02*
X164034160Y-91905771D01*
X164034160Y-91905771D02*
X164177017Y-91905771D01*
X164177017Y-91905771D02*
X164272255Y-91953390D01*
X164272255Y-91953390D02*
X164319874Y-92001009D01*
X164319874Y-92001009D02*
X164367493Y-92096247D01*
X164367493Y-92096247D02*
X164367493Y-92334342D01*
X164367493Y-92334342D02*
X164319874Y-92429580D01*
X164319874Y-92429580D02*
X164272255Y-92477200D01*
X164272255Y-92477200D02*
X164177017Y-92524819D01*
X164177017Y-92524819D02*
X163891303Y-92524819D01*
X163891303Y-92524819D02*
X163796065Y-92477200D01*
X163796065Y-92477200D02*
X163748446Y-92429580D01*
X129069761Y-85019819D02*
X128736428Y-84543628D01*
X128498333Y-85019819D02*
X128498333Y-84019819D01*
X128498333Y-84019819D02*
X128879285Y-84019819D01*
X128879285Y-84019819D02*
X128974523Y-84067438D01*
X128974523Y-84067438D02*
X129022142Y-84115057D01*
X129022142Y-84115057D02*
X129069761Y-84210295D01*
X129069761Y-84210295D02*
X129069761Y-84353152D01*
X129069761Y-84353152D02*
X129022142Y-84448390D01*
X129022142Y-84448390D02*
X128974523Y-84496009D01*
X128974523Y-84496009D02*
X128879285Y-84543628D01*
X128879285Y-84543628D02*
X128498333Y-84543628D01*
X129831666Y-84496009D02*
X129498333Y-84496009D01*
X129498333Y-85019819D02*
X129498333Y-84019819D01*
X129498333Y-84019819D02*
X129974523Y-84019819D01*
X130307857Y-84115057D02*
X130355476Y-84067438D01*
X130355476Y-84067438D02*
X130450714Y-84019819D01*
X130450714Y-84019819D02*
X130688809Y-84019819D01*
X130688809Y-84019819D02*
X130784047Y-84067438D01*
X130784047Y-84067438D02*
X130831666Y-84115057D01*
X130831666Y-84115057D02*
X130879285Y-84210295D01*
X130879285Y-84210295D02*
X130879285Y-84305533D01*
X130879285Y-84305533D02*
X130831666Y-84448390D01*
X130831666Y-84448390D02*
X130260238Y-85019819D01*
X130260238Y-85019819D02*
X130879285Y-85019819D01*
X143428333Y-47199819D02*
X143095000Y-46723628D01*
X142856905Y-47199819D02*
X142856905Y-46199819D01*
X142856905Y-46199819D02*
X143237857Y-46199819D01*
X143237857Y-46199819D02*
X143333095Y-46247438D01*
X143333095Y-46247438D02*
X143380714Y-46295057D01*
X143380714Y-46295057D02*
X143428333Y-46390295D01*
X143428333Y-46390295D02*
X143428333Y-46533152D01*
X143428333Y-46533152D02*
X143380714Y-46628390D01*
X143380714Y-46628390D02*
X143333095Y-46676009D01*
X143333095Y-46676009D02*
X143237857Y-46723628D01*
X143237857Y-46723628D02*
X142856905Y-46723628D01*
X144285476Y-46533152D02*
X144285476Y-47199819D01*
X144047381Y-46152200D02*
X143809286Y-46866485D01*
X143809286Y-46866485D02*
X144428333Y-46866485D01*
X92459819Y-86598220D02*
X91459819Y-86598220D01*
X91459819Y-86598220D02*
X91459819Y-86360125D01*
X91459819Y-86360125D02*
X91507438Y-86217268D01*
X91507438Y-86217268D02*
X91602676Y-86122030D01*
X91602676Y-86122030D02*
X91697914Y-86074411D01*
X91697914Y-86074411D02*
X91888390Y-86026792D01*
X91888390Y-86026792D02*
X92031247Y-86026792D01*
X92031247Y-86026792D02*
X92221723Y-86074411D01*
X92221723Y-86074411D02*
X92316961Y-86122030D01*
X92316961Y-86122030D02*
X92412200Y-86217268D01*
X92412200Y-86217268D02*
X92459819Y-86360125D01*
X92459819Y-86360125D02*
X92459819Y-86598220D01*
X91459819Y-85741077D02*
X91459819Y-85169649D01*
X92459819Y-85455363D02*
X91459819Y-85455363D01*
X92459819Y-84264887D02*
X91983628Y-84598220D01*
X92459819Y-84836315D02*
X91459819Y-84836315D01*
X91459819Y-84836315D02*
X91459819Y-84455363D01*
X91459819Y-84455363D02*
X91507438Y-84360125D01*
X91507438Y-84360125D02*
X91555057Y-84312506D01*
X91555057Y-84312506D02*
X91650295Y-84264887D01*
X91650295Y-84264887D02*
X91793152Y-84264887D01*
X91793152Y-84264887D02*
X91888390Y-84312506D01*
X91888390Y-84312506D02*
X91936009Y-84360125D01*
X91936009Y-84360125D02*
X91983628Y-84455363D01*
X91983628Y-84455363D02*
X91983628Y-84836315D01*
X95003819Y-86026792D02*
X94527628Y-86360125D01*
X95003819Y-86598220D02*
X94003819Y-86598220D01*
X94003819Y-86598220D02*
X94003819Y-86217268D01*
X94003819Y-86217268D02*
X94051438Y-86122030D01*
X94051438Y-86122030D02*
X94099057Y-86074411D01*
X94099057Y-86074411D02*
X94194295Y-86026792D01*
X94194295Y-86026792D02*
X94337152Y-86026792D01*
X94337152Y-86026792D02*
X94432390Y-86074411D01*
X94432390Y-86074411D02*
X94480009Y-86122030D01*
X94480009Y-86122030D02*
X94527628Y-86217268D01*
X94527628Y-86217268D02*
X94527628Y-86598220D01*
X94003819Y-85741077D02*
X94003819Y-85169649D01*
X95003819Y-85455363D02*
X94003819Y-85455363D01*
X94956200Y-84883934D02*
X95003819Y-84741077D01*
X95003819Y-84741077D02*
X95003819Y-84502982D01*
X95003819Y-84502982D02*
X94956200Y-84407744D01*
X94956200Y-84407744D02*
X94908580Y-84360125D01*
X94908580Y-84360125D02*
X94813342Y-84312506D01*
X94813342Y-84312506D02*
X94718104Y-84312506D01*
X94718104Y-84312506D02*
X94622866Y-84360125D01*
X94622866Y-84360125D02*
X94575247Y-84407744D01*
X94575247Y-84407744D02*
X94527628Y-84502982D01*
X94527628Y-84502982D02*
X94480009Y-84693458D01*
X94480009Y-84693458D02*
X94432390Y-84788696D01*
X94432390Y-84788696D02*
X94384771Y-84836315D01*
X94384771Y-84836315D02*
X94289533Y-84883934D01*
X94289533Y-84883934D02*
X94194295Y-84883934D01*
X94194295Y-84883934D02*
X94099057Y-84836315D01*
X94099057Y-84836315D02*
X94051438Y-84788696D01*
X94051438Y-84788696D02*
X94003819Y-84693458D01*
X94003819Y-84693458D02*
X94003819Y-84455363D01*
X94003819Y-84455363D02*
X94051438Y-84312506D01*
X96547819Y-86741077D02*
X96547819Y-86169649D01*
X97547819Y-86455363D02*
X96547819Y-86455363D01*
X96547819Y-85931553D02*
X97547819Y-85264887D01*
X96547819Y-85264887D02*
X97547819Y-85931553D01*
X100091819Y-86026792D02*
X99615628Y-86360125D01*
X100091819Y-86598220D02*
X99091819Y-86598220D01*
X99091819Y-86598220D02*
X99091819Y-86217268D01*
X99091819Y-86217268D02*
X99139438Y-86122030D01*
X99139438Y-86122030D02*
X99187057Y-86074411D01*
X99187057Y-86074411D02*
X99282295Y-86026792D01*
X99282295Y-86026792D02*
X99425152Y-86026792D01*
X99425152Y-86026792D02*
X99520390Y-86074411D01*
X99520390Y-86074411D02*
X99568009Y-86122030D01*
X99568009Y-86122030D02*
X99615628Y-86217268D01*
X99615628Y-86217268D02*
X99615628Y-86598220D01*
X99091819Y-85693458D02*
X100091819Y-85026792D01*
X99091819Y-85026792D02*
X100091819Y-85693458D01*
X101683438Y-86074411D02*
X101635819Y-86169649D01*
X101635819Y-86169649D02*
X101635819Y-86312506D01*
X101635819Y-86312506D02*
X101683438Y-86455363D01*
X101683438Y-86455363D02*
X101778676Y-86550601D01*
X101778676Y-86550601D02*
X101873914Y-86598220D01*
X101873914Y-86598220D02*
X102064390Y-86645839D01*
X102064390Y-86645839D02*
X102207247Y-86645839D01*
X102207247Y-86645839D02*
X102397723Y-86598220D01*
X102397723Y-86598220D02*
X102492961Y-86550601D01*
X102492961Y-86550601D02*
X102588200Y-86455363D01*
X102588200Y-86455363D02*
X102635819Y-86312506D01*
X102635819Y-86312506D02*
X102635819Y-86217268D01*
X102635819Y-86217268D02*
X102588200Y-86074411D01*
X102588200Y-86074411D02*
X102540580Y-86026792D01*
X102540580Y-86026792D02*
X102207247Y-86026792D01*
X102207247Y-86026792D02*
X102207247Y-86217268D01*
X102635819Y-85598220D02*
X101635819Y-85598220D01*
X101635819Y-85598220D02*
X102635819Y-85026792D01*
X102635819Y-85026792D02*
X101635819Y-85026792D01*
X102635819Y-84550601D02*
X101635819Y-84550601D01*
X101635819Y-84550601D02*
X101635819Y-84312506D01*
X101635819Y-84312506D02*
X101683438Y-84169649D01*
X101683438Y-84169649D02*
X101778676Y-84074411D01*
X101778676Y-84074411D02*
X101873914Y-84026792D01*
X101873914Y-84026792D02*
X102064390Y-83979173D01*
X102064390Y-83979173D02*
X102207247Y-83979173D01*
X102207247Y-83979173D02*
X102397723Y-84026792D01*
X102397723Y-84026792D02*
X102492961Y-84074411D01*
X102492961Y-84074411D02*
X102588200Y-84169649D01*
X102588200Y-84169649D02*
X102635819Y-84312506D01*
X102635819Y-84312506D02*
X102635819Y-84550601D01*
X104798866Y-86898220D02*
X104798866Y-86136316D01*
X105179819Y-86517268D02*
X104417914Y-86517268D01*
X104179819Y-85755363D02*
X104179819Y-85136316D01*
X104179819Y-85136316D02*
X104560771Y-85469649D01*
X104560771Y-85469649D02*
X104560771Y-85326792D01*
X104560771Y-85326792D02*
X104608390Y-85231554D01*
X104608390Y-85231554D02*
X104656009Y-85183935D01*
X104656009Y-85183935D02*
X104751247Y-85136316D01*
X104751247Y-85136316D02*
X104989342Y-85136316D01*
X104989342Y-85136316D02*
X105084580Y-85183935D01*
X105084580Y-85183935D02*
X105132200Y-85231554D01*
X105132200Y-85231554D02*
X105179819Y-85326792D01*
X105179819Y-85326792D02*
X105179819Y-85612506D01*
X105179819Y-85612506D02*
X105132200Y-85707744D01*
X105132200Y-85707744D02*
X105084580Y-85755363D01*
X105132200Y-84660125D02*
X105179819Y-84660125D01*
X105179819Y-84660125D02*
X105275057Y-84707744D01*
X105275057Y-84707744D02*
X105322676Y-84755363D01*
X104179819Y-84326792D02*
X104179819Y-83707745D01*
X104179819Y-83707745D02*
X104560771Y-84041078D01*
X104560771Y-84041078D02*
X104560771Y-83898221D01*
X104560771Y-83898221D02*
X104608390Y-83802983D01*
X104608390Y-83802983D02*
X104656009Y-83755364D01*
X104656009Y-83755364D02*
X104751247Y-83707745D01*
X104751247Y-83707745D02*
X104989342Y-83707745D01*
X104989342Y-83707745D02*
X105084580Y-83755364D01*
X105084580Y-83755364D02*
X105132200Y-83802983D01*
X105132200Y-83802983D02*
X105179819Y-83898221D01*
X105179819Y-83898221D02*
X105179819Y-84183935D01*
X105179819Y-84183935D02*
X105132200Y-84279173D01*
X105132200Y-84279173D02*
X105084580Y-84326792D01*
X104179819Y-83422030D02*
X105179819Y-83088697D01*
X105179819Y-83088697D02*
X104179819Y-82755364D01*
X159903866Y-52708220D02*
X159903866Y-51946316D01*
X160284819Y-52327268D02*
X159522914Y-52327268D01*
X159903866Y-57808220D02*
X159903866Y-57046316D01*
D11*
X84983720Y-107308528D02*
X84983720Y-105808528D01*
X84983720Y-105808528D02*
X85555149Y-105808528D01*
X85555149Y-105808528D02*
X85698006Y-105879957D01*
X85698006Y-105879957D02*
X85769435Y-105951385D01*
X85769435Y-105951385D02*
X85840863Y-106094242D01*
X85840863Y-106094242D02*
X85840863Y-106308528D01*
X85840863Y-106308528D02*
X85769435Y-106451385D01*
X85769435Y-106451385D02*
X85698006Y-106522814D01*
X85698006Y-106522814D02*
X85555149Y-106594242D01*
X85555149Y-106594242D02*
X84983720Y-106594242D01*
X87340863Y-107165671D02*
X87269435Y-107237100D01*
X87269435Y-107237100D02*
X87055149Y-107308528D01*
X87055149Y-107308528D02*
X86912292Y-107308528D01*
X86912292Y-107308528D02*
X86698006Y-107237100D01*
X86698006Y-107237100D02*
X86555149Y-107094242D01*
X86555149Y-107094242D02*
X86483720Y-106951385D01*
X86483720Y-106951385D02*
X86412292Y-106665671D01*
X86412292Y-106665671D02*
X86412292Y-106451385D01*
X86412292Y-106451385D02*
X86483720Y-106165671D01*
X86483720Y-106165671D02*
X86555149Y-106022814D01*
X86555149Y-106022814D02*
X86698006Y-105879957D01*
X86698006Y-105879957D02*
X86912292Y-105808528D01*
X86912292Y-105808528D02*
X87055149Y-105808528D01*
X87055149Y-105808528D02*
X87269435Y-105879957D01*
X87269435Y-105879957D02*
X87340863Y-105951385D01*
X88483720Y-106522814D02*
X88698006Y-106594242D01*
X88698006Y-106594242D02*
X88769435Y-106665671D01*
X88769435Y-106665671D02*
X88840863Y-106808528D01*
X88840863Y-106808528D02*
X88840863Y-107022814D01*
X88840863Y-107022814D02*
X88769435Y-107165671D01*
X88769435Y-107165671D02*
X88698006Y-107237100D01*
X88698006Y-107237100D02*
X88555149Y-107308528D01*
X88555149Y-107308528D02*
X87983720Y-107308528D01*
X87983720Y-107308528D02*
X87983720Y-105808528D01*
X87983720Y-105808528D02*
X88483720Y-105808528D01*
X88483720Y-105808528D02*
X88626578Y-105879957D01*
X88626578Y-105879957D02*
X88698006Y-105951385D01*
X88698006Y-105951385D02*
X88769435Y-106094242D01*
X88769435Y-106094242D02*
X88769435Y-106237100D01*
X88769435Y-106237100D02*
X88698006Y-106379957D01*
X88698006Y-106379957D02*
X88626578Y-106451385D01*
X88626578Y-106451385D02*
X88483720Y-106522814D01*
X88483720Y-106522814D02*
X87983720Y-106522814D01*
X89483720Y-106737100D02*
X90626578Y-106737100D01*
X91840863Y-106522814D02*
X91340863Y-106522814D01*
X91340863Y-107308528D02*
X91340863Y-105808528D01*
X91340863Y-105808528D02*
X92055149Y-105808528D01*
X93340863Y-107308528D02*
X92626577Y-107308528D01*
X92626577Y-107308528D02*
X92626577Y-105808528D01*
X93840863Y-107308528D02*
X93840863Y-105808528D01*
X93840863Y-105808528D02*
X94340863Y-106879957D01*
X94340863Y-106879957D02*
X94840863Y-105808528D01*
X94840863Y-105808528D02*
X94840863Y-107308528D01*
X95555149Y-106737100D02*
X96698007Y-106737100D01*
X97912292Y-106522814D02*
X97412292Y-106522814D01*
X97412292Y-107308528D02*
X97412292Y-105808528D01*
X97412292Y-105808528D02*
X98126578Y-105808528D01*
X98483721Y-105808528D02*
X99340864Y-105808528D01*
X98912292Y-107308528D02*
X98912292Y-105808528D01*
X99840863Y-106522814D02*
X100340863Y-106522814D01*
X100555149Y-107308528D02*
X99840863Y-107308528D01*
X99840863Y-107308528D02*
X99840863Y-105808528D01*
X99840863Y-105808528D02*
X100555149Y-105808528D01*
X101983721Y-107308528D02*
X101126578Y-107308528D01*
X101555149Y-107308528D02*
X101555149Y-105808528D01*
X101555149Y-105808528D02*
X101412292Y-106022814D01*
X101412292Y-106022814D02*
X101269435Y-106165671D01*
X101269435Y-106165671D02*
X101126578Y-106237100D01*
X102555149Y-105951385D02*
X102626577Y-105879957D01*
X102626577Y-105879957D02*
X102769435Y-105808528D01*
X102769435Y-105808528D02*
X103126577Y-105808528D01*
X103126577Y-105808528D02*
X103269435Y-105879957D01*
X103269435Y-105879957D02*
X103340863Y-105951385D01*
X103340863Y-105951385D02*
X103412292Y-106094242D01*
X103412292Y-106094242D02*
X103412292Y-106237100D01*
X103412292Y-106237100D02*
X103340863Y-106451385D01*
X103340863Y-106451385D02*
X102483720Y-107308528D01*
X102483720Y-107308528D02*
X103412292Y-107308528D01*
X103840863Y-105808528D02*
X104340863Y-107308528D01*
X104340863Y-107308528D02*
X104840863Y-105808528D01*
X105340862Y-106737100D02*
X106483720Y-106737100D01*
X107483720Y-105808528D02*
X107626577Y-105808528D01*
X107626577Y-105808528D02*
X107769434Y-105879957D01*
X107769434Y-105879957D02*
X107840863Y-105951385D01*
X107840863Y-105951385D02*
X107912291Y-106094242D01*
X107912291Y-106094242D02*
X107983720Y-106379957D01*
X107983720Y-106379957D02*
X107983720Y-106737100D01*
X107983720Y-106737100D02*
X107912291Y-107022814D01*
X107912291Y-107022814D02*
X107840863Y-107165671D01*
X107840863Y-107165671D02*
X107769434Y-107237100D01*
X107769434Y-107237100D02*
X107626577Y-107308528D01*
X107626577Y-107308528D02*
X107483720Y-107308528D01*
X107483720Y-107308528D02*
X107340863Y-107237100D01*
X107340863Y-107237100D02*
X107269434Y-107165671D01*
X107269434Y-107165671D02*
X107198005Y-107022814D01*
X107198005Y-107022814D02*
X107126577Y-106737100D01*
X107126577Y-106737100D02*
X107126577Y-106379957D01*
X107126577Y-106379957D02*
X107198005Y-106094242D01*
X107198005Y-106094242D02*
X107269434Y-105951385D01*
X107269434Y-105951385D02*
X107340863Y-105879957D01*
X107340863Y-105879957D02*
X107483720Y-105808528D01*
X109412291Y-107308528D02*
X108555148Y-107308528D01*
X108983719Y-107308528D02*
X108983719Y-105808528D01*
X108983719Y-105808528D02*
X108840862Y-106022814D01*
X108840862Y-106022814D02*
X108698005Y-106165671D01*
X108698005Y-106165671D02*
X108555148Y-106237100D01*
D12*
G36*
X56190656Y-106008035D02*
G01*
X56286922Y-106104301D01*
X56343796Y-106331792D01*
X56343796Y-106794863D01*
X56286922Y-107022354D01*
X56190655Y-107118622D01*
X56101243Y-107163328D01*
X55886349Y-107163328D01*
X55796935Y-107118621D01*
X55700668Y-107022354D01*
X55643796Y-106794864D01*
X55643796Y-106331791D01*
X55700668Y-106104302D01*
X55796935Y-106008034D01*
X55886349Y-105963328D01*
X56101243Y-105963328D01*
X56190656Y-106008035D01*
G37*
G36*
X69119230Y-106008035D02*
G01*
X69156234Y-106045039D01*
X69200940Y-106134451D01*
X69200940Y-106277918D01*
X69156233Y-106367331D01*
X69119228Y-106404336D01*
X69029816Y-106449042D01*
X68643797Y-106449042D01*
X68643797Y-105963328D01*
X69029816Y-105963328D01*
X69119230Y-106008035D01*
G37*
G36*
X67642828Y-106734757D02*
G01*
X67344769Y-106734757D01*
X67493798Y-106287669D01*
X67642828Y-106734757D01*
G37*
G36*
X71571399Y-106734757D02*
G01*
X71273340Y-106734757D01*
X71422369Y-106287669D01*
X71571399Y-106734757D01*
G37*
G36*
X78142827Y-106734757D02*
G01*
X77844768Y-106734757D01*
X77993797Y-106287669D01*
X78142827Y-106734757D01*
G37*
G36*
X82664724Y-107629995D02*
G01*
X53962843Y-107629995D01*
X53962843Y-105813328D01*
X54129510Y-105813328D01*
X54129510Y-107313328D01*
X54132392Y-107342592D01*
X54154790Y-107396664D01*
X54196174Y-107438048D01*
X54250246Y-107460446D01*
X54308774Y-107460446D01*
X54362846Y-107438048D01*
X54404230Y-107396664D01*
X54426628Y-107342592D01*
X54429510Y-107313328D01*
X54429510Y-106677614D01*
X54779510Y-106677614D01*
X54808774Y-106674732D01*
X54862846Y-106652334D01*
X54904230Y-106610950D01*
X54926628Y-106556878D01*
X54926628Y-106498350D01*
X54904230Y-106444278D01*
X54862846Y-106402894D01*
X54808774Y-106380496D01*
X54779510Y-106377614D01*
X54429510Y-106377614D01*
X54429510Y-106313328D01*
X55343796Y-106313328D01*
X55343796Y-106813328D01*
X55344298Y-106818431D01*
X55343973Y-106820619D01*
X55345592Y-106831569D01*
X55346678Y-106842592D01*
X55347525Y-106844636D01*
X55348275Y-106849708D01*
X55419703Y-107135422D01*
X55429596Y-107163113D01*
X55436235Y-107172073D01*
X55440503Y-107182377D01*
X55459158Y-107205108D01*
X55602016Y-107347966D01*
X55613520Y-107357407D01*
X55616115Y-107360399D01*
X55620624Y-107363237D01*
X55624747Y-107366621D01*
X55628408Y-107368137D01*
X55641000Y-107376064D01*
X55783858Y-107447492D01*
X55811321Y-107458002D01*
X55816696Y-107458383D01*
X55821675Y-107460446D01*
X55850939Y-107463328D01*
X56136653Y-107463328D01*
X56165917Y-107460446D01*
X56170895Y-107458383D01*
X56176271Y-107458002D01*
X56203735Y-107447492D01*
X56346592Y-107376064D01*
X56359183Y-107368137D01*
X56362846Y-107366621D01*
X56366968Y-107363237D01*
X56371478Y-107360399D01*
X56374073Y-107357406D01*
X56385576Y-107347966D01*
X56528433Y-107205108D01*
X56547088Y-107182377D01*
X56551354Y-107172075D01*
X56557995Y-107163114D01*
X56567888Y-107135423D01*
X56639317Y-106849709D01*
X56640067Y-106844636D01*
X56640914Y-106842592D01*
X56641999Y-106831572D01*
X56643619Y-106820620D01*
X56643293Y-106818431D01*
X56643796Y-106813328D01*
X56643796Y-106313328D01*
X56643293Y-106308224D01*
X56643619Y-106306036D01*
X56641999Y-106295083D01*
X56640914Y-106284064D01*
X56640067Y-106282019D01*
X56639317Y-106276947D01*
X56567888Y-105991233D01*
X56557995Y-105963542D01*
X56551355Y-105954581D01*
X56547088Y-105944278D01*
X56528433Y-105921548D01*
X56420213Y-105813328D01*
X56986653Y-105813328D01*
X56986653Y-107313328D01*
X56989535Y-107342592D01*
X57011933Y-107396664D01*
X57053317Y-107438048D01*
X57107389Y-107460446D01*
X57165917Y-107460446D01*
X57219989Y-107438048D01*
X57261373Y-107396664D01*
X57283771Y-107342592D01*
X57286653Y-107313328D01*
X57286653Y-106378161D01*
X57863560Y-107387749D01*
X57867937Y-107393916D01*
X57869076Y-107396664D01*
X57871875Y-107399463D01*
X57880581Y-107411727D01*
X57896354Y-107423942D01*
X57910460Y-107438048D01*
X57919293Y-107441706D01*
X57926855Y-107447563D01*
X57946103Y-107452812D01*
X57964532Y-107460446D01*
X57974094Y-107460446D01*
X57983319Y-107462962D01*
X58003110Y-107460446D01*
X58023060Y-107460446D01*
X58031893Y-107456786D01*
X58041379Y-107455581D01*
X58058701Y-107445682D01*
X58077132Y-107438048D01*
X58083892Y-107431287D01*
X58092195Y-107426543D01*
X58104408Y-107410771D01*
X58118516Y-107396664D01*
X58122175Y-107387828D01*
X58128030Y-107380269D01*
X58133278Y-107361024D01*
X58140914Y-107342592D01*
X58142387Y-107327627D01*
X58143430Y-107323806D01*
X58143054Y-107320854D01*
X58143796Y-107313328D01*
X58143796Y-105813328D01*
X58140914Y-105784064D01*
X58346679Y-105784064D01*
X58346679Y-105842592D01*
X58369077Y-105896664D01*
X58410461Y-105938048D01*
X58464533Y-105960446D01*
X58493797Y-105963328D01*
X58772368Y-105963328D01*
X58772368Y-107313328D01*
X58775250Y-107342592D01*
X58797648Y-107396664D01*
X58839032Y-107438048D01*
X58893104Y-107460446D01*
X58951632Y-107460446D01*
X59005704Y-107438048D01*
X59047088Y-107396664D01*
X59069486Y-107342592D01*
X59072368Y-107313328D01*
X59072368Y-105963328D01*
X59350940Y-105963328D01*
X59380204Y-105960446D01*
X59434276Y-105938048D01*
X59475660Y-105896664D01*
X59498058Y-105842592D01*
X59498058Y-105813328D01*
X59700939Y-105813328D01*
X59700939Y-107313328D01*
X59703821Y-107342592D01*
X59726219Y-107396664D01*
X59767603Y-107438048D01*
X59821675Y-107460446D01*
X59850939Y-107463328D01*
X60565225Y-107463328D01*
X60594489Y-107460446D01*
X60648561Y-107438048D01*
X60689945Y-107396664D01*
X60712343Y-107342592D01*
X60712343Y-107284064D01*
X60689945Y-107229992D01*
X60648561Y-107188608D01*
X60594489Y-107166210D01*
X60565225Y-107163328D01*
X60000939Y-107163328D01*
X60000939Y-106677614D01*
X60350939Y-106677614D01*
X60380203Y-106674732D01*
X60434275Y-106652334D01*
X60475659Y-106610950D01*
X60498057Y-106556878D01*
X60498057Y-106498350D01*
X60475659Y-106444278D01*
X60434275Y-106402894D01*
X60380203Y-106380496D01*
X60350939Y-106377614D01*
X60000939Y-106377614D01*
X60000939Y-105963328D01*
X60565225Y-105963328D01*
X60594489Y-105960446D01*
X60648561Y-105938048D01*
X60689945Y-105896664D01*
X60712343Y-105842592D01*
X60712343Y-105813328D01*
X62200939Y-105813328D01*
X62200939Y-107313328D01*
X62203821Y-107342592D01*
X62226219Y-107396664D01*
X62267603Y-107438048D01*
X62321675Y-107460446D01*
X62350939Y-107463328D01*
X63065225Y-107463328D01*
X63094489Y-107460446D01*
X63148561Y-107438048D01*
X63189945Y-107396664D01*
X63212343Y-107342592D01*
X63212343Y-107284064D01*
X63189945Y-107229992D01*
X63148561Y-107188608D01*
X63094489Y-107166210D01*
X63065225Y-107163328D01*
X62500939Y-107163328D01*
X62500939Y-105813328D01*
X63415225Y-105813328D01*
X63415225Y-107313328D01*
X63418107Y-107342592D01*
X63440505Y-107396664D01*
X63481889Y-107438048D01*
X63535961Y-107460446D01*
X63594489Y-107460446D01*
X63648561Y-107438048D01*
X63689945Y-107396664D01*
X63712343Y-107342592D01*
X63715225Y-107313328D01*
X63715225Y-105813328D01*
X64129511Y-105813328D01*
X64129511Y-107313328D01*
X64132393Y-107342592D01*
X64154791Y-107396664D01*
X64196175Y-107438048D01*
X64250247Y-107460446D01*
X64308775Y-107460446D01*
X64362847Y-107438048D01*
X64404231Y-107396664D01*
X64426629Y-107342592D01*
X64429511Y-107313328D01*
X64429511Y-106378161D01*
X65006418Y-107387749D01*
X65010795Y-107393916D01*
X65011934Y-107396664D01*
X65014733Y-107399463D01*
X65023439Y-107411727D01*
X65039212Y-107423942D01*
X65053318Y-107438048D01*
X65062151Y-107441706D01*
X65069713Y-107447563D01*
X65088961Y-107452812D01*
X65107390Y-107460446D01*
X65116952Y-107460446D01*
X65126177Y-107462962D01*
X65145968Y-107460446D01*
X65165918Y-107460446D01*
X65174751Y-107456786D01*
X65184237Y-107455581D01*
X65201559Y-107445682D01*
X65219990Y-107438048D01*
X65226750Y-107431287D01*
X65235053Y-107426543D01*
X65247266Y-107410771D01*
X65261374Y-107396664D01*
X65265033Y-107387828D01*
X65270888Y-107380269D01*
X65276136Y-107361024D01*
X65283772Y-107342592D01*
X65285245Y-107327627D01*
X65286288Y-107323806D01*
X65285912Y-107320854D01*
X65286654Y-107313328D01*
X65286654Y-105813328D01*
X65700940Y-105813328D01*
X65700940Y-107313328D01*
X65703822Y-107342592D01*
X65726220Y-107396664D01*
X65767604Y-107438048D01*
X65821676Y-107460446D01*
X65850940Y-107463328D01*
X66565226Y-107463328D01*
X66594490Y-107460446D01*
X66648562Y-107438048D01*
X66689946Y-107396664D01*
X66712344Y-107342592D01*
X66712344Y-107294567D01*
X66844976Y-107294567D01*
X66849125Y-107352948D01*
X66875299Y-107405295D01*
X66919513Y-107443642D01*
X66975037Y-107462150D01*
X67033418Y-107458001D01*
X67085765Y-107431827D01*
X67124112Y-107387613D01*
X67136100Y-107360762D01*
X67244769Y-107034757D01*
X67742828Y-107034757D01*
X67851496Y-107360762D01*
X67863484Y-107387613D01*
X67901831Y-107431828D01*
X67954179Y-107458001D01*
X68012559Y-107462151D01*
X68068083Y-107443642D01*
X68112297Y-107405295D01*
X68138471Y-107352948D01*
X68142621Y-107294568D01*
X68136101Y-107265894D01*
X67651911Y-105813328D01*
X68343797Y-105813328D01*
X68343797Y-107313328D01*
X68346679Y-107342592D01*
X68369077Y-107396664D01*
X68410461Y-107438048D01*
X68464533Y-107460446D01*
X68523061Y-107460446D01*
X68577133Y-107438048D01*
X68618517Y-107396664D01*
X68640915Y-107342592D01*
X68643797Y-107313328D01*
X68643797Y-106749042D01*
X68772842Y-106749042D01*
X69228055Y-107399347D01*
X69247198Y-107421669D01*
X69296555Y-107453122D01*
X69354191Y-107463293D01*
X69411333Y-107450634D01*
X69459281Y-107417070D01*
X69490734Y-107367713D01*
X69500905Y-107310077D01*
X69497469Y-107294567D01*
X70773547Y-107294567D01*
X70777696Y-107352948D01*
X70803870Y-107405295D01*
X70848084Y-107443642D01*
X70903608Y-107462150D01*
X70961989Y-107458001D01*
X71014336Y-107431827D01*
X71052683Y-107387613D01*
X71064671Y-107360762D01*
X71173340Y-107034757D01*
X71671399Y-107034757D01*
X71780067Y-107360762D01*
X71792055Y-107387613D01*
X71830402Y-107431828D01*
X71882750Y-107458001D01*
X71941130Y-107462151D01*
X71996654Y-107443642D01*
X72040868Y-107405295D01*
X72067042Y-107352948D01*
X72071192Y-107294568D01*
X72068804Y-107284064D01*
X72132393Y-107284064D01*
X72132393Y-107342592D01*
X72154791Y-107396664D01*
X72196175Y-107438048D01*
X72250247Y-107460446D01*
X72279511Y-107463328D01*
X72422368Y-107463328D01*
X72437173Y-107461869D01*
X72441128Y-107462151D01*
X72446329Y-107460968D01*
X72451632Y-107460446D01*
X72455289Y-107458930D01*
X72469802Y-107455631D01*
X72684088Y-107384203D01*
X72710939Y-107372215D01*
X72715010Y-107368683D01*
X72719990Y-107366621D01*
X72742720Y-107347966D01*
X72885577Y-107205108D01*
X72904232Y-107182377D01*
X72906294Y-107177397D01*
X72909825Y-107173327D01*
X72921813Y-107146477D01*
X72993242Y-106932192D01*
X72996541Y-106917682D01*
X72998058Y-106914021D01*
X72998580Y-106908712D01*
X72999762Y-106903518D01*
X72999481Y-106899568D01*
X73000940Y-106884757D01*
X73000940Y-105813328D01*
X73415225Y-105813328D01*
X73415225Y-107027614D01*
X73418107Y-107056878D01*
X73420170Y-107061858D01*
X73420552Y-107067233D01*
X73431061Y-107094696D01*
X73502490Y-107237553D01*
X73510417Y-107250146D01*
X73511933Y-107253806D01*
X73515314Y-107257925D01*
X73518155Y-107262439D01*
X73521148Y-107265035D01*
X73530588Y-107276537D01*
X73602017Y-107347966D01*
X73613521Y-107357407D01*
X73616116Y-107360399D01*
X73620625Y-107363237D01*
X73624748Y-107366621D01*
X73628409Y-107368137D01*
X73641001Y-107376064D01*
X73783859Y-107447492D01*
X73811322Y-107458002D01*
X73816697Y-107458383D01*
X73821676Y-107460446D01*
X73850940Y-107463328D01*
X74136654Y-107463328D01*
X74165918Y-107460446D01*
X74170896Y-107458383D01*
X74176272Y-107458002D01*
X74203736Y-107447492D01*
X74346593Y-107376064D01*
X74359186Y-107368136D01*
X74362846Y-107366621D01*
X74366965Y-107363239D01*
X74371479Y-107360399D01*
X74374075Y-107357405D01*
X74385577Y-107347966D01*
X74457006Y-107276537D01*
X74466447Y-107265032D01*
X74469439Y-107262438D01*
X74472277Y-107257928D01*
X74475661Y-107253806D01*
X74477177Y-107250144D01*
X74485104Y-107237553D01*
X74556532Y-107094695D01*
X74567042Y-107067232D01*
X74567423Y-107061856D01*
X74569486Y-107056878D01*
X74572368Y-107027614D01*
X74572368Y-106099042D01*
X74915226Y-106099042D01*
X74915226Y-106241900D01*
X74918108Y-106271164D01*
X74920170Y-106276142D01*
X74920552Y-106281518D01*
X74931062Y-106308982D01*
X75002490Y-106451839D01*
X75010418Y-106464434D01*
X75011934Y-106468093D01*
X75015313Y-106472210D01*
X75018155Y-106476725D01*
X75021149Y-106479321D01*
X75030589Y-106490824D01*
X75102018Y-106562252D01*
X75113518Y-106571690D01*
X75116115Y-106574684D01*
X75120627Y-106577524D01*
X75124748Y-106580906D01*
X75128407Y-106582421D01*
X75141001Y-106590349D01*
X75283857Y-106661778D01*
X75285999Y-106662597D01*
X75286869Y-106663242D01*
X75299140Y-106667626D01*
X75311321Y-106672287D01*
X75312401Y-106672363D01*
X75314560Y-106673135D01*
X75584298Y-106740569D01*
X75690657Y-106793748D01*
X75727661Y-106830753D01*
X75772369Y-106920167D01*
X75772369Y-106992203D01*
X75727661Y-107081617D01*
X75690658Y-107118621D01*
X75601245Y-107163328D01*
X75303855Y-107163328D01*
X75112660Y-107099597D01*
X75083986Y-107093077D01*
X75025606Y-107097227D01*
X74973259Y-107123401D01*
X74934911Y-107167615D01*
X74916403Y-107223140D01*
X74920553Y-107281520D01*
X74946727Y-107333867D01*
X74990941Y-107372215D01*
X75017792Y-107384203D01*
X75232078Y-107455631D01*
X75246590Y-107458930D01*
X75250248Y-107460446D01*
X75255550Y-107460968D01*
X75260752Y-107462151D01*
X75264706Y-107461869D01*
X75279512Y-107463328D01*
X75636654Y-107463328D01*
X75665918Y-107460446D01*
X75670896Y-107458383D01*
X75676272Y-107458002D01*
X75703735Y-107447492D01*
X75846594Y-107376064D01*
X75859188Y-107368135D01*
X75862848Y-107366620D01*
X75866968Y-107363238D01*
X75871479Y-107360399D01*
X75874073Y-107357407D01*
X75885579Y-107347965D01*
X75957007Y-107276536D01*
X75966445Y-107265035D01*
X75969439Y-107262439D01*
X75972279Y-107257926D01*
X75975661Y-107253806D01*
X75977176Y-107250146D01*
X75985104Y-107237553D01*
X76056533Y-107094697D01*
X76067042Y-107067233D01*
X76067423Y-107061858D01*
X76069487Y-107056878D01*
X76072369Y-107027614D01*
X76072369Y-106884757D01*
X76069487Y-106855493D01*
X76067423Y-106850512D01*
X76067042Y-106845138D01*
X76056533Y-106817674D01*
X75985104Y-106674818D01*
X75977176Y-106662224D01*
X75975661Y-106658565D01*
X75972279Y-106654444D01*
X75969439Y-106649932D01*
X75966445Y-106647335D01*
X75957007Y-106635835D01*
X75885579Y-106564406D01*
X75874076Y-106554966D01*
X75871480Y-106551972D01*
X75866965Y-106549130D01*
X75862848Y-106545751D01*
X75859189Y-106544235D01*
X75846594Y-106536307D01*
X75703736Y-106464878D01*
X75701595Y-106464058D01*
X75700725Y-106463414D01*
X75688469Y-106459035D01*
X75676273Y-106454368D01*
X75675189Y-106454291D01*
X75673034Y-106453521D01*
X75403296Y-106386086D01*
X75296936Y-106332906D01*
X75259931Y-106295901D01*
X75215226Y-106206490D01*
X75215226Y-106134451D01*
X75259931Y-106045040D01*
X75296936Y-106008035D01*
X75386350Y-105963328D01*
X75683743Y-105963328D01*
X75874934Y-106027059D01*
X75903608Y-106033579D01*
X75961988Y-106029430D01*
X76014335Y-106003256D01*
X76052683Y-105959042D01*
X76071191Y-105903518D01*
X76067042Y-105845138D01*
X76040868Y-105792790D01*
X76030807Y-105784064D01*
X76203822Y-105784064D01*
X76203822Y-105842592D01*
X76226220Y-105896664D01*
X76267604Y-105938048D01*
X76321676Y-105960446D01*
X76350940Y-105963328D01*
X76629511Y-105963328D01*
X76629511Y-107313328D01*
X76632393Y-107342592D01*
X76654791Y-107396664D01*
X76696175Y-107438048D01*
X76750247Y-107460446D01*
X76808775Y-107460446D01*
X76862847Y-107438048D01*
X76904231Y-107396664D01*
X76926629Y-107342592D01*
X76929511Y-107313328D01*
X76929511Y-107294567D01*
X77344975Y-107294567D01*
X77349124Y-107352948D01*
X77375298Y-107405295D01*
X77419512Y-107443642D01*
X77475036Y-107462150D01*
X77533417Y-107458001D01*
X77585764Y-107431827D01*
X77624111Y-107387613D01*
X77636099Y-107360762D01*
X77744768Y-107034757D01*
X78242827Y-107034757D01*
X78351495Y-107360762D01*
X78363483Y-107387613D01*
X78401830Y-107431828D01*
X78454178Y-107458001D01*
X78512558Y-107462151D01*
X78568082Y-107443642D01*
X78612296Y-107405295D01*
X78638470Y-107352948D01*
X78642620Y-107294568D01*
X78636100Y-107265894D01*
X78158164Y-105832089D01*
X78630689Y-105832089D01*
X78637209Y-105860762D01*
X79137209Y-107360762D01*
X79149197Y-107387613D01*
X79156219Y-107395710D01*
X79161012Y-107405295D01*
X79175218Y-107417616D01*
X79187544Y-107431828D01*
X79197131Y-107436621D01*
X79205226Y-107443642D01*
X79223068Y-107449589D01*
X79239892Y-107458001D01*
X79250582Y-107458760D01*
X79260750Y-107462150D01*
X79279506Y-107460817D01*
X79298272Y-107462151D01*
X79308442Y-107458760D01*
X79319131Y-107458001D01*
X79335952Y-107449590D01*
X79353796Y-107443642D01*
X79361892Y-107436619D01*
X79371478Y-107431827D01*
X79383801Y-107417618D01*
X79398010Y-107405295D01*
X79402802Y-107395709D01*
X79409825Y-107387613D01*
X79421813Y-107360762D01*
X79921814Y-105860762D01*
X79928334Y-105832088D01*
X79927000Y-105813328D01*
X80129510Y-105813328D01*
X80129510Y-107313328D01*
X80132392Y-107342592D01*
X80154790Y-107396664D01*
X80196174Y-107438048D01*
X80250246Y-107460446D01*
X80279510Y-107463328D01*
X80993796Y-107463328D01*
X81023060Y-107460446D01*
X81077132Y-107438048D01*
X81118516Y-107396664D01*
X81140914Y-107342592D01*
X81140914Y-107284064D01*
X81118516Y-107229992D01*
X81077132Y-107188608D01*
X81023060Y-107166210D01*
X80993796Y-107163328D01*
X80429510Y-107163328D01*
X80429510Y-106677614D01*
X80779510Y-106677614D01*
X80808774Y-106674732D01*
X80862846Y-106652334D01*
X80904230Y-106610950D01*
X80926628Y-106556878D01*
X80926628Y-106498350D01*
X80904230Y-106444278D01*
X80862846Y-106402894D01*
X80808774Y-106380496D01*
X80779510Y-106377614D01*
X80429510Y-106377614D01*
X80429510Y-105963328D01*
X80993796Y-105963328D01*
X81023060Y-105960446D01*
X81077132Y-105938048D01*
X81118516Y-105896664D01*
X81140914Y-105842592D01*
X81140914Y-105813328D01*
X81486653Y-105813328D01*
X81486653Y-107313328D01*
X81489535Y-107342592D01*
X81511933Y-107396664D01*
X81553317Y-107438048D01*
X81607389Y-107460446D01*
X81636653Y-107463328D01*
X82350939Y-107463328D01*
X82380203Y-107460446D01*
X82434275Y-107438048D01*
X82475659Y-107396664D01*
X82498057Y-107342592D01*
X82498057Y-107284064D01*
X82475659Y-107229992D01*
X82434275Y-107188608D01*
X82380203Y-107166210D01*
X82350939Y-107163328D01*
X81786653Y-107163328D01*
X81786653Y-105813328D01*
X81783771Y-105784064D01*
X81761373Y-105729992D01*
X81719989Y-105688608D01*
X81665917Y-105666210D01*
X81607389Y-105666210D01*
X81553317Y-105688608D01*
X81511933Y-105729992D01*
X81489535Y-105784064D01*
X81486653Y-105813328D01*
X81140914Y-105813328D01*
X81140914Y-105784064D01*
X81118516Y-105729992D01*
X81077132Y-105688608D01*
X81023060Y-105666210D01*
X80993796Y-105663328D01*
X80279510Y-105663328D01*
X80250246Y-105666210D01*
X80196174Y-105688608D01*
X80154790Y-105729992D01*
X80132392Y-105784064D01*
X80129510Y-105813328D01*
X79927000Y-105813328D01*
X79924184Y-105773708D01*
X79898010Y-105721361D01*
X79853796Y-105683014D01*
X79798272Y-105664505D01*
X79739892Y-105668655D01*
X79687544Y-105694828D01*
X79649197Y-105739043D01*
X79637209Y-105765894D01*
X79279511Y-106838986D01*
X78921813Y-105765894D01*
X78909825Y-105739043D01*
X78871478Y-105694829D01*
X78819131Y-105668655D01*
X78760750Y-105664506D01*
X78705226Y-105683014D01*
X78661012Y-105721361D01*
X78634838Y-105773708D01*
X78630689Y-105832089D01*
X78158164Y-105832089D01*
X78136099Y-105765894D01*
X78124111Y-105739043D01*
X78117088Y-105730946D01*
X78112296Y-105721361D01*
X78098087Y-105709037D01*
X78085764Y-105694829D01*
X78076178Y-105690036D01*
X78068082Y-105683014D01*
X78050238Y-105677065D01*
X78033417Y-105668655D01*
X78022728Y-105667895D01*
X78012558Y-105664505D01*
X77993792Y-105665838D01*
X77975036Y-105664506D01*
X77964868Y-105667895D01*
X77954178Y-105668655D01*
X77937354Y-105677066D01*
X77919512Y-105683014D01*
X77911417Y-105690034D01*
X77901830Y-105694828D01*
X77889504Y-105709039D01*
X77875298Y-105721361D01*
X77870505Y-105730945D01*
X77863483Y-105739043D01*
X77851495Y-105765894D01*
X77351495Y-107265894D01*
X77344975Y-107294567D01*
X76929511Y-107294567D01*
X76929511Y-105963328D01*
X77208083Y-105963328D01*
X77237347Y-105960446D01*
X77291419Y-105938048D01*
X77332803Y-105896664D01*
X77355201Y-105842592D01*
X77355201Y-105784064D01*
X77332803Y-105729992D01*
X77291419Y-105688608D01*
X77237347Y-105666210D01*
X77208083Y-105663328D01*
X76350940Y-105663328D01*
X76321676Y-105666210D01*
X76267604Y-105688608D01*
X76226220Y-105729992D01*
X76203822Y-105784064D01*
X76030807Y-105784064D01*
X75996654Y-105754443D01*
X75969803Y-105742454D01*
X75755517Y-105671026D01*
X75741009Y-105667727D01*
X75737347Y-105666210D01*
X75732038Y-105665687D01*
X75726844Y-105664506D01*
X75722894Y-105664786D01*
X75708083Y-105663328D01*
X75350940Y-105663328D01*
X75321676Y-105666210D01*
X75316695Y-105668273D01*
X75311321Y-105668655D01*
X75283857Y-105679164D01*
X75141001Y-105750593D01*
X75128407Y-105758520D01*
X75124748Y-105760036D01*
X75120627Y-105763417D01*
X75116115Y-105766258D01*
X75113518Y-105769251D01*
X75102018Y-105778690D01*
X75030589Y-105850118D01*
X75021149Y-105861620D01*
X75018155Y-105864217D01*
X75015313Y-105868731D01*
X75011934Y-105872849D01*
X75010418Y-105876507D01*
X75002490Y-105889103D01*
X74931062Y-106031960D01*
X74920552Y-106059424D01*
X74920170Y-106064799D01*
X74918108Y-106069778D01*
X74915226Y-106099042D01*
X74572368Y-106099042D01*
X74572368Y-105813328D01*
X74569486Y-105784064D01*
X74547088Y-105729992D01*
X74505704Y-105688608D01*
X74451632Y-105666210D01*
X74393104Y-105666210D01*
X74339032Y-105688608D01*
X74297648Y-105729992D01*
X74275250Y-105784064D01*
X74272368Y-105813328D01*
X74272368Y-106992204D01*
X74227661Y-107081617D01*
X74190656Y-107118622D01*
X74101244Y-107163328D01*
X73886350Y-107163328D01*
X73796936Y-107118621D01*
X73759932Y-107081617D01*
X73715225Y-106992203D01*
X73715225Y-105813328D01*
X73712343Y-105784064D01*
X73689945Y-105729992D01*
X73648561Y-105688608D01*
X73594489Y-105666210D01*
X73535961Y-105666210D01*
X73481889Y-105688608D01*
X73440505Y-105729992D01*
X73418107Y-105784064D01*
X73415225Y-105813328D01*
X73000940Y-105813328D01*
X72998058Y-105784064D01*
X72975660Y-105729992D01*
X72934276Y-105688608D01*
X72880204Y-105666210D01*
X72821676Y-105666210D01*
X72767604Y-105688608D01*
X72726220Y-105729992D01*
X72703822Y-105784064D01*
X72700940Y-105813328D01*
X72700940Y-106860416D01*
X72648406Y-107018014D01*
X72555627Y-107110794D01*
X72398025Y-107163328D01*
X72279511Y-107163328D01*
X72250247Y-107166210D01*
X72196175Y-107188608D01*
X72154791Y-107229992D01*
X72132393Y-107284064D01*
X72068804Y-107284064D01*
X72064672Y-107265894D01*
X71564671Y-105765894D01*
X71552683Y-105739043D01*
X71545660Y-105730946D01*
X71540868Y-105721361D01*
X71526659Y-105709037D01*
X71514336Y-105694829D01*
X71504750Y-105690036D01*
X71496654Y-105683014D01*
X71478810Y-105677065D01*
X71461989Y-105668655D01*
X71451300Y-105667895D01*
X71441130Y-105664505D01*
X71422364Y-105665838D01*
X71403608Y-105664506D01*
X71393440Y-105667895D01*
X71382750Y-105668655D01*
X71365926Y-105677066D01*
X71348084Y-105683014D01*
X71339989Y-105690034D01*
X71330402Y-105694828D01*
X71318076Y-105709039D01*
X71303870Y-105721361D01*
X71299077Y-105730945D01*
X71292055Y-105739043D01*
X71280067Y-105765894D01*
X70780067Y-107265894D01*
X70773547Y-107294567D01*
X69497469Y-107294567D01*
X69488246Y-107252935D01*
X69473825Y-107227309D01*
X69128873Y-106734520D01*
X69132308Y-106733206D01*
X69275165Y-106661778D01*
X69287758Y-106653850D01*
X69291418Y-106652335D01*
X69295537Y-106648953D01*
X69300051Y-106646113D01*
X69302647Y-106643119D01*
X69314149Y-106633680D01*
X69385578Y-106562251D01*
X69395019Y-106550746D01*
X69398011Y-106548152D01*
X69400849Y-106543642D01*
X69404233Y-106539520D01*
X69405749Y-106535858D01*
X69413676Y-106523267D01*
X69485104Y-106380409D01*
X69495614Y-106352946D01*
X69495995Y-106347570D01*
X69498058Y-106342592D01*
X69500940Y-106313328D01*
X69500940Y-106099042D01*
X69498058Y-106069778D01*
X69495995Y-106064799D01*
X69495614Y-106059424D01*
X69485104Y-106031961D01*
X69413676Y-105889103D01*
X69405747Y-105876508D01*
X69404232Y-105872849D01*
X69400850Y-105868728D01*
X69398011Y-105864218D01*
X69395019Y-105861623D01*
X69385577Y-105850118D01*
X69314148Y-105778690D01*
X69302648Y-105769252D01*
X69300051Y-105766258D01*
X69295534Y-105763415D01*
X69291417Y-105760036D01*
X69287760Y-105758521D01*
X69275165Y-105750593D01*
X69132308Y-105679164D01*
X69104845Y-105668655D01*
X69099470Y-105668273D01*
X69094490Y-105666210D01*
X69065226Y-105663328D01*
X68493797Y-105663328D01*
X68464533Y-105666210D01*
X68410461Y-105688608D01*
X68369077Y-105729992D01*
X68346679Y-105784064D01*
X68343797Y-105813328D01*
X67651911Y-105813328D01*
X67636100Y-105765894D01*
X67624112Y-105739043D01*
X67617089Y-105730946D01*
X67612297Y-105721361D01*
X67598088Y-105709037D01*
X67585765Y-105694829D01*
X67576179Y-105690036D01*
X67568083Y-105683014D01*
X67550239Y-105677065D01*
X67533418Y-105668655D01*
X67522729Y-105667895D01*
X67512559Y-105664505D01*
X67493793Y-105665838D01*
X67475037Y-105664506D01*
X67464869Y-105667895D01*
X67454179Y-105668655D01*
X67437355Y-105677066D01*
X67419513Y-105683014D01*
X67411418Y-105690034D01*
X67401831Y-105694828D01*
X67389505Y-105709039D01*
X67375299Y-105721361D01*
X67370506Y-105730945D01*
X67363484Y-105739043D01*
X67351496Y-105765894D01*
X66851496Y-107265894D01*
X66844976Y-107294567D01*
X66712344Y-107294567D01*
X66712344Y-107284064D01*
X66689946Y-107229992D01*
X66648562Y-107188608D01*
X66594490Y-107166210D01*
X66565226Y-107163328D01*
X66000940Y-107163328D01*
X66000940Y-106677614D01*
X66350940Y-106677614D01*
X66380204Y-106674732D01*
X66434276Y-106652334D01*
X66475660Y-106610950D01*
X66498058Y-106556878D01*
X66498058Y-106498350D01*
X66475660Y-106444278D01*
X66434276Y-106402894D01*
X66380204Y-106380496D01*
X66350940Y-106377614D01*
X66000940Y-106377614D01*
X66000940Y-105963328D01*
X66565226Y-105963328D01*
X66594490Y-105960446D01*
X66648562Y-105938048D01*
X66689946Y-105896664D01*
X66712344Y-105842592D01*
X66712344Y-105784064D01*
X66689946Y-105729992D01*
X66648562Y-105688608D01*
X66594490Y-105666210D01*
X66565226Y-105663328D01*
X65850940Y-105663328D01*
X65821676Y-105666210D01*
X65767604Y-105688608D01*
X65726220Y-105729992D01*
X65703822Y-105784064D01*
X65700940Y-105813328D01*
X65286654Y-105813328D01*
X65283772Y-105784064D01*
X65261374Y-105729992D01*
X65219990Y-105688608D01*
X65165918Y-105666210D01*
X65107390Y-105666210D01*
X65053318Y-105688608D01*
X65011934Y-105729992D01*
X64989536Y-105784064D01*
X64986654Y-105813328D01*
X64986654Y-106748492D01*
X64409747Y-105738907D01*
X64405369Y-105732739D01*
X64404231Y-105729992D01*
X64401431Y-105727192D01*
X64392726Y-105714929D01*
X64376954Y-105702715D01*
X64362847Y-105688608D01*
X64354011Y-105684948D01*
X64346452Y-105679094D01*
X64327207Y-105673845D01*
X64308775Y-105666210D01*
X64299213Y-105666210D01*
X64289988Y-105663694D01*
X64270197Y-105666210D01*
X64250247Y-105666210D01*
X64241413Y-105669869D01*
X64231928Y-105671075D01*
X64214605Y-105680973D01*
X64196175Y-105688608D01*
X64189414Y-105695368D01*
X64181112Y-105700113D01*
X64168898Y-105715884D01*
X64154791Y-105729992D01*
X64151131Y-105738827D01*
X64145277Y-105746387D01*
X64140028Y-105765631D01*
X64132393Y-105784064D01*
X64130919Y-105799030D01*
X64129877Y-105802851D01*
X64130252Y-105805802D01*
X64129511Y-105813328D01*
X63715225Y-105813328D01*
X63712343Y-105784064D01*
X63689945Y-105729992D01*
X63648561Y-105688608D01*
X63594489Y-105666210D01*
X63535961Y-105666210D01*
X63481889Y-105688608D01*
X63440505Y-105729992D01*
X63418107Y-105784064D01*
X63415225Y-105813328D01*
X62500939Y-105813328D01*
X62498057Y-105784064D01*
X62475659Y-105729992D01*
X62434275Y-105688608D01*
X62380203Y-105666210D01*
X62321675Y-105666210D01*
X62267603Y-105688608D01*
X62226219Y-105729992D01*
X62203821Y-105784064D01*
X62200939Y-105813328D01*
X60712343Y-105813328D01*
X60712343Y-105784064D01*
X60689945Y-105729992D01*
X60648561Y-105688608D01*
X60594489Y-105666210D01*
X60565225Y-105663328D01*
X59850939Y-105663328D01*
X59821675Y-105666210D01*
X59767603Y-105688608D01*
X59726219Y-105729992D01*
X59703821Y-105784064D01*
X59700939Y-105813328D01*
X59498058Y-105813328D01*
X59498058Y-105784064D01*
X59475660Y-105729992D01*
X59434276Y-105688608D01*
X59380204Y-105666210D01*
X59350940Y-105663328D01*
X58493797Y-105663328D01*
X58464533Y-105666210D01*
X58410461Y-105688608D01*
X58369077Y-105729992D01*
X58346679Y-105784064D01*
X58140914Y-105784064D01*
X58118516Y-105729992D01*
X58077132Y-105688608D01*
X58023060Y-105666210D01*
X57964532Y-105666210D01*
X57910460Y-105688608D01*
X57869076Y-105729992D01*
X57846678Y-105784064D01*
X57843796Y-105813328D01*
X57843796Y-106748492D01*
X57266889Y-105738907D01*
X57262511Y-105732739D01*
X57261373Y-105729992D01*
X57258573Y-105727192D01*
X57249868Y-105714929D01*
X57234096Y-105702715D01*
X57219989Y-105688608D01*
X57211153Y-105684948D01*
X57203594Y-105679094D01*
X57184349Y-105673845D01*
X57165917Y-105666210D01*
X57156355Y-105666210D01*
X57147130Y-105663694D01*
X57127339Y-105666210D01*
X57107389Y-105666210D01*
X57098555Y-105669869D01*
X57089070Y-105671075D01*
X57071747Y-105680973D01*
X57053317Y-105688608D01*
X57046556Y-105695368D01*
X57038254Y-105700113D01*
X57026040Y-105715884D01*
X57011933Y-105729992D01*
X57008273Y-105738827D01*
X57002419Y-105746387D01*
X56997170Y-105765631D01*
X56989535Y-105784064D01*
X56988061Y-105799030D01*
X56987019Y-105802851D01*
X56987394Y-105805802D01*
X56986653Y-105813328D01*
X56420213Y-105813328D01*
X56385576Y-105778691D01*
X56374074Y-105769251D01*
X56371478Y-105766258D01*
X56366964Y-105763417D01*
X56362845Y-105760036D01*
X56359185Y-105758520D01*
X56346592Y-105750593D01*
X56203735Y-105679164D01*
X56176272Y-105668655D01*
X56170897Y-105668273D01*
X56165917Y-105666210D01*
X56136653Y-105663328D01*
X55850939Y-105663328D01*
X55821675Y-105666210D01*
X55816694Y-105668273D01*
X55811320Y-105668655D01*
X55783856Y-105679164D01*
X55641000Y-105750593D01*
X55628406Y-105758520D01*
X55624747Y-105760036D01*
X55620627Y-105763417D01*
X55616114Y-105766258D01*
X55613517Y-105769252D01*
X55602016Y-105778691D01*
X55459158Y-105921548D01*
X55440503Y-105944278D01*
X55436234Y-105954583D01*
X55429596Y-105963543D01*
X55419703Y-105991234D01*
X55348275Y-106276948D01*
X55347525Y-106282019D01*
X55346678Y-106284064D01*
X55345592Y-106295086D01*
X55343973Y-106306037D01*
X55344298Y-106308224D01*
X55343796Y-106313328D01*
X54429510Y-106313328D01*
X54429510Y-105963328D01*
X54993796Y-105963328D01*
X55023060Y-105960446D01*
X55077132Y-105938048D01*
X55118516Y-105896664D01*
X55140914Y-105842592D01*
X55140914Y-105784064D01*
X55118516Y-105729992D01*
X55077132Y-105688608D01*
X55023060Y-105666210D01*
X54993796Y-105663328D01*
X54279510Y-105663328D01*
X54250246Y-105666210D01*
X54196174Y-105688608D01*
X54154790Y-105729992D01*
X54132392Y-105784064D01*
X54129510Y-105813328D01*
X53962843Y-105813328D01*
X53962843Y-105496661D01*
X82664724Y-105496661D01*
X82664724Y-107629995D01*
G37*
X95470489Y-65920516D02*
X94327632Y-65920516D01*
X94899060Y-65349087D02*
X94899060Y-66491944D01*
X95470489Y-63505600D02*
X94327632Y-63505600D01*
D10*
X126194761Y-39555057D02*
X126099523Y-39507438D01*
X126099523Y-39507438D02*
X126004285Y-39412200D01*
X126004285Y-39412200D02*
X125861428Y-39269342D01*
X125861428Y-39269342D02*
X125766190Y-39221723D01*
X125766190Y-39221723D02*
X125670952Y-39221723D01*
X125718571Y-39459819D02*
X125623333Y-39412200D01*
X125623333Y-39412200D02*
X125528095Y-39316961D01*
X125528095Y-39316961D02*
X125480476Y-39126485D01*
X125480476Y-39126485D02*
X125480476Y-38793152D01*
X125480476Y-38793152D02*
X125528095Y-38602676D01*
X125528095Y-38602676D02*
X125623333Y-38507438D01*
X125623333Y-38507438D02*
X125718571Y-38459819D01*
X125718571Y-38459819D02*
X125909047Y-38459819D01*
X125909047Y-38459819D02*
X126004285Y-38507438D01*
X126004285Y-38507438D02*
X126099523Y-38602676D01*
X126099523Y-38602676D02*
X126147142Y-38793152D01*
X126147142Y-38793152D02*
X126147142Y-39126485D01*
X126147142Y-39126485D02*
X126099523Y-39316961D01*
X126099523Y-39316961D02*
X126004285Y-39412200D01*
X126004285Y-39412200D02*
X125909047Y-39459819D01*
X125909047Y-39459819D02*
X125718571Y-39459819D01*
X127099523Y-39459819D02*
X126528095Y-39459819D01*
X126813809Y-39459819D02*
X126813809Y-38459819D01*
X126813809Y-38459819D02*
X126718571Y-38602676D01*
X126718571Y-38602676D02*
X126623333Y-38697914D01*
X126623333Y-38697914D02*
X126528095Y-38745533D01*
X48086905Y-64389819D02*
X48086905Y-63389819D01*
X48086905Y-63389819D02*
X48325000Y-63389819D01*
X48325000Y-63389819D02*
X48467857Y-63437438D01*
X48467857Y-63437438D02*
X48563095Y-63532676D01*
X48563095Y-63532676D02*
X48610714Y-63627914D01*
X48610714Y-63627914D02*
X48658333Y-63818390D01*
X48658333Y-63818390D02*
X48658333Y-63961247D01*
X48658333Y-63961247D02*
X48610714Y-64151723D01*
X48610714Y-64151723D02*
X48563095Y-64246961D01*
X48563095Y-64246961D02*
X48467857Y-64342200D01*
X48467857Y-64342200D02*
X48325000Y-64389819D01*
X48325000Y-64389819D02*
X48086905Y-64389819D01*
X49515476Y-63723152D02*
X49515476Y-64389819D01*
X49277381Y-63342200D02*
X49039286Y-64056485D01*
X49039286Y-64056485D02*
X49658333Y-64056485D01*
X66983095Y-67489819D02*
X66983095Y-66489819D01*
X67554523Y-67489819D02*
X67125952Y-66918390D01*
X67554523Y-66489819D02*
X66983095Y-67061247D01*
X79796185Y-39554520D02*
X79748566Y-39602140D01*
X79748566Y-39602140D02*
X79605709Y-39649759D01*
X79605709Y-39649759D02*
X79510471Y-39649759D01*
X79510471Y-39649759D02*
X79367614Y-39602140D01*
X79367614Y-39602140D02*
X79272376Y-39506901D01*
X79272376Y-39506901D02*
X79224757Y-39411663D01*
X79224757Y-39411663D02*
X79177138Y-39221187D01*
X79177138Y-39221187D02*
X79177138Y-39078330D01*
X79177138Y-39078330D02*
X79224757Y-38887854D01*
X79224757Y-38887854D02*
X79272376Y-38792616D01*
X79272376Y-38792616D02*
X79367614Y-38697378D01*
X79367614Y-38697378D02*
X79510471Y-38649759D01*
X79510471Y-38649759D02*
X79605709Y-38649759D01*
X79605709Y-38649759D02*
X79748566Y-38697378D01*
X79748566Y-38697378D02*
X79796185Y-38744997D01*
X80748566Y-39649759D02*
X80177138Y-39649759D01*
X80462852Y-39649759D02*
X80462852Y-38649759D01*
X80462852Y-38649759D02*
X80367614Y-38792616D01*
X80367614Y-38792616D02*
X80272376Y-38887854D01*
X80272376Y-38887854D02*
X80177138Y-38935473D01*
X129129761Y-78189819D02*
X128796428Y-77713628D01*
X128558333Y-78189819D02*
X128558333Y-77189819D01*
X128558333Y-77189819D02*
X128939285Y-77189819D01*
X128939285Y-77189819D02*
X129034523Y-77237438D01*
X129034523Y-77237438D02*
X129082142Y-77285057D01*
X129082142Y-77285057D02*
X129129761Y-77380295D01*
X129129761Y-77380295D02*
X129129761Y-77523152D01*
X129129761Y-77523152D02*
X129082142Y-77618390D01*
X129082142Y-77618390D02*
X129034523Y-77666009D01*
X129034523Y-77666009D02*
X128939285Y-77713628D01*
X128939285Y-77713628D02*
X128558333Y-77713628D01*
X129891666Y-77666009D02*
X129558333Y-77666009D01*
X129558333Y-78189819D02*
X129558333Y-77189819D01*
X129558333Y-77189819D02*
X130034523Y-77189819D01*
X130939285Y-78189819D02*
X130367857Y-78189819D01*
X130653571Y-78189819D02*
X130653571Y-77189819D01*
X130653571Y-77189819D02*
X130558333Y-77332676D01*
X130558333Y-77332676D02*
X130463095Y-77427914D01*
X130463095Y-77427914D02*
X130367857Y-77475533D01*
X122958333Y-48094580D02*
X122910714Y-48142200D01*
X122910714Y-48142200D02*
X122767857Y-48189819D01*
X122767857Y-48189819D02*
X122672619Y-48189819D01*
X122672619Y-48189819D02*
X122529762Y-48142200D01*
X122529762Y-48142200D02*
X122434524Y-48046961D01*
X122434524Y-48046961D02*
X122386905Y-47951723D01*
X122386905Y-47951723D02*
X122339286Y-47761247D01*
X122339286Y-47761247D02*
X122339286Y-47618390D01*
X122339286Y-47618390D02*
X122386905Y-47427914D01*
X122386905Y-47427914D02*
X122434524Y-47332676D01*
X122434524Y-47332676D02*
X122529762Y-47237438D01*
X122529762Y-47237438D02*
X122672619Y-47189819D01*
X122672619Y-47189819D02*
X122767857Y-47189819D01*
X122767857Y-47189819D02*
X122910714Y-47237438D01*
X122910714Y-47237438D02*
X122958333Y-47285057D01*
X123815476Y-47523152D02*
X123815476Y-48189819D01*
X123577381Y-47142200D02*
X123339286Y-47856485D01*
X123339286Y-47856485D02*
X123958333Y-47856485D01*
X116667683Y-89962200D02*
X116810540Y-90009819D01*
X116810540Y-90009819D02*
X117048635Y-90009819D01*
X117048635Y-90009819D02*
X117143873Y-89962200D01*
X117143873Y-89962200D02*
X117191492Y-89914580D01*
X117191492Y-89914580D02*
X117239111Y-89819342D01*
X117239111Y-89819342D02*
X117239111Y-89724104D01*
X117239111Y-89724104D02*
X117191492Y-89628866D01*
X117191492Y-89628866D02*
X117143873Y-89581247D01*
X117143873Y-89581247D02*
X117048635Y-89533628D01*
X117048635Y-89533628D02*
X116858159Y-89486009D01*
X116858159Y-89486009D02*
X116762921Y-89438390D01*
X116762921Y-89438390D02*
X116715302Y-89390771D01*
X116715302Y-89390771D02*
X116667683Y-89295533D01*
X116667683Y-89295533D02*
X116667683Y-89200295D01*
X116667683Y-89200295D02*
X116715302Y-89105057D01*
X116715302Y-89105057D02*
X116762921Y-89057438D01*
X116762921Y-89057438D02*
X116858159Y-89009819D01*
X116858159Y-89009819D02*
X117096254Y-89009819D01*
X117096254Y-89009819D02*
X117239111Y-89057438D01*
X117524826Y-89009819D02*
X118096254Y-89009819D01*
X117810540Y-90009819D02*
X117810540Y-89009819D01*
X118953397Y-90009819D02*
X118381969Y-90009819D01*
X118667683Y-90009819D02*
X118667683Y-89009819D01*
X118667683Y-89009819D02*
X118572445Y-89152676D01*
X118572445Y-89152676D02*
X118477207Y-89247914D01*
X118477207Y-89247914D02*
X118381969Y-89295533D01*
X110182142Y-82194580D02*
X110134523Y-82242200D01*
X110134523Y-82242200D02*
X109991666Y-82289819D01*
X109991666Y-82289819D02*
X109896428Y-82289819D01*
X109896428Y-82289819D02*
X109753571Y-82242200D01*
X109753571Y-82242200D02*
X109658333Y-82146961D01*
X109658333Y-82146961D02*
X109610714Y-82051723D01*
X109610714Y-82051723D02*
X109563095Y-81861247D01*
X109563095Y-81861247D02*
X109563095Y-81718390D01*
X109563095Y-81718390D02*
X109610714Y-81527914D01*
X109610714Y-81527914D02*
X109658333Y-81432676D01*
X109658333Y-81432676D02*
X109753571Y-81337438D01*
X109753571Y-81337438D02*
X109896428Y-81289819D01*
X109896428Y-81289819D02*
X109991666Y-81289819D01*
X109991666Y-81289819D02*
X110134523Y-81337438D01*
X110134523Y-81337438D02*
X110182142Y-81385057D01*
X111134523Y-82289819D02*
X110563095Y-82289819D01*
X110848809Y-82289819D02*
X110848809Y-81289819D01*
X110848809Y-81289819D02*
X110753571Y-81432676D01*
X110753571Y-81432676D02*
X110658333Y-81527914D01*
X110658333Y-81527914D02*
X110563095Y-81575533D01*
X111467857Y-81289819D02*
X112086904Y-81289819D01*
X112086904Y-81289819D02*
X111753571Y-81670771D01*
X111753571Y-81670771D02*
X111896428Y-81670771D01*
X111896428Y-81670771D02*
X111991666Y-81718390D01*
X111991666Y-81718390D02*
X112039285Y-81766009D01*
X112039285Y-81766009D02*
X112086904Y-81861247D01*
X112086904Y-81861247D02*
X112086904Y-82099342D01*
X112086904Y-82099342D02*
X112039285Y-82194580D01*
X112039285Y-82194580D02*
X111991666Y-82242200D01*
X111991666Y-82242200D02*
X111896428Y-82289819D01*
X111896428Y-82289819D02*
X111610714Y-82289819D01*
X111610714Y-82289819D02*
X111515476Y-82242200D01*
X111515476Y-82242200D02*
X111467857Y-82194580D01*
X160182142Y-76689819D02*
X159848809Y-76213628D01*
X159610714Y-76689819D02*
X159610714Y-75689819D01*
X159610714Y-75689819D02*
X159991666Y-75689819D01*
X159991666Y-75689819D02*
X160086904Y-75737438D01*
X160086904Y-75737438D02*
X160134523Y-75785057D01*
X160134523Y-75785057D02*
X160182142Y-75880295D01*
X160182142Y-75880295D02*
X160182142Y-76023152D01*
X160182142Y-76023152D02*
X160134523Y-76118390D01*
X160134523Y-76118390D02*
X160086904Y-76166009D01*
X160086904Y-76166009D02*
X159991666Y-76213628D01*
X159991666Y-76213628D02*
X159610714Y-76213628D01*
X161134523Y-76689819D02*
X160563095Y-76689819D01*
X160848809Y-76689819D02*
X160848809Y-75689819D01*
X160848809Y-75689819D02*
X160753571Y-75832676D01*
X160753571Y-75832676D02*
X160658333Y-75927914D01*
X160658333Y-75927914D02*
X160563095Y-75975533D01*
X161753571Y-75689819D02*
X161848809Y-75689819D01*
X161848809Y-75689819D02*
X161944047Y-75737438D01*
X161944047Y-75737438D02*
X161991666Y-75785057D01*
X161991666Y-75785057D02*
X162039285Y-75880295D01*
X162039285Y-75880295D02*
X162086904Y-76070771D01*
X162086904Y-76070771D02*
X162086904Y-76308866D01*
X162086904Y-76308866D02*
X162039285Y-76499342D01*
X162039285Y-76499342D02*
X161991666Y-76594580D01*
X161991666Y-76594580D02*
X161944047Y-76642200D01*
X161944047Y-76642200D02*
X161848809Y-76689819D01*
X161848809Y-76689819D02*
X161753571Y-76689819D01*
X161753571Y-76689819D02*
X161658333Y-76642200D01*
X161658333Y-76642200D02*
X161610714Y-76594580D01*
X161610714Y-76594580D02*
X161563095Y-76499342D01*
X161563095Y-76499342D02*
X161515476Y-76308866D01*
X161515476Y-76308866D02*
X161515476Y-76070771D01*
X161515476Y-76070771D02*
X161563095Y-75880295D01*
X161563095Y-75880295D02*
X161610714Y-75785057D01*
X161610714Y-75785057D02*
X161658333Y-75737438D01*
X161658333Y-75737438D02*
X161753571Y-75689819D01*
X108058333Y-70024580D02*
X108010714Y-70072200D01*
X108010714Y-70072200D02*
X107867857Y-70119819D01*
X107867857Y-70119819D02*
X107772619Y-70119819D01*
X107772619Y-70119819D02*
X107629762Y-70072200D01*
X107629762Y-70072200D02*
X107534524Y-69976961D01*
X107534524Y-69976961D02*
X107486905Y-69881723D01*
X107486905Y-69881723D02*
X107439286Y-69691247D01*
X107439286Y-69691247D02*
X107439286Y-69548390D01*
X107439286Y-69548390D02*
X107486905Y-69357914D01*
X107486905Y-69357914D02*
X107534524Y-69262676D01*
X107534524Y-69262676D02*
X107629762Y-69167438D01*
X107629762Y-69167438D02*
X107772619Y-69119819D01*
X107772619Y-69119819D02*
X107867857Y-69119819D01*
X107867857Y-69119819D02*
X108010714Y-69167438D01*
X108010714Y-69167438D02*
X108058333Y-69215057D01*
X108629762Y-69548390D02*
X108534524Y-69500771D01*
X108534524Y-69500771D02*
X108486905Y-69453152D01*
X108486905Y-69453152D02*
X108439286Y-69357914D01*
X108439286Y-69357914D02*
X108439286Y-69310295D01*
X108439286Y-69310295D02*
X108486905Y-69215057D01*
X108486905Y-69215057D02*
X108534524Y-69167438D01*
X108534524Y-69167438D02*
X108629762Y-69119819D01*
X108629762Y-69119819D02*
X108820238Y-69119819D01*
X108820238Y-69119819D02*
X108915476Y-69167438D01*
X108915476Y-69167438D02*
X108963095Y-69215057D01*
X108963095Y-69215057D02*
X109010714Y-69310295D01*
X109010714Y-69310295D02*
X109010714Y-69357914D01*
X109010714Y-69357914D02*
X108963095Y-69453152D01*
X108963095Y-69453152D02*
X108915476Y-69500771D01*
X108915476Y-69500771D02*
X108820238Y-69548390D01*
X108820238Y-69548390D02*
X108629762Y-69548390D01*
X108629762Y-69548390D02*
X108534524Y-69596009D01*
X108534524Y-69596009D02*
X108486905Y-69643628D01*
X108486905Y-69643628D02*
X108439286Y-69738866D01*
X108439286Y-69738866D02*
X108439286Y-69929342D01*
X108439286Y-69929342D02*
X108486905Y-70024580D01*
X108486905Y-70024580D02*
X108534524Y-70072200D01*
X108534524Y-70072200D02*
X108629762Y-70119819D01*
X108629762Y-70119819D02*
X108820238Y-70119819D01*
X108820238Y-70119819D02*
X108915476Y-70072200D01*
X108915476Y-70072200D02*
X108963095Y-70024580D01*
X108963095Y-70024580D02*
X109010714Y-69929342D01*
X109010714Y-69929342D02*
X109010714Y-69738866D01*
X109010714Y-69738866D02*
X108963095Y-69643628D01*
X108963095Y-69643628D02*
X108915476Y-69596009D01*
X108915476Y-69596009D02*
X108820238Y-69548390D01*
D13*
X106269841Y-69968022D02*
X106269841Y-69271337D01*
X106618183Y-69619679D02*
X105921498Y-69619679D01*
D10*
X89391666Y-88019819D02*
X89391666Y-88734104D01*
X89391666Y-88734104D02*
X89344047Y-88876961D01*
X89344047Y-88876961D02*
X89248809Y-88972200D01*
X89248809Y-88972200D02*
X89105952Y-89019819D01*
X89105952Y-89019819D02*
X89010714Y-89019819D01*
X89820238Y-88115057D02*
X89867857Y-88067438D01*
X89867857Y-88067438D02*
X89963095Y-88019819D01*
X89963095Y-88019819D02*
X90201190Y-88019819D01*
X90201190Y-88019819D02*
X90296428Y-88067438D01*
X90296428Y-88067438D02*
X90344047Y-88115057D01*
X90344047Y-88115057D02*
X90391666Y-88210295D01*
X90391666Y-88210295D02*
X90391666Y-88305533D01*
X90391666Y-88305533D02*
X90344047Y-88448390D01*
X90344047Y-88448390D02*
X89772619Y-89019819D01*
X89772619Y-89019819D02*
X90391666Y-89019819D01*
X48086905Y-44939819D02*
X48086905Y-43939819D01*
X48086905Y-43939819D02*
X48325000Y-43939819D01*
X48325000Y-43939819D02*
X48467857Y-43987438D01*
X48467857Y-43987438D02*
X48563095Y-44082676D01*
X48563095Y-44082676D02*
X48610714Y-44177914D01*
X48610714Y-44177914D02*
X48658333Y-44368390D01*
X48658333Y-44368390D02*
X48658333Y-44511247D01*
X48658333Y-44511247D02*
X48610714Y-44701723D01*
X48610714Y-44701723D02*
X48563095Y-44796961D01*
X48563095Y-44796961D02*
X48467857Y-44892200D01*
X48467857Y-44892200D02*
X48325000Y-44939819D01*
X48325000Y-44939819D02*
X48086905Y-44939819D01*
X49610714Y-44939819D02*
X49039286Y-44939819D01*
X49325000Y-44939819D02*
X49325000Y-43939819D01*
X49325000Y-43939819D02*
X49229762Y-44082676D01*
X49229762Y-44082676D02*
X49134524Y-44177914D01*
X49134524Y-44177914D02*
X49039286Y-44225533D01*
X51743095Y-42289819D02*
X51743095Y-41289819D01*
X52314523Y-42289819D02*
X51885952Y-41718390D01*
X52314523Y-41289819D02*
X51743095Y-41861247D01*
X89958333Y-82089819D02*
X89625000Y-81613628D01*
X89386905Y-82089819D02*
X89386905Y-81089819D01*
X89386905Y-81089819D02*
X89767857Y-81089819D01*
X89767857Y-81089819D02*
X89863095Y-81137438D01*
X89863095Y-81137438D02*
X89910714Y-81185057D01*
X89910714Y-81185057D02*
X89958333Y-81280295D01*
X89958333Y-81280295D02*
X89958333Y-81423152D01*
X89958333Y-81423152D02*
X89910714Y-81518390D01*
X89910714Y-81518390D02*
X89863095Y-81566009D01*
X89863095Y-81566009D02*
X89767857Y-81613628D01*
X89767857Y-81613628D02*
X89386905Y-81613628D01*
X90434524Y-82089819D02*
X90625000Y-82089819D01*
X90625000Y-82089819D02*
X90720238Y-82042200D01*
X90720238Y-82042200D02*
X90767857Y-81994580D01*
X90767857Y-81994580D02*
X90863095Y-81851723D01*
X90863095Y-81851723D02*
X90910714Y-81661247D01*
X90910714Y-81661247D02*
X90910714Y-81280295D01*
X90910714Y-81280295D02*
X90863095Y-81185057D01*
X90863095Y-81185057D02*
X90815476Y-81137438D01*
X90815476Y-81137438D02*
X90720238Y-81089819D01*
X90720238Y-81089819D02*
X90529762Y-81089819D01*
X90529762Y-81089819D02*
X90434524Y-81137438D01*
X90434524Y-81137438D02*
X90386905Y-81185057D01*
X90386905Y-81185057D02*
X90339286Y-81280295D01*
X90339286Y-81280295D02*
X90339286Y-81518390D01*
X90339286Y-81518390D02*
X90386905Y-81613628D01*
X90386905Y-81613628D02*
X90434524Y-81661247D01*
X90434524Y-81661247D02*
X90529762Y-81708866D01*
X90529762Y-81708866D02*
X90720238Y-81708866D01*
X90720238Y-81708866D02*
X90815476Y-81661247D01*
X90815476Y-81661247D02*
X90863095Y-81613628D01*
X90863095Y-81613628D02*
X90910714Y-81518390D01*
X125282142Y-91094580D02*
X125234523Y-91142200D01*
X125234523Y-91142200D02*
X125091666Y-91189819D01*
X125091666Y-91189819D02*
X124996428Y-91189819D01*
X124996428Y-91189819D02*
X124853571Y-91142200D01*
X124853571Y-91142200D02*
X124758333Y-91046961D01*
X124758333Y-91046961D02*
X124710714Y-90951723D01*
X124710714Y-90951723D02*
X124663095Y-90761247D01*
X124663095Y-90761247D02*
X124663095Y-90618390D01*
X124663095Y-90618390D02*
X124710714Y-90427914D01*
X124710714Y-90427914D02*
X124758333Y-90332676D01*
X124758333Y-90332676D02*
X124853571Y-90237438D01*
X124853571Y-90237438D02*
X124996428Y-90189819D01*
X124996428Y-90189819D02*
X125091666Y-90189819D01*
X125091666Y-90189819D02*
X125234523Y-90237438D01*
X125234523Y-90237438D02*
X125282142Y-90285057D01*
X126234523Y-91189819D02*
X125663095Y-91189819D01*
X125948809Y-91189819D02*
X125948809Y-90189819D01*
X125948809Y-90189819D02*
X125853571Y-90332676D01*
X125853571Y-90332676D02*
X125758333Y-90427914D01*
X125758333Y-90427914D02*
X125663095Y-90475533D01*
X127186904Y-91189819D02*
X126615476Y-91189819D01*
X126901190Y-91189819D02*
X126901190Y-90189819D01*
X126901190Y-90189819D02*
X126805952Y-90332676D01*
X126805952Y-90332676D02*
X126710714Y-90427914D01*
X126710714Y-90427914D02*
X126615476Y-90475533D01*
X109698333Y-56814580D02*
X109650714Y-56862200D01*
X109650714Y-56862200D02*
X109507857Y-56909819D01*
X109507857Y-56909819D02*
X109412619Y-56909819D01*
X109412619Y-56909819D02*
X109269762Y-56862200D01*
X109269762Y-56862200D02*
X109174524Y-56766961D01*
X109174524Y-56766961D02*
X109126905Y-56671723D01*
X109126905Y-56671723D02*
X109079286Y-56481247D01*
X109079286Y-56481247D02*
X109079286Y-56338390D01*
X109079286Y-56338390D02*
X109126905Y-56147914D01*
X109126905Y-56147914D02*
X109174524Y-56052676D01*
X109174524Y-56052676D02*
X109269762Y-55957438D01*
X109269762Y-55957438D02*
X109412619Y-55909819D01*
X109412619Y-55909819D02*
X109507857Y-55909819D01*
X109507857Y-55909819D02*
X109650714Y-55957438D01*
X109650714Y-55957438D02*
X109698333Y-56005057D01*
X110031667Y-55909819D02*
X110698333Y-55909819D01*
X110698333Y-55909819D02*
X110269762Y-56909819D01*
D13*
X112949841Y-57108022D02*
X112949841Y-56411337D01*
X113298183Y-56759679D02*
X112601498Y-56759679D01*
D10*
X113182142Y-103694580D02*
X113134523Y-103742200D01*
X113134523Y-103742200D02*
X112991666Y-103789819D01*
X112991666Y-103789819D02*
X112896428Y-103789819D01*
X112896428Y-103789819D02*
X112753571Y-103742200D01*
X112753571Y-103742200D02*
X112658333Y-103646961D01*
X112658333Y-103646961D02*
X112610714Y-103551723D01*
X112610714Y-103551723D02*
X112563095Y-103361247D01*
X112563095Y-103361247D02*
X112563095Y-103218390D01*
X112563095Y-103218390D02*
X112610714Y-103027914D01*
X112610714Y-103027914D02*
X112658333Y-102932676D01*
X112658333Y-102932676D02*
X112753571Y-102837438D01*
X112753571Y-102837438D02*
X112896428Y-102789819D01*
X112896428Y-102789819D02*
X112991666Y-102789819D01*
X112991666Y-102789819D02*
X113134523Y-102837438D01*
X113134523Y-102837438D02*
X113182142Y-102885057D01*
X114134523Y-103789819D02*
X113563095Y-103789819D01*
X113848809Y-103789819D02*
X113848809Y-102789819D01*
X113848809Y-102789819D02*
X113753571Y-102932676D01*
X113753571Y-102932676D02*
X113658333Y-103027914D01*
X113658333Y-103027914D02*
X113563095Y-103075533D01*
X114515476Y-102885057D02*
X114563095Y-102837438D01*
X114563095Y-102837438D02*
X114658333Y-102789819D01*
X114658333Y-102789819D02*
X114896428Y-102789819D01*
X114896428Y-102789819D02*
X114991666Y-102837438D01*
X114991666Y-102837438D02*
X115039285Y-102885057D01*
X115039285Y-102885057D02*
X115086904Y-102980295D01*
X115086904Y-102980295D02*
X115086904Y-103075533D01*
X115086904Y-103075533D02*
X115039285Y-103218390D01*
X115039285Y-103218390D02*
X114467857Y-103789819D01*
X114467857Y-103789819D02*
X115086904Y-103789819D01*
D13*
X116149841Y-103748022D02*
X116149841Y-103051337D01*
X116498183Y-103399679D02*
X115801498Y-103399679D01*
D10*
X131158333Y-67489819D02*
X130825000Y-67013628D01*
X130586905Y-67489819D02*
X130586905Y-66489819D01*
X130586905Y-66489819D02*
X130967857Y-66489819D01*
X130967857Y-66489819D02*
X131063095Y-66537438D01*
X131063095Y-66537438D02*
X131110714Y-66585057D01*
X131110714Y-66585057D02*
X131158333Y-66680295D01*
X131158333Y-66680295D02*
X131158333Y-66823152D01*
X131158333Y-66823152D02*
X131110714Y-66918390D01*
X131110714Y-66918390D02*
X131063095Y-66966009D01*
X131063095Y-66966009D02*
X130967857Y-67013628D01*
X130967857Y-67013628D02*
X130586905Y-67013628D01*
X131491667Y-66489819D02*
X132110714Y-66489819D01*
X132110714Y-66489819D02*
X131777381Y-66870771D01*
X131777381Y-66870771D02*
X131920238Y-66870771D01*
X131920238Y-66870771D02*
X132015476Y-66918390D01*
X132015476Y-66918390D02*
X132063095Y-66966009D01*
X132063095Y-66966009D02*
X132110714Y-67061247D01*
X132110714Y-67061247D02*
X132110714Y-67299342D01*
X132110714Y-67299342D02*
X132063095Y-67394580D01*
X132063095Y-67394580D02*
X132015476Y-67442200D01*
X132015476Y-67442200D02*
X131920238Y-67489819D01*
X131920238Y-67489819D02*
X131634524Y-67489819D01*
X131634524Y-67489819D02*
X131539286Y-67442200D01*
X131539286Y-67442200D02*
X131491667Y-67394580D01*
X155058333Y-47199819D02*
X154725000Y-46723628D01*
X154486905Y-47199819D02*
X154486905Y-46199819D01*
X154486905Y-46199819D02*
X154867857Y-46199819D01*
X154867857Y-46199819D02*
X154963095Y-46247438D01*
X154963095Y-46247438D02*
X155010714Y-46295057D01*
X155010714Y-46295057D02*
X155058333Y-46390295D01*
X155058333Y-46390295D02*
X155058333Y-46533152D01*
X155058333Y-46533152D02*
X155010714Y-46628390D01*
X155010714Y-46628390D02*
X154963095Y-46676009D01*
X154963095Y-46676009D02*
X154867857Y-46723628D01*
X154867857Y-46723628D02*
X154486905Y-46723628D01*
X155439286Y-46295057D02*
X155486905Y-46247438D01*
X155486905Y-46247438D02*
X155582143Y-46199819D01*
X155582143Y-46199819D02*
X155820238Y-46199819D01*
X155820238Y-46199819D02*
X155915476Y-46247438D01*
X155915476Y-46247438D02*
X155963095Y-46295057D01*
X155963095Y-46295057D02*
X156010714Y-46390295D01*
X156010714Y-46390295D02*
X156010714Y-46485533D01*
X156010714Y-46485533D02*
X155963095Y-46628390D01*
X155963095Y-46628390D02*
X155391667Y-47199819D01*
X155391667Y-47199819D02*
X156010714Y-47199819D01*
X120963095Y-84289819D02*
X120963095Y-85099342D01*
X120963095Y-85099342D02*
X121010714Y-85194580D01*
X121010714Y-85194580D02*
X121058333Y-85242200D01*
X121058333Y-85242200D02*
X121153571Y-85289819D01*
X121153571Y-85289819D02*
X121344047Y-85289819D01*
X121344047Y-85289819D02*
X121439285Y-85242200D01*
X121439285Y-85242200D02*
X121486904Y-85194580D01*
X121486904Y-85194580D02*
X121534523Y-85099342D01*
X121534523Y-85099342D02*
X121534523Y-84289819D01*
X121963095Y-84385057D02*
X122010714Y-84337438D01*
X122010714Y-84337438D02*
X122105952Y-84289819D01*
X122105952Y-84289819D02*
X122344047Y-84289819D01*
X122344047Y-84289819D02*
X122439285Y-84337438D01*
X122439285Y-84337438D02*
X122486904Y-84385057D01*
X122486904Y-84385057D02*
X122534523Y-84480295D01*
X122534523Y-84480295D02*
X122534523Y-84575533D01*
X122534523Y-84575533D02*
X122486904Y-84718390D01*
X122486904Y-84718390D02*
X121915476Y-85289819D01*
X121915476Y-85289819D02*
X122534523Y-85289819D01*
X140129761Y-48289819D02*
X139796428Y-47813628D01*
X139558333Y-48289819D02*
X139558333Y-47289819D01*
X139558333Y-47289819D02*
X139939285Y-47289819D01*
X139939285Y-47289819D02*
X140034523Y-47337438D01*
X140034523Y-47337438D02*
X140082142Y-47385057D01*
X140082142Y-47385057D02*
X140129761Y-47480295D01*
X140129761Y-47480295D02*
X140129761Y-47623152D01*
X140129761Y-47623152D02*
X140082142Y-47718390D01*
X140082142Y-47718390D02*
X140034523Y-47766009D01*
X140034523Y-47766009D02*
X139939285Y-47813628D01*
X139939285Y-47813628D02*
X139558333Y-47813628D01*
X140415476Y-47289819D02*
X140748809Y-48289819D01*
X140748809Y-48289819D02*
X141082142Y-47289819D01*
X141939285Y-48289819D02*
X141367857Y-48289819D01*
X141653571Y-48289819D02*
X141653571Y-47289819D01*
X141653571Y-47289819D02*
X141558333Y-47432676D01*
X141558333Y-47432676D02*
X141463095Y-47527914D01*
X141463095Y-47527914D02*
X141367857Y-47575533D01*
X135329761Y-39285057D02*
X135234523Y-39237438D01*
X135234523Y-39237438D02*
X135139285Y-39142200D01*
X135139285Y-39142200D02*
X134996428Y-38999342D01*
X134996428Y-38999342D02*
X134901190Y-38951723D01*
X134901190Y-38951723D02*
X134805952Y-38951723D01*
X134853571Y-39189819D02*
X134758333Y-39142200D01*
X134758333Y-39142200D02*
X134663095Y-39046961D01*
X134663095Y-39046961D02*
X134615476Y-38856485D01*
X134615476Y-38856485D02*
X134615476Y-38523152D01*
X134615476Y-38523152D02*
X134663095Y-38332676D01*
X134663095Y-38332676D02*
X134758333Y-38237438D01*
X134758333Y-38237438D02*
X134853571Y-38189819D01*
X134853571Y-38189819D02*
X135044047Y-38189819D01*
X135044047Y-38189819D02*
X135139285Y-38237438D01*
X135139285Y-38237438D02*
X135234523Y-38332676D01*
X135234523Y-38332676D02*
X135282142Y-38523152D01*
X135282142Y-38523152D02*
X135282142Y-38856485D01*
X135282142Y-38856485D02*
X135234523Y-39046961D01*
X135234523Y-39046961D02*
X135139285Y-39142200D01*
X135139285Y-39142200D02*
X135044047Y-39189819D01*
X135044047Y-39189819D02*
X134853571Y-39189819D01*
X135663095Y-38285057D02*
X135710714Y-38237438D01*
X135710714Y-38237438D02*
X135805952Y-38189819D01*
X135805952Y-38189819D02*
X136044047Y-38189819D01*
X136044047Y-38189819D02*
X136139285Y-38237438D01*
X136139285Y-38237438D02*
X136186904Y-38285057D01*
X136186904Y-38285057D02*
X136234523Y-38380295D01*
X136234523Y-38380295D02*
X136234523Y-38475533D01*
X136234523Y-38475533D02*
X136186904Y-38618390D01*
X136186904Y-38618390D02*
X135615476Y-39189819D01*
X135615476Y-39189819D02*
X136234523Y-39189819D01*
X107882142Y-102394580D02*
X107834523Y-102442200D01*
X107834523Y-102442200D02*
X107691666Y-102489819D01*
X107691666Y-102489819D02*
X107596428Y-102489819D01*
X107596428Y-102489819D02*
X107453571Y-102442200D01*
X107453571Y-102442200D02*
X107358333Y-102346961D01*
X107358333Y-102346961D02*
X107310714Y-102251723D01*
X107310714Y-102251723D02*
X107263095Y-102061247D01*
X107263095Y-102061247D02*
X107263095Y-101918390D01*
X107263095Y-101918390D02*
X107310714Y-101727914D01*
X107310714Y-101727914D02*
X107358333Y-101632676D01*
X107358333Y-101632676D02*
X107453571Y-101537438D01*
X107453571Y-101537438D02*
X107596428Y-101489819D01*
X107596428Y-101489819D02*
X107691666Y-101489819D01*
X107691666Y-101489819D02*
X107834523Y-101537438D01*
X107834523Y-101537438D02*
X107882142Y-101585057D01*
X108834523Y-102489819D02*
X108263095Y-102489819D01*
X108548809Y-102489819D02*
X108548809Y-101489819D01*
X108548809Y-101489819D02*
X108453571Y-101632676D01*
X108453571Y-101632676D02*
X108358333Y-101727914D01*
X108358333Y-101727914D02*
X108263095Y-101775533D01*
X109453571Y-101489819D02*
X109548809Y-101489819D01*
X109548809Y-101489819D02*
X109644047Y-101537438D01*
X109644047Y-101537438D02*
X109691666Y-101585057D01*
X109691666Y-101585057D02*
X109739285Y-101680295D01*
X109739285Y-101680295D02*
X109786904Y-101870771D01*
X109786904Y-101870771D02*
X109786904Y-102108866D01*
X109786904Y-102108866D02*
X109739285Y-102299342D01*
X109739285Y-102299342D02*
X109691666Y-102394580D01*
X109691666Y-102394580D02*
X109644047Y-102442200D01*
X109644047Y-102442200D02*
X109548809Y-102489819D01*
X109548809Y-102489819D02*
X109453571Y-102489819D01*
X109453571Y-102489819D02*
X109358333Y-102442200D01*
X109358333Y-102442200D02*
X109310714Y-102394580D01*
X109310714Y-102394580D02*
X109263095Y-102299342D01*
X109263095Y-102299342D02*
X109215476Y-102108866D01*
X109215476Y-102108866D02*
X109215476Y-101870771D01*
X109215476Y-101870771D02*
X109263095Y-101680295D01*
X109263095Y-101680295D02*
X109310714Y-101585057D01*
X109310714Y-101585057D02*
X109358333Y-101537438D01*
X109358333Y-101537438D02*
X109453571Y-101489819D01*
X51194523Y-71121580D02*
X51146904Y-71169200D01*
X51146904Y-71169200D02*
X51004047Y-71216819D01*
X51004047Y-71216819D02*
X50908809Y-71216819D01*
X50908809Y-71216819D02*
X50765952Y-71169200D01*
X50765952Y-71169200D02*
X50670714Y-71073961D01*
X50670714Y-71073961D02*
X50623095Y-70978723D01*
X50623095Y-70978723D02*
X50575476Y-70788247D01*
X50575476Y-70788247D02*
X50575476Y-70645390D01*
X50575476Y-70645390D02*
X50623095Y-70454914D01*
X50623095Y-70454914D02*
X50670714Y-70359676D01*
X50670714Y-70359676D02*
X50765952Y-70264438D01*
X50765952Y-70264438D02*
X50908809Y-70216819D01*
X50908809Y-70216819D02*
X51004047Y-70216819D01*
X51004047Y-70216819D02*
X51146904Y-70264438D01*
X51146904Y-70264438D02*
X51194523Y-70312057D01*
X51623095Y-71216819D02*
X51623095Y-70216819D01*
X51623095Y-70216819D02*
X52194523Y-71216819D01*
X52194523Y-71216819D02*
X52194523Y-70216819D01*
X53194523Y-71216819D02*
X52623095Y-71216819D01*
X52908809Y-71216819D02*
X52908809Y-70216819D01*
X52908809Y-70216819D02*
X52813571Y-70359676D01*
X52813571Y-70359676D02*
X52718333Y-70454914D01*
X52718333Y-70454914D02*
X52623095Y-70502533D01*
X79304818Y-87703973D02*
X79257199Y-87751593D01*
X79257199Y-87751593D02*
X79114342Y-87799212D01*
X79114342Y-87799212D02*
X79019104Y-87799212D01*
X79019104Y-87799212D02*
X78876247Y-87751593D01*
X78876247Y-87751593D02*
X78781009Y-87656354D01*
X78781009Y-87656354D02*
X78733390Y-87561116D01*
X78733390Y-87561116D02*
X78685771Y-87370640D01*
X78685771Y-87370640D02*
X78685771Y-87227783D01*
X78685771Y-87227783D02*
X78733390Y-87037307D01*
X78733390Y-87037307D02*
X78781009Y-86942069D01*
X78781009Y-86942069D02*
X78876247Y-86846831D01*
X78876247Y-86846831D02*
X79019104Y-86799212D01*
X79019104Y-86799212D02*
X79114342Y-86799212D01*
X79114342Y-86799212D02*
X79257199Y-86846831D01*
X79257199Y-86846831D02*
X79304818Y-86894450D01*
X80161961Y-86799212D02*
X79971485Y-86799212D01*
X79971485Y-86799212D02*
X79876247Y-86846831D01*
X79876247Y-86846831D02*
X79828628Y-86894450D01*
X79828628Y-86894450D02*
X79733390Y-87037307D01*
X79733390Y-87037307D02*
X79685771Y-87227783D01*
X79685771Y-87227783D02*
X79685771Y-87608735D01*
X79685771Y-87608735D02*
X79733390Y-87703973D01*
X79733390Y-87703973D02*
X79781009Y-87751593D01*
X79781009Y-87751593D02*
X79876247Y-87799212D01*
X79876247Y-87799212D02*
X80066723Y-87799212D01*
X80066723Y-87799212D02*
X80161961Y-87751593D01*
X80161961Y-87751593D02*
X80209580Y-87703973D01*
X80209580Y-87703973D02*
X80257199Y-87608735D01*
X80257199Y-87608735D02*
X80257199Y-87370640D01*
X80257199Y-87370640D02*
X80209580Y-87275402D01*
X80209580Y-87275402D02*
X80161961Y-87227783D01*
X80161961Y-87227783D02*
X80066723Y-87180164D01*
X80066723Y-87180164D02*
X79876247Y-87180164D01*
X79876247Y-87180164D02*
X79781009Y-87227783D01*
X79781009Y-87227783D02*
X79733390Y-87275402D01*
X79733390Y-87275402D02*
X79685771Y-87370640D01*
X132758333Y-48294580D02*
X132710714Y-48342200D01*
X132710714Y-48342200D02*
X132567857Y-48389819D01*
X132567857Y-48389819D02*
X132472619Y-48389819D01*
X132472619Y-48389819D02*
X132329762Y-48342200D01*
X132329762Y-48342200D02*
X132234524Y-48246961D01*
X132234524Y-48246961D02*
X132186905Y-48151723D01*
X132186905Y-48151723D02*
X132139286Y-47961247D01*
X132139286Y-47961247D02*
X132139286Y-47818390D01*
X132139286Y-47818390D02*
X132186905Y-47627914D01*
X132186905Y-47627914D02*
X132234524Y-47532676D01*
X132234524Y-47532676D02*
X132329762Y-47437438D01*
X132329762Y-47437438D02*
X132472619Y-47389819D01*
X132472619Y-47389819D02*
X132567857Y-47389819D01*
X132567857Y-47389819D02*
X132710714Y-47437438D01*
X132710714Y-47437438D02*
X132758333Y-47485057D01*
X133139286Y-47485057D02*
X133186905Y-47437438D01*
X133186905Y-47437438D02*
X133282143Y-47389819D01*
X133282143Y-47389819D02*
X133520238Y-47389819D01*
X133520238Y-47389819D02*
X133615476Y-47437438D01*
X133615476Y-47437438D02*
X133663095Y-47485057D01*
X133663095Y-47485057D02*
X133710714Y-47580295D01*
X133710714Y-47580295D02*
X133710714Y-47675533D01*
X133710714Y-47675533D02*
X133663095Y-47818390D01*
X133663095Y-47818390D02*
X133091667Y-48389819D01*
X133091667Y-48389819D02*
X133710714Y-48389819D01*
X97271666Y-68069819D02*
X97271666Y-68784104D01*
X97271666Y-68784104D02*
X97224047Y-68926961D01*
X97224047Y-68926961D02*
X97128809Y-69022200D01*
X97128809Y-69022200D02*
X96985952Y-69069819D01*
X96985952Y-69069819D02*
X96890714Y-69069819D01*
X97652619Y-68069819D02*
X98271666Y-68069819D01*
X98271666Y-68069819D02*
X97938333Y-68450771D01*
X97938333Y-68450771D02*
X98081190Y-68450771D01*
X98081190Y-68450771D02*
X98176428Y-68498390D01*
X98176428Y-68498390D02*
X98224047Y-68546009D01*
X98224047Y-68546009D02*
X98271666Y-68641247D01*
X98271666Y-68641247D02*
X98271666Y-68879342D01*
X98271666Y-68879342D02*
X98224047Y-68974580D01*
X98224047Y-68974580D02*
X98176428Y-69022200D01*
X98176428Y-69022200D02*
X98081190Y-69069819D01*
X98081190Y-69069819D02*
X97795476Y-69069819D01*
X97795476Y-69069819D02*
X97700238Y-69022200D01*
X97700238Y-69022200D02*
X97652619Y-68974580D01*
X130082142Y-70689819D02*
X129748809Y-70213628D01*
X129510714Y-70689819D02*
X129510714Y-69689819D01*
X129510714Y-69689819D02*
X129891666Y-69689819D01*
X129891666Y-69689819D02*
X129986904Y-69737438D01*
X129986904Y-69737438D02*
X130034523Y-69785057D01*
X130034523Y-69785057D02*
X130082142Y-69880295D01*
X130082142Y-69880295D02*
X130082142Y-70023152D01*
X130082142Y-70023152D02*
X130034523Y-70118390D01*
X130034523Y-70118390D02*
X129986904Y-70166009D01*
X129986904Y-70166009D02*
X129891666Y-70213628D01*
X129891666Y-70213628D02*
X129510714Y-70213628D01*
X131034523Y-70689819D02*
X130463095Y-70689819D01*
X130748809Y-70689819D02*
X130748809Y-69689819D01*
X130748809Y-69689819D02*
X130653571Y-69832676D01*
X130653571Y-69832676D02*
X130558333Y-69927914D01*
X130558333Y-69927914D02*
X130463095Y-69975533D01*
X131415476Y-69785057D02*
X131463095Y-69737438D01*
X131463095Y-69737438D02*
X131558333Y-69689819D01*
X131558333Y-69689819D02*
X131796428Y-69689819D01*
X131796428Y-69689819D02*
X131891666Y-69737438D01*
X131891666Y-69737438D02*
X131939285Y-69785057D01*
X131939285Y-69785057D02*
X131986904Y-69880295D01*
X131986904Y-69880295D02*
X131986904Y-69975533D01*
X131986904Y-69975533D02*
X131939285Y-70118390D01*
X131939285Y-70118390D02*
X131367857Y-70689819D01*
X131367857Y-70689819D02*
X131986904Y-70689819D01*
X118258333Y-54389819D02*
X117925000Y-53913628D01*
X117686905Y-54389819D02*
X117686905Y-53389819D01*
X117686905Y-53389819D02*
X118067857Y-53389819D01*
X118067857Y-53389819D02*
X118163095Y-53437438D01*
X118163095Y-53437438D02*
X118210714Y-53485057D01*
X118210714Y-53485057D02*
X118258333Y-53580295D01*
X118258333Y-53580295D02*
X118258333Y-53723152D01*
X118258333Y-53723152D02*
X118210714Y-53818390D01*
X118210714Y-53818390D02*
X118163095Y-53866009D01*
X118163095Y-53866009D02*
X118067857Y-53913628D01*
X118067857Y-53913628D02*
X117686905Y-53913628D01*
X119210714Y-54389819D02*
X118639286Y-54389819D01*
X118925000Y-54389819D02*
X118925000Y-53389819D01*
X118925000Y-53389819D02*
X118829762Y-53532676D01*
X118829762Y-53532676D02*
X118734524Y-53627914D01*
X118734524Y-53627914D02*
X118639286Y-53675533D01*
X156168333Y-69209819D02*
X155835000Y-68733628D01*
X155596905Y-69209819D02*
X155596905Y-68209819D01*
X155596905Y-68209819D02*
X155977857Y-68209819D01*
X155977857Y-68209819D02*
X156073095Y-68257438D01*
X156073095Y-68257438D02*
X156120714Y-68305057D01*
X156120714Y-68305057D02*
X156168333Y-68400295D01*
X156168333Y-68400295D02*
X156168333Y-68543152D01*
X156168333Y-68543152D02*
X156120714Y-68638390D01*
X156120714Y-68638390D02*
X156073095Y-68686009D01*
X156073095Y-68686009D02*
X155977857Y-68733628D01*
X155977857Y-68733628D02*
X155596905Y-68733628D01*
X157025476Y-68209819D02*
X156835000Y-68209819D01*
X156835000Y-68209819D02*
X156739762Y-68257438D01*
X156739762Y-68257438D02*
X156692143Y-68305057D01*
X156692143Y-68305057D02*
X156596905Y-68447914D01*
X156596905Y-68447914D02*
X156549286Y-68638390D01*
X156549286Y-68638390D02*
X156549286Y-69019342D01*
X156549286Y-69019342D02*
X156596905Y-69114580D01*
X156596905Y-69114580D02*
X156644524Y-69162200D01*
X156644524Y-69162200D02*
X156739762Y-69209819D01*
X156739762Y-69209819D02*
X156930238Y-69209819D01*
X156930238Y-69209819D02*
X157025476Y-69162200D01*
X157025476Y-69162200D02*
X157073095Y-69114580D01*
X157073095Y-69114580D02*
X157120714Y-69019342D01*
X157120714Y-69019342D02*
X157120714Y-68781247D01*
X157120714Y-68781247D02*
X157073095Y-68686009D01*
X157073095Y-68686009D02*
X157025476Y-68638390D01*
X157025476Y-68638390D02*
X156930238Y-68590771D01*
X156930238Y-68590771D02*
X156739762Y-68590771D01*
X156739762Y-68590771D02*
X156644524Y-68638390D01*
X156644524Y-68638390D02*
X156596905Y-68686009D01*
X156596905Y-68686009D02*
X156549286Y-68781247D01*
X117586905Y-57749819D02*
X117586905Y-56749819D01*
X117586905Y-56749819D02*
X117825000Y-56749819D01*
X117825000Y-56749819D02*
X117967857Y-56797438D01*
X117967857Y-56797438D02*
X118063095Y-56892676D01*
X118063095Y-56892676D02*
X118110714Y-56987914D01*
X118110714Y-56987914D02*
X118158333Y-57178390D01*
X118158333Y-57178390D02*
X118158333Y-57321247D01*
X118158333Y-57321247D02*
X118110714Y-57511723D01*
X118110714Y-57511723D02*
X118063095Y-57606961D01*
X118063095Y-57606961D02*
X117967857Y-57702200D01*
X117967857Y-57702200D02*
X117825000Y-57749819D01*
X117825000Y-57749819D02*
X117586905Y-57749819D01*
X119063095Y-56749819D02*
X118586905Y-56749819D01*
X118586905Y-56749819D02*
X118539286Y-57226009D01*
X118539286Y-57226009D02*
X118586905Y-57178390D01*
X118586905Y-57178390D02*
X118682143Y-57130771D01*
X118682143Y-57130771D02*
X118920238Y-57130771D01*
X118920238Y-57130771D02*
X119015476Y-57178390D01*
X119015476Y-57178390D02*
X119063095Y-57226009D01*
X119063095Y-57226009D02*
X119110714Y-57321247D01*
X119110714Y-57321247D02*
X119110714Y-57559342D01*
X119110714Y-57559342D02*
X119063095Y-57654580D01*
X119063095Y-57654580D02*
X119015476Y-57702200D01*
X119015476Y-57702200D02*
X118920238Y-57749819D01*
X118920238Y-57749819D02*
X118682143Y-57749819D01*
X118682143Y-57749819D02*
X118586905Y-57702200D01*
X118586905Y-57702200D02*
X118539286Y-57654580D01*
X132673095Y-57859819D02*
X132673095Y-56859819D01*
X133244523Y-57859819D02*
X132815952Y-57288390D01*
X133244523Y-56859819D02*
X132673095Y-57431247D01*
X121382142Y-91089819D02*
X121048809Y-90613628D01*
X120810714Y-91089819D02*
X120810714Y-90089819D01*
X120810714Y-90089819D02*
X121191666Y-90089819D01*
X121191666Y-90089819D02*
X121286904Y-90137438D01*
X121286904Y-90137438D02*
X121334523Y-90185057D01*
X121334523Y-90185057D02*
X121382142Y-90280295D01*
X121382142Y-90280295D02*
X121382142Y-90423152D01*
X121382142Y-90423152D02*
X121334523Y-90518390D01*
X121334523Y-90518390D02*
X121286904Y-90566009D01*
X121286904Y-90566009D02*
X121191666Y-90613628D01*
X121191666Y-90613628D02*
X120810714Y-90613628D01*
X122334523Y-91089819D02*
X121763095Y-91089819D01*
X122048809Y-91089819D02*
X122048809Y-90089819D01*
X122048809Y-90089819D02*
X121953571Y-90232676D01*
X121953571Y-90232676D02*
X121858333Y-90327914D01*
X121858333Y-90327914D02*
X121763095Y-90375533D01*
X122667857Y-90089819D02*
X123286904Y-90089819D01*
X123286904Y-90089819D02*
X122953571Y-90470771D01*
X122953571Y-90470771D02*
X123096428Y-90470771D01*
X123096428Y-90470771D02*
X123191666Y-90518390D01*
X123191666Y-90518390D02*
X123239285Y-90566009D01*
X123239285Y-90566009D02*
X123286904Y-90661247D01*
X123286904Y-90661247D02*
X123286904Y-90899342D01*
X123286904Y-90899342D02*
X123239285Y-90994580D01*
X123239285Y-90994580D02*
X123191666Y-91042200D01*
X123191666Y-91042200D02*
X123096428Y-91089819D01*
X123096428Y-91089819D02*
X122810714Y-91089819D01*
X122810714Y-91089819D02*
X122715476Y-91042200D01*
X122715476Y-91042200D02*
X122667857Y-90994580D01*
X149528333Y-35264580D02*
X149480714Y-35312200D01*
X149480714Y-35312200D02*
X149337857Y-35359819D01*
X149337857Y-35359819D02*
X149242619Y-35359819D01*
X149242619Y-35359819D02*
X149099762Y-35312200D01*
X149099762Y-35312200D02*
X149004524Y-35216961D01*
X149004524Y-35216961D02*
X148956905Y-35121723D01*
X148956905Y-35121723D02*
X148909286Y-34931247D01*
X148909286Y-34931247D02*
X148909286Y-34788390D01*
X148909286Y-34788390D02*
X148956905Y-34597914D01*
X148956905Y-34597914D02*
X149004524Y-34502676D01*
X149004524Y-34502676D02*
X149099762Y-34407438D01*
X149099762Y-34407438D02*
X149242619Y-34359819D01*
X149242619Y-34359819D02*
X149337857Y-34359819D01*
X149337857Y-34359819D02*
X149480714Y-34407438D01*
X149480714Y-34407438D02*
X149528333Y-34455057D01*
X149861667Y-34359819D02*
X150480714Y-34359819D01*
X150480714Y-34359819D02*
X150147381Y-34740771D01*
X150147381Y-34740771D02*
X150290238Y-34740771D01*
X150290238Y-34740771D02*
X150385476Y-34788390D01*
X150385476Y-34788390D02*
X150433095Y-34836009D01*
X150433095Y-34836009D02*
X150480714Y-34931247D01*
X150480714Y-34931247D02*
X150480714Y-35169342D01*
X150480714Y-35169342D02*
X150433095Y-35264580D01*
X150433095Y-35264580D02*
X150385476Y-35312200D01*
X150385476Y-35312200D02*
X150290238Y-35359819D01*
X150290238Y-35359819D02*
X150004524Y-35359819D01*
X150004524Y-35359819D02*
X149909286Y-35312200D01*
X149909286Y-35312200D02*
X149861667Y-35264580D01*
D13*
X147120159Y-34391977D02*
X147120159Y-35088663D01*
X146771816Y-34740320D02*
X147468501Y-34740320D01*
D10*
X121758333Y-68189819D02*
X121425000Y-67713628D01*
X121186905Y-68189819D02*
X121186905Y-67189819D01*
X121186905Y-67189819D02*
X121567857Y-67189819D01*
X121567857Y-67189819D02*
X121663095Y-67237438D01*
X121663095Y-67237438D02*
X121710714Y-67285057D01*
X121710714Y-67285057D02*
X121758333Y-67380295D01*
X121758333Y-67380295D02*
X121758333Y-67523152D01*
X121758333Y-67523152D02*
X121710714Y-67618390D01*
X121710714Y-67618390D02*
X121663095Y-67666009D01*
X121663095Y-67666009D02*
X121567857Y-67713628D01*
X121567857Y-67713628D02*
X121186905Y-67713628D01*
X122710714Y-67237438D02*
X122615476Y-67189819D01*
X122615476Y-67189819D02*
X122472619Y-67189819D01*
X122472619Y-67189819D02*
X122329762Y-67237438D01*
X122329762Y-67237438D02*
X122234524Y-67332676D01*
X122234524Y-67332676D02*
X122186905Y-67427914D01*
X122186905Y-67427914D02*
X122139286Y-67618390D01*
X122139286Y-67618390D02*
X122139286Y-67761247D01*
X122139286Y-67761247D02*
X122186905Y-67951723D01*
X122186905Y-67951723D02*
X122234524Y-68046961D01*
X122234524Y-68046961D02*
X122329762Y-68142200D01*
X122329762Y-68142200D02*
X122472619Y-68189819D01*
X122472619Y-68189819D02*
X122567857Y-68189819D01*
X122567857Y-68189819D02*
X122710714Y-68142200D01*
X122710714Y-68142200D02*
X122758333Y-68094580D01*
X122758333Y-68094580D02*
X122758333Y-67761247D01*
X122758333Y-67761247D02*
X122567857Y-67761247D01*
X123710714Y-68189819D02*
X123139286Y-68189819D01*
X123425000Y-68189819D02*
X123425000Y-67189819D01*
X123425000Y-67189819D02*
X123329762Y-67332676D01*
X123329762Y-67332676D02*
X123234524Y-67427914D01*
X123234524Y-67427914D02*
X123139286Y-67475533D01*
X103147261Y-78285057D02*
X103052023Y-78237438D01*
X103052023Y-78237438D02*
X102956785Y-78142200D01*
X102956785Y-78142200D02*
X102813928Y-77999342D01*
X102813928Y-77999342D02*
X102718690Y-77951723D01*
X102718690Y-77951723D02*
X102623452Y-77951723D01*
X102671071Y-78189819D02*
X102575833Y-78142200D01*
X102575833Y-78142200D02*
X102480595Y-78046961D01*
X102480595Y-78046961D02*
X102432976Y-77856485D01*
X102432976Y-77856485D02*
X102432976Y-77523152D01*
X102432976Y-77523152D02*
X102480595Y-77332676D01*
X102480595Y-77332676D02*
X102575833Y-77237438D01*
X102575833Y-77237438D02*
X102671071Y-77189819D01*
X102671071Y-77189819D02*
X102861547Y-77189819D01*
X102861547Y-77189819D02*
X102956785Y-77237438D01*
X102956785Y-77237438D02*
X103052023Y-77332676D01*
X103052023Y-77332676D02*
X103099642Y-77523152D01*
X103099642Y-77523152D02*
X103099642Y-77856485D01*
X103099642Y-77856485D02*
X103052023Y-78046961D01*
X103052023Y-78046961D02*
X102956785Y-78142200D01*
X102956785Y-78142200D02*
X102861547Y-78189819D01*
X102861547Y-78189819D02*
X102671071Y-78189819D01*
X103432976Y-77189819D02*
X104052023Y-77189819D01*
X104052023Y-77189819D02*
X103718690Y-77570771D01*
X103718690Y-77570771D02*
X103861547Y-77570771D01*
X103861547Y-77570771D02*
X103956785Y-77618390D01*
X103956785Y-77618390D02*
X104004404Y-77666009D01*
X104004404Y-77666009D02*
X104052023Y-77761247D01*
X104052023Y-77761247D02*
X104052023Y-77999342D01*
X104052023Y-77999342D02*
X104004404Y-78094580D01*
X104004404Y-78094580D02*
X103956785Y-78142200D01*
X103956785Y-78142200D02*
X103861547Y-78189819D01*
X103861547Y-78189819D02*
X103575833Y-78189819D01*
X103575833Y-78189819D02*
X103480595Y-78142200D01*
X103480595Y-78142200D02*
X103432976Y-78094580D01*
X48086905Y-51139819D02*
X48086905Y-50139819D01*
X48086905Y-50139819D02*
X48325000Y-50139819D01*
X48325000Y-50139819D02*
X48467857Y-50187438D01*
X48467857Y-50187438D02*
X48563095Y-50282676D01*
X48563095Y-50282676D02*
X48610714Y-50377914D01*
X48610714Y-50377914D02*
X48658333Y-50568390D01*
X48658333Y-50568390D02*
X48658333Y-50711247D01*
X48658333Y-50711247D02*
X48610714Y-50901723D01*
X48610714Y-50901723D02*
X48563095Y-50996961D01*
X48563095Y-50996961D02*
X48467857Y-51092200D01*
X48467857Y-51092200D02*
X48325000Y-51139819D01*
X48325000Y-51139819D02*
X48086905Y-51139819D01*
X48991667Y-50139819D02*
X49610714Y-50139819D01*
X49610714Y-50139819D02*
X49277381Y-50520771D01*
X49277381Y-50520771D02*
X49420238Y-50520771D01*
X49420238Y-50520771D02*
X49515476Y-50568390D01*
X49515476Y-50568390D02*
X49563095Y-50616009D01*
X49563095Y-50616009D02*
X49610714Y-50711247D01*
X49610714Y-50711247D02*
X49610714Y-50949342D01*
X49610714Y-50949342D02*
X49563095Y-51044580D01*
X49563095Y-51044580D02*
X49515476Y-51092200D01*
X49515476Y-51092200D02*
X49420238Y-51139819D01*
X49420238Y-51139819D02*
X49134524Y-51139819D01*
X49134524Y-51139819D02*
X49039286Y-51092200D01*
X49039286Y-51092200D02*
X48991667Y-51044580D01*
X66983095Y-53989819D02*
X66983095Y-52989819D01*
X67554523Y-53989819D02*
X67125952Y-53418390D01*
X67554523Y-52989819D02*
X66983095Y-53561247D01*
X163582142Y-76689819D02*
X163248809Y-76213628D01*
X163010714Y-76689819D02*
X163010714Y-75689819D01*
X163010714Y-75689819D02*
X163391666Y-75689819D01*
X163391666Y-75689819D02*
X163486904Y-75737438D01*
X163486904Y-75737438D02*
X163534523Y-75785057D01*
X163534523Y-75785057D02*
X163582142Y-75880295D01*
X163582142Y-75880295D02*
X163582142Y-76023152D01*
X163582142Y-76023152D02*
X163534523Y-76118390D01*
X163534523Y-76118390D02*
X163486904Y-76166009D01*
X163486904Y-76166009D02*
X163391666Y-76213628D01*
X163391666Y-76213628D02*
X163010714Y-76213628D01*
X164534523Y-76689819D02*
X163963095Y-76689819D01*
X164248809Y-76689819D02*
X164248809Y-75689819D01*
X164248809Y-75689819D02*
X164153571Y-75832676D01*
X164153571Y-75832676D02*
X164058333Y-75927914D01*
X164058333Y-75927914D02*
X163963095Y-75975533D01*
X165486904Y-76689819D02*
X164915476Y-76689819D01*
X165201190Y-76689819D02*
X165201190Y-75689819D01*
X165201190Y-75689819D02*
X165105952Y-75832676D01*
X165105952Y-75832676D02*
X165010714Y-75927914D01*
X165010714Y-75927914D02*
X164915476Y-75975533D01*
X89958333Y-78289819D02*
X89625000Y-77813628D01*
X89386905Y-78289819D02*
X89386905Y-77289819D01*
X89386905Y-77289819D02*
X89767857Y-77289819D01*
X89767857Y-77289819D02*
X89863095Y-77337438D01*
X89863095Y-77337438D02*
X89910714Y-77385057D01*
X89910714Y-77385057D02*
X89958333Y-77480295D01*
X89958333Y-77480295D02*
X89958333Y-77623152D01*
X89958333Y-77623152D02*
X89910714Y-77718390D01*
X89910714Y-77718390D02*
X89863095Y-77766009D01*
X89863095Y-77766009D02*
X89767857Y-77813628D01*
X89767857Y-77813628D02*
X89386905Y-77813628D01*
X90529762Y-77718390D02*
X90434524Y-77670771D01*
X90434524Y-77670771D02*
X90386905Y-77623152D01*
X90386905Y-77623152D02*
X90339286Y-77527914D01*
X90339286Y-77527914D02*
X90339286Y-77480295D01*
X90339286Y-77480295D02*
X90386905Y-77385057D01*
X90386905Y-77385057D02*
X90434524Y-77337438D01*
X90434524Y-77337438D02*
X90529762Y-77289819D01*
X90529762Y-77289819D02*
X90720238Y-77289819D01*
X90720238Y-77289819D02*
X90815476Y-77337438D01*
X90815476Y-77337438D02*
X90863095Y-77385057D01*
X90863095Y-77385057D02*
X90910714Y-77480295D01*
X90910714Y-77480295D02*
X90910714Y-77527914D01*
X90910714Y-77527914D02*
X90863095Y-77623152D01*
X90863095Y-77623152D02*
X90815476Y-77670771D01*
X90815476Y-77670771D02*
X90720238Y-77718390D01*
X90720238Y-77718390D02*
X90529762Y-77718390D01*
X90529762Y-77718390D02*
X90434524Y-77766009D01*
X90434524Y-77766009D02*
X90386905Y-77813628D01*
X90386905Y-77813628D02*
X90339286Y-77908866D01*
X90339286Y-77908866D02*
X90339286Y-78099342D01*
X90339286Y-78099342D02*
X90386905Y-78194580D01*
X90386905Y-78194580D02*
X90434524Y-78242200D01*
X90434524Y-78242200D02*
X90529762Y-78289819D01*
X90529762Y-78289819D02*
X90720238Y-78289819D01*
X90720238Y-78289819D02*
X90815476Y-78242200D01*
X90815476Y-78242200D02*
X90863095Y-78194580D01*
X90863095Y-78194580D02*
X90910714Y-78099342D01*
X90910714Y-78099342D02*
X90910714Y-77908866D01*
X90910714Y-77908866D02*
X90863095Y-77813628D01*
X90863095Y-77813628D02*
X90815476Y-77766009D01*
X90815476Y-77766009D02*
X90720238Y-77718390D01*
X113480952Y-39462819D02*
X113147619Y-38986628D01*
X112909524Y-39462819D02*
X112909524Y-38462819D01*
X112909524Y-38462819D02*
X113290476Y-38462819D01*
X113290476Y-38462819D02*
X113385714Y-38510438D01*
X113385714Y-38510438D02*
X113433333Y-38558057D01*
X113433333Y-38558057D02*
X113480952Y-38653295D01*
X113480952Y-38653295D02*
X113480952Y-38796152D01*
X113480952Y-38796152D02*
X113433333Y-38891390D01*
X113433333Y-38891390D02*
X113385714Y-38939009D01*
X113385714Y-38939009D02*
X113290476Y-38986628D01*
X113290476Y-38986628D02*
X112909524Y-38986628D01*
X113909524Y-38939009D02*
X114242857Y-38939009D01*
X114385714Y-39462819D02*
X113909524Y-39462819D01*
X113909524Y-39462819D02*
X113909524Y-38462819D01*
X113909524Y-38462819D02*
X114385714Y-38462819D01*
X115338095Y-38510438D02*
X115242857Y-38462819D01*
X115242857Y-38462819D02*
X115100000Y-38462819D01*
X115100000Y-38462819D02*
X114957143Y-38510438D01*
X114957143Y-38510438D02*
X114861905Y-38605676D01*
X114861905Y-38605676D02*
X114814286Y-38700914D01*
X114814286Y-38700914D02*
X114766667Y-38891390D01*
X114766667Y-38891390D02*
X114766667Y-39034247D01*
X114766667Y-39034247D02*
X114814286Y-39224723D01*
X114814286Y-39224723D02*
X114861905Y-39319961D01*
X114861905Y-39319961D02*
X114957143Y-39415200D01*
X114957143Y-39415200D02*
X115100000Y-39462819D01*
X115100000Y-39462819D02*
X115195238Y-39462819D01*
X115195238Y-39462819D02*
X115338095Y-39415200D01*
X115338095Y-39415200D02*
X115385714Y-39367580D01*
X115385714Y-39367580D02*
X115385714Y-39034247D01*
X115385714Y-39034247D02*
X115195238Y-39034247D01*
X116338095Y-39462819D02*
X115766667Y-39462819D01*
X116052381Y-39462819D02*
X116052381Y-38462819D01*
X116052381Y-38462819D02*
X115957143Y-38605676D01*
X115957143Y-38605676D02*
X115861905Y-38700914D01*
X115861905Y-38700914D02*
X115766667Y-38748533D01*
X95229761Y-70107557D02*
X95134523Y-70059938D01*
X95134523Y-70059938D02*
X95039285Y-69964700D01*
X95039285Y-69964700D02*
X94896428Y-69821842D01*
X94896428Y-69821842D02*
X94801190Y-69774223D01*
X94801190Y-69774223D02*
X94705952Y-69774223D01*
X94753571Y-70012319D02*
X94658333Y-69964700D01*
X94658333Y-69964700D02*
X94563095Y-69869461D01*
X94563095Y-69869461D02*
X94515476Y-69678985D01*
X94515476Y-69678985D02*
X94515476Y-69345652D01*
X94515476Y-69345652D02*
X94563095Y-69155176D01*
X94563095Y-69155176D02*
X94658333Y-69059938D01*
X94658333Y-69059938D02*
X94753571Y-69012319D01*
X94753571Y-69012319D02*
X94944047Y-69012319D01*
X94944047Y-69012319D02*
X95039285Y-69059938D01*
X95039285Y-69059938D02*
X95134523Y-69155176D01*
X95134523Y-69155176D02*
X95182142Y-69345652D01*
X95182142Y-69345652D02*
X95182142Y-69678985D01*
X95182142Y-69678985D02*
X95134523Y-69869461D01*
X95134523Y-69869461D02*
X95039285Y-69964700D01*
X95039285Y-69964700D02*
X94944047Y-70012319D01*
X94944047Y-70012319D02*
X94753571Y-70012319D01*
X96039285Y-69345652D02*
X96039285Y-70012319D01*
X95801190Y-68964700D02*
X95563095Y-69678985D01*
X95563095Y-69678985D02*
X96182142Y-69678985D01*
X156357523Y-49224580D02*
X156309904Y-49272200D01*
X156309904Y-49272200D02*
X156167047Y-49319819D01*
X156167047Y-49319819D02*
X156071809Y-49319819D01*
X156071809Y-49319819D02*
X155928952Y-49272200D01*
X155928952Y-49272200D02*
X155833714Y-49176961D01*
X155833714Y-49176961D02*
X155786095Y-49081723D01*
X155786095Y-49081723D02*
X155738476Y-48891247D01*
X155738476Y-48891247D02*
X155738476Y-48748390D01*
X155738476Y-48748390D02*
X155786095Y-48557914D01*
X155786095Y-48557914D02*
X155833714Y-48462676D01*
X155833714Y-48462676D02*
X155928952Y-48367438D01*
X155928952Y-48367438D02*
X156071809Y-48319819D01*
X156071809Y-48319819D02*
X156167047Y-48319819D01*
X156167047Y-48319819D02*
X156309904Y-48367438D01*
X156309904Y-48367438D02*
X156357523Y-48415057D01*
X156786095Y-49319819D02*
X156786095Y-48319819D01*
X156786095Y-48319819D02*
X157357523Y-49319819D01*
X157357523Y-49319819D02*
X157357523Y-48319819D01*
X157786095Y-48415057D02*
X157833714Y-48367438D01*
X157833714Y-48367438D02*
X157928952Y-48319819D01*
X157928952Y-48319819D02*
X158167047Y-48319819D01*
X158167047Y-48319819D02*
X158262285Y-48367438D01*
X158262285Y-48367438D02*
X158309904Y-48415057D01*
X158309904Y-48415057D02*
X158357523Y-48510295D01*
X158357523Y-48510295D02*
X158357523Y-48605533D01*
X158357523Y-48605533D02*
X158309904Y-48748390D01*
X158309904Y-48748390D02*
X157738476Y-49319819D01*
X157738476Y-49319819D02*
X158357523Y-49319819D01*
X156118333Y-63439819D02*
X155785000Y-62963628D01*
X155546905Y-63439819D02*
X155546905Y-62439819D01*
X155546905Y-62439819D02*
X155927857Y-62439819D01*
X155927857Y-62439819D02*
X156023095Y-62487438D01*
X156023095Y-62487438D02*
X156070714Y-62535057D01*
X156070714Y-62535057D02*
X156118333Y-62630295D01*
X156118333Y-62630295D02*
X156118333Y-62773152D01*
X156118333Y-62773152D02*
X156070714Y-62868390D01*
X156070714Y-62868390D02*
X156023095Y-62916009D01*
X156023095Y-62916009D02*
X155927857Y-62963628D01*
X155927857Y-62963628D02*
X155546905Y-62963628D01*
X156451667Y-62439819D02*
X157118333Y-62439819D01*
X157118333Y-62439819D02*
X156689762Y-63439819D01*
X155451666Y-76799819D02*
X155451666Y-77514104D01*
X155451666Y-77514104D02*
X155404047Y-77656961D01*
X155404047Y-77656961D02*
X155308809Y-77752200D01*
X155308809Y-77752200D02*
X155165952Y-77799819D01*
X155165952Y-77799819D02*
X155070714Y-77799819D01*
X156451666Y-77799819D02*
X155880238Y-77799819D01*
X156165952Y-77799819D02*
X156165952Y-76799819D01*
X156165952Y-76799819D02*
X156070714Y-76942676D01*
X156070714Y-76942676D02*
X155975476Y-77037914D01*
X155975476Y-77037914D02*
X155880238Y-77085533D01*
X98889858Y-39571714D02*
X98842239Y-39619334D01*
X98842239Y-39619334D02*
X98699382Y-39666953D01*
X98699382Y-39666953D02*
X98604144Y-39666953D01*
X98604144Y-39666953D02*
X98461287Y-39619334D01*
X98461287Y-39619334D02*
X98366049Y-39524095D01*
X98366049Y-39524095D02*
X98318430Y-39428857D01*
X98318430Y-39428857D02*
X98270811Y-39238381D01*
X98270811Y-39238381D02*
X98270811Y-39095524D01*
X98270811Y-39095524D02*
X98318430Y-38905048D01*
X98318430Y-38905048D02*
X98366049Y-38809810D01*
X98366049Y-38809810D02*
X98461287Y-38714572D01*
X98461287Y-38714572D02*
X98604144Y-38666953D01*
X98604144Y-38666953D02*
X98699382Y-38666953D01*
X98699382Y-38666953D02*
X98842239Y-38714572D01*
X98842239Y-38714572D02*
X98889858Y-38762191D01*
X99794620Y-38666953D02*
X99318430Y-38666953D01*
X99318430Y-38666953D02*
X99270811Y-39143143D01*
X99270811Y-39143143D02*
X99318430Y-39095524D01*
X99318430Y-39095524D02*
X99413668Y-39047905D01*
X99413668Y-39047905D02*
X99651763Y-39047905D01*
X99651763Y-39047905D02*
X99747001Y-39095524D01*
X99747001Y-39095524D02*
X99794620Y-39143143D01*
X99794620Y-39143143D02*
X99842239Y-39238381D01*
X99842239Y-39238381D02*
X99842239Y-39476476D01*
X99842239Y-39476476D02*
X99794620Y-39571714D01*
X99794620Y-39571714D02*
X99747001Y-39619334D01*
X99747001Y-39619334D02*
X99651763Y-39666953D01*
X99651763Y-39666953D02*
X99413668Y-39666953D01*
X99413668Y-39666953D02*
X99318430Y-39619334D01*
X99318430Y-39619334D02*
X99270811Y-39571714D01*
X112658333Y-68894580D02*
X112610714Y-68942200D01*
X112610714Y-68942200D02*
X112467857Y-68989819D01*
X112467857Y-68989819D02*
X112372619Y-68989819D01*
X112372619Y-68989819D02*
X112229762Y-68942200D01*
X112229762Y-68942200D02*
X112134524Y-68846961D01*
X112134524Y-68846961D02*
X112086905Y-68751723D01*
X112086905Y-68751723D02*
X112039286Y-68561247D01*
X112039286Y-68561247D02*
X112039286Y-68418390D01*
X112039286Y-68418390D02*
X112086905Y-68227914D01*
X112086905Y-68227914D02*
X112134524Y-68132676D01*
X112134524Y-68132676D02*
X112229762Y-68037438D01*
X112229762Y-68037438D02*
X112372619Y-67989819D01*
X112372619Y-67989819D02*
X112467857Y-67989819D01*
X112467857Y-67989819D02*
X112610714Y-68037438D01*
X112610714Y-68037438D02*
X112658333Y-68085057D01*
X113134524Y-68989819D02*
X113325000Y-68989819D01*
X113325000Y-68989819D02*
X113420238Y-68942200D01*
X113420238Y-68942200D02*
X113467857Y-68894580D01*
X113467857Y-68894580D02*
X113563095Y-68751723D01*
X113563095Y-68751723D02*
X113610714Y-68561247D01*
X113610714Y-68561247D02*
X113610714Y-68180295D01*
X113610714Y-68180295D02*
X113563095Y-68085057D01*
X113563095Y-68085057D02*
X113515476Y-68037438D01*
X113515476Y-68037438D02*
X113420238Y-67989819D01*
X113420238Y-67989819D02*
X113229762Y-67989819D01*
X113229762Y-67989819D02*
X113134524Y-68037438D01*
X113134524Y-68037438D02*
X113086905Y-68085057D01*
X113086905Y-68085057D02*
X113039286Y-68180295D01*
X113039286Y-68180295D02*
X113039286Y-68418390D01*
X113039286Y-68418390D02*
X113086905Y-68513628D01*
X113086905Y-68513628D02*
X113134524Y-68561247D01*
X113134524Y-68561247D02*
X113229762Y-68608866D01*
X113229762Y-68608866D02*
X113420238Y-68608866D01*
X113420238Y-68608866D02*
X113515476Y-68561247D01*
X113515476Y-68561247D02*
X113563095Y-68513628D01*
X113563095Y-68513628D02*
X113610714Y-68418390D01*
X161058333Y-42089819D02*
X160582143Y-42089819D01*
X160582143Y-42089819D02*
X160582143Y-41089819D01*
X161391667Y-42089819D02*
X161391667Y-41089819D01*
X161391667Y-41089819D02*
X161629762Y-41089819D01*
X161629762Y-41089819D02*
X161772619Y-41137438D01*
X161772619Y-41137438D02*
X161867857Y-41232676D01*
X161867857Y-41232676D02*
X161915476Y-41327914D01*
X161915476Y-41327914D02*
X161963095Y-41518390D01*
X161963095Y-41518390D02*
X161963095Y-41661247D01*
X161963095Y-41661247D02*
X161915476Y-41851723D01*
X161915476Y-41851723D02*
X161867857Y-41946961D01*
X161867857Y-41946961D02*
X161772619Y-42042200D01*
X161772619Y-42042200D02*
X161629762Y-42089819D01*
X161629762Y-42089819D02*
X161391667Y-42089819D01*
X162915476Y-42089819D02*
X162344048Y-42089819D01*
X162629762Y-42089819D02*
X162629762Y-41089819D01*
X162629762Y-41089819D02*
X162534524Y-41232676D01*
X162534524Y-41232676D02*
X162439286Y-41327914D01*
X162439286Y-41327914D02*
X162344048Y-41375533D01*
X48086905Y-58389819D02*
X48086905Y-57389819D01*
X48086905Y-57389819D02*
X48325000Y-57389819D01*
X48325000Y-57389819D02*
X48467857Y-57437438D01*
X48467857Y-57437438D02*
X48563095Y-57532676D01*
X48563095Y-57532676D02*
X48610714Y-57627914D01*
X48610714Y-57627914D02*
X48658333Y-57818390D01*
X48658333Y-57818390D02*
X48658333Y-57961247D01*
X48658333Y-57961247D02*
X48610714Y-58151723D01*
X48610714Y-58151723D02*
X48563095Y-58246961D01*
X48563095Y-58246961D02*
X48467857Y-58342200D01*
X48467857Y-58342200D02*
X48325000Y-58389819D01*
X48325000Y-58389819D02*
X48086905Y-58389819D01*
X49039286Y-57485057D02*
X49086905Y-57437438D01*
X49086905Y-57437438D02*
X49182143Y-57389819D01*
X49182143Y-57389819D02*
X49420238Y-57389819D01*
X49420238Y-57389819D02*
X49515476Y-57437438D01*
X49515476Y-57437438D02*
X49563095Y-57485057D01*
X49563095Y-57485057D02*
X49610714Y-57580295D01*
X49610714Y-57580295D02*
X49610714Y-57675533D01*
X49610714Y-57675533D02*
X49563095Y-57818390D01*
X49563095Y-57818390D02*
X48991667Y-58389819D01*
X48991667Y-58389819D02*
X49610714Y-58389819D01*
X51743095Y-55789819D02*
X51743095Y-54789819D01*
X52314523Y-55789819D02*
X51885952Y-55218390D01*
X52314523Y-54789819D02*
X51743095Y-55361247D01*
%TO.C,Q1*%
D14*
X121180000Y-39845000D02*
X131400000Y-39845000D01*
X121180000Y-41225000D02*
X131400000Y-41225000D01*
X121180000Y-44465000D02*
X121180000Y-39845000D01*
X124440000Y-39845000D02*
X124440000Y-41225000D01*
X128140000Y-39845000D02*
X128140000Y-41225000D01*
X131400000Y-39845000D02*
X131400000Y-44465000D01*
X131400000Y-44465000D02*
X121180000Y-44465000D01*
%TO.C,D4*%
X53845000Y-64435000D02*
X54755000Y-64435000D01*
X62830000Y-67155000D02*
X62830000Y-61715000D01*
X62950000Y-67155000D02*
X62950000Y-61715000D01*
X63070000Y-67155000D02*
X63070000Y-61715000D01*
X65405000Y-64435000D02*
X64495000Y-64435000D01*
X54755000Y-61715000D02*
X64495000Y-61715000D01*
X64495000Y-67155000D01*
X54755000Y-67155000D01*
X54755000Y-61715000D01*
%TO.C,C1*%
X72534540Y-54647134D02*
X87382540Y-54647134D01*
X72562540Y-54687134D02*
X87354540Y-54687134D01*
X72590540Y-54727134D02*
X87326540Y-54727134D01*
X72619540Y-54767134D02*
X87297540Y-54767134D01*
X72649540Y-54807134D02*
X87267540Y-54807134D01*
X72678540Y-54847134D02*
X87238540Y-54847134D01*
X72708540Y-54887134D02*
X87208540Y-54887134D01*
X72738540Y-54927134D02*
X87178540Y-54927134D01*
X72769540Y-54967134D02*
X87147540Y-54967134D01*
X72800540Y-55007134D02*
X87116540Y-55007134D01*
X72831540Y-55047134D02*
X87085540Y-55047134D01*
X72863540Y-55087134D02*
X87053540Y-55087134D01*
X72895540Y-55127134D02*
X87021540Y-55127134D01*
X72927540Y-55167134D02*
X86989540Y-55167134D01*
X72960540Y-55207134D02*
X86956540Y-55207134D01*
X72993540Y-55247134D02*
X86923540Y-55247134D01*
X73027540Y-55287134D02*
X86889540Y-55287134D01*
X73061540Y-55327134D02*
X86855540Y-55327134D01*
X73095540Y-55367134D02*
X86821540Y-55367134D01*
X73130540Y-55407134D02*
X86786540Y-55407134D01*
X73165540Y-55447134D02*
X86751540Y-55447134D01*
X73200540Y-55487134D02*
X86716540Y-55487134D01*
X73236540Y-55527134D02*
X86680540Y-55527134D01*
X73273540Y-55567134D02*
X86643540Y-55567134D01*
X73310540Y-55607134D02*
X86606540Y-55607134D01*
X73347540Y-55647134D02*
X86569540Y-55647134D01*
X73385540Y-55687134D02*
X86531540Y-55687134D01*
X73423540Y-55727134D02*
X86493540Y-55727134D01*
X73462540Y-55767134D02*
X86454540Y-55767134D01*
X73501540Y-55807134D02*
X86415540Y-55807134D01*
X73540540Y-55847134D02*
X86376540Y-55847134D01*
X73581540Y-55887134D02*
X86335540Y-55887134D01*
X73621540Y-55927134D02*
X86295540Y-55927134D01*
X73662540Y-55967134D02*
X86254540Y-55967134D01*
X73704540Y-56007134D02*
X86212540Y-56007134D01*
X73746540Y-56047134D02*
X86170540Y-56047134D01*
X73789540Y-56087134D02*
X86127540Y-56087134D01*
X73832540Y-56127134D02*
X86084540Y-56127134D01*
X73876540Y-56167134D02*
X86040540Y-56167134D01*
X73921540Y-56207134D02*
X85995540Y-56207134D01*
X73966540Y-56247134D02*
X85950540Y-56247134D01*
X74011540Y-56287134D02*
X85905540Y-56287134D01*
X74058540Y-56327134D02*
X85858540Y-56327134D01*
X74105540Y-56367134D02*
X85811540Y-56367134D01*
X74152540Y-56407134D02*
X85764540Y-56407134D01*
X74200540Y-56447134D02*
X85716540Y-56447134D01*
X74249540Y-56487134D02*
X85667540Y-56487134D01*
X74299540Y-56527134D02*
X85617540Y-56527134D01*
X74349540Y-56567134D02*
X85567540Y-56567134D01*
X74400540Y-56607134D02*
X85516540Y-56607134D01*
X74452540Y-56647134D02*
X85464540Y-56647134D01*
X74505540Y-56687134D02*
X85411540Y-56687134D01*
X74558540Y-56727134D02*
X85358540Y-56727134D01*
X74612540Y-56767134D02*
X85304540Y-56767134D01*
X74667540Y-56807134D02*
X85249540Y-56807134D01*
X74723540Y-56847134D02*
X85193540Y-56847134D01*
X74780540Y-56887134D02*
X85136540Y-56887134D01*
X74838540Y-56927134D02*
X85078540Y-56927134D01*
X74897540Y-56967134D02*
X85019540Y-56967134D01*
X74957540Y-57007134D02*
X84959540Y-57007134D01*
X75018540Y-57047134D02*
X84898540Y-57047134D01*
X75079540Y-57087134D02*
X84837540Y-57087134D01*
X75142540Y-57127134D02*
X84774540Y-57127134D01*
X75207540Y-57167134D02*
X84709540Y-57167134D01*
X75272540Y-57207134D02*
X84644540Y-57207134D01*
X75339540Y-57247134D02*
X84577540Y-57247134D01*
X75407540Y-57287134D02*
X84509540Y-57287134D01*
X75476540Y-57327134D02*
X84440540Y-57327134D01*
X75547540Y-57367134D02*
X84369540Y-57367134D01*
X75619540Y-57407134D02*
X84297540Y-57407134D01*
X75693540Y-57447134D02*
X84223540Y-57447134D01*
X75769540Y-57487134D02*
X84147540Y-57487134D01*
X75846540Y-57527134D02*
X84070540Y-57527134D01*
X75925540Y-57567134D02*
X83991540Y-57567134D01*
X76006540Y-57607134D02*
X83910540Y-57607134D01*
X76089540Y-57647134D02*
X83827540Y-57647134D01*
X76175540Y-57687134D02*
X83741540Y-57687134D01*
X76263540Y-57727134D02*
X83653540Y-57727134D01*
X76353540Y-57767134D02*
X83563540Y-57767134D01*
X76446540Y-57807134D02*
X83470540Y-57807134D01*
X76542540Y-57847134D02*
X83374540Y-57847134D01*
X76642540Y-57887134D02*
X83274540Y-57887134D01*
X76745540Y-57927134D02*
X83171540Y-57927134D01*
X76851540Y-57967134D02*
X83065540Y-57967134D01*
X76962540Y-58007134D02*
X82954540Y-58007134D01*
X77078540Y-58047134D02*
X82838540Y-58047134D01*
X77199540Y-58087134D02*
X82717540Y-58087134D01*
X77327540Y-58127134D02*
X82589540Y-58127134D01*
X77461540Y-58167134D02*
X82455540Y-58167134D01*
X77603540Y-58207134D02*
X82313540Y-58207134D01*
X77756540Y-58247134D02*
X82160540Y-58247134D01*
X77920540Y-58287134D02*
X81996540Y-58287134D01*
X78099540Y-58327134D02*
X81817540Y-58327134D01*
X78297540Y-58367134D02*
X81619540Y-58367134D01*
X78523540Y-58407134D02*
X81393540Y-58407134D01*
X78793540Y-58447134D02*
X81123540Y-58447134D01*
X79145540Y-58487134D02*
X80771540Y-58487134D01*
D15*
X79906040Y-60939634D02*
X79906040Y-59034634D01*
D14*
X79998540Y-58527134D02*
X79918540Y-58527134D01*
D15*
X80858540Y-59987134D02*
X78953540Y-59987134D01*
D14*
X89078540Y-49437134D02*
G75*
G02*
X70838540Y-49437134I-9120000J0D01*
G01*
X70838540Y-49437134D02*
G75*
G02*
X89078540Y-49437134I9120000J0D01*
G01*
%TO.C,RF1*%
X129725000Y-81460000D02*
X129725000Y-81530000D01*
X131095000Y-80090000D02*
G75*
G02*
X128355000Y-80090000I-1370000J0D01*
G01*
X128355000Y-80090000D02*
G75*
G02*
X131095000Y-80090000I1370000J0D01*
G01*
%TO.C,C4*%
X120505000Y-48765000D02*
X125745000Y-48765000D01*
X120505000Y-49102000D02*
X120505000Y-48765000D01*
X120505000Y-51505000D02*
X120505000Y-51168000D01*
X125745000Y-48765000D02*
X125745000Y-49102000D01*
X125745000Y-51168000D02*
X125745000Y-51505000D01*
X125745000Y-51505000D02*
X120505000Y-51505000D01*
%TO.C,ST1*%
D16*
X107280000Y-86342500D02*
X107280000Y-93327500D01*
X107280000Y-86342500D02*
X116170000Y-86342500D01*
X107280000Y-93327500D02*
X116170000Y-93327500D01*
X116170000Y-86342500D02*
X116170000Y-93327500D01*
%TO.C,C13*%
D14*
X108405000Y-82765000D02*
X113645000Y-82765000D01*
X108405000Y-83102000D02*
X108405000Y-82765000D01*
X108405000Y-85505000D02*
X108405000Y-85168000D01*
X113645000Y-82765000D02*
X113645000Y-83102000D01*
X113645000Y-85168000D02*
X113645000Y-85505000D01*
X113645000Y-85505000D02*
X108405000Y-85505000D01*
%TO.C,R10*%
X159455000Y-67245000D02*
X159785000Y-67245000D01*
X159455000Y-73785000D02*
X159455000Y-67245000D01*
X159785000Y-73785000D02*
X159455000Y-73785000D01*
X161865000Y-73785000D02*
X162195000Y-73785000D01*
X162195000Y-67245000D02*
X161865000Y-67245000D01*
X162195000Y-73785000D02*
X162195000Y-67245000D01*
%TO.C,C8*%
D17*
X107025000Y-68803000D02*
X105325000Y-68803000D01*
X107425000Y-68703000D02*
X105025000Y-68703000D01*
X107525000Y-68603000D02*
X104825000Y-68603000D01*
X107926800Y-68479800D02*
X104548600Y-68479800D01*
X108028400Y-68378200D02*
X104370800Y-68378200D01*
X108125000Y-68303000D02*
X104325000Y-68303000D01*
D15*
X108384000Y-68167000D02*
X104066000Y-68167000D01*
X108765000Y-67938400D02*
X103812000Y-67938400D01*
D18*
X110225000Y-64865000D02*
G75*
G02*
X102225000Y-64865000I-4000000J0D01*
G01*
X102225000Y-64865000D02*
G75*
G02*
X110225000Y-64865000I4000000J0D01*
G01*
%TO.C,J2*%
D14*
X90745000Y-87305000D02*
X90745000Y-89965000D01*
X103505000Y-87305000D02*
X90745000Y-87305000D01*
X103505000Y-87305000D02*
X103505000Y-89965000D01*
X103505000Y-89965000D02*
X90745000Y-89965000D01*
X106105000Y-88635000D02*
X106105000Y-89965000D01*
X106105000Y-89965000D02*
X104775000Y-89965000D01*
%TO.C,D1*%
X53845000Y-44435000D02*
X54755000Y-44435000D01*
X56180000Y-41715000D02*
X56180000Y-47155000D01*
X56300000Y-41715000D02*
X56300000Y-47155000D01*
X56420000Y-41715000D02*
X56420000Y-47155000D01*
X65405000Y-44435000D02*
X64495000Y-44435000D01*
X54755000Y-41715000D02*
X64495000Y-41715000D01*
X64495000Y-47155000D01*
X54755000Y-47155000D01*
X54755000Y-41715000D01*
%TO.C,R9*%
X93355000Y-80265000D02*
X93355000Y-80595000D01*
X93355000Y-83005000D02*
X93355000Y-82675000D01*
X99895000Y-80265000D02*
X93355000Y-80265000D01*
X99895000Y-80595000D02*
X99895000Y-80265000D01*
X99895000Y-82675000D02*
X99895000Y-83005000D01*
X99895000Y-83005000D02*
X93355000Y-83005000D01*
%TO.C,C11*%
X124455000Y-92615000D02*
X124792000Y-92615000D01*
X124455000Y-97855000D02*
X124455000Y-92615000D01*
X124792000Y-97855000D02*
X124455000Y-97855000D01*
X126858000Y-92615000D02*
X127195000Y-92615000D01*
X127195000Y-92615000D02*
X127195000Y-97855000D01*
X127195000Y-97855000D02*
X126858000Y-97855000D01*
%TO.C,Furo11*%
D10*
X53070000Y-36975000D02*
G75*
G02*
X47070000Y-36975000I-3000000J0D01*
G01*
X47070000Y-36975000D02*
G75*
G02*
X53070000Y-36975000I3000000J0D01*
G01*
%TO.C,C7*%
D17*
X113725000Y-55903000D02*
X112025000Y-55903000D01*
X114125000Y-55803000D02*
X111725000Y-55803000D01*
X114225000Y-55703000D02*
X111525000Y-55703000D01*
X114626800Y-55579800D02*
X111248600Y-55579800D01*
X114728400Y-55478200D02*
X111070800Y-55478200D01*
X114825000Y-55403000D02*
X111025000Y-55403000D01*
D15*
X115084000Y-55267000D02*
X110766000Y-55267000D01*
X115465000Y-55038400D02*
X110512000Y-55038400D01*
D18*
X116925000Y-51965000D02*
G75*
G02*
X108925000Y-51965000I-4000000J0D01*
G01*
X108925000Y-51965000D02*
G75*
G02*
X116925000Y-51965000I4000000J0D01*
G01*
%TO.C,C12*%
D17*
X116925000Y-102543000D02*
X115225000Y-102543000D01*
X117325000Y-102443000D02*
X114925000Y-102443000D01*
X117425000Y-102343000D02*
X114725000Y-102343000D01*
X117826800Y-102219800D02*
X114448600Y-102219800D01*
X117928400Y-102118200D02*
X114270800Y-102118200D01*
X118025000Y-102043000D02*
X114225000Y-102043000D01*
D15*
X118284000Y-101907000D02*
X113966000Y-101907000D01*
X118665000Y-101678400D02*
X113712000Y-101678400D01*
D18*
X120125000Y-98605000D02*
G75*
G02*
X112125000Y-98605000I-4000000J0D01*
G01*
X112125000Y-98605000D02*
G75*
G02*
X120125000Y-98605000I4000000J0D01*
G01*
%TO.C,R3*%
D14*
X134155000Y-65565000D02*
X134155000Y-65895000D01*
X134155000Y-68305000D02*
X134155000Y-67975000D01*
X140695000Y-65565000D02*
X134155000Y-65565000D01*
X140695000Y-65895000D02*
X140695000Y-65565000D01*
X140695000Y-67975000D02*
X140695000Y-68305000D01*
X140695000Y-68305000D02*
X134155000Y-68305000D01*
%TO.C,Furo11*%
D10*
X166290000Y-36995000D02*
G75*
G02*
X160290000Y-36995000I-3000000J0D01*
G01*
X160290000Y-36995000D02*
G75*
G02*
X166290000Y-36995000I3000000J0D01*
G01*
%TO.C,R2*%
D14*
X148855000Y-46745000D02*
X147895000Y-46745000D01*
X154095000Y-46745000D02*
G75*
G02*
X148855000Y-46745000I-2620000J0D01*
G01*
X148855000Y-46745000D02*
G75*
G02*
X154095000Y-46745000I2620000J0D01*
G01*
%TO.C,U2*%
D19*
X119185000Y-73945000D02*
X119185000Y-83725000D01*
X120963000Y-83725000D02*
X119185000Y-83725000D01*
X124265000Y-73945000D02*
X119185000Y-73945000D01*
X124265000Y-73945000D02*
X124265000Y-83725000D01*
X124265000Y-83725000D02*
X122487000Y-83725000D01*
X120963000Y-83725000D02*
G75*
G02*
X122487000Y-83725000I762000J0D01*
G01*
%TO.C,RV1*%
D15*
X138730000Y-49929000D02*
X139935000Y-48929000D01*
X138730000Y-63929000D02*
X138730000Y-49929000D01*
X139935000Y-64929000D02*
X138730000Y-63929000D01*
X141245000Y-48929000D02*
X139975000Y-48929000D01*
X141245000Y-64929000D02*
X139975000Y-64929000D01*
X141245000Y-64929000D02*
X142730000Y-63929000D01*
X142730000Y-49929000D02*
X141245000Y-48929000D01*
X142730000Y-63929000D02*
X142730000Y-49929000D01*
D20*
%TO.C,G\u002A\u002A\u002A*%
G36*
X62357016Y-101419089D02*
G01*
X62416238Y-101422713D01*
X62428502Y-101425490D01*
X62430924Y-101457622D01*
X62434546Y-101543237D01*
X62439063Y-101673275D01*
X62444170Y-101838674D01*
X62449560Y-102030376D01*
X62451963Y-102121488D01*
X62469749Y-102809665D01*
X62906405Y-102818411D01*
X63090183Y-102823084D01*
X63220561Y-102830622D01*
X63306699Y-102844136D01*
X63357758Y-102866734D01*
X63382899Y-102901528D01*
X63391283Y-102951626D01*
X63392053Y-102983274D01*
X63389169Y-103034772D01*
X63374602Y-103073402D01*
X63340533Y-103101004D01*
X63279144Y-103119419D01*
X63182617Y-103130489D01*
X63043133Y-103136056D01*
X62852874Y-103137960D01*
X62734593Y-103138114D01*
X62549650Y-103137044D01*
X62386635Y-103134070D01*
X62255716Y-103129541D01*
X62167062Y-103123811D01*
X62130873Y-103117260D01*
X62125348Y-103081639D01*
X62120373Y-102991812D01*
X62116149Y-102856133D01*
X62112881Y-102682957D01*
X62110770Y-102480638D01*
X62110020Y-102257529D01*
X62110020Y-102257038D01*
X62110020Y-101417670D01*
X62266424Y-101417670D01*
X62357016Y-101419089D01*
G37*
G36*
X58833913Y-101287137D02*
G01*
X58982173Y-101289263D01*
X59090181Y-101292700D01*
X59148662Y-101297538D01*
X59156128Y-101299903D01*
X59162164Y-101331075D01*
X59134723Y-101383949D01*
X59070398Y-101462480D01*
X58965780Y-101570623D01*
X58817461Y-101712330D01*
X58734530Y-101789041D01*
X58389479Y-102105848D01*
X57457939Y-102105369D01*
X57221150Y-102104345D01*
X57003602Y-102101684D01*
X56813454Y-102097620D01*
X56658871Y-102092389D01*
X56548015Y-102086229D01*
X56489047Y-102079374D01*
X56482608Y-102077164D01*
X56458089Y-102049007D01*
X56474523Y-102007120D01*
X56498249Y-101975866D01*
X56544220Y-101925073D01*
X56621856Y-101845432D01*
X56720774Y-101746977D01*
X56830589Y-101639739D01*
X56940916Y-101533754D01*
X57041373Y-101439053D01*
X57121575Y-101365670D01*
X57171137Y-101323638D01*
X57178428Y-101318670D01*
X57218970Y-101312518D01*
X57312029Y-101306798D01*
X57448328Y-101301597D01*
X57618592Y-101297004D01*
X57813543Y-101293107D01*
X58023904Y-101289993D01*
X58240398Y-101287751D01*
X58453749Y-101286469D01*
X58654680Y-101286235D01*
X58833913Y-101287137D01*
G37*
G36*
X73038926Y-101423710D02*
G01*
X73127835Y-101428092D01*
X73184740Y-101435618D01*
X73217277Y-101446739D01*
X73233083Y-101461908D01*
X73236074Y-101468254D01*
X73247211Y-101529795D01*
X73220831Y-101572343D01*
X73150220Y-101599021D01*
X73028664Y-101612950D01*
X72916844Y-101616681D01*
X72636005Y-101620995D01*
X72627593Y-102354614D01*
X72624072Y-102600188D01*
X72619256Y-102789909D01*
X72612273Y-102930486D01*
X72602254Y-103028625D01*
X72588329Y-103091034D01*
X72569628Y-103124422D01*
X72545282Y-103135495D01*
X72526522Y-103134006D01*
X72486316Y-103124288D01*
X72456701Y-103116659D01*
X72439444Y-103107364D01*
X72426074Y-103084683D01*
X72415974Y-103041164D01*
X72408527Y-102969354D01*
X72403115Y-102861801D01*
X72399121Y-102711053D01*
X72395926Y-102509659D01*
X72394140Y-102361728D01*
X72385758Y-101620995D01*
X72088591Y-101605355D01*
X71950962Y-101597449D01*
X71864131Y-101588840D01*
X71816403Y-101575837D01*
X71796086Y-101554745D01*
X71791488Y-101521874D01*
X71791424Y-101511513D01*
X71791424Y-101433311D01*
X72503817Y-101424901D01*
X72734553Y-101422566D01*
X72910377Y-101422018D01*
X73038926Y-101423710D01*
G37*
G36*
X61560201Y-101426415D02*
G01*
X61643045Y-101436644D01*
X61694156Y-101454531D01*
X61721238Y-101481759D01*
X61731998Y-101520013D01*
X61734141Y-101570977D01*
X61734171Y-101575638D01*
X61730125Y-101631924D01*
X61711490Y-101672700D01*
X61669693Y-101700435D01*
X61596160Y-101717599D01*
X61482317Y-101726662D01*
X61319589Y-101730094D01*
X61196621Y-101730478D01*
X60733665Y-101730478D01*
X60733665Y-101949444D01*
X60733665Y-102168409D01*
X61152609Y-102168409D01*
X61325793Y-102169447D01*
X61446190Y-102173295D01*
X61523552Y-102181054D01*
X61567630Y-102193828D01*
X61588176Y-102212716D01*
X61590540Y-102217889D01*
X61607360Y-102298071D01*
X61606617Y-102384502D01*
X61589879Y-102450255D01*
X61576016Y-102466955D01*
X61533548Y-102474405D01*
X61441498Y-102479929D01*
X61312830Y-102483050D01*
X61160509Y-102483290D01*
X61138085Y-102483067D01*
X60733665Y-102478468D01*
X60733665Y-102789304D01*
X60731950Y-102936481D01*
X60725687Y-103032339D01*
X60713200Y-103088053D01*
X60692812Y-103114799D01*
X60684185Y-103119127D01*
X60598457Y-103135701D01*
X60502000Y-103133323D01*
X60429712Y-103112964D01*
X60428147Y-103112000D01*
X60415721Y-103090101D01*
X60406376Y-103038312D01*
X60399898Y-102950764D01*
X60396071Y-102821588D01*
X60394680Y-102644913D01*
X60395508Y-102414872D01*
X60396866Y-102260078D01*
X60405217Y-101433311D01*
X61044215Y-101424825D01*
X61268492Y-101422189D01*
X61437918Y-101422158D01*
X61560201Y-101426415D01*
G37*
G36*
X69583453Y-101425282D02*
G01*
X69616946Y-101443881D01*
X69617409Y-101446610D01*
X69600703Y-101483823D01*
X69556047Y-101558688D01*
X69491633Y-101657793D01*
X69459792Y-101704677D01*
X69367173Y-101839647D01*
X69258679Y-101998243D01*
X69153559Y-102152316D01*
X69123524Y-102196438D01*
X68944872Y-102459073D01*
X68934294Y-102779834D01*
X68928804Y-102924291D01*
X68921815Y-103017978D01*
X68910361Y-103072669D01*
X68891473Y-103100136D01*
X68862183Y-103112155D01*
X68849882Y-103114708D01*
X68779489Y-103113247D01*
X68743157Y-103095931D01*
X68728551Y-103051401D01*
X68717347Y-102959548D01*
X68711075Y-102835582D01*
X68710266Y-102768782D01*
X68710266Y-102474524D01*
X68511479Y-102188523D01*
X68359543Y-101969336D01*
X68240499Y-101796113D01*
X68151025Y-101663805D01*
X68087796Y-101567362D01*
X68047488Y-101501735D01*
X68026779Y-101461876D01*
X68022089Y-101445086D01*
X68049496Y-101427337D01*
X68117480Y-101422355D01*
X68138767Y-101423602D01*
X68204341Y-101434386D01*
X68255650Y-101462050D01*
X68307653Y-101518957D01*
X68375308Y-101617471D01*
X68377603Y-101620995D01*
X68461368Y-101746201D01*
X68552998Y-101877939D01*
X68616029Y-101965084D01*
X68681100Y-102057095D01*
X68731058Y-102135910D01*
X68751581Y-102176229D01*
X68775987Y-102217577D01*
X68811177Y-102223354D01*
X68861265Y-102189795D01*
X68930368Y-102113131D01*
X69022603Y-101989596D01*
X69136120Y-101824320D01*
X69240189Y-101670305D01*
X69317006Y-101560978D01*
X69373641Y-101488717D01*
X69417159Y-101445902D01*
X69454628Y-101424911D01*
X69493116Y-101418122D01*
X69513204Y-101417670D01*
X69583453Y-101425282D01*
G37*
G36*
X74362589Y-101411202D02*
G01*
X74564724Y-101414857D01*
X74713018Y-101419040D01*
X74816189Y-101424788D01*
X74882955Y-101433140D01*
X74922037Y-101445135D01*
X74942151Y-101461811D01*
X74951123Y-101481304D01*
X74958509Y-101545951D01*
X74950956Y-101573794D01*
X74912601Y-101586340D01*
X74820063Y-101596151D01*
X74681680Y-101602665D01*
X74505793Y-101605322D01*
X74482284Y-101605355D01*
X74317575Y-101606630D01*
X74172785Y-101610130D01*
X74060648Y-101615372D01*
X73993897Y-101621870D01*
X73983637Y-101624342D01*
X73956528Y-101648927D01*
X73941186Y-101705106D01*
X73935065Y-101805473D01*
X73934637Y-101866768D01*
X73938103Y-101982887D01*
X73946759Y-102076229D01*
X73958766Y-102127361D01*
X73959371Y-102128383D01*
X73997699Y-102146377D01*
X74089093Y-102160050D01*
X74236798Y-102169733D01*
X74420284Y-102175304D01*
X74856941Y-102184050D01*
X74856941Y-102277892D01*
X74856941Y-102371734D01*
X74397060Y-102380382D01*
X73937178Y-102389030D01*
X73948545Y-102661909D01*
X73959911Y-102934788D01*
X74465169Y-102943393D01*
X74970428Y-102951998D01*
X74960605Y-103037235D01*
X74950783Y-103122473D01*
X74371189Y-103130958D01*
X74146171Y-103132940D01*
X73977742Y-103131221D01*
X73860022Y-103125519D01*
X73787132Y-103115553D01*
X73753394Y-103101241D01*
X73740837Y-103058325D01*
X73730564Y-102963801D01*
X73722569Y-102827901D01*
X73716847Y-102660860D01*
X73713393Y-102472912D01*
X73712200Y-102274289D01*
X73713263Y-102075227D01*
X73716577Y-101885959D01*
X73722136Y-101716718D01*
X73729934Y-101577739D01*
X73739967Y-101479255D01*
X73752229Y-101431499D01*
X73754293Y-101429321D01*
X73796889Y-101421070D01*
X73891292Y-101414839D01*
X74026772Y-101410948D01*
X74192598Y-101409715D01*
X74362589Y-101411202D01*
G37*
G36*
X70894541Y-101419627D02*
G01*
X71027210Y-101450440D01*
X71144070Y-101493279D01*
X71230851Y-101542629D01*
X71273283Y-101592975D01*
X71275291Y-101605377D01*
X71256122Y-101678846D01*
X71197583Y-101706076D01*
X71098127Y-101687454D01*
X71039846Y-101664323D01*
X70942682Y-101627851D01*
X70847512Y-101610551D01*
X70728669Y-101608980D01*
X70655731Y-101612799D01*
X70530028Y-101623591D01*
X70450085Y-101639633D01*
X70399100Y-101666103D01*
X70364491Y-101702599D01*
X70313417Y-101810588D01*
X70319384Y-101917722D01*
X70376571Y-102005225D01*
X70440867Y-102044694D01*
X70549941Y-102090293D01*
X70687316Y-102135440D01*
X70738270Y-102149712D01*
X70931838Y-102206594D01*
X71075145Y-102262281D01*
X71180037Y-102323088D01*
X71258364Y-102395331D01*
X71298645Y-102448433D01*
X71359063Y-102587772D01*
X71361958Y-102730910D01*
X71310784Y-102867665D01*
X71208995Y-102987853D01*
X71088545Y-103067732D01*
X70948655Y-103113915D01*
X70775613Y-103135688D01*
X70594200Y-103132255D01*
X70429197Y-103102820D01*
X70390262Y-103090160D01*
X70258767Y-103030175D01*
X70157249Y-102960988D01*
X70097507Y-102891796D01*
X70086621Y-102853475D01*
X70103954Y-102794323D01*
X70158194Y-102777942D01*
X70252702Y-102804236D01*
X70341054Y-102846113D01*
X70517629Y-102916177D01*
X70697325Y-102948326D01*
X70864265Y-102941732D01*
X71002572Y-102895567D01*
X71025044Y-102881755D01*
X71117268Y-102791731D01*
X71149136Y-102691221D01*
X71119948Y-102586551D01*
X71065470Y-102516830D01*
X70996656Y-102462946D01*
X70903710Y-102421411D01*
X70769621Y-102385138D01*
X70727190Y-102375961D01*
X70516404Y-102323680D01*
X70359206Y-102264047D01*
X70246662Y-102192074D01*
X70169844Y-102102771D01*
X70141491Y-102048825D01*
X70101132Y-101893417D01*
X70117534Y-101750039D01*
X70185221Y-101624375D01*
X70298714Y-101522114D01*
X70452536Y-101448942D01*
X70641211Y-101410545D01*
X70760335Y-101406357D01*
X70894541Y-101419627D01*
G37*
G36*
X67134320Y-101435137D02*
G01*
X67262749Y-101463552D01*
X67370559Y-101502747D01*
X67448595Y-101550364D01*
X67487701Y-101604045D01*
X67478722Y-101661429D01*
X67447787Y-101695551D01*
X67404798Y-101710732D01*
X67335647Y-101696690D01*
X67254772Y-101664279D01*
X67112437Y-101621640D01*
X66954828Y-101606478D01*
X66801270Y-101617727D01*
X66671090Y-101654320D01*
X66597342Y-101700579D01*
X66537461Y-101791015D01*
X66521310Y-101894701D01*
X66550171Y-101989387D01*
X66578716Y-102023612D01*
X66633337Y-102053580D01*
X66732516Y-102091030D01*
X66859688Y-102130106D01*
X66938981Y-102151018D01*
X67160440Y-102214073D01*
X67326496Y-102282350D01*
X67444310Y-102361374D01*
X67521038Y-102456674D01*
X67563842Y-102573777D01*
X67574719Y-102641868D01*
X67561525Y-102790607D01*
X67491533Y-102922379D01*
X67369911Y-103028833D01*
X67317176Y-103058040D01*
X67185769Y-103100410D01*
X67018118Y-103123596D01*
X66837891Y-103126437D01*
X66668752Y-103107772D01*
X66605742Y-103092963D01*
X66453246Y-103037226D01*
X66351240Y-102973386D01*
X66302959Y-102905224D01*
X66311638Y-102836522D01*
X66349397Y-102793336D01*
X66387082Y-102775348D01*
X66439088Y-102783644D01*
X66521940Y-102821902D01*
X66553420Y-102838759D01*
X66683179Y-102894380D01*
X66824818Y-102933194D01*
X66875699Y-102940946D01*
X67035847Y-102939589D01*
X67171610Y-102904891D01*
X67275614Y-102843511D01*
X67340486Y-102762109D01*
X67358852Y-102667345D01*
X67323336Y-102565879D01*
X67310973Y-102547850D01*
X67266920Y-102501281D01*
X67203938Y-102461815D01*
X67111687Y-102425507D01*
X66979831Y-102388410D01*
X66798031Y-102346578D01*
X66765067Y-102339491D01*
X66625868Y-102304937D01*
X66527976Y-102266181D01*
X66450363Y-102213685D01*
X66413158Y-102179856D01*
X66346550Y-102108177D01*
X66313428Y-102043607D01*
X66302417Y-101957947D01*
X66301645Y-101903417D01*
X66326950Y-101741156D01*
X66404559Y-101610257D01*
X66537015Y-101507052D01*
X66597519Y-101476468D01*
X66716871Y-101438169D01*
X66852225Y-101420087D01*
X66994427Y-101419862D01*
X67134320Y-101435137D01*
G37*
G36*
X78564899Y-101403846D02*
G01*
X78710119Y-101408018D01*
X78814151Y-101420918D01*
X78898198Y-101446650D01*
X78971201Y-101482466D01*
X79072132Y-101549219D01*
X79116283Y-101610893D01*
X79107944Y-101675992D01*
X79086503Y-101711025D01*
X79057831Y-101743958D01*
X79025052Y-101751792D01*
X78968588Y-101734062D01*
X78905735Y-101706749D01*
X78753267Y-101646467D01*
X78627950Y-101617888D01*
X78505780Y-101616698D01*
X78445086Y-101624002D01*
X78310255Y-101663762D01*
X78216607Y-101730261D01*
X78168344Y-101813622D01*
X78169670Y-101903966D01*
X78224786Y-101991415D01*
X78272371Y-102029993D01*
X78357951Y-102072395D01*
X78475957Y-102112675D01*
X78569538Y-102135490D01*
X78799402Y-102192473D01*
X78972480Y-102264532D01*
X79093539Y-102355554D01*
X79167346Y-102469426D01*
X79198668Y-102610036D01*
X79200422Y-102649964D01*
X79179190Y-102813126D01*
X79107606Y-102942697D01*
X78981734Y-103044814D01*
X78928989Y-103072867D01*
X78770441Y-103122514D01*
X78578884Y-103140920D01*
X78375334Y-103128396D01*
X78180804Y-103085254D01*
X78113306Y-103060768D01*
X77993024Y-103008880D01*
X77921569Y-102968488D01*
X77888901Y-102929916D01*
X77884978Y-102883486D01*
X77892269Y-102847734D01*
X77922150Y-102778544D01*
X77972309Y-102753760D01*
X78052684Y-102771988D01*
X78138957Y-102813145D01*
X78298429Y-102880993D01*
X78465279Y-102923383D01*
X78619431Y-102936691D01*
X78732289Y-102920293D01*
X78851680Y-102861965D01*
X78935098Y-102783092D01*
X78970021Y-102695954D01*
X78970364Y-102686789D01*
X78959315Y-102613074D01*
X78920793Y-102553023D01*
X78846737Y-102501508D01*
X78729085Y-102453402D01*
X78559775Y-102403581D01*
X78501153Y-102388406D01*
X78343882Y-102347186D01*
X78233533Y-102313278D01*
X78155991Y-102280264D01*
X78097144Y-102241723D01*
X78042876Y-102191237D01*
X78024121Y-102171455D01*
X77952697Y-102086380D01*
X77917665Y-102013536D01*
X77907061Y-101925461D01*
X77906818Y-101902180D01*
X77927200Y-101742127D01*
X77993281Y-101616338D01*
X78112466Y-101512213D01*
X78149418Y-101489269D01*
X78231137Y-101445412D01*
X78305830Y-101419420D01*
X78394580Y-101406957D01*
X78518474Y-101403687D01*
X78564899Y-101403846D01*
G37*
G36*
X58207156Y-99886261D02*
G01*
X60123690Y-99887610D01*
X59701399Y-100294236D01*
X59562775Y-100426643D01*
X59434727Y-100546956D01*
X59325940Y-100647168D01*
X59245102Y-100719269D01*
X59202332Y-100754279D01*
X59178933Y-100767104D01*
X59145049Y-100777893D01*
X59095081Y-100786905D01*
X59023431Y-100794402D01*
X58924501Y-100800643D01*
X58792693Y-100805889D01*
X58622409Y-100810399D01*
X58408051Y-100814434D01*
X58144020Y-100818254D01*
X57824719Y-100822119D01*
X57716494Y-100823335D01*
X56307433Y-100838976D01*
X56298987Y-101524963D01*
X56297637Y-101726429D01*
X56298578Y-101906835D01*
X56301585Y-102056794D01*
X56306435Y-102166916D01*
X56312901Y-102227814D01*
X56316038Y-102236447D01*
X56352750Y-102243169D01*
X56443901Y-102249584D01*
X56581368Y-102255422D01*
X56757027Y-102260414D01*
X56962755Y-102264288D01*
X57190430Y-102266776D01*
X57237847Y-102267083D01*
X57469048Y-102269026D01*
X57680027Y-102271978D01*
X57862640Y-102275732D01*
X58008743Y-102280079D01*
X58110190Y-102284811D01*
X58158837Y-102289721D01*
X58161502Y-102290698D01*
X58182987Y-102312757D01*
X58199511Y-102350788D01*
X58211406Y-102411378D01*
X58219005Y-102501113D01*
X58222639Y-102626581D01*
X58222642Y-102794367D01*
X58219345Y-103011057D01*
X58213081Y-103283240D01*
X58212579Y-103303044D01*
X58190394Y-104173036D01*
X57775631Y-104581297D01*
X57639904Y-104713930D01*
X57515575Y-104833624D01*
X57411017Y-104932460D01*
X57334603Y-105002516D01*
X57295996Y-105034996D01*
X57231125Y-105080434D01*
X57222851Y-104117094D01*
X57214576Y-103153754D01*
X56761005Y-103153754D01*
X56307433Y-103153754D01*
X56291793Y-103622966D01*
X56283697Y-103805689D01*
X56273220Y-103949218D01*
X56261084Y-104046330D01*
X56248013Y-104089805D01*
X56244872Y-104091457D01*
X56214459Y-104069797D01*
X56147750Y-104009775D01*
X56051791Y-103918148D01*
X55933628Y-103801669D01*
X55800306Y-103667093D01*
X55771745Y-103637886D01*
X55329898Y-103185035D01*
X55310083Y-102053854D01*
X55306049Y-101778075D01*
X55303903Y-101525347D01*
X55303599Y-101302513D01*
X55305090Y-101116416D01*
X55308331Y-100973899D01*
X55313274Y-100881805D01*
X55318218Y-100849543D01*
X55348814Y-100806541D01*
X55418070Y-100728759D01*
X55518644Y-100623813D01*
X55643191Y-100499321D01*
X55784369Y-100362902D01*
X55818395Y-100330663D01*
X56290622Y-99884912D01*
X58207156Y-99886261D01*
G37*
G36*
X65543581Y-101417387D02*
G01*
X65563519Y-101417670D01*
X65664559Y-101427076D01*
X65714480Y-101457158D01*
X65719604Y-101467150D01*
X65724858Y-101511138D01*
X65729554Y-101608531D01*
X65733481Y-101750170D01*
X65736428Y-101926899D01*
X65738184Y-102129562D01*
X65738591Y-102289835D01*
X65737591Y-102555134D01*
X65734448Y-102762464D01*
X65728953Y-102916387D01*
X65720894Y-103021465D01*
X65710059Y-103082259D01*
X65701054Y-103100577D01*
X65644564Y-103127500D01*
X65566547Y-103138114D01*
X65506579Y-103135050D01*
X65462429Y-103120341D01*
X65431685Y-103085708D01*
X65411935Y-103022874D01*
X65400764Y-102923558D01*
X65395762Y-102779485D01*
X65394515Y-102582375D01*
X65394502Y-102547800D01*
X65394502Y-102032560D01*
X65305884Y-102170866D01*
X65248027Y-102262487D01*
X65171480Y-102385476D01*
X65089990Y-102517707D01*
X65064468Y-102559419D01*
X64961456Y-102722180D01*
X64880629Y-102834436D01*
X64816487Y-102901786D01*
X64763528Y-102929827D01*
X64716251Y-102924157D01*
X64709365Y-102920775D01*
X64672697Y-102883014D01*
X64613068Y-102801296D01*
X64537767Y-102686423D01*
X64454083Y-102549201D01*
X64424529Y-102498530D01*
X64316124Y-102311081D01*
X64235567Y-102178232D01*
X64178912Y-102100704D01*
X64142211Y-102079218D01*
X64121519Y-102114493D01*
X64112889Y-102207250D01*
X64112373Y-102358210D01*
X64115781Y-102554892D01*
X64118623Y-102753365D01*
X64118267Y-102897994D01*
X64114147Y-102997442D01*
X64105696Y-103060371D01*
X64092351Y-103095444D01*
X64079669Y-103108138D01*
X63999816Y-103134220D01*
X63910019Y-103131903D01*
X63841267Y-103102823D01*
X63833757Y-103095161D01*
X63821796Y-103056596D01*
X63813065Y-102971379D01*
X63807454Y-102836021D01*
X63804850Y-102647030D01*
X63805141Y-102400915D01*
X63806466Y-102242760D01*
X63814823Y-101433311D01*
X63977294Y-101423916D01*
X64077087Y-101422007D01*
X64135415Y-101435137D01*
X64172749Y-101469504D01*
X64183898Y-101486478D01*
X64214968Y-101537313D01*
X64271863Y-101630565D01*
X64347867Y-101755222D01*
X64436265Y-101900268D01*
X64490047Y-101988545D01*
X64579721Y-102133677D01*
X64658879Y-102257900D01*
X64721606Y-102352234D01*
X64761986Y-102407699D01*
X64773453Y-102418655D01*
X64797183Y-102393653D01*
X64846637Y-102325355D01*
X64914872Y-102223819D01*
X64994948Y-102099108D01*
X65005447Y-102082387D01*
X65133336Y-101877866D01*
X65232456Y-101719993D01*
X65307840Y-101602771D01*
X65364523Y-101520207D01*
X65407536Y-101466303D01*
X65441916Y-101435065D01*
X65472694Y-101420496D01*
X65504904Y-101416603D01*
X65543581Y-101417387D01*
G37*
G36*
X77241436Y-101417965D02*
G01*
X77271554Y-101438176D01*
X77292021Y-101485520D01*
X77304894Y-101567329D01*
X77312231Y-101690935D01*
X77316088Y-101863669D01*
X77318127Y-102050124D01*
X77320051Y-102253959D01*
X77321940Y-102450794D01*
X77323655Y-102626429D01*
X77325057Y-102766660D01*
X77325947Y-102851666D01*
X77325480Y-102971926D01*
X77317801Y-103044706D01*
X77298395Y-103085028D01*
X77262745Y-103107914D01*
X77247084Y-103114041D01*
X77202100Y-103125942D01*
X77168459Y-103119351D01*
X77144686Y-103087212D01*
X77129304Y-103022471D01*
X77120838Y-102918073D01*
X77117810Y-102766963D01*
X77118746Y-102562085D01*
X77119400Y-102503786D01*
X77120124Y-102315228D01*
X77117914Y-102144106D01*
X77113144Y-102001946D01*
X77106188Y-101900270D01*
X77098235Y-101852536D01*
X77078675Y-101806963D01*
X77061317Y-101805752D01*
X77034152Y-101854082D01*
X77018587Y-101886882D01*
X76964979Y-101992002D01*
X76893144Y-102120802D01*
X76809612Y-102262905D01*
X76720909Y-102407935D01*
X76633565Y-102545516D01*
X76554107Y-102665269D01*
X76489063Y-102756820D01*
X76444961Y-102809790D01*
X76432396Y-102818658D01*
X76409854Y-102817080D01*
X76383255Y-102799821D01*
X76348370Y-102760761D01*
X76300973Y-102693781D01*
X76236835Y-102592761D01*
X76151729Y-102451580D01*
X76041427Y-102264120D01*
X75998383Y-102190382D01*
X75922045Y-102064669D01*
X75855256Y-101964384D01*
X75804710Y-101898900D01*
X75777099Y-101877592D01*
X75775656Y-101878438D01*
X75767256Y-101916392D01*
X75759109Y-102006874D01*
X75751759Y-102139849D01*
X75745749Y-102305283D01*
X75741620Y-102493142D01*
X75741323Y-102513362D01*
X75732803Y-103122473D01*
X75653430Y-103131729D01*
X75585101Y-103130895D01*
X75551768Y-103118696D01*
X75545861Y-103082682D01*
X75540542Y-102992482D01*
X75536027Y-102856466D01*
X75532534Y-102683010D01*
X75530279Y-102480486D01*
X75529478Y-102257266D01*
X75529478Y-102257038D01*
X75529478Y-101417670D01*
X75649753Y-101417670D01*
X75758068Y-101434649D01*
X75817433Y-101472412D01*
X75863824Y-101537418D01*
X75936670Y-101655189D01*
X76034179Y-101822670D01*
X76154560Y-102036805D01*
X76248936Y-102208179D01*
X76313160Y-102319642D01*
X76369251Y-102406168D01*
X76409077Y-102455717D01*
X76420980Y-102462859D01*
X76448198Y-102436397D01*
X76499351Y-102366297D01*
X76567177Y-102263150D01*
X76644412Y-102137546D01*
X76646280Y-102134411D01*
X76774637Y-101920230D01*
X76876312Y-101754230D01*
X76955644Y-101630265D01*
X77016975Y-101542189D01*
X77064645Y-101483855D01*
X77102995Y-101449117D01*
X77136365Y-101431828D01*
X77144019Y-101429617D01*
X77199610Y-101417556D01*
X77241436Y-101417965D01*
G37*
%TO.C,Q2*%
D15*
X136169900Y-45522600D02*
X137287500Y-45294000D01*
X137287500Y-40976000D02*
X136169900Y-40747400D01*
X137287500Y-42500000D02*
X137287500Y-40976000D01*
X137287500Y-45294000D02*
X137287500Y-43770000D01*
X134633458Y-45111612D02*
G75*
G02*
X134633458Y-41158388I1384041J1976612D01*
G01*
%TO.C,C10*%
D14*
X107155000Y-94915000D02*
X107492000Y-94915000D01*
X107155000Y-100155000D02*
X107155000Y-94915000D01*
X107492000Y-100155000D02*
X107155000Y-100155000D01*
X109558000Y-94915000D02*
X109895000Y-94915000D01*
X109895000Y-94915000D02*
X109895000Y-100155000D01*
X109895000Y-100155000D02*
X109558000Y-100155000D01*
%TO.C,CN1*%
D15*
X50645000Y-71850000D02*
X60805000Y-71850000D01*
X50645000Y-84042000D02*
X60805000Y-84042000D01*
X50645000Y-85820000D02*
X50645000Y-71850000D01*
X50645000Y-85820000D02*
X60805000Y-85820000D01*
X51153000Y-77184000D02*
X55217000Y-77184000D01*
X51153000Y-77184000D02*
X55217000Y-77184000D01*
X51153000Y-82010000D02*
X55217000Y-82010000D01*
X51153000Y-82010000D02*
X55217000Y-82010000D01*
X51153000Y-85312000D02*
X51153000Y-77184000D01*
X51153000Y-85312000D02*
X51153000Y-77184000D01*
X51153000Y-85312000D02*
X55217000Y-85312000D01*
X51153000Y-85312000D02*
X55217000Y-85312000D01*
X51407000Y-74644000D02*
X54963000Y-74644000D01*
X53185000Y-76422000D02*
X53185000Y-72866000D01*
X55217000Y-85312000D02*
X55217000Y-77184000D01*
X55217000Y-85312000D02*
X55217000Y-77184000D01*
X56233000Y-77184000D02*
X60297000Y-77184000D01*
X56233000Y-77184000D02*
X60297000Y-77184000D01*
X56233000Y-82010000D02*
X60297000Y-82010000D01*
X56233000Y-82010000D02*
X60297000Y-82010000D01*
X56233000Y-85312000D02*
X56233000Y-77184000D01*
X56233000Y-85312000D02*
X56233000Y-77184000D01*
X56233000Y-85312000D02*
X60297000Y-85312000D01*
X56233000Y-85312000D02*
X60297000Y-85312000D01*
X56487000Y-74644000D02*
X60043000Y-74644000D01*
X58265000Y-76422000D02*
X58265000Y-72866000D01*
X60297000Y-85312000D02*
X60297000Y-77184000D01*
X60297000Y-85312000D02*
X60297000Y-77184000D01*
X60805000Y-85820000D02*
X60805000Y-71850000D01*
X54935000Y-74644000D02*
G75*
G02*
X51435000Y-74644000I-1750000J0D01*
G01*
X51435000Y-74644000D02*
G75*
G02*
X54935000Y-74644000I1750000J0D01*
G01*
X60015000Y-74644000D02*
G75*
G02*
X56515000Y-74644000I-1750000J0D01*
G01*
X56515000Y-74644000D02*
G75*
G02*
X60015000Y-74644000I1750000J0D01*
G01*
%TO.C,C6*%
X77483985Y-90489393D02*
X88278985Y-90489393D01*
X81928985Y-86361893D02*
X83833985Y-86361893D01*
X82881485Y-85409393D02*
X82881485Y-87314393D01*
X89866485Y-94934393D02*
G75*
G02*
X75896485Y-94934393I-6985000J0D01*
G01*
X75896485Y-94934393D02*
G75*
G02*
X89866485Y-94934393I6985000J0D01*
G01*
D20*
G36*
X84430885Y-88076393D02*
G01*
X85980285Y-88660593D01*
X87148685Y-89447993D01*
X88240885Y-90413193D01*
X88291685Y-90514793D01*
X77522085Y-90463993D01*
X77776085Y-90184593D01*
X78563485Y-89422593D01*
X79452485Y-88812993D01*
X80519285Y-88330393D01*
X82017885Y-87974793D01*
X83211685Y-87923993D01*
X84430885Y-88076393D01*
G37*
%TO.C,C2*%
D14*
X130205000Y-48865000D02*
X135445000Y-48865000D01*
X130205000Y-49202000D02*
X130205000Y-48865000D01*
X130205000Y-51605000D02*
X130205000Y-51268000D01*
X135445000Y-48865000D02*
X135445000Y-49202000D01*
X135445000Y-51268000D02*
X135445000Y-51605000D01*
X135445000Y-51605000D02*
X130205000Y-51605000D01*
%TO.C,J3*%
X96295000Y-64835000D02*
X96295000Y-62235000D01*
X96295000Y-67435000D02*
X96295000Y-66105000D01*
X97625000Y-67435000D02*
X96295000Y-67435000D01*
X98955000Y-62235000D02*
X96295000Y-62235000D01*
X98955000Y-64835000D02*
X96295000Y-64835000D01*
X98955000Y-64835000D02*
X98955000Y-62235000D01*
%TO.C,R12*%
X134155000Y-69195000D02*
X140695000Y-69195000D01*
X134155000Y-69525000D02*
X134155000Y-69195000D01*
X134155000Y-71605000D02*
X134155000Y-71935000D01*
X134155000Y-71935000D02*
X140695000Y-71935000D01*
X140695000Y-69195000D02*
X140695000Y-69525000D01*
X140695000Y-71935000D02*
X140695000Y-71605000D01*
%TO.C,R1*%
X121165000Y-52665000D02*
X127705000Y-52665000D01*
X121165000Y-52995000D02*
X121165000Y-52665000D01*
X121165000Y-55075000D02*
X121165000Y-55405000D01*
X121165000Y-55405000D02*
X127705000Y-55405000D01*
X127705000Y-52665000D02*
X127705000Y-52995000D01*
X127705000Y-55405000D02*
X127705000Y-55075000D01*
%TO.C,R6*%
X149455000Y-68695000D02*
X148495000Y-68695000D01*
X154695000Y-68695000D02*
G75*
G02*
X149455000Y-68695000I-2620000J0D01*
G01*
X149455000Y-68695000D02*
G75*
G02*
X154695000Y-68695000I2620000J0D01*
G01*
%TO.C,D5*%
X121885000Y-57435000D02*
X122905000Y-57435000D01*
X127325000Y-58905000D02*
X127325000Y-55965000D01*
X127445000Y-58905000D02*
X127445000Y-55965000D01*
X127565000Y-58905000D02*
X127565000Y-55965000D01*
X129365000Y-57435000D02*
X128345000Y-57435000D01*
X122905000Y-55965000D02*
X128345000Y-55965000D01*
X128345000Y-58905000D01*
X122905000Y-58905000D01*
X122905000Y-55965000D01*
%TO.C,R13*%
X120655000Y-92965000D02*
X120655000Y-99505000D01*
X120655000Y-99505000D02*
X120985000Y-99505000D01*
X120985000Y-92965000D02*
X120655000Y-92965000D01*
X123065000Y-92965000D02*
X123395000Y-92965000D01*
X123395000Y-92965000D02*
X123395000Y-99505000D01*
X123395000Y-99505000D02*
X123065000Y-99505000D01*
%TO.C,C3*%
D15*
X144605000Y-36461600D02*
X149558000Y-36461600D01*
X144986000Y-36233000D02*
X149304000Y-36233000D01*
D17*
X145245000Y-36097000D02*
X149045000Y-36097000D01*
X145341600Y-36021800D02*
X148999200Y-36021800D01*
X145443200Y-35920200D02*
X148821400Y-35920200D01*
X145845000Y-35797000D02*
X148545000Y-35797000D01*
X145945000Y-35697000D02*
X148345000Y-35697000D01*
X146345000Y-35597000D02*
X148045000Y-35597000D01*
D18*
X151145000Y-39535000D02*
G75*
G02*
X143145000Y-39535000I-4000000J0D01*
G01*
X143145000Y-39535000D02*
G75*
G02*
X151145000Y-39535000I4000000J0D01*
G01*
%TO.C,RG1*%
D14*
X122400000Y-70135000D02*
X122330000Y-70135000D01*
X125140000Y-70135000D02*
G75*
G02*
X122400000Y-70135000I-1370000J0D01*
G01*
X122400000Y-70135000D02*
G75*
G02*
X125140000Y-70135000I1370000J0D01*
G01*
%TO.C,Furo11*%
D10*
X53100000Y-105195000D02*
G75*
G02*
X47100000Y-105195000I-3000000J0D01*
G01*
X47100000Y-105195000D02*
G75*
G02*
X53100000Y-105195000I3000000J0D01*
G01*
%TO.C,Q3*%
D15*
X103666000Y-78670000D02*
X103437400Y-79787600D01*
X105190000Y-78670000D02*
X103666000Y-78670000D01*
X107984000Y-78670000D02*
X106460000Y-78670000D01*
X108212600Y-79787600D02*
X107984000Y-78670000D01*
X107801612Y-81324042D02*
G75*
G02*
X103848388Y-81324042I-1976612J1384041D01*
G01*
%TO.C,D3*%
D14*
X53845000Y-50935000D02*
X54755000Y-50935000D01*
X62830000Y-53655000D02*
X62830000Y-48215000D01*
X62950000Y-53655000D02*
X62950000Y-48215000D01*
X63070000Y-53655000D02*
X63070000Y-48215000D01*
X65405000Y-50935000D02*
X64495000Y-50935000D01*
X54755000Y-48215000D02*
X64495000Y-48215000D01*
X64495000Y-53655000D01*
X54755000Y-53655000D01*
X54755000Y-48215000D01*
%TO.C,R11*%
X162855000Y-67265000D02*
X163185000Y-67265000D01*
X162855000Y-73805000D02*
X162855000Y-67265000D01*
X163185000Y-73805000D02*
X162855000Y-73805000D01*
X165265000Y-73805000D02*
X165595000Y-73805000D01*
X165595000Y-67265000D02*
X165265000Y-67265000D01*
X165595000Y-73805000D02*
X165595000Y-67265000D01*
%TO.C,R8*%
X93355000Y-76465000D02*
X99895000Y-76465000D01*
X93355000Y-76795000D02*
X93355000Y-76465000D01*
X93355000Y-78875000D02*
X93355000Y-79205000D01*
X93355000Y-79205000D02*
X99895000Y-79205000D01*
X99895000Y-76465000D02*
X99895000Y-76795000D01*
X99895000Y-79205000D02*
X99895000Y-78875000D01*
%TO.C,REG1*%
D15*
X109520000Y-39835000D02*
X119680000Y-39835000D01*
X109520000Y-40470000D02*
X119680000Y-40470000D01*
X109520000Y-44915000D02*
X109520000Y-39835000D01*
X109520000Y-44915000D02*
X119680000Y-44915000D01*
X119680000Y-44915000D02*
X119680000Y-39835000D01*
D20*
G36*
X119680000Y-40470000D02*
G01*
X109520000Y-40470000D01*
X109520000Y-39835000D01*
X119680000Y-39835000D01*
X119680000Y-40470000D01*
G37*
%TO.C,Q4*%
D15*
X93166000Y-71970000D02*
X92937400Y-73087600D01*
X94690000Y-71970000D02*
X93166000Y-71970000D01*
X97484000Y-71970000D02*
X95960000Y-71970000D01*
X97712600Y-73087600D02*
X97484000Y-71970000D01*
X97301612Y-74624042D02*
G75*
G02*
X93348388Y-74624042I-1976612J1384041D01*
G01*
%TO.C,CN2*%
X144463000Y-59945000D02*
X144463000Y-49785000D01*
X147257000Y-54103000D02*
X147257000Y-50547000D01*
X147257000Y-59183000D02*
X147257000Y-55627000D01*
X149035000Y-52325000D02*
X145479000Y-52325000D01*
X149035000Y-57405000D02*
X145479000Y-57405000D01*
X149797000Y-54357000D02*
X149797000Y-50293000D01*
X149797000Y-54357000D02*
X149797000Y-50293000D01*
X149797000Y-59437000D02*
X149797000Y-55373000D01*
X149797000Y-59437000D02*
X149797000Y-55373000D01*
X154623000Y-54357000D02*
X154623000Y-50293000D01*
X154623000Y-54357000D02*
X154623000Y-50293000D01*
X154623000Y-59437000D02*
X154623000Y-55373000D01*
X154623000Y-59437000D02*
X154623000Y-55373000D01*
X156655000Y-59945000D02*
X156655000Y-49785000D01*
X157925000Y-50293000D02*
X149797000Y-50293000D01*
X157925000Y-50293000D02*
X149797000Y-50293000D01*
X157925000Y-54357000D02*
X149797000Y-54357000D01*
X157925000Y-54357000D02*
X149797000Y-54357000D01*
X157925000Y-54357000D02*
X157925000Y-50293000D01*
X157925000Y-54357000D02*
X157925000Y-50293000D01*
X157925000Y-55373000D02*
X149797000Y-55373000D01*
X157925000Y-55373000D02*
X149797000Y-55373000D01*
X157925000Y-59437000D02*
X149797000Y-59437000D01*
X157925000Y-59437000D02*
X149797000Y-59437000D01*
X157925000Y-59437000D02*
X157925000Y-55373000D01*
X157925000Y-59437000D02*
X157925000Y-55373000D01*
X158433000Y-49785000D02*
X144463000Y-49785000D01*
X158433000Y-59945000D02*
X144463000Y-59945000D01*
X158433000Y-59945000D02*
X158433000Y-49785000D01*
X149007000Y-52325000D02*
G75*
G02*
X145507000Y-52325000I-1750000J0D01*
G01*
X145507000Y-52325000D02*
G75*
G02*
X149007000Y-52325000I1750000J0D01*
G01*
X149007000Y-57405000D02*
G75*
G02*
X145507000Y-57405000I-1750000J0D01*
G01*
X145507000Y-57405000D02*
G75*
G02*
X149007000Y-57405000I1750000J0D01*
G01*
%TO.C,R7*%
D14*
X149395000Y-62935000D02*
X148435000Y-62935000D01*
X154635000Y-62935000D02*
G75*
G02*
X149395000Y-62935000I-2620000J0D01*
G01*
X149395000Y-62935000D02*
G75*
G02*
X154635000Y-62935000I2620000J0D01*
G01*
%TO.C,J1*%
X154345000Y-78353250D02*
X155725000Y-78353250D01*
X154345000Y-79733250D02*
X154345000Y-78353250D01*
X154345000Y-81003250D02*
X154345000Y-88733250D01*
X154345000Y-81003250D02*
X157105000Y-81003250D01*
X154345000Y-88733250D02*
X157105000Y-88733250D01*
X157105000Y-81003250D02*
X157105000Y-88733250D01*
%TO.C,Furo11*%
D10*
X166250000Y-105115000D02*
G75*
G02*
X160250000Y-105115000I-3000000J0D01*
G01*
X160250000Y-105115000D02*
G75*
G02*
X166250000Y-105115000I3000000J0D01*
G01*
%TO.C,C5*%
D14*
X91697525Y-54647134D02*
X106545525Y-54647134D01*
X91725525Y-54687134D02*
X106517525Y-54687134D01*
X91753525Y-54727134D02*
X106489525Y-54727134D01*
X91782525Y-54767134D02*
X106460525Y-54767134D01*
X91812525Y-54807134D02*
X106430525Y-54807134D01*
X91841525Y-54847134D02*
X106401525Y-54847134D01*
X91871525Y-54887134D02*
X106371525Y-54887134D01*
X91901525Y-54927134D02*
X106341525Y-54927134D01*
X91932525Y-54967134D02*
X106310525Y-54967134D01*
X91963525Y-55007134D02*
X106279525Y-55007134D01*
X91994525Y-55047134D02*
X106248525Y-55047134D01*
X92026525Y-55087134D02*
X106216525Y-55087134D01*
X92058525Y-55127134D02*
X106184525Y-55127134D01*
X92090525Y-55167134D02*
X106152525Y-55167134D01*
X92123525Y-55207134D02*
X106119525Y-55207134D01*
X92156525Y-55247134D02*
X106086525Y-55247134D01*
X92190525Y-55287134D02*
X106052525Y-55287134D01*
X92224525Y-55327134D02*
X106018525Y-55327134D01*
X92258525Y-55367134D02*
X105984525Y-55367134D01*
X92293525Y-55407134D02*
X105949525Y-55407134D01*
X92328525Y-55447134D02*
X105914525Y-55447134D01*
X92363525Y-55487134D02*
X105879525Y-55487134D01*
X92399525Y-55527134D02*
X105843525Y-55527134D01*
X92436525Y-55567134D02*
X105806525Y-55567134D01*
X92473525Y-55607134D02*
X105769525Y-55607134D01*
X92510525Y-55647134D02*
X105732525Y-55647134D01*
X92548525Y-55687134D02*
X105694525Y-55687134D01*
X92586525Y-55727134D02*
X105656525Y-55727134D01*
X92625525Y-55767134D02*
X105617525Y-55767134D01*
X92664525Y-55807134D02*
X105578525Y-55807134D01*
X92703525Y-55847134D02*
X105539525Y-55847134D01*
X92744525Y-55887134D02*
X105498525Y-55887134D01*
X92784525Y-55927134D02*
X105458525Y-55927134D01*
X92825525Y-55967134D02*
X105417525Y-55967134D01*
X92867525Y-56007134D02*
X105375525Y-56007134D01*
X92909525Y-56047134D02*
X105333525Y-56047134D01*
X92952525Y-56087134D02*
X105290525Y-56087134D01*
X92995525Y-56127134D02*
X105247525Y-56127134D01*
X93039525Y-56167134D02*
X105203525Y-56167134D01*
X93084525Y-56207134D02*
X105158525Y-56207134D01*
X93129525Y-56247134D02*
X105113525Y-56247134D01*
X93174525Y-56287134D02*
X105068525Y-56287134D01*
X93221525Y-56327134D02*
X105021525Y-56327134D01*
X93268525Y-56367134D02*
X104974525Y-56367134D01*
X93315525Y-56407134D02*
X104927525Y-56407134D01*
X93363525Y-56447134D02*
X104879525Y-56447134D01*
X93412525Y-56487134D02*
X104830525Y-56487134D01*
X93462525Y-56527134D02*
X104780525Y-56527134D01*
X93512525Y-56567134D02*
X104730525Y-56567134D01*
X93563525Y-56607134D02*
X104679525Y-56607134D01*
X93615525Y-56647134D02*
X104627525Y-56647134D01*
X93668525Y-56687134D02*
X104574525Y-56687134D01*
X93721525Y-56727134D02*
X104521525Y-56727134D01*
X93775525Y-56767134D02*
X104467525Y-56767134D01*
X93830525Y-56807134D02*
X104412525Y-56807134D01*
X93886525Y-56847134D02*
X104356525Y-56847134D01*
X93943525Y-56887134D02*
X104299525Y-56887134D01*
X94001525Y-56927134D02*
X104241525Y-56927134D01*
X94060525Y-56967134D02*
X104182525Y-56967134D01*
X94120525Y-57007134D02*
X104122525Y-57007134D01*
X94181525Y-57047134D02*
X104061525Y-57047134D01*
X94242525Y-57087134D02*
X104000525Y-57087134D01*
X94305525Y-57127134D02*
X103937525Y-57127134D01*
X94370525Y-57167134D02*
X103872525Y-57167134D01*
X94435525Y-57207134D02*
X103807525Y-57207134D01*
X94502525Y-57247134D02*
X103740525Y-57247134D01*
X94570525Y-57287134D02*
X103672525Y-57287134D01*
X94639525Y-57327134D02*
X103603525Y-57327134D01*
X94710525Y-57367134D02*
X103532525Y-57367134D01*
X94782525Y-57407134D02*
X103460525Y-57407134D01*
X94856525Y-57447134D02*
X103386525Y-57447134D01*
X94932525Y-57487134D02*
X103310525Y-57487134D01*
X95009525Y-57527134D02*
X103233525Y-57527134D01*
X95088525Y-57567134D02*
X103154525Y-57567134D01*
X95169525Y-57607134D02*
X103073525Y-57607134D01*
X95252525Y-57647134D02*
X102990525Y-57647134D01*
X95338525Y-57687134D02*
X102904525Y-57687134D01*
X95426525Y-57727134D02*
X102816525Y-57727134D01*
X95516525Y-57767134D02*
X102726525Y-57767134D01*
X95609525Y-57807134D02*
X102633525Y-57807134D01*
X95705525Y-57847134D02*
X102537525Y-57847134D01*
X95805525Y-57887134D02*
X102437525Y-57887134D01*
X95908525Y-57927134D02*
X102334525Y-57927134D01*
X96014525Y-57967134D02*
X102228525Y-57967134D01*
X96125525Y-58007134D02*
X102117525Y-58007134D01*
X96241525Y-58047134D02*
X102001525Y-58047134D01*
X96362525Y-58087134D02*
X101880525Y-58087134D01*
X96490525Y-58127134D02*
X101752525Y-58127134D01*
X96624525Y-58167134D02*
X101618525Y-58167134D01*
X96766525Y-58207134D02*
X101476525Y-58207134D01*
X96919525Y-58247134D02*
X101323525Y-58247134D01*
X97083525Y-58287134D02*
X101159525Y-58287134D01*
X97262525Y-58327134D02*
X100980525Y-58327134D01*
X97460525Y-58367134D02*
X100782525Y-58367134D01*
X97686525Y-58407134D02*
X100556525Y-58407134D01*
X97956525Y-58447134D02*
X100286525Y-58447134D01*
X98308525Y-58487134D02*
X99934525Y-58487134D01*
X99161525Y-58527134D02*
X99081525Y-58527134D01*
D15*
X99169025Y-60939634D02*
X99169025Y-59034634D01*
X100121525Y-59987134D02*
X98216525Y-59987134D01*
D14*
X108241525Y-49437134D02*
G75*
G02*
X90001525Y-49437134I-9120000J0D01*
G01*
X90001525Y-49437134D02*
G75*
G02*
X108241525Y-49437134I9120000J0D01*
G01*
%TO.C,C9*%
X111655000Y-61015000D02*
X111992000Y-61015000D01*
X111655000Y-66255000D02*
X111655000Y-61015000D01*
X111992000Y-66255000D02*
X111655000Y-66255000D01*
X114058000Y-61015000D02*
X114395000Y-61015000D01*
X114395000Y-61015000D02*
X114395000Y-66255000D01*
X114395000Y-66255000D02*
X114058000Y-66255000D01*
%TO.C,LD1*%
D19*
X158392499Y-46939102D02*
X158392499Y-44789102D01*
D15*
X158392499Y-44798940D02*
G75*
G02*
X165067500Y-45812271I3242153J-1134737D01*
G01*
X165067499Y-45843019D02*
G75*
G02*
X158409788Y-46977756I-3424995J-3301D01*
G01*
%TO.C,D2*%
D14*
X53845000Y-57935000D02*
X54755000Y-57935000D01*
X56180000Y-55215000D02*
X56180000Y-60655000D01*
X56300000Y-55215000D02*
X56300000Y-60655000D01*
X56420000Y-55215000D02*
X56420000Y-60655000D01*
X65405000Y-57935000D02*
X64495000Y-57935000D01*
X54755000Y-55215000D02*
X64495000Y-55215000D01*
X64495000Y-60655000D01*
X54755000Y-60655000D01*
X54755000Y-55215000D01*
%TD*%
M02*
