M48
; DRILL file KiCad 10.0.0 date 2026-05-12T12:02:52
; FORMAT={-:-/ absolute / metric / decimal}
; #@! TF.CreationDate,2026-05-12T12:02:52-03:00
; #@! TF.GenerationSoftware,Kicad,Pcbnew,10.0.0
; #@! TF.FileFunction,Plated,1,2,PTH
FMAT,2
METRIC
; #@! TA.AperFunction,Plated,PTH,ViaDrill
T1C1.050
; #@! TA.AperFunction,Plated,PTH,ComponentDrill
T2C1.050
; #@! TA.AperFunction,Plated,PTH,ComponentDrill
T3C1.100
; #@! TA.AperFunction,Plated,PTH,ComponentDrill
T4C1.200
; #@! TA.AperFunction,Plated,PTH,ComponentDrill
T5C1.600
%
G90
G05
T1
X97.076Y-103.015
X97.155Y-91.535
X99.925Y-103.085
X99.996Y-91.759
X111.125Y-72.935
X155.125Y-91.135
X155.125Y-101.435
X155.825Y-73.035
X158.125Y-101.435
X158.175Y-91.235
X161.157Y-82.235
X161.157Y-101.403
T2
X53.185Y-78.962
X58.265Y-78.962
X82.881Y-92.394
X82.881Y-97.474
X92.075Y-88.635
X92.785Y-73.875
X92.815Y-77.835
X92.815Y-81.635
X94.615Y-88.635
X95.325Y-71.335
X97.155Y-88.635
X97.625Y-63.565
X97.625Y-66.105
X97.865Y-73.875
X99.695Y-88.635
X100.435Y-77.835
X100.435Y-81.635
X102.235Y-88.635
X103.285Y-80.575
X104.775Y-88.635
X105.825Y-78.035
X106.225Y-63.595
X106.225Y-66.135
X108.365Y-80.575
X108.525Y-84.135
X108.525Y-95.035
X108.525Y-100.035
X108.55Y-87.612
X108.55Y-92.057
X112.06Y-42.375
X112.925Y-50.695
X112.925Y-53.235
X113.025Y-61.135
X113.025Y-66.135
X113.525Y-84.135
X114.6Y-42.375
X114.9Y-87.612
X114.9Y-92.057
X116.125Y-97.335
X116.125Y-99.875
X117.14Y-42.375
X117.915Y-75.025
X117.915Y-77.565
X117.915Y-80.105
X117.915Y-82.645
X120.625Y-50.135
X120.625Y-54.035
X121.23Y-70.135
X122.025Y-92.425
X122.025Y-100.045
X123.75Y-43.105
X123.77Y-70.135
X125.535Y-75.025
X125.535Y-77.565
X125.535Y-80.105
X125.535Y-82.645
X125.625Y-50.135
X125.825Y-92.735
X125.825Y-97.735
X126.29Y-43.105
X128.245Y-54.035
X128.83Y-43.105
X129.725Y-80.09
X129.725Y-82.63
X130.325Y-50.235
X133.615Y-66.935
X133.615Y-70.565
X135.325Y-50.235
X135.382Y-40.595
X135.382Y-45.675
X137.922Y-43.135
X140.73Y-51.849
X140.73Y-56.849
X140.73Y-61.849
X141.235Y-66.935
X141.235Y-70.565
X147.145Y-38.265
X147.145Y-40.805
X151.575Y-52.325
X151.575Y-57.405
X155.725Y-79.733
X155.725Y-82.273
X155.725Y-84.813
X155.725Y-87.353
X159.152Y-45.739
X160.825Y-66.705
X160.825Y-74.325
X161.692Y-45.739
X164.225Y-66.725
X164.225Y-74.345
X164.232Y-45.739
T3
X120.545Y-57.435
X130.705Y-57.435
T4
X79.959Y-45.687
X79.959Y-53.187
X99.122Y-45.687
X99.122Y-53.187
X146.395Y-46.745
X146.935Y-62.935
X146.995Y-68.695
X151.475Y-46.745
X152.015Y-62.935
X152.075Y-68.695
T5
X52.005Y-44.435
X52.005Y-50.935
X52.005Y-57.935
X52.005Y-64.435
X67.245Y-44.435
X67.245Y-50.935
X67.245Y-57.935
X67.245Y-64.435
M30
