%TF.GenerationSoftware,KiCad,Pcbnew,10.0.0*%
%TF.CreationDate,2026-05-08T14:32:24-03:00*%
%TF.ProjectId,PCB-FLM-FTE-12V,5043422d-464c-44d2-9d46-54452d313256,01*%
%TF.SameCoordinates,Original*%
%TF.FileFunction,Soldermask,Bot*%
%TF.FilePolarity,Negative*%
%FSLAX46Y46*%
G04 Gerber Fmt 4.6, Leading zero omitted, Abs format (unit mm)*
G04 Created by KiCad (PCBNEW 10.0.0) date 2026-05-08 14:32:24*
%MOMM*%
%LPD*%
G01*
G04 APERTURE LIST*
G04 Aperture macros list*
%AMRoundRect*
0 Rectangle with rounded corners*
0 $1 Rounding radius*
0 $2 $3 $4 $5 $6 $7 $8 $9 X,Y pos of 4 corners*
0 Add a 4 corners polygon primitive as box body*
4,1,4,$2,$3,$4,$5,$6,$7,$8,$9,$2,$3,0*
0 Add four circle primitives for the rounded corners*
1,1,$1+$1,$2,$3*
1,1,$1+$1,$4,$5*
1,1,$1+$1,$6,$7*
1,1,$1+$1,$8,$9*
0 Add four rect primitives between the rounded corners*
20,1,$1+$1,$2,$3,$4,$5,0*
20,1,$1+$1,$4,$5,$6,$7,0*
20,1,$1+$1,$6,$7,$8,$9,0*
20,1,$1+$1,$8,$9,$2,$3,0*%
G04 Aperture macros list end*
%ADD10C,2.100000*%
%ADD11C,3.200000*%
%ADD12RoundRect,0.250000X-1.350000X-1.350000X1.350000X-1.350000X1.350000X1.350000X-1.350000X1.350000X0*%
%ADD13O,1.600000X3.000000*%
%ADD14R,7.300000X10.200000*%
%ADD15R,2.600000X1.000000*%
%ADD16R,3.000000X1.600000*%
%ADD17R,6.700000X6.700000*%
%ADD18R,5.400000X2.900000*%
%ADD19R,2.260000X2.160000*%
%ADD20RoundRect,0.050800X-0.750000X0.450000X-0.750000X-0.450000X0.750000X-0.450000X0.750000X0.450000X0*%
%ADD21RoundRect,0.050800X0.450000X0.750000X-0.450000X0.750000X-0.450000X-0.750000X0.450000X-0.750000X0*%
%ADD22C,3.000000*%
%ADD23RoundRect,0.250000X1.350000X1.350000X-1.350000X1.350000X-1.350000X-1.350000X1.350000X-1.350000X0*%
%ADD24C,2.400000*%
%ADD25RoundRect,0.250001X0.949999X-0.949999X0.949999X0.949999X-0.949999X0.949999X-0.949999X-0.949999X0*%
%ADD26RoundRect,0.291668X1.108332X-1.108332X1.108332X1.108332X-1.108332X1.108332X-1.108332X-1.108332X0*%
%ADD27O,3.000000X1.600000*%
%ADD28C,2.200000*%
%ADD29RoundRect,0.249999X0.850001X0.850001X-0.850001X0.850001X-0.850001X-0.850001X0.850001X-0.850001X0*%
%TA.AperFunction,Profile*%
%ADD30C,0.100000*%
%TD*%
G04 APERTURE END LIST*
D10*
%TO.C,C9*%
X113025000Y-61135000D03*
X113025000Y-66135000D03*
%TD*%
D11*
%TO.C,D2*%
X71600000Y-57935000D03*
D12*
X56360000Y-57935000D03*
%TD*%
D13*
%TO.C,LD1*%
X161692499Y-45739102D03*
X164232499Y-45739102D03*
X159152499Y-45739102D03*
%TD*%
D14*
%TO.C,REG2*%
X73625000Y-75935000D03*
D15*
X84175000Y-80260000D03*
X84175000Y-78128750D03*
X84175000Y-75997500D03*
X84175000Y-73866250D03*
X84175000Y-71735000D03*
%TD*%
D16*
%TO.C,REG3*%
X94588000Y-95635000D03*
D17*
X101238000Y-97935000D03*
D16*
X94588000Y-100235000D03*
%TD*%
D18*
%TO.C,L1*%
X68033351Y-101190482D03*
X68033351Y-91290482D03*
%TD*%
D19*
%TO.C,D6*%
X58993351Y-96374482D03*
X58993351Y-91474482D03*
%TD*%
D20*
%TO.C,U1*%
X133835000Y-96055000D03*
X133835000Y-94785000D03*
X133835000Y-90975000D03*
X133835000Y-87165000D03*
X133835000Y-80815000D03*
D21*
X136870000Y-79565000D03*
X148300000Y-79565000D03*
D20*
X151335000Y-80815000D03*
X151335000Y-83355000D03*
X151335000Y-85895000D03*
X151335000Y-88435000D03*
X151335000Y-92245000D03*
X151335000Y-93515000D03*
X151335000Y-96055000D03*
%TD*%
D13*
%TO.C,RG1*%
X121230000Y-70135000D03*
X123770000Y-70135000D03*
%TD*%
D10*
%TO.C,CN2*%
X151952000Y-57795000D03*
X151952000Y-62875000D03*
%TD*%
%TO.C,R11*%
X164225000Y-66725000D03*
X164225000Y-74345000D03*
%TD*%
%TO.C,Q4*%
X91687500Y-73875000D03*
X94227500Y-71335000D03*
X96767500Y-73875000D03*
%TD*%
%TO.C,Q3*%
X102467500Y-80575000D03*
X105007500Y-78035000D03*
X107547500Y-80575000D03*
%TD*%
D22*
%TO.C,Furo11*%
X50100000Y-105195000D03*
%TD*%
D10*
%TO.C,R8*%
X99127500Y-77857500D03*
X91507500Y-77857500D03*
%TD*%
D11*
%TO.C,D3*%
X56360000Y-50935000D03*
D23*
X71600000Y-50935000D03*
%TD*%
D13*
%TO.C,REG1*%
X117140000Y-42375000D03*
X114600000Y-42375000D03*
X112060000Y-42375000D03*
%TD*%
D22*
%TO.C,Furo11*%
X163250000Y-105115000D03*
%TD*%
D24*
%TO.C,C5*%
X100290000Y-45710000D03*
D25*
X100290000Y-53210000D03*
%TD*%
D13*
%TO.C,Q1*%
X128830000Y-43105000D03*
X126290000Y-43105000D03*
X123750000Y-43105000D03*
%TD*%
D10*
%TO.C,ST1*%
X114900000Y-87612500D03*
X108550000Y-87612500D03*
X108550000Y-92057500D03*
X114900000Y-92057500D03*
%TD*%
D24*
%TO.C,C1*%
X83430000Y-45710000D03*
D26*
X83430000Y-53210000D03*
%TD*%
D27*
%TO.C,RF1*%
X129725000Y-82630000D03*
X129725000Y-80090000D03*
%TD*%
D10*
%TO.C,C4*%
X125625000Y-50135000D03*
X120625000Y-50135000D03*
%TD*%
D11*
%TO.C,D4*%
X56360000Y-64435000D03*
D23*
X71600000Y-64435000D03*
%TD*%
D10*
%TO.C,C11*%
X125825000Y-92735000D03*
X125825000Y-97735000D03*
%TD*%
D13*
%TO.C,J2*%
X104775000Y-88635000D03*
X102235000Y-88635000D03*
X99695000Y-88635000D03*
X97155000Y-88635000D03*
X94615000Y-88635000D03*
X92075000Y-88635000D03*
%TD*%
D10*
%TO.C,R9*%
X91507500Y-81882500D03*
X99127500Y-81882500D03*
%TD*%
%TO.C,C13*%
X108525000Y-84135000D03*
X113525000Y-84135000D03*
%TD*%
D11*
%TO.C,D1*%
X71600000Y-44435000D03*
D12*
X56360000Y-44435000D03*
%TD*%
D24*
%TO.C,R2*%
X146345000Y-51635000D03*
X151425000Y-51635000D03*
%TD*%
D10*
%TO.C,R10*%
X160825000Y-66705000D03*
X160825000Y-74325000D03*
%TD*%
D27*
%TO.C,C8*%
X106225000Y-63595000D03*
X106225000Y-66135000D03*
%TD*%
D22*
%TO.C,Furo11*%
X50070000Y-36975000D03*
%TD*%
D27*
%TO.C,C12*%
X116125000Y-99875000D03*
X116125000Y-97335000D03*
%TD*%
%TO.C,C7*%
X112925000Y-50695000D03*
X112925000Y-53235000D03*
%TD*%
D10*
%TO.C,R3*%
X133615000Y-66935000D03*
X141235000Y-66935000D03*
%TD*%
D22*
%TO.C,Furo11*%
X163290000Y-36995000D03*
%TD*%
D10*
%TO.C,RV1*%
X140730000Y-51849000D03*
X140730000Y-56849000D03*
X140730000Y-61849000D03*
%TD*%
D27*
%TO.C,U2*%
X117915000Y-82645000D03*
X117915000Y-80105000D03*
X117915000Y-77565000D03*
X117915000Y-75025000D03*
X125535000Y-75025000D03*
X125535000Y-77565000D03*
X125535000Y-80105000D03*
X125535000Y-82645000D03*
%TD*%
D10*
%TO.C,Q2*%
X135382500Y-40595000D03*
X137922500Y-43135000D03*
X135382500Y-45675000D03*
%TD*%
%TO.C,C10*%
X108525000Y-100035000D03*
X108525000Y-95035000D03*
%TD*%
%TO.C,C6*%
X82881485Y-97474393D03*
X82881485Y-92394393D03*
%TD*%
%TO.C,CN1*%
X62205000Y-79135000D03*
X57125000Y-79135000D03*
%TD*%
%TO.C,R1*%
X128245000Y-54035000D03*
X120625000Y-54035000D03*
%TD*%
D28*
%TO.C,D5*%
X120545000Y-57435000D03*
D29*
X130705000Y-57435000D03*
%TD*%
D10*
%TO.C,R13*%
X122025000Y-92425000D03*
X122025000Y-100045000D03*
%TD*%
%TO.C,C2*%
X130325000Y-50235000D03*
X135325000Y-50235000D03*
%TD*%
D24*
%TO.C,R6*%
X151915000Y-69935000D03*
X146835000Y-69935000D03*
%TD*%
D10*
%TO.C,R12*%
X141235000Y-70565000D03*
X133615000Y-70565000D03*
%TD*%
D13*
%TO.C,C3*%
X148899236Y-44414866D03*
X151439236Y-44414866D03*
%TD*%
D27*
%TO.C,J1*%
X155725000Y-87353250D03*
X155725000Y-84813250D03*
X155725000Y-82273250D03*
X155725000Y-79733250D03*
%TD*%
%TO.C,J3*%
X97625000Y-63565000D03*
X97625000Y-66105000D03*
%TD*%
D10*
X161156666Y-82235000D03*
X155125000Y-101435000D03*
X158125000Y-101435000D03*
X99925000Y-103085002D03*
X97075863Y-103014760D03*
X161156666Y-101403334D03*
X111125000Y-72935000D03*
X155825000Y-73035000D03*
X99996209Y-91758717D03*
X155125000Y-91135000D03*
X97155000Y-91535000D03*
X158175003Y-91235000D03*
D30*
X46706666Y-33585333D02*
X166706666Y-33585333D01*
X166706666Y-108585333D01*
X46706666Y-108585333D01*
X46706666Y-33585333D01*
M02*
