%TF.GenerationSoftware,KiCad,Pcbnew,10.0.0*%
%TF.CreationDate,2026-05-08T14:32:24-03:00*%
%TF.ProjectId,PCB-FLM-FTE-12V,5043422d-464c-44d2-9d46-54452d313256,01*%
%TF.SameCoordinates,Original*%
%TF.FileFunction,Legend,Top*%
%TF.FilePolarity,Positive*%
%FSLAX46Y46*%
G04 Gerber Fmt 4.6, Leading zero omitted, Abs format (unit mm)*
G04 Created by KiCad (PCBNEW 10.0.0) date 2026-05-08 14:32:24*
%MOMM*%
%LPD*%
G01*
G04 APERTURE LIST*
%ADD10C,0.150000*%
%ADD11C,0.200000*%
%ADD12C,0.300000*%
%ADD13C,0.152400*%
%ADD14C,0.120000*%
%ADD15C,0.254000*%
%ADD16C,0.250000*%
%ADD17C,0.000000*%
%ADD18C,0.248920*%
%ADD19C,0.203200*%
%ADD20C,0.127000*%
%TA.AperFunction,Profile*%
%ADD21C,0.100000*%
%TD*%
G04 APERTURE END LIST*
D10*
X161145000Y-82175000D02*
X161155000Y-101535000D01*
X155135000Y-101455000D02*
X155135000Y-91045000D01*
X158195000Y-91225000D02*
X158195000Y-101455000D01*
X162367493Y-91524819D02*
X162367493Y-92239104D01*
X162367493Y-92239104D02*
X162319874Y-92381961D01*
X162319874Y-92381961D02*
X162224636Y-92477200D01*
X162224636Y-92477200D02*
X162081779Y-92524819D01*
X162081779Y-92524819D02*
X161986541Y-92524819D01*
X162843684Y-92524819D02*
X162843684Y-91524819D01*
X162843684Y-91524819D02*
X163224636Y-91524819D01*
X163224636Y-91524819D02*
X163319874Y-91572438D01*
X163319874Y-91572438D02*
X163367493Y-91620057D01*
X163367493Y-91620057D02*
X163415112Y-91715295D01*
X163415112Y-91715295D02*
X163415112Y-91858152D01*
X163415112Y-91858152D02*
X163367493Y-91953390D01*
X163367493Y-91953390D02*
X163319874Y-92001009D01*
X163319874Y-92001009D02*
X163224636Y-92048628D01*
X163224636Y-92048628D02*
X162843684Y-92048628D01*
X163748446Y-91524819D02*
X164367493Y-91524819D01*
X164367493Y-91524819D02*
X164034160Y-91905771D01*
X164034160Y-91905771D02*
X164177017Y-91905771D01*
X164177017Y-91905771D02*
X164272255Y-91953390D01*
X164272255Y-91953390D02*
X164319874Y-92001009D01*
X164319874Y-92001009D02*
X164367493Y-92096247D01*
X164367493Y-92096247D02*
X164367493Y-92334342D01*
X164367493Y-92334342D02*
X164319874Y-92429580D01*
X164319874Y-92429580D02*
X164272255Y-92477200D01*
X164272255Y-92477200D02*
X164177017Y-92524819D01*
X164177017Y-92524819D02*
X163891303Y-92524819D01*
X163891303Y-92524819D02*
X163796065Y-92477200D01*
X163796065Y-92477200D02*
X163748446Y-92429580D01*
X97145000Y-91515000D02*
X97135000Y-103165000D01*
X99915000Y-103075000D02*
X99915000Y-91675000D01*
X111125000Y-72925000D02*
X155865000Y-72955000D01*
D11*
X84983720Y-107308528D02*
X84983720Y-105808528D01*
X84983720Y-105808528D02*
X85555149Y-105808528D01*
X85555149Y-105808528D02*
X85698006Y-105879957D01*
X85698006Y-105879957D02*
X85769435Y-105951385D01*
X85769435Y-105951385D02*
X85840863Y-106094242D01*
X85840863Y-106094242D02*
X85840863Y-106308528D01*
X85840863Y-106308528D02*
X85769435Y-106451385D01*
X85769435Y-106451385D02*
X85698006Y-106522814D01*
X85698006Y-106522814D02*
X85555149Y-106594242D01*
X85555149Y-106594242D02*
X84983720Y-106594242D01*
X87340863Y-107165671D02*
X87269435Y-107237100D01*
X87269435Y-107237100D02*
X87055149Y-107308528D01*
X87055149Y-107308528D02*
X86912292Y-107308528D01*
X86912292Y-107308528D02*
X86698006Y-107237100D01*
X86698006Y-107237100D02*
X86555149Y-107094242D01*
X86555149Y-107094242D02*
X86483720Y-106951385D01*
X86483720Y-106951385D02*
X86412292Y-106665671D01*
X86412292Y-106665671D02*
X86412292Y-106451385D01*
X86412292Y-106451385D02*
X86483720Y-106165671D01*
X86483720Y-106165671D02*
X86555149Y-106022814D01*
X86555149Y-106022814D02*
X86698006Y-105879957D01*
X86698006Y-105879957D02*
X86912292Y-105808528D01*
X86912292Y-105808528D02*
X87055149Y-105808528D01*
X87055149Y-105808528D02*
X87269435Y-105879957D01*
X87269435Y-105879957D02*
X87340863Y-105951385D01*
X88483720Y-106522814D02*
X88698006Y-106594242D01*
X88698006Y-106594242D02*
X88769435Y-106665671D01*
X88769435Y-106665671D02*
X88840863Y-106808528D01*
X88840863Y-106808528D02*
X88840863Y-107022814D01*
X88840863Y-107022814D02*
X88769435Y-107165671D01*
X88769435Y-107165671D02*
X88698006Y-107237100D01*
X88698006Y-107237100D02*
X88555149Y-107308528D01*
X88555149Y-107308528D02*
X87983720Y-107308528D01*
X87983720Y-107308528D02*
X87983720Y-105808528D01*
X87983720Y-105808528D02*
X88483720Y-105808528D01*
X88483720Y-105808528D02*
X88626578Y-105879957D01*
X88626578Y-105879957D02*
X88698006Y-105951385D01*
X88698006Y-105951385D02*
X88769435Y-106094242D01*
X88769435Y-106094242D02*
X88769435Y-106237100D01*
X88769435Y-106237100D02*
X88698006Y-106379957D01*
X88698006Y-106379957D02*
X88626578Y-106451385D01*
X88626578Y-106451385D02*
X88483720Y-106522814D01*
X88483720Y-106522814D02*
X87983720Y-106522814D01*
X89483720Y-106737100D02*
X90626578Y-106737100D01*
X91840863Y-106522814D02*
X91340863Y-106522814D01*
X91340863Y-107308528D02*
X91340863Y-105808528D01*
X91340863Y-105808528D02*
X92055149Y-105808528D01*
X93340863Y-107308528D02*
X92626577Y-107308528D01*
X92626577Y-107308528D02*
X92626577Y-105808528D01*
X93840863Y-107308528D02*
X93840863Y-105808528D01*
X93840863Y-105808528D02*
X94340863Y-106879957D01*
X94340863Y-106879957D02*
X94840863Y-105808528D01*
X94840863Y-105808528D02*
X94840863Y-107308528D01*
X95555149Y-106737100D02*
X96698007Y-106737100D01*
X97912292Y-106522814D02*
X97412292Y-106522814D01*
X97412292Y-107308528D02*
X97412292Y-105808528D01*
X97412292Y-105808528D02*
X98126578Y-105808528D01*
X98483721Y-105808528D02*
X99340864Y-105808528D01*
X98912292Y-107308528D02*
X98912292Y-105808528D01*
X99840863Y-106522814D02*
X100340863Y-106522814D01*
X100555149Y-107308528D02*
X99840863Y-107308528D01*
X99840863Y-107308528D02*
X99840863Y-105808528D01*
X99840863Y-105808528D02*
X100555149Y-105808528D01*
X101983721Y-107308528D02*
X101126578Y-107308528D01*
X101555149Y-107308528D02*
X101555149Y-105808528D01*
X101555149Y-105808528D02*
X101412292Y-106022814D01*
X101412292Y-106022814D02*
X101269435Y-106165671D01*
X101269435Y-106165671D02*
X101126578Y-106237100D01*
X102555149Y-105951385D02*
X102626577Y-105879957D01*
X102626577Y-105879957D02*
X102769435Y-105808528D01*
X102769435Y-105808528D02*
X103126577Y-105808528D01*
X103126577Y-105808528D02*
X103269435Y-105879957D01*
X103269435Y-105879957D02*
X103340863Y-105951385D01*
X103340863Y-105951385D02*
X103412292Y-106094242D01*
X103412292Y-106094242D02*
X103412292Y-106237100D01*
X103412292Y-106237100D02*
X103340863Y-106451385D01*
X103340863Y-106451385D02*
X102483720Y-107308528D01*
X102483720Y-107308528D02*
X103412292Y-107308528D01*
X103840863Y-105808528D02*
X104340863Y-107308528D01*
X104340863Y-107308528D02*
X104840863Y-105808528D01*
X105340862Y-106737100D02*
X106483720Y-106737100D01*
X107483720Y-105808528D02*
X107626577Y-105808528D01*
X107626577Y-105808528D02*
X107769434Y-105879957D01*
X107769434Y-105879957D02*
X107840863Y-105951385D01*
X107840863Y-105951385D02*
X107912291Y-106094242D01*
X107912291Y-106094242D02*
X107983720Y-106379957D01*
X107983720Y-106379957D02*
X107983720Y-106737100D01*
X107983720Y-106737100D02*
X107912291Y-107022814D01*
X107912291Y-107022814D02*
X107840863Y-107165671D01*
X107840863Y-107165671D02*
X107769434Y-107237100D01*
X107769434Y-107237100D02*
X107626577Y-107308528D01*
X107626577Y-107308528D02*
X107483720Y-107308528D01*
X107483720Y-107308528D02*
X107340863Y-107237100D01*
X107340863Y-107237100D02*
X107269434Y-107165671D01*
X107269434Y-107165671D02*
X107198005Y-107022814D01*
X107198005Y-107022814D02*
X107126577Y-106737100D01*
X107126577Y-106737100D02*
X107126577Y-106379957D01*
X107126577Y-106379957D02*
X107198005Y-106094242D01*
X107198005Y-106094242D02*
X107269434Y-105951385D01*
X107269434Y-105951385D02*
X107340863Y-105879957D01*
X107340863Y-105879957D02*
X107483720Y-105808528D01*
X109412291Y-107308528D02*
X108555148Y-107308528D01*
X108983719Y-107308528D02*
X108983719Y-105808528D01*
X108983719Y-105808528D02*
X108840862Y-106022814D01*
X108840862Y-106022814D02*
X108698005Y-106165671D01*
X108698005Y-106165671D02*
X108555148Y-106237100D01*
D10*
X154157493Y-102884819D02*
X154157493Y-103599104D01*
X154157493Y-103599104D02*
X154109874Y-103741961D01*
X154109874Y-103741961D02*
X154014636Y-103837200D01*
X154014636Y-103837200D02*
X153871779Y-103884819D01*
X153871779Y-103884819D02*
X153776541Y-103884819D01*
X154633684Y-103884819D02*
X154633684Y-102884819D01*
X154633684Y-102884819D02*
X155014636Y-102884819D01*
X155014636Y-102884819D02*
X155109874Y-102932438D01*
X155109874Y-102932438D02*
X155157493Y-102980057D01*
X155157493Y-102980057D02*
X155205112Y-103075295D01*
X155205112Y-103075295D02*
X155205112Y-103218152D01*
X155205112Y-103218152D02*
X155157493Y-103313390D01*
X155157493Y-103313390D02*
X155109874Y-103361009D01*
X155109874Y-103361009D02*
X155014636Y-103408628D01*
X155014636Y-103408628D02*
X154633684Y-103408628D01*
X155586065Y-102980057D02*
X155633684Y-102932438D01*
X155633684Y-102932438D02*
X155728922Y-102884819D01*
X155728922Y-102884819D02*
X155967017Y-102884819D01*
X155967017Y-102884819D02*
X156062255Y-102932438D01*
X156062255Y-102932438D02*
X156109874Y-102980057D01*
X156109874Y-102980057D02*
X156157493Y-103075295D01*
X156157493Y-103075295D02*
X156157493Y-103170533D01*
X156157493Y-103170533D02*
X156109874Y-103313390D01*
X156109874Y-103313390D02*
X155538446Y-103884819D01*
X155538446Y-103884819D02*
X156157493Y-103884819D01*
X157307493Y-102884819D02*
X157307493Y-103599104D01*
X157307493Y-103599104D02*
X157259874Y-103741961D01*
X157259874Y-103741961D02*
X157164636Y-103837200D01*
X157164636Y-103837200D02*
X157021779Y-103884819D01*
X157021779Y-103884819D02*
X156926541Y-103884819D01*
X157783684Y-103884819D02*
X157783684Y-102884819D01*
X157783684Y-102884819D02*
X158164636Y-102884819D01*
X158164636Y-102884819D02*
X158259874Y-102932438D01*
X158259874Y-102932438D02*
X158307493Y-102980057D01*
X158307493Y-102980057D02*
X158355112Y-103075295D01*
X158355112Y-103075295D02*
X158355112Y-103218152D01*
X158355112Y-103218152D02*
X158307493Y-103313390D01*
X158307493Y-103313390D02*
X158259874Y-103361009D01*
X158259874Y-103361009D02*
X158164636Y-103408628D01*
X158164636Y-103408628D02*
X157783684Y-103408628D01*
X159307493Y-103884819D02*
X158736065Y-103884819D01*
X159021779Y-103884819D02*
X159021779Y-102884819D01*
X159021779Y-102884819D02*
X158926541Y-103027676D01*
X158926541Y-103027676D02*
X158831303Y-103122914D01*
X158831303Y-103122914D02*
X158736065Y-103170533D01*
X94347493Y-97354819D02*
X94347493Y-98069104D01*
X94347493Y-98069104D02*
X94299874Y-98211961D01*
X94299874Y-98211961D02*
X94204636Y-98307200D01*
X94204636Y-98307200D02*
X94061779Y-98354819D01*
X94061779Y-98354819D02*
X93966541Y-98354819D01*
X94823684Y-98354819D02*
X94823684Y-97354819D01*
X94823684Y-97354819D02*
X95204636Y-97354819D01*
X95204636Y-97354819D02*
X95299874Y-97402438D01*
X95299874Y-97402438D02*
X95347493Y-97450057D01*
X95347493Y-97450057D02*
X95395112Y-97545295D01*
X95395112Y-97545295D02*
X95395112Y-97688152D01*
X95395112Y-97688152D02*
X95347493Y-97783390D01*
X95347493Y-97783390D02*
X95299874Y-97831009D01*
X95299874Y-97831009D02*
X95204636Y-97878628D01*
X95204636Y-97878628D02*
X94823684Y-97878628D01*
X96347493Y-98354819D02*
X95776065Y-98354819D01*
X96061779Y-98354819D02*
X96061779Y-97354819D01*
X96061779Y-97354819D02*
X95966541Y-97497676D01*
X95966541Y-97497676D02*
X95871303Y-97592914D01*
X95871303Y-97592914D02*
X95776065Y-97640533D01*
X92459819Y-86598220D02*
X91459819Y-86598220D01*
X91459819Y-86598220D02*
X91459819Y-86360125D01*
X91459819Y-86360125D02*
X91507438Y-86217268D01*
X91507438Y-86217268D02*
X91602676Y-86122030D01*
X91602676Y-86122030D02*
X91697914Y-86074411D01*
X91697914Y-86074411D02*
X91888390Y-86026792D01*
X91888390Y-86026792D02*
X92031247Y-86026792D01*
X92031247Y-86026792D02*
X92221723Y-86074411D01*
X92221723Y-86074411D02*
X92316961Y-86122030D01*
X92316961Y-86122030D02*
X92412200Y-86217268D01*
X92412200Y-86217268D02*
X92459819Y-86360125D01*
X92459819Y-86360125D02*
X92459819Y-86598220D01*
X91459819Y-85741077D02*
X91459819Y-85169649D01*
X92459819Y-85455363D02*
X91459819Y-85455363D01*
X92459819Y-84264887D02*
X91983628Y-84598220D01*
X92459819Y-84836315D02*
X91459819Y-84836315D01*
X91459819Y-84836315D02*
X91459819Y-84455363D01*
X91459819Y-84455363D02*
X91507438Y-84360125D01*
X91507438Y-84360125D02*
X91555057Y-84312506D01*
X91555057Y-84312506D02*
X91650295Y-84264887D01*
X91650295Y-84264887D02*
X91793152Y-84264887D01*
X91793152Y-84264887D02*
X91888390Y-84312506D01*
X91888390Y-84312506D02*
X91936009Y-84360125D01*
X91936009Y-84360125D02*
X91983628Y-84455363D01*
X91983628Y-84455363D02*
X91983628Y-84836315D01*
X96547819Y-86741077D02*
X96547819Y-86169649D01*
X97547819Y-86455363D02*
X96547819Y-86455363D01*
X96547819Y-85931553D02*
X97547819Y-85264887D01*
X96547819Y-85264887D02*
X97547819Y-85931553D01*
D12*
G36*
X56190656Y-106008035D02*
G01*
X56286922Y-106104301D01*
X56343796Y-106331792D01*
X56343796Y-106794863D01*
X56286922Y-107022354D01*
X56190655Y-107118622D01*
X56101243Y-107163328D01*
X55886349Y-107163328D01*
X55796935Y-107118621D01*
X55700668Y-107022354D01*
X55643796Y-106794864D01*
X55643796Y-106331791D01*
X55700668Y-106104302D01*
X55796935Y-106008034D01*
X55886349Y-105963328D01*
X56101243Y-105963328D01*
X56190656Y-106008035D01*
G37*
G36*
X69119230Y-106008035D02*
G01*
X69156234Y-106045039D01*
X69200940Y-106134451D01*
X69200940Y-106277918D01*
X69156233Y-106367331D01*
X69119228Y-106404336D01*
X69029816Y-106449042D01*
X68643797Y-106449042D01*
X68643797Y-105963328D01*
X69029816Y-105963328D01*
X69119230Y-106008035D01*
G37*
G36*
X67642828Y-106734757D02*
G01*
X67344769Y-106734757D01*
X67493798Y-106287669D01*
X67642828Y-106734757D01*
G37*
G36*
X71571399Y-106734757D02*
G01*
X71273340Y-106734757D01*
X71422369Y-106287669D01*
X71571399Y-106734757D01*
G37*
G36*
X78142827Y-106734757D02*
G01*
X77844768Y-106734757D01*
X77993797Y-106287669D01*
X78142827Y-106734757D01*
G37*
G36*
X82664724Y-107629995D02*
G01*
X53962843Y-107629995D01*
X53962843Y-105813328D01*
X54129510Y-105813328D01*
X54129510Y-107313328D01*
X54132392Y-107342592D01*
X54154790Y-107396664D01*
X54196174Y-107438048D01*
X54250246Y-107460446D01*
X54308774Y-107460446D01*
X54362846Y-107438048D01*
X54404230Y-107396664D01*
X54426628Y-107342592D01*
X54429510Y-107313328D01*
X54429510Y-106677614D01*
X54779510Y-106677614D01*
X54808774Y-106674732D01*
X54862846Y-106652334D01*
X54904230Y-106610950D01*
X54926628Y-106556878D01*
X54926628Y-106498350D01*
X54904230Y-106444278D01*
X54862846Y-106402894D01*
X54808774Y-106380496D01*
X54779510Y-106377614D01*
X54429510Y-106377614D01*
X54429510Y-106313328D01*
X55343796Y-106313328D01*
X55343796Y-106813328D01*
X55344298Y-106818431D01*
X55343973Y-106820619D01*
X55345592Y-106831569D01*
X55346678Y-106842592D01*
X55347525Y-106844636D01*
X55348275Y-106849708D01*
X55419703Y-107135422D01*
X55429596Y-107163113D01*
X55436235Y-107172073D01*
X55440503Y-107182377D01*
X55459158Y-107205108D01*
X55602016Y-107347966D01*
X55613520Y-107357407D01*
X55616115Y-107360399D01*
X55620624Y-107363237D01*
X55624747Y-107366621D01*
X55628408Y-107368137D01*
X55641000Y-107376064D01*
X55783858Y-107447492D01*
X55811321Y-107458002D01*
X55816696Y-107458383D01*
X55821675Y-107460446D01*
X55850939Y-107463328D01*
X56136653Y-107463328D01*
X56165917Y-107460446D01*
X56170895Y-107458383D01*
X56176271Y-107458002D01*
X56203735Y-107447492D01*
X56346592Y-107376064D01*
X56359183Y-107368137D01*
X56362846Y-107366621D01*
X56366968Y-107363237D01*
X56371478Y-107360399D01*
X56374073Y-107357406D01*
X56385576Y-107347966D01*
X56528433Y-107205108D01*
X56547088Y-107182377D01*
X56551354Y-107172075D01*
X56557995Y-107163114D01*
X56567888Y-107135423D01*
X56639317Y-106849709D01*
X56640067Y-106844636D01*
X56640914Y-106842592D01*
X56641999Y-106831572D01*
X56643619Y-106820620D01*
X56643293Y-106818431D01*
X56643796Y-106813328D01*
X56643796Y-106313328D01*
X56643293Y-106308224D01*
X56643619Y-106306036D01*
X56641999Y-106295083D01*
X56640914Y-106284064D01*
X56640067Y-106282019D01*
X56639317Y-106276947D01*
X56567888Y-105991233D01*
X56557995Y-105963542D01*
X56551355Y-105954581D01*
X56547088Y-105944278D01*
X56528433Y-105921548D01*
X56420213Y-105813328D01*
X56986653Y-105813328D01*
X56986653Y-107313328D01*
X56989535Y-107342592D01*
X57011933Y-107396664D01*
X57053317Y-107438048D01*
X57107389Y-107460446D01*
X57165917Y-107460446D01*
X57219989Y-107438048D01*
X57261373Y-107396664D01*
X57283771Y-107342592D01*
X57286653Y-107313328D01*
X57286653Y-106378161D01*
X57863560Y-107387749D01*
X57867937Y-107393916D01*
X57869076Y-107396664D01*
X57871875Y-107399463D01*
X57880581Y-107411727D01*
X57896354Y-107423942D01*
X57910460Y-107438048D01*
X57919293Y-107441706D01*
X57926855Y-107447563D01*
X57946103Y-107452812D01*
X57964532Y-107460446D01*
X57974094Y-107460446D01*
X57983319Y-107462962D01*
X58003110Y-107460446D01*
X58023060Y-107460446D01*
X58031893Y-107456786D01*
X58041379Y-107455581D01*
X58058701Y-107445682D01*
X58077132Y-107438048D01*
X58083892Y-107431287D01*
X58092195Y-107426543D01*
X58104408Y-107410771D01*
X58118516Y-107396664D01*
X58122175Y-107387828D01*
X58128030Y-107380269D01*
X58133278Y-107361024D01*
X58140914Y-107342592D01*
X58142387Y-107327627D01*
X58143430Y-107323806D01*
X58143054Y-107320854D01*
X58143796Y-107313328D01*
X58143796Y-105813328D01*
X58140914Y-105784064D01*
X58346679Y-105784064D01*
X58346679Y-105842592D01*
X58369077Y-105896664D01*
X58410461Y-105938048D01*
X58464533Y-105960446D01*
X58493797Y-105963328D01*
X58772368Y-105963328D01*
X58772368Y-107313328D01*
X58775250Y-107342592D01*
X58797648Y-107396664D01*
X58839032Y-107438048D01*
X58893104Y-107460446D01*
X58951632Y-107460446D01*
X59005704Y-107438048D01*
X59047088Y-107396664D01*
X59069486Y-107342592D01*
X59072368Y-107313328D01*
X59072368Y-105963328D01*
X59350940Y-105963328D01*
X59380204Y-105960446D01*
X59434276Y-105938048D01*
X59475660Y-105896664D01*
X59498058Y-105842592D01*
X59498058Y-105813328D01*
X59700939Y-105813328D01*
X59700939Y-107313328D01*
X59703821Y-107342592D01*
X59726219Y-107396664D01*
X59767603Y-107438048D01*
X59821675Y-107460446D01*
X59850939Y-107463328D01*
X60565225Y-107463328D01*
X60594489Y-107460446D01*
X60648561Y-107438048D01*
X60689945Y-107396664D01*
X60712343Y-107342592D01*
X60712343Y-107284064D01*
X60689945Y-107229992D01*
X60648561Y-107188608D01*
X60594489Y-107166210D01*
X60565225Y-107163328D01*
X60000939Y-107163328D01*
X60000939Y-106677614D01*
X60350939Y-106677614D01*
X60380203Y-106674732D01*
X60434275Y-106652334D01*
X60475659Y-106610950D01*
X60498057Y-106556878D01*
X60498057Y-106498350D01*
X60475659Y-106444278D01*
X60434275Y-106402894D01*
X60380203Y-106380496D01*
X60350939Y-106377614D01*
X60000939Y-106377614D01*
X60000939Y-105963328D01*
X60565225Y-105963328D01*
X60594489Y-105960446D01*
X60648561Y-105938048D01*
X60689945Y-105896664D01*
X60712343Y-105842592D01*
X60712343Y-105813328D01*
X62200939Y-105813328D01*
X62200939Y-107313328D01*
X62203821Y-107342592D01*
X62226219Y-107396664D01*
X62267603Y-107438048D01*
X62321675Y-107460446D01*
X62350939Y-107463328D01*
X63065225Y-107463328D01*
X63094489Y-107460446D01*
X63148561Y-107438048D01*
X63189945Y-107396664D01*
X63212343Y-107342592D01*
X63212343Y-107284064D01*
X63189945Y-107229992D01*
X63148561Y-107188608D01*
X63094489Y-107166210D01*
X63065225Y-107163328D01*
X62500939Y-107163328D01*
X62500939Y-105813328D01*
X63415225Y-105813328D01*
X63415225Y-107313328D01*
X63418107Y-107342592D01*
X63440505Y-107396664D01*
X63481889Y-107438048D01*
X63535961Y-107460446D01*
X63594489Y-107460446D01*
X63648561Y-107438048D01*
X63689945Y-107396664D01*
X63712343Y-107342592D01*
X63715225Y-107313328D01*
X63715225Y-105813328D01*
X64129511Y-105813328D01*
X64129511Y-107313328D01*
X64132393Y-107342592D01*
X64154791Y-107396664D01*
X64196175Y-107438048D01*
X64250247Y-107460446D01*
X64308775Y-107460446D01*
X64362847Y-107438048D01*
X64404231Y-107396664D01*
X64426629Y-107342592D01*
X64429511Y-107313328D01*
X64429511Y-106378161D01*
X65006418Y-107387749D01*
X65010795Y-107393916D01*
X65011934Y-107396664D01*
X65014733Y-107399463D01*
X65023439Y-107411727D01*
X65039212Y-107423942D01*
X65053318Y-107438048D01*
X65062151Y-107441706D01*
X65069713Y-107447563D01*
X65088961Y-107452812D01*
X65107390Y-107460446D01*
X65116952Y-107460446D01*
X65126177Y-107462962D01*
X65145968Y-107460446D01*
X65165918Y-107460446D01*
X65174751Y-107456786D01*
X65184237Y-107455581D01*
X65201559Y-107445682D01*
X65219990Y-107438048D01*
X65226750Y-107431287D01*
X65235053Y-107426543D01*
X65247266Y-107410771D01*
X65261374Y-107396664D01*
X65265033Y-107387828D01*
X65270888Y-107380269D01*
X65276136Y-107361024D01*
X65283772Y-107342592D01*
X65285245Y-107327627D01*
X65286288Y-107323806D01*
X65285912Y-107320854D01*
X65286654Y-107313328D01*
X65286654Y-105813328D01*
X65700940Y-105813328D01*
X65700940Y-107313328D01*
X65703822Y-107342592D01*
X65726220Y-107396664D01*
X65767604Y-107438048D01*
X65821676Y-107460446D01*
X65850940Y-107463328D01*
X66565226Y-107463328D01*
X66594490Y-107460446D01*
X66648562Y-107438048D01*
X66689946Y-107396664D01*
X66712344Y-107342592D01*
X66712344Y-107294567D01*
X66844976Y-107294567D01*
X66849125Y-107352948D01*
X66875299Y-107405295D01*
X66919513Y-107443642D01*
X66975037Y-107462150D01*
X67033418Y-107458001D01*
X67085765Y-107431827D01*
X67124112Y-107387613D01*
X67136100Y-107360762D01*
X67244769Y-107034757D01*
X67742828Y-107034757D01*
X67851496Y-107360762D01*
X67863484Y-107387613D01*
X67901831Y-107431828D01*
X67954179Y-107458001D01*
X68012559Y-107462151D01*
X68068083Y-107443642D01*
X68112297Y-107405295D01*
X68138471Y-107352948D01*
X68142621Y-107294568D01*
X68136101Y-107265894D01*
X67651911Y-105813328D01*
X68343797Y-105813328D01*
X68343797Y-107313328D01*
X68346679Y-107342592D01*
X68369077Y-107396664D01*
X68410461Y-107438048D01*
X68464533Y-107460446D01*
X68523061Y-107460446D01*
X68577133Y-107438048D01*
X68618517Y-107396664D01*
X68640915Y-107342592D01*
X68643797Y-107313328D01*
X68643797Y-106749042D01*
X68772842Y-106749042D01*
X69228055Y-107399347D01*
X69247198Y-107421669D01*
X69296555Y-107453122D01*
X69354191Y-107463293D01*
X69411333Y-107450634D01*
X69459281Y-107417070D01*
X69490734Y-107367713D01*
X69500905Y-107310077D01*
X69497469Y-107294567D01*
X70773547Y-107294567D01*
X70777696Y-107352948D01*
X70803870Y-107405295D01*
X70848084Y-107443642D01*
X70903608Y-107462150D01*
X70961989Y-107458001D01*
X71014336Y-107431827D01*
X71052683Y-107387613D01*
X71064671Y-107360762D01*
X71173340Y-107034757D01*
X71671399Y-107034757D01*
X71780067Y-107360762D01*
X71792055Y-107387613D01*
X71830402Y-107431828D01*
X71882750Y-107458001D01*
X71941130Y-107462151D01*
X71996654Y-107443642D01*
X72040868Y-107405295D01*
X72067042Y-107352948D01*
X72071192Y-107294568D01*
X72068804Y-107284064D01*
X72132393Y-107284064D01*
X72132393Y-107342592D01*
X72154791Y-107396664D01*
X72196175Y-107438048D01*
X72250247Y-107460446D01*
X72279511Y-107463328D01*
X72422368Y-107463328D01*
X72437173Y-107461869D01*
X72441128Y-107462151D01*
X72446329Y-107460968D01*
X72451632Y-107460446D01*
X72455289Y-107458930D01*
X72469802Y-107455631D01*
X72684088Y-107384203D01*
X72710939Y-107372215D01*
X72715010Y-107368683D01*
X72719990Y-107366621D01*
X72742720Y-107347966D01*
X72885577Y-107205108D01*
X72904232Y-107182377D01*
X72906294Y-107177397D01*
X72909825Y-107173327D01*
X72921813Y-107146477D01*
X72993242Y-106932192D01*
X72996541Y-106917682D01*
X72998058Y-106914021D01*
X72998580Y-106908712D01*
X72999762Y-106903518D01*
X72999481Y-106899568D01*
X73000940Y-106884757D01*
X73000940Y-105813328D01*
X73415225Y-105813328D01*
X73415225Y-107027614D01*
X73418107Y-107056878D01*
X73420170Y-107061858D01*
X73420552Y-107067233D01*
X73431061Y-107094696D01*
X73502490Y-107237553D01*
X73510417Y-107250146D01*
X73511933Y-107253806D01*
X73515314Y-107257925D01*
X73518155Y-107262439D01*
X73521148Y-107265035D01*
X73530588Y-107276537D01*
X73602017Y-107347966D01*
X73613521Y-107357407D01*
X73616116Y-107360399D01*
X73620625Y-107363237D01*
X73624748Y-107366621D01*
X73628409Y-107368137D01*
X73641001Y-107376064D01*
X73783859Y-107447492D01*
X73811322Y-107458002D01*
X73816697Y-107458383D01*
X73821676Y-107460446D01*
X73850940Y-107463328D01*
X74136654Y-107463328D01*
X74165918Y-107460446D01*
X74170896Y-107458383D01*
X74176272Y-107458002D01*
X74203736Y-107447492D01*
X74346593Y-107376064D01*
X74359186Y-107368136D01*
X74362846Y-107366621D01*
X74366965Y-107363239D01*
X74371479Y-107360399D01*
X74374075Y-107357405D01*
X74385577Y-107347966D01*
X74457006Y-107276537D01*
X74466447Y-107265032D01*
X74469439Y-107262438D01*
X74472277Y-107257928D01*
X74475661Y-107253806D01*
X74477177Y-107250144D01*
X74485104Y-107237553D01*
X74556532Y-107094695D01*
X74567042Y-107067232D01*
X74567423Y-107061856D01*
X74569486Y-107056878D01*
X74572368Y-107027614D01*
X74572368Y-106099042D01*
X74915226Y-106099042D01*
X74915226Y-106241900D01*
X74918108Y-106271164D01*
X74920170Y-106276142D01*
X74920552Y-106281518D01*
X74931062Y-106308982D01*
X75002490Y-106451839D01*
X75010418Y-106464434D01*
X75011934Y-106468093D01*
X75015313Y-106472210D01*
X75018155Y-106476725D01*
X75021149Y-106479321D01*
X75030589Y-106490824D01*
X75102018Y-106562252D01*
X75113518Y-106571690D01*
X75116115Y-106574684D01*
X75120627Y-106577524D01*
X75124748Y-106580906D01*
X75128407Y-106582421D01*
X75141001Y-106590349D01*
X75283857Y-106661778D01*
X75285999Y-106662597D01*
X75286869Y-106663242D01*
X75299140Y-106667626D01*
X75311321Y-106672287D01*
X75312401Y-106672363D01*
X75314560Y-106673135D01*
X75584298Y-106740569D01*
X75690657Y-106793748D01*
X75727661Y-106830753D01*
X75772369Y-106920167D01*
X75772369Y-106992203D01*
X75727661Y-107081617D01*
X75690658Y-107118621D01*
X75601245Y-107163328D01*
X75303855Y-107163328D01*
X75112660Y-107099597D01*
X75083986Y-107093077D01*
X75025606Y-107097227D01*
X74973259Y-107123401D01*
X74934911Y-107167615D01*
X74916403Y-107223140D01*
X74920553Y-107281520D01*
X74946727Y-107333867D01*
X74990941Y-107372215D01*
X75017792Y-107384203D01*
X75232078Y-107455631D01*
X75246590Y-107458930D01*
X75250248Y-107460446D01*
X75255550Y-107460968D01*
X75260752Y-107462151D01*
X75264706Y-107461869D01*
X75279512Y-107463328D01*
X75636654Y-107463328D01*
X75665918Y-107460446D01*
X75670896Y-107458383D01*
X75676272Y-107458002D01*
X75703735Y-107447492D01*
X75846594Y-107376064D01*
X75859188Y-107368135D01*
X75862848Y-107366620D01*
X75866968Y-107363238D01*
X75871479Y-107360399D01*
X75874073Y-107357407D01*
X75885579Y-107347965D01*
X75957007Y-107276536D01*
X75966445Y-107265035D01*
X75969439Y-107262439D01*
X75972279Y-107257926D01*
X75975661Y-107253806D01*
X75977176Y-107250146D01*
X75985104Y-107237553D01*
X76056533Y-107094697D01*
X76067042Y-107067233D01*
X76067423Y-107061858D01*
X76069487Y-107056878D01*
X76072369Y-107027614D01*
X76072369Y-106884757D01*
X76069487Y-106855493D01*
X76067423Y-106850512D01*
X76067042Y-106845138D01*
X76056533Y-106817674D01*
X75985104Y-106674818D01*
X75977176Y-106662224D01*
X75975661Y-106658565D01*
X75972279Y-106654444D01*
X75969439Y-106649932D01*
X75966445Y-106647335D01*
X75957007Y-106635835D01*
X75885579Y-106564406D01*
X75874076Y-106554966D01*
X75871480Y-106551972D01*
X75866965Y-106549130D01*
X75862848Y-106545751D01*
X75859189Y-106544235D01*
X75846594Y-106536307D01*
X75703736Y-106464878D01*
X75701595Y-106464058D01*
X75700725Y-106463414D01*
X75688469Y-106459035D01*
X75676273Y-106454368D01*
X75675189Y-106454291D01*
X75673034Y-106453521D01*
X75403296Y-106386086D01*
X75296936Y-106332906D01*
X75259931Y-106295901D01*
X75215226Y-106206490D01*
X75215226Y-106134451D01*
X75259931Y-106045040D01*
X75296936Y-106008035D01*
X75386350Y-105963328D01*
X75683743Y-105963328D01*
X75874934Y-106027059D01*
X75903608Y-106033579D01*
X75961988Y-106029430D01*
X76014335Y-106003256D01*
X76052683Y-105959042D01*
X76071191Y-105903518D01*
X76067042Y-105845138D01*
X76040868Y-105792790D01*
X76030807Y-105784064D01*
X76203822Y-105784064D01*
X76203822Y-105842592D01*
X76226220Y-105896664D01*
X76267604Y-105938048D01*
X76321676Y-105960446D01*
X76350940Y-105963328D01*
X76629511Y-105963328D01*
X76629511Y-107313328D01*
X76632393Y-107342592D01*
X76654791Y-107396664D01*
X76696175Y-107438048D01*
X76750247Y-107460446D01*
X76808775Y-107460446D01*
X76862847Y-107438048D01*
X76904231Y-107396664D01*
X76926629Y-107342592D01*
X76929511Y-107313328D01*
X76929511Y-107294567D01*
X77344975Y-107294567D01*
X77349124Y-107352948D01*
X77375298Y-107405295D01*
X77419512Y-107443642D01*
X77475036Y-107462150D01*
X77533417Y-107458001D01*
X77585764Y-107431827D01*
X77624111Y-107387613D01*
X77636099Y-107360762D01*
X77744768Y-107034757D01*
X78242827Y-107034757D01*
X78351495Y-107360762D01*
X78363483Y-107387613D01*
X78401830Y-107431828D01*
X78454178Y-107458001D01*
X78512558Y-107462151D01*
X78568082Y-107443642D01*
X78612296Y-107405295D01*
X78638470Y-107352948D01*
X78642620Y-107294568D01*
X78636100Y-107265894D01*
X78158164Y-105832089D01*
X78630689Y-105832089D01*
X78637209Y-105860762D01*
X79137209Y-107360762D01*
X79149197Y-107387613D01*
X79156219Y-107395710D01*
X79161012Y-107405295D01*
X79175218Y-107417616D01*
X79187544Y-107431828D01*
X79197131Y-107436621D01*
X79205226Y-107443642D01*
X79223068Y-107449589D01*
X79239892Y-107458001D01*
X79250582Y-107458760D01*
X79260750Y-107462150D01*
X79279506Y-107460817D01*
X79298272Y-107462151D01*
X79308442Y-107458760D01*
X79319131Y-107458001D01*
X79335952Y-107449590D01*
X79353796Y-107443642D01*
X79361892Y-107436619D01*
X79371478Y-107431827D01*
X79383801Y-107417618D01*
X79398010Y-107405295D01*
X79402802Y-107395709D01*
X79409825Y-107387613D01*
X79421813Y-107360762D01*
X79921814Y-105860762D01*
X79928334Y-105832088D01*
X79927000Y-105813328D01*
X80129510Y-105813328D01*
X80129510Y-107313328D01*
X80132392Y-107342592D01*
X80154790Y-107396664D01*
X80196174Y-107438048D01*
X80250246Y-107460446D01*
X80279510Y-107463328D01*
X80993796Y-107463328D01*
X81023060Y-107460446D01*
X81077132Y-107438048D01*
X81118516Y-107396664D01*
X81140914Y-107342592D01*
X81140914Y-107284064D01*
X81118516Y-107229992D01*
X81077132Y-107188608D01*
X81023060Y-107166210D01*
X80993796Y-107163328D01*
X80429510Y-107163328D01*
X80429510Y-106677614D01*
X80779510Y-106677614D01*
X80808774Y-106674732D01*
X80862846Y-106652334D01*
X80904230Y-106610950D01*
X80926628Y-106556878D01*
X80926628Y-106498350D01*
X80904230Y-106444278D01*
X80862846Y-106402894D01*
X80808774Y-106380496D01*
X80779510Y-106377614D01*
X80429510Y-106377614D01*
X80429510Y-105963328D01*
X80993796Y-105963328D01*
X81023060Y-105960446D01*
X81077132Y-105938048D01*
X81118516Y-105896664D01*
X81140914Y-105842592D01*
X81140914Y-105813328D01*
X81486653Y-105813328D01*
X81486653Y-107313328D01*
X81489535Y-107342592D01*
X81511933Y-107396664D01*
X81553317Y-107438048D01*
X81607389Y-107460446D01*
X81636653Y-107463328D01*
X82350939Y-107463328D01*
X82380203Y-107460446D01*
X82434275Y-107438048D01*
X82475659Y-107396664D01*
X82498057Y-107342592D01*
X82498057Y-107284064D01*
X82475659Y-107229992D01*
X82434275Y-107188608D01*
X82380203Y-107166210D01*
X82350939Y-107163328D01*
X81786653Y-107163328D01*
X81786653Y-105813328D01*
X81783771Y-105784064D01*
X81761373Y-105729992D01*
X81719989Y-105688608D01*
X81665917Y-105666210D01*
X81607389Y-105666210D01*
X81553317Y-105688608D01*
X81511933Y-105729992D01*
X81489535Y-105784064D01*
X81486653Y-105813328D01*
X81140914Y-105813328D01*
X81140914Y-105784064D01*
X81118516Y-105729992D01*
X81077132Y-105688608D01*
X81023060Y-105666210D01*
X80993796Y-105663328D01*
X80279510Y-105663328D01*
X80250246Y-105666210D01*
X80196174Y-105688608D01*
X80154790Y-105729992D01*
X80132392Y-105784064D01*
X80129510Y-105813328D01*
X79927000Y-105813328D01*
X79924184Y-105773708D01*
X79898010Y-105721361D01*
X79853796Y-105683014D01*
X79798272Y-105664505D01*
X79739892Y-105668655D01*
X79687544Y-105694828D01*
X79649197Y-105739043D01*
X79637209Y-105765894D01*
X79279511Y-106838986D01*
X78921813Y-105765894D01*
X78909825Y-105739043D01*
X78871478Y-105694829D01*
X78819131Y-105668655D01*
X78760750Y-105664506D01*
X78705226Y-105683014D01*
X78661012Y-105721361D01*
X78634838Y-105773708D01*
X78630689Y-105832089D01*
X78158164Y-105832089D01*
X78136099Y-105765894D01*
X78124111Y-105739043D01*
X78117088Y-105730946D01*
X78112296Y-105721361D01*
X78098087Y-105709037D01*
X78085764Y-105694829D01*
X78076178Y-105690036D01*
X78068082Y-105683014D01*
X78050238Y-105677065D01*
X78033417Y-105668655D01*
X78022728Y-105667895D01*
X78012558Y-105664505D01*
X77993792Y-105665838D01*
X77975036Y-105664506D01*
X77964868Y-105667895D01*
X77954178Y-105668655D01*
X77937354Y-105677066D01*
X77919512Y-105683014D01*
X77911417Y-105690034D01*
X77901830Y-105694828D01*
X77889504Y-105709039D01*
X77875298Y-105721361D01*
X77870505Y-105730945D01*
X77863483Y-105739043D01*
X77851495Y-105765894D01*
X77351495Y-107265894D01*
X77344975Y-107294567D01*
X76929511Y-107294567D01*
X76929511Y-105963328D01*
X77208083Y-105963328D01*
X77237347Y-105960446D01*
X77291419Y-105938048D01*
X77332803Y-105896664D01*
X77355201Y-105842592D01*
X77355201Y-105784064D01*
X77332803Y-105729992D01*
X77291419Y-105688608D01*
X77237347Y-105666210D01*
X77208083Y-105663328D01*
X76350940Y-105663328D01*
X76321676Y-105666210D01*
X76267604Y-105688608D01*
X76226220Y-105729992D01*
X76203822Y-105784064D01*
X76030807Y-105784064D01*
X75996654Y-105754443D01*
X75969803Y-105742454D01*
X75755517Y-105671026D01*
X75741009Y-105667727D01*
X75737347Y-105666210D01*
X75732038Y-105665687D01*
X75726844Y-105664506D01*
X75722894Y-105664786D01*
X75708083Y-105663328D01*
X75350940Y-105663328D01*
X75321676Y-105666210D01*
X75316695Y-105668273D01*
X75311321Y-105668655D01*
X75283857Y-105679164D01*
X75141001Y-105750593D01*
X75128407Y-105758520D01*
X75124748Y-105760036D01*
X75120627Y-105763417D01*
X75116115Y-105766258D01*
X75113518Y-105769251D01*
X75102018Y-105778690D01*
X75030589Y-105850118D01*
X75021149Y-105861620D01*
X75018155Y-105864217D01*
X75015313Y-105868731D01*
X75011934Y-105872849D01*
X75010418Y-105876507D01*
X75002490Y-105889103D01*
X74931062Y-106031960D01*
X74920552Y-106059424D01*
X74920170Y-106064799D01*
X74918108Y-106069778D01*
X74915226Y-106099042D01*
X74572368Y-106099042D01*
X74572368Y-105813328D01*
X74569486Y-105784064D01*
X74547088Y-105729992D01*
X74505704Y-105688608D01*
X74451632Y-105666210D01*
X74393104Y-105666210D01*
X74339032Y-105688608D01*
X74297648Y-105729992D01*
X74275250Y-105784064D01*
X74272368Y-105813328D01*
X74272368Y-106992204D01*
X74227661Y-107081617D01*
X74190656Y-107118622D01*
X74101244Y-107163328D01*
X73886350Y-107163328D01*
X73796936Y-107118621D01*
X73759932Y-107081617D01*
X73715225Y-106992203D01*
X73715225Y-105813328D01*
X73712343Y-105784064D01*
X73689945Y-105729992D01*
X73648561Y-105688608D01*
X73594489Y-105666210D01*
X73535961Y-105666210D01*
X73481889Y-105688608D01*
X73440505Y-105729992D01*
X73418107Y-105784064D01*
X73415225Y-105813328D01*
X73000940Y-105813328D01*
X72998058Y-105784064D01*
X72975660Y-105729992D01*
X72934276Y-105688608D01*
X72880204Y-105666210D01*
X72821676Y-105666210D01*
X72767604Y-105688608D01*
X72726220Y-105729992D01*
X72703822Y-105784064D01*
X72700940Y-105813328D01*
X72700940Y-106860416D01*
X72648406Y-107018014D01*
X72555627Y-107110794D01*
X72398025Y-107163328D01*
X72279511Y-107163328D01*
X72250247Y-107166210D01*
X72196175Y-107188608D01*
X72154791Y-107229992D01*
X72132393Y-107284064D01*
X72068804Y-107284064D01*
X72064672Y-107265894D01*
X71564671Y-105765894D01*
X71552683Y-105739043D01*
X71545660Y-105730946D01*
X71540868Y-105721361D01*
X71526659Y-105709037D01*
X71514336Y-105694829D01*
X71504750Y-105690036D01*
X71496654Y-105683014D01*
X71478810Y-105677065D01*
X71461989Y-105668655D01*
X71451300Y-105667895D01*
X71441130Y-105664505D01*
X71422364Y-105665838D01*
X71403608Y-105664506D01*
X71393440Y-105667895D01*
X71382750Y-105668655D01*
X71365926Y-105677066D01*
X71348084Y-105683014D01*
X71339989Y-105690034D01*
X71330402Y-105694828D01*
X71318076Y-105709039D01*
X71303870Y-105721361D01*
X71299077Y-105730945D01*
X71292055Y-105739043D01*
X71280067Y-105765894D01*
X70780067Y-107265894D01*
X70773547Y-107294567D01*
X69497469Y-107294567D01*
X69488246Y-107252935D01*
X69473825Y-107227309D01*
X69128873Y-106734520D01*
X69132308Y-106733206D01*
X69275165Y-106661778D01*
X69287758Y-106653850D01*
X69291418Y-106652335D01*
X69295537Y-106648953D01*
X69300051Y-106646113D01*
X69302647Y-106643119D01*
X69314149Y-106633680D01*
X69385578Y-106562251D01*
X69395019Y-106550746D01*
X69398011Y-106548152D01*
X69400849Y-106543642D01*
X69404233Y-106539520D01*
X69405749Y-106535858D01*
X69413676Y-106523267D01*
X69485104Y-106380409D01*
X69495614Y-106352946D01*
X69495995Y-106347570D01*
X69498058Y-106342592D01*
X69500940Y-106313328D01*
X69500940Y-106099042D01*
X69498058Y-106069778D01*
X69495995Y-106064799D01*
X69495614Y-106059424D01*
X69485104Y-106031961D01*
X69413676Y-105889103D01*
X69405747Y-105876508D01*
X69404232Y-105872849D01*
X69400850Y-105868728D01*
X69398011Y-105864218D01*
X69395019Y-105861623D01*
X69385577Y-105850118D01*
X69314148Y-105778690D01*
X69302648Y-105769252D01*
X69300051Y-105766258D01*
X69295534Y-105763415D01*
X69291417Y-105760036D01*
X69287760Y-105758521D01*
X69275165Y-105750593D01*
X69132308Y-105679164D01*
X69104845Y-105668655D01*
X69099470Y-105668273D01*
X69094490Y-105666210D01*
X69065226Y-105663328D01*
X68493797Y-105663328D01*
X68464533Y-105666210D01*
X68410461Y-105688608D01*
X68369077Y-105729992D01*
X68346679Y-105784064D01*
X68343797Y-105813328D01*
X67651911Y-105813328D01*
X67636100Y-105765894D01*
X67624112Y-105739043D01*
X67617089Y-105730946D01*
X67612297Y-105721361D01*
X67598088Y-105709037D01*
X67585765Y-105694829D01*
X67576179Y-105690036D01*
X67568083Y-105683014D01*
X67550239Y-105677065D01*
X67533418Y-105668655D01*
X67522729Y-105667895D01*
X67512559Y-105664505D01*
X67493793Y-105665838D01*
X67475037Y-105664506D01*
X67464869Y-105667895D01*
X67454179Y-105668655D01*
X67437355Y-105677066D01*
X67419513Y-105683014D01*
X67411418Y-105690034D01*
X67401831Y-105694828D01*
X67389505Y-105709039D01*
X67375299Y-105721361D01*
X67370506Y-105730945D01*
X67363484Y-105739043D01*
X67351496Y-105765894D01*
X66851496Y-107265894D01*
X66844976Y-107294567D01*
X66712344Y-107294567D01*
X66712344Y-107284064D01*
X66689946Y-107229992D01*
X66648562Y-107188608D01*
X66594490Y-107166210D01*
X66565226Y-107163328D01*
X66000940Y-107163328D01*
X66000940Y-106677614D01*
X66350940Y-106677614D01*
X66380204Y-106674732D01*
X66434276Y-106652334D01*
X66475660Y-106610950D01*
X66498058Y-106556878D01*
X66498058Y-106498350D01*
X66475660Y-106444278D01*
X66434276Y-106402894D01*
X66380204Y-106380496D01*
X66350940Y-106377614D01*
X66000940Y-106377614D01*
X66000940Y-105963328D01*
X66565226Y-105963328D01*
X66594490Y-105960446D01*
X66648562Y-105938048D01*
X66689946Y-105896664D01*
X66712344Y-105842592D01*
X66712344Y-105784064D01*
X66689946Y-105729992D01*
X66648562Y-105688608D01*
X66594490Y-105666210D01*
X66565226Y-105663328D01*
X65850940Y-105663328D01*
X65821676Y-105666210D01*
X65767604Y-105688608D01*
X65726220Y-105729992D01*
X65703822Y-105784064D01*
X65700940Y-105813328D01*
X65286654Y-105813328D01*
X65283772Y-105784064D01*
X65261374Y-105729992D01*
X65219990Y-105688608D01*
X65165918Y-105666210D01*
X65107390Y-105666210D01*
X65053318Y-105688608D01*
X65011934Y-105729992D01*
X64989536Y-105784064D01*
X64986654Y-105813328D01*
X64986654Y-106748492D01*
X64409747Y-105738907D01*
X64405369Y-105732739D01*
X64404231Y-105729992D01*
X64401431Y-105727192D01*
X64392726Y-105714929D01*
X64376954Y-105702715D01*
X64362847Y-105688608D01*
X64354011Y-105684948D01*
X64346452Y-105679094D01*
X64327207Y-105673845D01*
X64308775Y-105666210D01*
X64299213Y-105666210D01*
X64289988Y-105663694D01*
X64270197Y-105666210D01*
X64250247Y-105666210D01*
X64241413Y-105669869D01*
X64231928Y-105671075D01*
X64214605Y-105680973D01*
X64196175Y-105688608D01*
X64189414Y-105695368D01*
X64181112Y-105700113D01*
X64168898Y-105715884D01*
X64154791Y-105729992D01*
X64151131Y-105738827D01*
X64145277Y-105746387D01*
X64140028Y-105765631D01*
X64132393Y-105784064D01*
X64130919Y-105799030D01*
X64129877Y-105802851D01*
X64130252Y-105805802D01*
X64129511Y-105813328D01*
X63715225Y-105813328D01*
X63712343Y-105784064D01*
X63689945Y-105729992D01*
X63648561Y-105688608D01*
X63594489Y-105666210D01*
X63535961Y-105666210D01*
X63481889Y-105688608D01*
X63440505Y-105729992D01*
X63418107Y-105784064D01*
X63415225Y-105813328D01*
X62500939Y-105813328D01*
X62498057Y-105784064D01*
X62475659Y-105729992D01*
X62434275Y-105688608D01*
X62380203Y-105666210D01*
X62321675Y-105666210D01*
X62267603Y-105688608D01*
X62226219Y-105729992D01*
X62203821Y-105784064D01*
X62200939Y-105813328D01*
X60712343Y-105813328D01*
X60712343Y-105784064D01*
X60689945Y-105729992D01*
X60648561Y-105688608D01*
X60594489Y-105666210D01*
X60565225Y-105663328D01*
X59850939Y-105663328D01*
X59821675Y-105666210D01*
X59767603Y-105688608D01*
X59726219Y-105729992D01*
X59703821Y-105784064D01*
X59700939Y-105813328D01*
X59498058Y-105813328D01*
X59498058Y-105784064D01*
X59475660Y-105729992D01*
X59434276Y-105688608D01*
X59380204Y-105666210D01*
X59350940Y-105663328D01*
X58493797Y-105663328D01*
X58464533Y-105666210D01*
X58410461Y-105688608D01*
X58369077Y-105729992D01*
X58346679Y-105784064D01*
X58140914Y-105784064D01*
X58118516Y-105729992D01*
X58077132Y-105688608D01*
X58023060Y-105666210D01*
X57964532Y-105666210D01*
X57910460Y-105688608D01*
X57869076Y-105729992D01*
X57846678Y-105784064D01*
X57843796Y-105813328D01*
X57843796Y-106748492D01*
X57266889Y-105738907D01*
X57262511Y-105732739D01*
X57261373Y-105729992D01*
X57258573Y-105727192D01*
X57249868Y-105714929D01*
X57234096Y-105702715D01*
X57219989Y-105688608D01*
X57211153Y-105684948D01*
X57203594Y-105679094D01*
X57184349Y-105673845D01*
X57165917Y-105666210D01*
X57156355Y-105666210D01*
X57147130Y-105663694D01*
X57127339Y-105666210D01*
X57107389Y-105666210D01*
X57098555Y-105669869D01*
X57089070Y-105671075D01*
X57071747Y-105680973D01*
X57053317Y-105688608D01*
X57046556Y-105695368D01*
X57038254Y-105700113D01*
X57026040Y-105715884D01*
X57011933Y-105729992D01*
X57008273Y-105738827D01*
X57002419Y-105746387D01*
X56997170Y-105765631D01*
X56989535Y-105784064D01*
X56988061Y-105799030D01*
X56987019Y-105802851D01*
X56987394Y-105805802D01*
X56986653Y-105813328D01*
X56420213Y-105813328D01*
X56385576Y-105778691D01*
X56374074Y-105769251D01*
X56371478Y-105766258D01*
X56366964Y-105763417D01*
X56362845Y-105760036D01*
X56359185Y-105758520D01*
X56346592Y-105750593D01*
X56203735Y-105679164D01*
X56176272Y-105668655D01*
X56170897Y-105668273D01*
X56165917Y-105666210D01*
X56136653Y-105663328D01*
X55850939Y-105663328D01*
X55821675Y-105666210D01*
X55816694Y-105668273D01*
X55811320Y-105668655D01*
X55783856Y-105679164D01*
X55641000Y-105750593D01*
X55628406Y-105758520D01*
X55624747Y-105760036D01*
X55620627Y-105763417D01*
X55616114Y-105766258D01*
X55613517Y-105769252D01*
X55602016Y-105778691D01*
X55459158Y-105921548D01*
X55440503Y-105944278D01*
X55436234Y-105954583D01*
X55429596Y-105963543D01*
X55419703Y-105991234D01*
X55348275Y-106276948D01*
X55347525Y-106282019D01*
X55346678Y-106284064D01*
X55345592Y-106295086D01*
X55343973Y-106306037D01*
X55344298Y-106308224D01*
X55343796Y-106313328D01*
X54429510Y-106313328D01*
X54429510Y-105963328D01*
X54993796Y-105963328D01*
X55023060Y-105960446D01*
X55077132Y-105938048D01*
X55118516Y-105896664D01*
X55140914Y-105842592D01*
X55140914Y-105784064D01*
X55118516Y-105729992D01*
X55077132Y-105688608D01*
X55023060Y-105666210D01*
X54993796Y-105663328D01*
X54279510Y-105663328D01*
X54250246Y-105666210D01*
X54196174Y-105688608D01*
X54154790Y-105729992D01*
X54132392Y-105784064D01*
X54129510Y-105813328D01*
X53962843Y-105813328D01*
X53962843Y-105496661D01*
X82664724Y-105496661D01*
X82664724Y-107629995D01*
G37*
D10*
X95003819Y-86026792D02*
X94527628Y-86360125D01*
X95003819Y-86598220D02*
X94003819Y-86598220D01*
X94003819Y-86598220D02*
X94003819Y-86217268D01*
X94003819Y-86217268D02*
X94051438Y-86122030D01*
X94051438Y-86122030D02*
X94099057Y-86074411D01*
X94099057Y-86074411D02*
X94194295Y-86026792D01*
X94194295Y-86026792D02*
X94337152Y-86026792D01*
X94337152Y-86026792D02*
X94432390Y-86074411D01*
X94432390Y-86074411D02*
X94480009Y-86122030D01*
X94480009Y-86122030D02*
X94527628Y-86217268D01*
X94527628Y-86217268D02*
X94527628Y-86598220D01*
X94003819Y-85741077D02*
X94003819Y-85169649D01*
X95003819Y-85455363D02*
X94003819Y-85455363D01*
X94956200Y-84883934D02*
X95003819Y-84741077D01*
X95003819Y-84741077D02*
X95003819Y-84502982D01*
X95003819Y-84502982D02*
X94956200Y-84407744D01*
X94956200Y-84407744D02*
X94908580Y-84360125D01*
X94908580Y-84360125D02*
X94813342Y-84312506D01*
X94813342Y-84312506D02*
X94718104Y-84312506D01*
X94718104Y-84312506D02*
X94622866Y-84360125D01*
X94622866Y-84360125D02*
X94575247Y-84407744D01*
X94575247Y-84407744D02*
X94527628Y-84502982D01*
X94527628Y-84502982D02*
X94480009Y-84693458D01*
X94480009Y-84693458D02*
X94432390Y-84788696D01*
X94432390Y-84788696D02*
X94384771Y-84836315D01*
X94384771Y-84836315D02*
X94289533Y-84883934D01*
X94289533Y-84883934D02*
X94194295Y-84883934D01*
X94194295Y-84883934D02*
X94099057Y-84836315D01*
X94099057Y-84836315D02*
X94051438Y-84788696D01*
X94051438Y-84788696D02*
X94003819Y-84693458D01*
X94003819Y-84693458D02*
X94003819Y-84455363D01*
X94003819Y-84455363D02*
X94051438Y-84312506D01*
X100091819Y-86026792D02*
X99615628Y-86360125D01*
X100091819Y-86598220D02*
X99091819Y-86598220D01*
X99091819Y-86598220D02*
X99091819Y-86217268D01*
X99091819Y-86217268D02*
X99139438Y-86122030D01*
X99139438Y-86122030D02*
X99187057Y-86074411D01*
X99187057Y-86074411D02*
X99282295Y-86026792D01*
X99282295Y-86026792D02*
X99425152Y-86026792D01*
X99425152Y-86026792D02*
X99520390Y-86074411D01*
X99520390Y-86074411D02*
X99568009Y-86122030D01*
X99568009Y-86122030D02*
X99615628Y-86217268D01*
X99615628Y-86217268D02*
X99615628Y-86598220D01*
X99091819Y-85693458D02*
X100091819Y-85026792D01*
X99091819Y-85026792D02*
X100091819Y-85693458D01*
X104798866Y-86898220D02*
X104798866Y-86136316D01*
X105179819Y-86517268D02*
X104417914Y-86517268D01*
X104179819Y-85755363D02*
X104179819Y-85136316D01*
X104179819Y-85136316D02*
X104560771Y-85469649D01*
X104560771Y-85469649D02*
X104560771Y-85326792D01*
X104560771Y-85326792D02*
X104608390Y-85231554D01*
X104608390Y-85231554D02*
X104656009Y-85183935D01*
X104656009Y-85183935D02*
X104751247Y-85136316D01*
X104751247Y-85136316D02*
X104989342Y-85136316D01*
X104989342Y-85136316D02*
X105084580Y-85183935D01*
X105084580Y-85183935D02*
X105132200Y-85231554D01*
X105132200Y-85231554D02*
X105179819Y-85326792D01*
X105179819Y-85326792D02*
X105179819Y-85612506D01*
X105179819Y-85612506D02*
X105132200Y-85707744D01*
X105132200Y-85707744D02*
X105084580Y-85755363D01*
X105132200Y-84660125D02*
X105179819Y-84660125D01*
X105179819Y-84660125D02*
X105275057Y-84707744D01*
X105275057Y-84707744D02*
X105322676Y-84755363D01*
X104179819Y-84326792D02*
X104179819Y-83707745D01*
X104179819Y-83707745D02*
X104560771Y-84041078D01*
X104560771Y-84041078D02*
X104560771Y-83898221D01*
X104560771Y-83898221D02*
X104608390Y-83802983D01*
X104608390Y-83802983D02*
X104656009Y-83755364D01*
X104656009Y-83755364D02*
X104751247Y-83707745D01*
X104751247Y-83707745D02*
X104989342Y-83707745D01*
X104989342Y-83707745D02*
X105084580Y-83755364D01*
X105084580Y-83755364D02*
X105132200Y-83802983D01*
X105132200Y-83802983D02*
X105179819Y-83898221D01*
X105179819Y-83898221D02*
X105179819Y-84183935D01*
X105179819Y-84183935D02*
X105132200Y-84279173D01*
X105132200Y-84279173D02*
X105084580Y-84326792D01*
X104179819Y-83422030D02*
X105179819Y-83088697D01*
X105179819Y-83088697D02*
X104179819Y-82755364D01*
X101683438Y-86074411D02*
X101635819Y-86169649D01*
X101635819Y-86169649D02*
X101635819Y-86312506D01*
X101635819Y-86312506D02*
X101683438Y-86455363D01*
X101683438Y-86455363D02*
X101778676Y-86550601D01*
X101778676Y-86550601D02*
X101873914Y-86598220D01*
X101873914Y-86598220D02*
X102064390Y-86645839D01*
X102064390Y-86645839D02*
X102207247Y-86645839D01*
X102207247Y-86645839D02*
X102397723Y-86598220D01*
X102397723Y-86598220D02*
X102492961Y-86550601D01*
X102492961Y-86550601D02*
X102588200Y-86455363D01*
X102588200Y-86455363D02*
X102635819Y-86312506D01*
X102635819Y-86312506D02*
X102635819Y-86217268D01*
X102635819Y-86217268D02*
X102588200Y-86074411D01*
X102588200Y-86074411D02*
X102540580Y-86026792D01*
X102540580Y-86026792D02*
X102207247Y-86026792D01*
X102207247Y-86026792D02*
X102207247Y-86217268D01*
X102635819Y-85598220D02*
X101635819Y-85598220D01*
X101635819Y-85598220D02*
X102635819Y-85026792D01*
X102635819Y-85026792D02*
X101635819Y-85026792D01*
X102635819Y-84550601D02*
X101635819Y-84550601D01*
X101635819Y-84550601D02*
X101635819Y-84312506D01*
X101635819Y-84312506D02*
X101683438Y-84169649D01*
X101683438Y-84169649D02*
X101778676Y-84074411D01*
X101778676Y-84074411D02*
X101873914Y-84026792D01*
X101873914Y-84026792D02*
X102064390Y-83979173D01*
X102064390Y-83979173D02*
X102207247Y-83979173D01*
X102207247Y-83979173D02*
X102397723Y-84026792D01*
X102397723Y-84026792D02*
X102492961Y-84074411D01*
X102492961Y-84074411D02*
X102588200Y-84169649D01*
X102588200Y-84169649D02*
X102635819Y-84312506D01*
X102635819Y-84312506D02*
X102635819Y-84550601D01*
X159913866Y-58098220D02*
X159913866Y-57336316D01*
X160294819Y-57717268D02*
X159532914Y-57717268D01*
X159913866Y-63198220D02*
X159913866Y-62436316D01*
X56937969Y-87504819D02*
X56461779Y-87504819D01*
X56461779Y-87504819D02*
X56461779Y-86504819D01*
X57795112Y-87504819D02*
X57223684Y-87504819D01*
X57509398Y-87504819D02*
X57509398Y-86504819D01*
X57509398Y-86504819D02*
X57414160Y-86647676D01*
X57414160Y-86647676D02*
X57318922Y-86742914D01*
X57318922Y-86742914D02*
X57223684Y-86790533D01*
X138185588Y-62304819D02*
X137614160Y-62304819D01*
X137899874Y-62304819D02*
X137899874Y-61304819D01*
X137899874Y-61304819D02*
X137804636Y-61447676D01*
X137804636Y-61447676D02*
X137709398Y-61542914D01*
X137709398Y-61542914D02*
X137614160Y-61590533D01*
X137566541Y-51304819D02*
X138185588Y-51304819D01*
X138185588Y-51304819D02*
X137852255Y-51685771D01*
X137852255Y-51685771D02*
X137995112Y-51685771D01*
X137995112Y-51685771D02*
X138090350Y-51733390D01*
X138090350Y-51733390D02*
X138137969Y-51781009D01*
X138137969Y-51781009D02*
X138185588Y-51876247D01*
X138185588Y-51876247D02*
X138185588Y-52114342D01*
X138185588Y-52114342D02*
X138137969Y-52209580D01*
X138137969Y-52209580D02*
X138090350Y-52257200D01*
X138090350Y-52257200D02*
X137995112Y-52304819D01*
X137995112Y-52304819D02*
X137709398Y-52304819D01*
X137709398Y-52304819D02*
X137614160Y-52257200D01*
X137614160Y-52257200D02*
X137566541Y-52209580D01*
X62237969Y-87604819D02*
X61761779Y-87604819D01*
X61761779Y-87604819D02*
X61761779Y-86604819D01*
X62523684Y-86700057D02*
X62571303Y-86652438D01*
X62571303Y-86652438D02*
X62666541Y-86604819D01*
X62666541Y-86604819D02*
X62904636Y-86604819D01*
X62904636Y-86604819D02*
X62999874Y-86652438D01*
X62999874Y-86652438D02*
X63047493Y-86700057D01*
X63047493Y-86700057D02*
X63095112Y-86795295D01*
X63095112Y-86795295D02*
X63095112Y-86890533D01*
X63095112Y-86890533D02*
X63047493Y-87033390D01*
X63047493Y-87033390D02*
X62476065Y-87604819D01*
X62476065Y-87604819D02*
X63095112Y-87604819D01*
X137614160Y-56300057D02*
X137661779Y-56252438D01*
X137661779Y-56252438D02*
X137757017Y-56204819D01*
X137757017Y-56204819D02*
X137995112Y-56204819D01*
X137995112Y-56204819D02*
X138090350Y-56252438D01*
X138090350Y-56252438D02*
X138137969Y-56300057D01*
X138137969Y-56300057D02*
X138185588Y-56395295D01*
X138185588Y-56395295D02*
X138185588Y-56490533D01*
X138185588Y-56490533D02*
X138137969Y-56633390D01*
X138137969Y-56633390D02*
X137566541Y-57204819D01*
X137566541Y-57204819D02*
X138185588Y-57204819D01*
X110247493Y-74404819D02*
X110247493Y-75119104D01*
X110247493Y-75119104D02*
X110199874Y-75261961D01*
X110199874Y-75261961D02*
X110104636Y-75357200D01*
X110104636Y-75357200D02*
X109961779Y-75404819D01*
X109961779Y-75404819D02*
X109866541Y-75404819D01*
X110723684Y-75404819D02*
X110723684Y-74404819D01*
X110723684Y-74404819D02*
X111104636Y-74404819D01*
X111104636Y-74404819D02*
X111199874Y-74452438D01*
X111199874Y-74452438D02*
X111247493Y-74500057D01*
X111247493Y-74500057D02*
X111295112Y-74595295D01*
X111295112Y-74595295D02*
X111295112Y-74738152D01*
X111295112Y-74738152D02*
X111247493Y-74833390D01*
X111247493Y-74833390D02*
X111199874Y-74881009D01*
X111199874Y-74881009D02*
X111104636Y-74928628D01*
X111104636Y-74928628D02*
X110723684Y-74928628D01*
X112152255Y-74738152D02*
X112152255Y-75404819D01*
X111914160Y-74357200D02*
X111676065Y-75071485D01*
X111676065Y-75071485D02*
X112295112Y-75071485D01*
X154947493Y-74304819D02*
X154947493Y-75019104D01*
X154947493Y-75019104D02*
X154899874Y-75161961D01*
X154899874Y-75161961D02*
X154804636Y-75257200D01*
X154804636Y-75257200D02*
X154661779Y-75304819D01*
X154661779Y-75304819D02*
X154566541Y-75304819D01*
X155423684Y-75304819D02*
X155423684Y-74304819D01*
X155423684Y-74304819D02*
X155804636Y-74304819D01*
X155804636Y-74304819D02*
X155899874Y-74352438D01*
X155899874Y-74352438D02*
X155947493Y-74400057D01*
X155947493Y-74400057D02*
X155995112Y-74495295D01*
X155995112Y-74495295D02*
X155995112Y-74638152D01*
X155995112Y-74638152D02*
X155947493Y-74733390D01*
X155947493Y-74733390D02*
X155899874Y-74781009D01*
X155899874Y-74781009D02*
X155804636Y-74828628D01*
X155804636Y-74828628D02*
X155423684Y-74828628D01*
X156852255Y-74638152D02*
X156852255Y-75304819D01*
X156614160Y-74257200D02*
X156376065Y-74971485D01*
X156376065Y-74971485D02*
X156995112Y-74971485D01*
X101367493Y-97354819D02*
X101367493Y-98069104D01*
X101367493Y-98069104D02*
X101319874Y-98211961D01*
X101319874Y-98211961D02*
X101224636Y-98307200D01*
X101224636Y-98307200D02*
X101081779Y-98354819D01*
X101081779Y-98354819D02*
X100986541Y-98354819D01*
X101843684Y-98354819D02*
X101843684Y-97354819D01*
X101843684Y-97354819D02*
X102224636Y-97354819D01*
X102224636Y-97354819D02*
X102319874Y-97402438D01*
X102319874Y-97402438D02*
X102367493Y-97450057D01*
X102367493Y-97450057D02*
X102415112Y-97545295D01*
X102415112Y-97545295D02*
X102415112Y-97688152D01*
X102415112Y-97688152D02*
X102367493Y-97783390D01*
X102367493Y-97783390D02*
X102319874Y-97831009D01*
X102319874Y-97831009D02*
X102224636Y-97878628D01*
X102224636Y-97878628D02*
X101843684Y-97878628D01*
X102796065Y-97450057D02*
X102843684Y-97402438D01*
X102843684Y-97402438D02*
X102938922Y-97354819D01*
X102938922Y-97354819D02*
X103177017Y-97354819D01*
X103177017Y-97354819D02*
X103272255Y-97402438D01*
X103272255Y-97402438D02*
X103319874Y-97450057D01*
X103319874Y-97450057D02*
X103367493Y-97545295D01*
X103367493Y-97545295D02*
X103367493Y-97640533D01*
X103367493Y-97640533D02*
X103319874Y-97783390D01*
X103319874Y-97783390D02*
X102748446Y-98354819D01*
X102748446Y-98354819D02*
X103367493Y-98354819D01*
X157414160Y-87857200D02*
X157557017Y-87904819D01*
X157557017Y-87904819D02*
X157795112Y-87904819D01*
X157795112Y-87904819D02*
X157890350Y-87857200D01*
X157890350Y-87857200D02*
X157937969Y-87809580D01*
X157937969Y-87809580D02*
X157985588Y-87714342D01*
X157985588Y-87714342D02*
X157985588Y-87619104D01*
X157985588Y-87619104D02*
X157937969Y-87523866D01*
X157937969Y-87523866D02*
X157890350Y-87476247D01*
X157890350Y-87476247D02*
X157795112Y-87428628D01*
X157795112Y-87428628D02*
X157604636Y-87381009D01*
X157604636Y-87381009D02*
X157509398Y-87333390D01*
X157509398Y-87333390D02*
X157461779Y-87285771D01*
X157461779Y-87285771D02*
X157414160Y-87190533D01*
X157414160Y-87190533D02*
X157414160Y-87095295D01*
X157414160Y-87095295D02*
X157461779Y-87000057D01*
X157461779Y-87000057D02*
X157509398Y-86952438D01*
X157509398Y-86952438D02*
X157604636Y-86904819D01*
X157604636Y-86904819D02*
X157842731Y-86904819D01*
X157842731Y-86904819D02*
X157985588Y-86952438D01*
X158985588Y-87809580D02*
X158937969Y-87857200D01*
X158937969Y-87857200D02*
X158795112Y-87904819D01*
X158795112Y-87904819D02*
X158699874Y-87904819D01*
X158699874Y-87904819D02*
X158557017Y-87857200D01*
X158557017Y-87857200D02*
X158461779Y-87761961D01*
X158461779Y-87761961D02*
X158414160Y-87666723D01*
X158414160Y-87666723D02*
X158366541Y-87476247D01*
X158366541Y-87476247D02*
X158366541Y-87333390D01*
X158366541Y-87333390D02*
X158414160Y-87142914D01*
X158414160Y-87142914D02*
X158461779Y-87047676D01*
X158461779Y-87047676D02*
X158557017Y-86952438D01*
X158557017Y-86952438D02*
X158699874Y-86904819D01*
X158699874Y-86904819D02*
X158795112Y-86904819D01*
X158795112Y-86904819D02*
X158937969Y-86952438D01*
X158937969Y-86952438D02*
X158985588Y-87000057D01*
X159890350Y-87904819D02*
X159414160Y-87904819D01*
X159414160Y-87904819D02*
X159414160Y-86904819D01*
X157985588Y-79192438D02*
X157890350Y-79144819D01*
X157890350Y-79144819D02*
X157747493Y-79144819D01*
X157747493Y-79144819D02*
X157604636Y-79192438D01*
X157604636Y-79192438D02*
X157509398Y-79287676D01*
X157509398Y-79287676D02*
X157461779Y-79382914D01*
X157461779Y-79382914D02*
X157414160Y-79573390D01*
X157414160Y-79573390D02*
X157414160Y-79716247D01*
X157414160Y-79716247D02*
X157461779Y-79906723D01*
X157461779Y-79906723D02*
X157509398Y-80001961D01*
X157509398Y-80001961D02*
X157604636Y-80097200D01*
X157604636Y-80097200D02*
X157747493Y-80144819D01*
X157747493Y-80144819D02*
X157842731Y-80144819D01*
X157842731Y-80144819D02*
X157985588Y-80097200D01*
X157985588Y-80097200D02*
X158033207Y-80049580D01*
X158033207Y-80049580D02*
X158033207Y-79716247D01*
X158033207Y-79716247D02*
X157842731Y-79716247D01*
X158461779Y-80144819D02*
X158461779Y-79144819D01*
X158461779Y-79144819D02*
X159033207Y-80144819D01*
X159033207Y-80144819D02*
X159033207Y-79144819D01*
X159509398Y-80144819D02*
X159509398Y-79144819D01*
X159509398Y-79144819D02*
X159747493Y-79144819D01*
X159747493Y-79144819D02*
X159890350Y-79192438D01*
X159890350Y-79192438D02*
X159985588Y-79287676D01*
X159985588Y-79287676D02*
X160033207Y-79382914D01*
X160033207Y-79382914D02*
X160080826Y-79573390D01*
X160080826Y-79573390D02*
X160080826Y-79716247D01*
X160080826Y-79716247D02*
X160033207Y-79906723D01*
X160033207Y-79906723D02*
X159985588Y-80001961D01*
X159985588Y-80001961D02*
X159890350Y-80097200D01*
X159890350Y-80097200D02*
X159747493Y-80144819D01*
X159747493Y-80144819D02*
X159509398Y-80144819D01*
X157414160Y-85270533D02*
X157557017Y-85318152D01*
X157557017Y-85318152D02*
X157795112Y-85318152D01*
X157795112Y-85318152D02*
X157890350Y-85270533D01*
X157890350Y-85270533D02*
X157937969Y-85222913D01*
X157937969Y-85222913D02*
X157985588Y-85127675D01*
X157985588Y-85127675D02*
X157985588Y-85032437D01*
X157985588Y-85032437D02*
X157937969Y-84937199D01*
X157937969Y-84937199D02*
X157890350Y-84889580D01*
X157890350Y-84889580D02*
X157795112Y-84841961D01*
X157795112Y-84841961D02*
X157604636Y-84794342D01*
X157604636Y-84794342D02*
X157509398Y-84746723D01*
X157509398Y-84746723D02*
X157461779Y-84699104D01*
X157461779Y-84699104D02*
X157414160Y-84603866D01*
X157414160Y-84603866D02*
X157414160Y-84508628D01*
X157414160Y-84508628D02*
X157461779Y-84413390D01*
X157461779Y-84413390D02*
X157509398Y-84365771D01*
X157509398Y-84365771D02*
X157604636Y-84318152D01*
X157604636Y-84318152D02*
X157842731Y-84318152D01*
X157842731Y-84318152D02*
X157985588Y-84365771D01*
X158414160Y-85318152D02*
X158414160Y-84318152D01*
X158414160Y-84318152D02*
X158652255Y-84318152D01*
X158652255Y-84318152D02*
X158795112Y-84365771D01*
X158795112Y-84365771D02*
X158890350Y-84461009D01*
X158890350Y-84461009D02*
X158937969Y-84556247D01*
X158937969Y-84556247D02*
X158985588Y-84746723D01*
X158985588Y-84746723D02*
X158985588Y-84889580D01*
X158985588Y-84889580D02*
X158937969Y-85080056D01*
X158937969Y-85080056D02*
X158890350Y-85175294D01*
X158890350Y-85175294D02*
X158795112Y-85270533D01*
X158795112Y-85270533D02*
X158652255Y-85318152D01*
X158652255Y-85318152D02*
X158414160Y-85318152D01*
X159366541Y-85032437D02*
X159842731Y-85032437D01*
X159271303Y-85318152D02*
X159604636Y-84318152D01*
X159604636Y-84318152D02*
X159937969Y-85318152D01*
X157461779Y-82350533D02*
X158223684Y-82350533D01*
X157842731Y-82731486D02*
X157842731Y-81969581D01*
X159176064Y-81731486D02*
X158699874Y-81731486D01*
X158699874Y-81731486D02*
X158652255Y-82207676D01*
X158652255Y-82207676D02*
X158699874Y-82160057D01*
X158699874Y-82160057D02*
X158795112Y-82112438D01*
X158795112Y-82112438D02*
X159033207Y-82112438D01*
X159033207Y-82112438D02*
X159128445Y-82160057D01*
X159128445Y-82160057D02*
X159176064Y-82207676D01*
X159176064Y-82207676D02*
X159223683Y-82302914D01*
X159223683Y-82302914D02*
X159223683Y-82541009D01*
X159223683Y-82541009D02*
X159176064Y-82636247D01*
X159176064Y-82636247D02*
X159128445Y-82683867D01*
X159128445Y-82683867D02*
X159033207Y-82731486D01*
X159033207Y-82731486D02*
X158795112Y-82731486D01*
X158795112Y-82731486D02*
X158699874Y-82683867D01*
X158699874Y-82683867D02*
X158652255Y-82636247D01*
X159509398Y-81731486D02*
X159842731Y-82731486D01*
X159842731Y-82731486D02*
X160176064Y-81731486D01*
D12*
X95470489Y-65920516D02*
X94327632Y-65920516D01*
X94899060Y-65349087D02*
X94899060Y-66491944D01*
X95470489Y-63505600D02*
X94327632Y-63505600D01*
D10*
X112658333Y-68894580D02*
X112610714Y-68942200D01*
X112610714Y-68942200D02*
X112467857Y-68989819D01*
X112467857Y-68989819D02*
X112372619Y-68989819D01*
X112372619Y-68989819D02*
X112229762Y-68942200D01*
X112229762Y-68942200D02*
X112134524Y-68846961D01*
X112134524Y-68846961D02*
X112086905Y-68751723D01*
X112086905Y-68751723D02*
X112039286Y-68561247D01*
X112039286Y-68561247D02*
X112039286Y-68418390D01*
X112039286Y-68418390D02*
X112086905Y-68227914D01*
X112086905Y-68227914D02*
X112134524Y-68132676D01*
X112134524Y-68132676D02*
X112229762Y-68037438D01*
X112229762Y-68037438D02*
X112372619Y-67989819D01*
X112372619Y-67989819D02*
X112467857Y-67989819D01*
X112467857Y-67989819D02*
X112610714Y-68037438D01*
X112610714Y-68037438D02*
X112658333Y-68085057D01*
X113134524Y-68989819D02*
X113325000Y-68989819D01*
X113325000Y-68989819D02*
X113420238Y-68942200D01*
X113420238Y-68942200D02*
X113467857Y-68894580D01*
X113467857Y-68894580D02*
X113563095Y-68751723D01*
X113563095Y-68751723D02*
X113610714Y-68561247D01*
X113610714Y-68561247D02*
X113610714Y-68180295D01*
X113610714Y-68180295D02*
X113563095Y-68085057D01*
X113563095Y-68085057D02*
X113515476Y-68037438D01*
X113515476Y-68037438D02*
X113420238Y-67989819D01*
X113420238Y-67989819D02*
X113229762Y-67989819D01*
X113229762Y-67989819D02*
X113134524Y-68037438D01*
X113134524Y-68037438D02*
X113086905Y-68085057D01*
X113086905Y-68085057D02*
X113039286Y-68180295D01*
X113039286Y-68180295D02*
X113039286Y-68418390D01*
X113039286Y-68418390D02*
X113086905Y-68513628D01*
X113086905Y-68513628D02*
X113134524Y-68561247D01*
X113134524Y-68561247D02*
X113229762Y-68608866D01*
X113229762Y-68608866D02*
X113420238Y-68608866D01*
X113420238Y-68608866D02*
X113515476Y-68561247D01*
X113515476Y-68561247D02*
X113563095Y-68513628D01*
X113563095Y-68513628D02*
X113610714Y-68418390D01*
X52441905Y-58389819D02*
X52441905Y-57389819D01*
X52441905Y-57389819D02*
X52680000Y-57389819D01*
X52680000Y-57389819D02*
X52822857Y-57437438D01*
X52822857Y-57437438D02*
X52918095Y-57532676D01*
X52918095Y-57532676D02*
X52965714Y-57627914D01*
X52965714Y-57627914D02*
X53013333Y-57818390D01*
X53013333Y-57818390D02*
X53013333Y-57961247D01*
X53013333Y-57961247D02*
X52965714Y-58151723D01*
X52965714Y-58151723D02*
X52918095Y-58246961D01*
X52918095Y-58246961D02*
X52822857Y-58342200D01*
X52822857Y-58342200D02*
X52680000Y-58389819D01*
X52680000Y-58389819D02*
X52441905Y-58389819D01*
X53394286Y-57485057D02*
X53441905Y-57437438D01*
X53441905Y-57437438D02*
X53537143Y-57389819D01*
X53537143Y-57389819D02*
X53775238Y-57389819D01*
X53775238Y-57389819D02*
X53870476Y-57437438D01*
X53870476Y-57437438D02*
X53918095Y-57485057D01*
X53918095Y-57485057D02*
X53965714Y-57580295D01*
X53965714Y-57580295D02*
X53965714Y-57675533D01*
X53965714Y-57675533D02*
X53918095Y-57818390D01*
X53918095Y-57818390D02*
X53346667Y-58389819D01*
X53346667Y-58389819D02*
X53965714Y-58389819D01*
X56098095Y-55789819D02*
X56098095Y-54789819D01*
X56669523Y-55789819D02*
X56240952Y-55218390D01*
X56669523Y-54789819D02*
X56098095Y-55361247D01*
X161058333Y-42089819D02*
X160582143Y-42089819D01*
X160582143Y-42089819D02*
X160582143Y-41089819D01*
X161391667Y-42089819D02*
X161391667Y-41089819D01*
X161391667Y-41089819D02*
X161629762Y-41089819D01*
X161629762Y-41089819D02*
X161772619Y-41137438D01*
X161772619Y-41137438D02*
X161867857Y-41232676D01*
X161867857Y-41232676D02*
X161915476Y-41327914D01*
X161915476Y-41327914D02*
X161963095Y-41518390D01*
X161963095Y-41518390D02*
X161963095Y-41661247D01*
X161963095Y-41661247D02*
X161915476Y-41851723D01*
X161915476Y-41851723D02*
X161867857Y-41946961D01*
X161867857Y-41946961D02*
X161772619Y-42042200D01*
X161772619Y-42042200D02*
X161629762Y-42089819D01*
X161629762Y-42089819D02*
X161391667Y-42089819D01*
X162915476Y-42089819D02*
X162344048Y-42089819D01*
X162629762Y-42089819D02*
X162629762Y-41089819D01*
X162629762Y-41089819D02*
X162534524Y-41232676D01*
X162534524Y-41232676D02*
X162439286Y-41327914D01*
X162439286Y-41327914D02*
X162344048Y-41375533D01*
X121758333Y-68189819D02*
X121425000Y-67713628D01*
X121186905Y-68189819D02*
X121186905Y-67189819D01*
X121186905Y-67189819D02*
X121567857Y-67189819D01*
X121567857Y-67189819D02*
X121663095Y-67237438D01*
X121663095Y-67237438D02*
X121710714Y-67285057D01*
X121710714Y-67285057D02*
X121758333Y-67380295D01*
X121758333Y-67380295D02*
X121758333Y-67523152D01*
X121758333Y-67523152D02*
X121710714Y-67618390D01*
X121710714Y-67618390D02*
X121663095Y-67666009D01*
X121663095Y-67666009D02*
X121567857Y-67713628D01*
X121567857Y-67713628D02*
X121186905Y-67713628D01*
X122710714Y-67237438D02*
X122615476Y-67189819D01*
X122615476Y-67189819D02*
X122472619Y-67189819D01*
X122472619Y-67189819D02*
X122329762Y-67237438D01*
X122329762Y-67237438D02*
X122234524Y-67332676D01*
X122234524Y-67332676D02*
X122186905Y-67427914D01*
X122186905Y-67427914D02*
X122139286Y-67618390D01*
X122139286Y-67618390D02*
X122139286Y-67761247D01*
X122139286Y-67761247D02*
X122186905Y-67951723D01*
X122186905Y-67951723D02*
X122234524Y-68046961D01*
X122234524Y-68046961D02*
X122329762Y-68142200D01*
X122329762Y-68142200D02*
X122472619Y-68189819D01*
X122472619Y-68189819D02*
X122567857Y-68189819D01*
X122567857Y-68189819D02*
X122710714Y-68142200D01*
X122710714Y-68142200D02*
X122758333Y-68094580D01*
X122758333Y-68094580D02*
X122758333Y-67761247D01*
X122758333Y-67761247D02*
X122567857Y-67761247D01*
X123710714Y-68189819D02*
X123139286Y-68189819D01*
X123425000Y-68189819D02*
X123425000Y-67189819D01*
X123425000Y-67189819D02*
X123329762Y-67332676D01*
X123329762Y-67332676D02*
X123234524Y-67427914D01*
X123234524Y-67427914D02*
X123139286Y-67475533D01*
X156734523Y-54694580D02*
X156686904Y-54742200D01*
X156686904Y-54742200D02*
X156544047Y-54789819D01*
X156544047Y-54789819D02*
X156448809Y-54789819D01*
X156448809Y-54789819D02*
X156305952Y-54742200D01*
X156305952Y-54742200D02*
X156210714Y-54646961D01*
X156210714Y-54646961D02*
X156163095Y-54551723D01*
X156163095Y-54551723D02*
X156115476Y-54361247D01*
X156115476Y-54361247D02*
X156115476Y-54218390D01*
X156115476Y-54218390D02*
X156163095Y-54027914D01*
X156163095Y-54027914D02*
X156210714Y-53932676D01*
X156210714Y-53932676D02*
X156305952Y-53837438D01*
X156305952Y-53837438D02*
X156448809Y-53789819D01*
X156448809Y-53789819D02*
X156544047Y-53789819D01*
X156544047Y-53789819D02*
X156686904Y-53837438D01*
X156686904Y-53837438D02*
X156734523Y-53885057D01*
X157163095Y-54789819D02*
X157163095Y-53789819D01*
X157163095Y-53789819D02*
X157734523Y-54789819D01*
X157734523Y-54789819D02*
X157734523Y-53789819D01*
X158163095Y-53885057D02*
X158210714Y-53837438D01*
X158210714Y-53837438D02*
X158305952Y-53789819D01*
X158305952Y-53789819D02*
X158544047Y-53789819D01*
X158544047Y-53789819D02*
X158639285Y-53837438D01*
X158639285Y-53837438D02*
X158686904Y-53885057D01*
X158686904Y-53885057D02*
X158734523Y-53980295D01*
X158734523Y-53980295D02*
X158734523Y-54075533D01*
X158734523Y-54075533D02*
X158686904Y-54218390D01*
X158686904Y-54218390D02*
X158115476Y-54789819D01*
X158115476Y-54789819D02*
X158734523Y-54789819D01*
X163582142Y-76689819D02*
X163248809Y-76213628D01*
X163010714Y-76689819D02*
X163010714Y-75689819D01*
X163010714Y-75689819D02*
X163391666Y-75689819D01*
X163391666Y-75689819D02*
X163486904Y-75737438D01*
X163486904Y-75737438D02*
X163534523Y-75785057D01*
X163534523Y-75785057D02*
X163582142Y-75880295D01*
X163582142Y-75880295D02*
X163582142Y-76023152D01*
X163582142Y-76023152D02*
X163534523Y-76118390D01*
X163534523Y-76118390D02*
X163486904Y-76166009D01*
X163486904Y-76166009D02*
X163391666Y-76213628D01*
X163391666Y-76213628D02*
X163010714Y-76213628D01*
X164534523Y-76689819D02*
X163963095Y-76689819D01*
X164248809Y-76689819D02*
X164248809Y-75689819D01*
X164248809Y-75689819D02*
X164153571Y-75832676D01*
X164153571Y-75832676D02*
X164058333Y-75927914D01*
X164058333Y-75927914D02*
X163963095Y-75975533D01*
X165486904Y-76689819D02*
X164915476Y-76689819D01*
X165201190Y-76689819D02*
X165201190Y-75689819D01*
X165201190Y-75689819D02*
X165105952Y-75832676D01*
X165105952Y-75832676D02*
X165010714Y-75927914D01*
X165010714Y-75927914D02*
X164915476Y-75975533D01*
X94132261Y-70107557D02*
X94037023Y-70059938D01*
X94037023Y-70059938D02*
X93941785Y-69964700D01*
X93941785Y-69964700D02*
X93798928Y-69821842D01*
X93798928Y-69821842D02*
X93703690Y-69774223D01*
X93703690Y-69774223D02*
X93608452Y-69774223D01*
X93656071Y-70012319D02*
X93560833Y-69964700D01*
X93560833Y-69964700D02*
X93465595Y-69869461D01*
X93465595Y-69869461D02*
X93417976Y-69678985D01*
X93417976Y-69678985D02*
X93417976Y-69345652D01*
X93417976Y-69345652D02*
X93465595Y-69155176D01*
X93465595Y-69155176D02*
X93560833Y-69059938D01*
X93560833Y-69059938D02*
X93656071Y-69012319D01*
X93656071Y-69012319D02*
X93846547Y-69012319D01*
X93846547Y-69012319D02*
X93941785Y-69059938D01*
X93941785Y-69059938D02*
X94037023Y-69155176D01*
X94037023Y-69155176D02*
X94084642Y-69345652D01*
X94084642Y-69345652D02*
X94084642Y-69678985D01*
X94084642Y-69678985D02*
X94037023Y-69869461D01*
X94037023Y-69869461D02*
X93941785Y-69964700D01*
X93941785Y-69964700D02*
X93846547Y-70012319D01*
X93846547Y-70012319D02*
X93656071Y-70012319D01*
X94941785Y-69345652D02*
X94941785Y-70012319D01*
X94703690Y-68964700D02*
X94465595Y-69678985D01*
X94465595Y-69678985D02*
X95084642Y-69678985D01*
X102329761Y-78285057D02*
X102234523Y-78237438D01*
X102234523Y-78237438D02*
X102139285Y-78142200D01*
X102139285Y-78142200D02*
X101996428Y-77999342D01*
X101996428Y-77999342D02*
X101901190Y-77951723D01*
X101901190Y-77951723D02*
X101805952Y-77951723D01*
X101853571Y-78189819D02*
X101758333Y-78142200D01*
X101758333Y-78142200D02*
X101663095Y-78046961D01*
X101663095Y-78046961D02*
X101615476Y-77856485D01*
X101615476Y-77856485D02*
X101615476Y-77523152D01*
X101615476Y-77523152D02*
X101663095Y-77332676D01*
X101663095Y-77332676D02*
X101758333Y-77237438D01*
X101758333Y-77237438D02*
X101853571Y-77189819D01*
X101853571Y-77189819D02*
X102044047Y-77189819D01*
X102044047Y-77189819D02*
X102139285Y-77237438D01*
X102139285Y-77237438D02*
X102234523Y-77332676D01*
X102234523Y-77332676D02*
X102282142Y-77523152D01*
X102282142Y-77523152D02*
X102282142Y-77856485D01*
X102282142Y-77856485D02*
X102234523Y-78046961D01*
X102234523Y-78046961D02*
X102139285Y-78142200D01*
X102139285Y-78142200D02*
X102044047Y-78189819D01*
X102044047Y-78189819D02*
X101853571Y-78189819D01*
X102615476Y-77189819D02*
X103234523Y-77189819D01*
X103234523Y-77189819D02*
X102901190Y-77570771D01*
X102901190Y-77570771D02*
X103044047Y-77570771D01*
X103044047Y-77570771D02*
X103139285Y-77618390D01*
X103139285Y-77618390D02*
X103186904Y-77666009D01*
X103186904Y-77666009D02*
X103234523Y-77761247D01*
X103234523Y-77761247D02*
X103234523Y-77999342D01*
X103234523Y-77999342D02*
X103186904Y-78094580D01*
X103186904Y-78094580D02*
X103139285Y-78142200D01*
X103139285Y-78142200D02*
X103044047Y-78189819D01*
X103044047Y-78189819D02*
X102758333Y-78189819D01*
X102758333Y-78189819D02*
X102663095Y-78142200D01*
X102663095Y-78142200D02*
X102615476Y-78094580D01*
X88650833Y-78312319D02*
X88317500Y-77836128D01*
X88079405Y-78312319D02*
X88079405Y-77312319D01*
X88079405Y-77312319D02*
X88460357Y-77312319D01*
X88460357Y-77312319D02*
X88555595Y-77359938D01*
X88555595Y-77359938D02*
X88603214Y-77407557D01*
X88603214Y-77407557D02*
X88650833Y-77502795D01*
X88650833Y-77502795D02*
X88650833Y-77645652D01*
X88650833Y-77645652D02*
X88603214Y-77740890D01*
X88603214Y-77740890D02*
X88555595Y-77788509D01*
X88555595Y-77788509D02*
X88460357Y-77836128D01*
X88460357Y-77836128D02*
X88079405Y-77836128D01*
X89222262Y-77740890D02*
X89127024Y-77693271D01*
X89127024Y-77693271D02*
X89079405Y-77645652D01*
X89079405Y-77645652D02*
X89031786Y-77550414D01*
X89031786Y-77550414D02*
X89031786Y-77502795D01*
X89031786Y-77502795D02*
X89079405Y-77407557D01*
X89079405Y-77407557D02*
X89127024Y-77359938D01*
X89127024Y-77359938D02*
X89222262Y-77312319D01*
X89222262Y-77312319D02*
X89412738Y-77312319D01*
X89412738Y-77312319D02*
X89507976Y-77359938D01*
X89507976Y-77359938D02*
X89555595Y-77407557D01*
X89555595Y-77407557D02*
X89603214Y-77502795D01*
X89603214Y-77502795D02*
X89603214Y-77550414D01*
X89603214Y-77550414D02*
X89555595Y-77645652D01*
X89555595Y-77645652D02*
X89507976Y-77693271D01*
X89507976Y-77693271D02*
X89412738Y-77740890D01*
X89412738Y-77740890D02*
X89222262Y-77740890D01*
X89222262Y-77740890D02*
X89127024Y-77788509D01*
X89127024Y-77788509D02*
X89079405Y-77836128D01*
X89079405Y-77836128D02*
X89031786Y-77931366D01*
X89031786Y-77931366D02*
X89031786Y-78121842D01*
X89031786Y-78121842D02*
X89079405Y-78217080D01*
X89079405Y-78217080D02*
X89127024Y-78264700D01*
X89127024Y-78264700D02*
X89222262Y-78312319D01*
X89222262Y-78312319D02*
X89412738Y-78312319D01*
X89412738Y-78312319D02*
X89507976Y-78264700D01*
X89507976Y-78264700D02*
X89555595Y-78217080D01*
X89555595Y-78217080D02*
X89603214Y-78121842D01*
X89603214Y-78121842D02*
X89603214Y-77931366D01*
X89603214Y-77931366D02*
X89555595Y-77836128D01*
X89555595Y-77836128D02*
X89507976Y-77788509D01*
X89507976Y-77788509D02*
X89412738Y-77740890D01*
X52441905Y-51139819D02*
X52441905Y-50139819D01*
X52441905Y-50139819D02*
X52680000Y-50139819D01*
X52680000Y-50139819D02*
X52822857Y-50187438D01*
X52822857Y-50187438D02*
X52918095Y-50282676D01*
X52918095Y-50282676D02*
X52965714Y-50377914D01*
X52965714Y-50377914D02*
X53013333Y-50568390D01*
X53013333Y-50568390D02*
X53013333Y-50711247D01*
X53013333Y-50711247D02*
X52965714Y-50901723D01*
X52965714Y-50901723D02*
X52918095Y-50996961D01*
X52918095Y-50996961D02*
X52822857Y-51092200D01*
X52822857Y-51092200D02*
X52680000Y-51139819D01*
X52680000Y-51139819D02*
X52441905Y-51139819D01*
X53346667Y-50139819D02*
X53965714Y-50139819D01*
X53965714Y-50139819D02*
X53632381Y-50520771D01*
X53632381Y-50520771D02*
X53775238Y-50520771D01*
X53775238Y-50520771D02*
X53870476Y-50568390D01*
X53870476Y-50568390D02*
X53918095Y-50616009D01*
X53918095Y-50616009D02*
X53965714Y-50711247D01*
X53965714Y-50711247D02*
X53965714Y-50949342D01*
X53965714Y-50949342D02*
X53918095Y-51044580D01*
X53918095Y-51044580D02*
X53870476Y-51092200D01*
X53870476Y-51092200D02*
X53775238Y-51139819D01*
X53775238Y-51139819D02*
X53489524Y-51139819D01*
X53489524Y-51139819D02*
X53394286Y-51092200D01*
X53394286Y-51092200D02*
X53346667Y-51044580D01*
X71338095Y-53989819D02*
X71338095Y-52989819D01*
X71909523Y-53989819D02*
X71480952Y-53418390D01*
X71909523Y-52989819D02*
X71338095Y-53561247D01*
X113480952Y-39462819D02*
X113147619Y-38986628D01*
X112909524Y-39462819D02*
X112909524Y-38462819D01*
X112909524Y-38462819D02*
X113290476Y-38462819D01*
X113290476Y-38462819D02*
X113385714Y-38510438D01*
X113385714Y-38510438D02*
X113433333Y-38558057D01*
X113433333Y-38558057D02*
X113480952Y-38653295D01*
X113480952Y-38653295D02*
X113480952Y-38796152D01*
X113480952Y-38796152D02*
X113433333Y-38891390D01*
X113433333Y-38891390D02*
X113385714Y-38939009D01*
X113385714Y-38939009D02*
X113290476Y-38986628D01*
X113290476Y-38986628D02*
X112909524Y-38986628D01*
X113909524Y-38939009D02*
X114242857Y-38939009D01*
X114385714Y-39462819D02*
X113909524Y-39462819D01*
X113909524Y-39462819D02*
X113909524Y-38462819D01*
X113909524Y-38462819D02*
X114385714Y-38462819D01*
X115338095Y-38510438D02*
X115242857Y-38462819D01*
X115242857Y-38462819D02*
X115100000Y-38462819D01*
X115100000Y-38462819D02*
X114957143Y-38510438D01*
X114957143Y-38510438D02*
X114861905Y-38605676D01*
X114861905Y-38605676D02*
X114814286Y-38700914D01*
X114814286Y-38700914D02*
X114766667Y-38891390D01*
X114766667Y-38891390D02*
X114766667Y-39034247D01*
X114766667Y-39034247D02*
X114814286Y-39224723D01*
X114814286Y-39224723D02*
X114861905Y-39319961D01*
X114861905Y-39319961D02*
X114957143Y-39415200D01*
X114957143Y-39415200D02*
X115100000Y-39462819D01*
X115100000Y-39462819D02*
X115195238Y-39462819D01*
X115195238Y-39462819D02*
X115338095Y-39415200D01*
X115338095Y-39415200D02*
X115385714Y-39367580D01*
X115385714Y-39367580D02*
X115385714Y-39034247D01*
X115385714Y-39034247D02*
X115195238Y-39034247D01*
X116338095Y-39462819D02*
X115766667Y-39462819D01*
X116052381Y-39462819D02*
X116052381Y-38462819D01*
X116052381Y-38462819D02*
X115957143Y-38605676D01*
X115957143Y-38605676D02*
X115861905Y-38700914D01*
X115861905Y-38700914D02*
X115766667Y-38748533D01*
X100123333Y-40546825D02*
X100075714Y-40594445D01*
X100075714Y-40594445D02*
X99932857Y-40642064D01*
X99932857Y-40642064D02*
X99837619Y-40642064D01*
X99837619Y-40642064D02*
X99694762Y-40594445D01*
X99694762Y-40594445D02*
X99599524Y-40499206D01*
X99599524Y-40499206D02*
X99551905Y-40403968D01*
X99551905Y-40403968D02*
X99504286Y-40213492D01*
X99504286Y-40213492D02*
X99504286Y-40070635D01*
X99504286Y-40070635D02*
X99551905Y-39880159D01*
X99551905Y-39880159D02*
X99599524Y-39784921D01*
X99599524Y-39784921D02*
X99694762Y-39689683D01*
X99694762Y-39689683D02*
X99837619Y-39642064D01*
X99837619Y-39642064D02*
X99932857Y-39642064D01*
X99932857Y-39642064D02*
X100075714Y-39689683D01*
X100075714Y-39689683D02*
X100123333Y-39737302D01*
X101028095Y-39642064D02*
X100551905Y-39642064D01*
X100551905Y-39642064D02*
X100504286Y-40118254D01*
X100504286Y-40118254D02*
X100551905Y-40070635D01*
X100551905Y-40070635D02*
X100647143Y-40023016D01*
X100647143Y-40023016D02*
X100885238Y-40023016D01*
X100885238Y-40023016D02*
X100980476Y-40070635D01*
X100980476Y-40070635D02*
X101028095Y-40118254D01*
X101028095Y-40118254D02*
X101075714Y-40213492D01*
X101075714Y-40213492D02*
X101075714Y-40451587D01*
X101075714Y-40451587D02*
X101028095Y-40546825D01*
X101028095Y-40546825D02*
X100980476Y-40594445D01*
X100980476Y-40594445D02*
X100885238Y-40642064D01*
X100885238Y-40642064D02*
X100647143Y-40642064D01*
X100647143Y-40642064D02*
X100551905Y-40594445D01*
X100551905Y-40594445D02*
X100504286Y-40546825D01*
X126194761Y-39555057D02*
X126099523Y-39507438D01*
X126099523Y-39507438D02*
X126004285Y-39412200D01*
X126004285Y-39412200D02*
X125861428Y-39269342D01*
X125861428Y-39269342D02*
X125766190Y-39221723D01*
X125766190Y-39221723D02*
X125670952Y-39221723D01*
X125718571Y-39459819D02*
X125623333Y-39412200D01*
X125623333Y-39412200D02*
X125528095Y-39316961D01*
X125528095Y-39316961D02*
X125480476Y-39126485D01*
X125480476Y-39126485D02*
X125480476Y-38793152D01*
X125480476Y-38793152D02*
X125528095Y-38602676D01*
X125528095Y-38602676D02*
X125623333Y-38507438D01*
X125623333Y-38507438D02*
X125718571Y-38459819D01*
X125718571Y-38459819D02*
X125909047Y-38459819D01*
X125909047Y-38459819D02*
X126004285Y-38507438D01*
X126004285Y-38507438D02*
X126099523Y-38602676D01*
X126099523Y-38602676D02*
X126147142Y-38793152D01*
X126147142Y-38793152D02*
X126147142Y-39126485D01*
X126147142Y-39126485D02*
X126099523Y-39316961D01*
X126099523Y-39316961D02*
X126004285Y-39412200D01*
X126004285Y-39412200D02*
X125909047Y-39459819D01*
X125909047Y-39459819D02*
X125718571Y-39459819D01*
X127099523Y-39459819D02*
X126528095Y-39459819D01*
X126813809Y-39459819D02*
X126813809Y-38459819D01*
X126813809Y-38459819D02*
X126718571Y-38602676D01*
X126718571Y-38602676D02*
X126623333Y-38697914D01*
X126623333Y-38697914D02*
X126528095Y-38745533D01*
X116667683Y-89962200D02*
X116810540Y-90009819D01*
X116810540Y-90009819D02*
X117048635Y-90009819D01*
X117048635Y-90009819D02*
X117143873Y-89962200D01*
X117143873Y-89962200D02*
X117191492Y-89914580D01*
X117191492Y-89914580D02*
X117239111Y-89819342D01*
X117239111Y-89819342D02*
X117239111Y-89724104D01*
X117239111Y-89724104D02*
X117191492Y-89628866D01*
X117191492Y-89628866D02*
X117143873Y-89581247D01*
X117143873Y-89581247D02*
X117048635Y-89533628D01*
X117048635Y-89533628D02*
X116858159Y-89486009D01*
X116858159Y-89486009D02*
X116762921Y-89438390D01*
X116762921Y-89438390D02*
X116715302Y-89390771D01*
X116715302Y-89390771D02*
X116667683Y-89295533D01*
X116667683Y-89295533D02*
X116667683Y-89200295D01*
X116667683Y-89200295D02*
X116715302Y-89105057D01*
X116715302Y-89105057D02*
X116762921Y-89057438D01*
X116762921Y-89057438D02*
X116858159Y-89009819D01*
X116858159Y-89009819D02*
X117096254Y-89009819D01*
X117096254Y-89009819D02*
X117239111Y-89057438D01*
X117524826Y-89009819D02*
X118096254Y-89009819D01*
X117810540Y-90009819D02*
X117810540Y-89009819D01*
X118953397Y-90009819D02*
X118381969Y-90009819D01*
X118667683Y-90009819D02*
X118667683Y-89009819D01*
X118667683Y-89009819D02*
X118572445Y-89152676D01*
X118572445Y-89152676D02*
X118477207Y-89247914D01*
X118477207Y-89247914D02*
X118381969Y-89295533D01*
X83263333Y-40546825D02*
X83215714Y-40594445D01*
X83215714Y-40594445D02*
X83072857Y-40642064D01*
X83072857Y-40642064D02*
X82977619Y-40642064D01*
X82977619Y-40642064D02*
X82834762Y-40594445D01*
X82834762Y-40594445D02*
X82739524Y-40499206D01*
X82739524Y-40499206D02*
X82691905Y-40403968D01*
X82691905Y-40403968D02*
X82644286Y-40213492D01*
X82644286Y-40213492D02*
X82644286Y-40070635D01*
X82644286Y-40070635D02*
X82691905Y-39880159D01*
X82691905Y-39880159D02*
X82739524Y-39784921D01*
X82739524Y-39784921D02*
X82834762Y-39689683D01*
X82834762Y-39689683D02*
X82977619Y-39642064D01*
X82977619Y-39642064D02*
X83072857Y-39642064D01*
X83072857Y-39642064D02*
X83215714Y-39689683D01*
X83215714Y-39689683D02*
X83263333Y-39737302D01*
X84215714Y-40642064D02*
X83644286Y-40642064D01*
X83930000Y-40642064D02*
X83930000Y-39642064D01*
X83930000Y-39642064D02*
X83834762Y-39784921D01*
X83834762Y-39784921D02*
X83739524Y-39880159D01*
X83739524Y-39880159D02*
X83644286Y-39927778D01*
X129129761Y-78189819D02*
X128796428Y-77713628D01*
X128558333Y-78189819D02*
X128558333Y-77189819D01*
X128558333Y-77189819D02*
X128939285Y-77189819D01*
X128939285Y-77189819D02*
X129034523Y-77237438D01*
X129034523Y-77237438D02*
X129082142Y-77285057D01*
X129082142Y-77285057D02*
X129129761Y-77380295D01*
X129129761Y-77380295D02*
X129129761Y-77523152D01*
X129129761Y-77523152D02*
X129082142Y-77618390D01*
X129082142Y-77618390D02*
X129034523Y-77666009D01*
X129034523Y-77666009D02*
X128939285Y-77713628D01*
X128939285Y-77713628D02*
X128558333Y-77713628D01*
X129891666Y-77666009D02*
X129558333Y-77666009D01*
X129558333Y-78189819D02*
X129558333Y-77189819D01*
X129558333Y-77189819D02*
X130034523Y-77189819D01*
X130939285Y-78189819D02*
X130367857Y-78189819D01*
X130653571Y-78189819D02*
X130653571Y-77189819D01*
X130653571Y-77189819D02*
X130558333Y-77332676D01*
X130558333Y-77332676D02*
X130463095Y-77427914D01*
X130463095Y-77427914D02*
X130367857Y-77475533D01*
X122958333Y-48094580D02*
X122910714Y-48142200D01*
X122910714Y-48142200D02*
X122767857Y-48189819D01*
X122767857Y-48189819D02*
X122672619Y-48189819D01*
X122672619Y-48189819D02*
X122529762Y-48142200D01*
X122529762Y-48142200D02*
X122434524Y-48046961D01*
X122434524Y-48046961D02*
X122386905Y-47951723D01*
X122386905Y-47951723D02*
X122339286Y-47761247D01*
X122339286Y-47761247D02*
X122339286Y-47618390D01*
X122339286Y-47618390D02*
X122386905Y-47427914D01*
X122386905Y-47427914D02*
X122434524Y-47332676D01*
X122434524Y-47332676D02*
X122529762Y-47237438D01*
X122529762Y-47237438D02*
X122672619Y-47189819D01*
X122672619Y-47189819D02*
X122767857Y-47189819D01*
X122767857Y-47189819D02*
X122910714Y-47237438D01*
X122910714Y-47237438D02*
X122958333Y-47285057D01*
X123815476Y-47523152D02*
X123815476Y-48189819D01*
X123577381Y-47142200D02*
X123339286Y-47856485D01*
X123339286Y-47856485D02*
X123958333Y-47856485D01*
X52441905Y-64389819D02*
X52441905Y-63389819D01*
X52441905Y-63389819D02*
X52680000Y-63389819D01*
X52680000Y-63389819D02*
X52822857Y-63437438D01*
X52822857Y-63437438D02*
X52918095Y-63532676D01*
X52918095Y-63532676D02*
X52965714Y-63627914D01*
X52965714Y-63627914D02*
X53013333Y-63818390D01*
X53013333Y-63818390D02*
X53013333Y-63961247D01*
X53013333Y-63961247D02*
X52965714Y-64151723D01*
X52965714Y-64151723D02*
X52918095Y-64246961D01*
X52918095Y-64246961D02*
X52822857Y-64342200D01*
X52822857Y-64342200D02*
X52680000Y-64389819D01*
X52680000Y-64389819D02*
X52441905Y-64389819D01*
X53870476Y-63723152D02*
X53870476Y-64389819D01*
X53632381Y-63342200D02*
X53394286Y-64056485D01*
X53394286Y-64056485D02*
X54013333Y-64056485D01*
X71338095Y-67489819D02*
X71338095Y-66489819D01*
X71909523Y-67489819D02*
X71480952Y-66918390D01*
X71909523Y-66489819D02*
X71338095Y-67061247D01*
X125282142Y-91094580D02*
X125234523Y-91142200D01*
X125234523Y-91142200D02*
X125091666Y-91189819D01*
X125091666Y-91189819D02*
X124996428Y-91189819D01*
X124996428Y-91189819D02*
X124853571Y-91142200D01*
X124853571Y-91142200D02*
X124758333Y-91046961D01*
X124758333Y-91046961D02*
X124710714Y-90951723D01*
X124710714Y-90951723D02*
X124663095Y-90761247D01*
X124663095Y-90761247D02*
X124663095Y-90618390D01*
X124663095Y-90618390D02*
X124710714Y-90427914D01*
X124710714Y-90427914D02*
X124758333Y-90332676D01*
X124758333Y-90332676D02*
X124853571Y-90237438D01*
X124853571Y-90237438D02*
X124996428Y-90189819D01*
X124996428Y-90189819D02*
X125091666Y-90189819D01*
X125091666Y-90189819D02*
X125234523Y-90237438D01*
X125234523Y-90237438D02*
X125282142Y-90285057D01*
X126234523Y-91189819D02*
X125663095Y-91189819D01*
X125948809Y-91189819D02*
X125948809Y-90189819D01*
X125948809Y-90189819D02*
X125853571Y-90332676D01*
X125853571Y-90332676D02*
X125758333Y-90427914D01*
X125758333Y-90427914D02*
X125663095Y-90475533D01*
X127186904Y-91189819D02*
X126615476Y-91189819D01*
X126901190Y-91189819D02*
X126901190Y-90189819D01*
X126901190Y-90189819D02*
X126805952Y-90332676D01*
X126805952Y-90332676D02*
X126710714Y-90427914D01*
X126710714Y-90427914D02*
X126615476Y-90475533D01*
X89391666Y-88019819D02*
X89391666Y-88734104D01*
X89391666Y-88734104D02*
X89344047Y-88876961D01*
X89344047Y-88876961D02*
X89248809Y-88972200D01*
X89248809Y-88972200D02*
X89105952Y-89019819D01*
X89105952Y-89019819D02*
X89010714Y-89019819D01*
X89820238Y-88115057D02*
X89867857Y-88067438D01*
X89867857Y-88067438D02*
X89963095Y-88019819D01*
X89963095Y-88019819D02*
X90201190Y-88019819D01*
X90201190Y-88019819D02*
X90296428Y-88067438D01*
X90296428Y-88067438D02*
X90344047Y-88115057D01*
X90344047Y-88115057D02*
X90391666Y-88210295D01*
X90391666Y-88210295D02*
X90391666Y-88305533D01*
X90391666Y-88305533D02*
X90344047Y-88448390D01*
X90344047Y-88448390D02*
X89772619Y-89019819D01*
X89772619Y-89019819D02*
X90391666Y-89019819D01*
X88650833Y-82337319D02*
X88317500Y-81861128D01*
X88079405Y-82337319D02*
X88079405Y-81337319D01*
X88079405Y-81337319D02*
X88460357Y-81337319D01*
X88460357Y-81337319D02*
X88555595Y-81384938D01*
X88555595Y-81384938D02*
X88603214Y-81432557D01*
X88603214Y-81432557D02*
X88650833Y-81527795D01*
X88650833Y-81527795D02*
X88650833Y-81670652D01*
X88650833Y-81670652D02*
X88603214Y-81765890D01*
X88603214Y-81765890D02*
X88555595Y-81813509D01*
X88555595Y-81813509D02*
X88460357Y-81861128D01*
X88460357Y-81861128D02*
X88079405Y-81861128D01*
X89127024Y-82337319D02*
X89317500Y-82337319D01*
X89317500Y-82337319D02*
X89412738Y-82289700D01*
X89412738Y-82289700D02*
X89460357Y-82242080D01*
X89460357Y-82242080D02*
X89555595Y-82099223D01*
X89555595Y-82099223D02*
X89603214Y-81908747D01*
X89603214Y-81908747D02*
X89603214Y-81527795D01*
X89603214Y-81527795D02*
X89555595Y-81432557D01*
X89555595Y-81432557D02*
X89507976Y-81384938D01*
X89507976Y-81384938D02*
X89412738Y-81337319D01*
X89412738Y-81337319D02*
X89222262Y-81337319D01*
X89222262Y-81337319D02*
X89127024Y-81384938D01*
X89127024Y-81384938D02*
X89079405Y-81432557D01*
X89079405Y-81432557D02*
X89031786Y-81527795D01*
X89031786Y-81527795D02*
X89031786Y-81765890D01*
X89031786Y-81765890D02*
X89079405Y-81861128D01*
X89079405Y-81861128D02*
X89127024Y-81908747D01*
X89127024Y-81908747D02*
X89222262Y-81956366D01*
X89222262Y-81956366D02*
X89412738Y-81956366D01*
X89412738Y-81956366D02*
X89507976Y-81908747D01*
X89507976Y-81908747D02*
X89555595Y-81861128D01*
X89555595Y-81861128D02*
X89603214Y-81765890D01*
X110182142Y-82194580D02*
X110134523Y-82242200D01*
X110134523Y-82242200D02*
X109991666Y-82289819D01*
X109991666Y-82289819D02*
X109896428Y-82289819D01*
X109896428Y-82289819D02*
X109753571Y-82242200D01*
X109753571Y-82242200D02*
X109658333Y-82146961D01*
X109658333Y-82146961D02*
X109610714Y-82051723D01*
X109610714Y-82051723D02*
X109563095Y-81861247D01*
X109563095Y-81861247D02*
X109563095Y-81718390D01*
X109563095Y-81718390D02*
X109610714Y-81527914D01*
X109610714Y-81527914D02*
X109658333Y-81432676D01*
X109658333Y-81432676D02*
X109753571Y-81337438D01*
X109753571Y-81337438D02*
X109896428Y-81289819D01*
X109896428Y-81289819D02*
X109991666Y-81289819D01*
X109991666Y-81289819D02*
X110134523Y-81337438D01*
X110134523Y-81337438D02*
X110182142Y-81385057D01*
X111134523Y-82289819D02*
X110563095Y-82289819D01*
X110848809Y-82289819D02*
X110848809Y-81289819D01*
X110848809Y-81289819D02*
X110753571Y-81432676D01*
X110753571Y-81432676D02*
X110658333Y-81527914D01*
X110658333Y-81527914D02*
X110563095Y-81575533D01*
X111467857Y-81289819D02*
X112086904Y-81289819D01*
X112086904Y-81289819D02*
X111753571Y-81670771D01*
X111753571Y-81670771D02*
X111896428Y-81670771D01*
X111896428Y-81670771D02*
X111991666Y-81718390D01*
X111991666Y-81718390D02*
X112039285Y-81766009D01*
X112039285Y-81766009D02*
X112086904Y-81861247D01*
X112086904Y-81861247D02*
X112086904Y-82099342D01*
X112086904Y-82099342D02*
X112039285Y-82194580D01*
X112039285Y-82194580D02*
X111991666Y-82242200D01*
X111991666Y-82242200D02*
X111896428Y-82289819D01*
X111896428Y-82289819D02*
X111610714Y-82289819D01*
X111610714Y-82289819D02*
X111515476Y-82242200D01*
X111515476Y-82242200D02*
X111467857Y-82194580D01*
X52441905Y-44939819D02*
X52441905Y-43939819D01*
X52441905Y-43939819D02*
X52680000Y-43939819D01*
X52680000Y-43939819D02*
X52822857Y-43987438D01*
X52822857Y-43987438D02*
X52918095Y-44082676D01*
X52918095Y-44082676D02*
X52965714Y-44177914D01*
X52965714Y-44177914D02*
X53013333Y-44368390D01*
X53013333Y-44368390D02*
X53013333Y-44511247D01*
X53013333Y-44511247D02*
X52965714Y-44701723D01*
X52965714Y-44701723D02*
X52918095Y-44796961D01*
X52918095Y-44796961D02*
X52822857Y-44892200D01*
X52822857Y-44892200D02*
X52680000Y-44939819D01*
X52680000Y-44939819D02*
X52441905Y-44939819D01*
X53965714Y-44939819D02*
X53394286Y-44939819D01*
X53680000Y-44939819D02*
X53680000Y-43939819D01*
X53680000Y-43939819D02*
X53584762Y-44082676D01*
X53584762Y-44082676D02*
X53489524Y-44177914D01*
X53489524Y-44177914D02*
X53394286Y-44225533D01*
X56098095Y-42289819D02*
X56098095Y-41289819D01*
X56669523Y-42289819D02*
X56240952Y-41718390D01*
X56669523Y-41289819D02*
X56098095Y-41861247D01*
X155489819Y-51801666D02*
X155013628Y-52134999D01*
X155489819Y-52373094D02*
X154489819Y-52373094D01*
X154489819Y-52373094D02*
X154489819Y-51992142D01*
X154489819Y-51992142D02*
X154537438Y-51896904D01*
X154537438Y-51896904D02*
X154585057Y-51849285D01*
X154585057Y-51849285D02*
X154680295Y-51801666D01*
X154680295Y-51801666D02*
X154823152Y-51801666D01*
X154823152Y-51801666D02*
X154918390Y-51849285D01*
X154918390Y-51849285D02*
X154966009Y-51896904D01*
X154966009Y-51896904D02*
X155013628Y-51992142D01*
X155013628Y-51992142D02*
X155013628Y-52373094D01*
X154585057Y-51420713D02*
X154537438Y-51373094D01*
X154537438Y-51373094D02*
X154489819Y-51277856D01*
X154489819Y-51277856D02*
X154489819Y-51039761D01*
X154489819Y-51039761D02*
X154537438Y-50944523D01*
X154537438Y-50944523D02*
X154585057Y-50896904D01*
X154585057Y-50896904D02*
X154680295Y-50849285D01*
X154680295Y-50849285D02*
X154775533Y-50849285D01*
X154775533Y-50849285D02*
X154918390Y-50896904D01*
X154918390Y-50896904D02*
X155489819Y-51468332D01*
X155489819Y-51468332D02*
X155489819Y-50849285D01*
X160182142Y-76689819D02*
X159848809Y-76213628D01*
X159610714Y-76689819D02*
X159610714Y-75689819D01*
X159610714Y-75689819D02*
X159991666Y-75689819D01*
X159991666Y-75689819D02*
X160086904Y-75737438D01*
X160086904Y-75737438D02*
X160134523Y-75785057D01*
X160134523Y-75785057D02*
X160182142Y-75880295D01*
X160182142Y-75880295D02*
X160182142Y-76023152D01*
X160182142Y-76023152D02*
X160134523Y-76118390D01*
X160134523Y-76118390D02*
X160086904Y-76166009D01*
X160086904Y-76166009D02*
X159991666Y-76213628D01*
X159991666Y-76213628D02*
X159610714Y-76213628D01*
X161134523Y-76689819D02*
X160563095Y-76689819D01*
X160848809Y-76689819D02*
X160848809Y-75689819D01*
X160848809Y-75689819D02*
X160753571Y-75832676D01*
X160753571Y-75832676D02*
X160658333Y-75927914D01*
X160658333Y-75927914D02*
X160563095Y-75975533D01*
X161753571Y-75689819D02*
X161848809Y-75689819D01*
X161848809Y-75689819D02*
X161944047Y-75737438D01*
X161944047Y-75737438D02*
X161991666Y-75785057D01*
X161991666Y-75785057D02*
X162039285Y-75880295D01*
X162039285Y-75880295D02*
X162086904Y-76070771D01*
X162086904Y-76070771D02*
X162086904Y-76308866D01*
X162086904Y-76308866D02*
X162039285Y-76499342D01*
X162039285Y-76499342D02*
X161991666Y-76594580D01*
X161991666Y-76594580D02*
X161944047Y-76642200D01*
X161944047Y-76642200D02*
X161848809Y-76689819D01*
X161848809Y-76689819D02*
X161753571Y-76689819D01*
X161753571Y-76689819D02*
X161658333Y-76642200D01*
X161658333Y-76642200D02*
X161610714Y-76594580D01*
X161610714Y-76594580D02*
X161563095Y-76499342D01*
X161563095Y-76499342D02*
X161515476Y-76308866D01*
X161515476Y-76308866D02*
X161515476Y-76070771D01*
X161515476Y-76070771D02*
X161563095Y-75880295D01*
X161563095Y-75880295D02*
X161610714Y-75785057D01*
X161610714Y-75785057D02*
X161658333Y-75737438D01*
X161658333Y-75737438D02*
X161753571Y-75689819D01*
X108058333Y-70024580D02*
X108010714Y-70072200D01*
X108010714Y-70072200D02*
X107867857Y-70119819D01*
X107867857Y-70119819D02*
X107772619Y-70119819D01*
X107772619Y-70119819D02*
X107629762Y-70072200D01*
X107629762Y-70072200D02*
X107534524Y-69976961D01*
X107534524Y-69976961D02*
X107486905Y-69881723D01*
X107486905Y-69881723D02*
X107439286Y-69691247D01*
X107439286Y-69691247D02*
X107439286Y-69548390D01*
X107439286Y-69548390D02*
X107486905Y-69357914D01*
X107486905Y-69357914D02*
X107534524Y-69262676D01*
X107534524Y-69262676D02*
X107629762Y-69167438D01*
X107629762Y-69167438D02*
X107772619Y-69119819D01*
X107772619Y-69119819D02*
X107867857Y-69119819D01*
X107867857Y-69119819D02*
X108010714Y-69167438D01*
X108010714Y-69167438D02*
X108058333Y-69215057D01*
X108629762Y-69548390D02*
X108534524Y-69500771D01*
X108534524Y-69500771D02*
X108486905Y-69453152D01*
X108486905Y-69453152D02*
X108439286Y-69357914D01*
X108439286Y-69357914D02*
X108439286Y-69310295D01*
X108439286Y-69310295D02*
X108486905Y-69215057D01*
X108486905Y-69215057D02*
X108534524Y-69167438D01*
X108534524Y-69167438D02*
X108629762Y-69119819D01*
X108629762Y-69119819D02*
X108820238Y-69119819D01*
X108820238Y-69119819D02*
X108915476Y-69167438D01*
X108915476Y-69167438D02*
X108963095Y-69215057D01*
X108963095Y-69215057D02*
X109010714Y-69310295D01*
X109010714Y-69310295D02*
X109010714Y-69357914D01*
X109010714Y-69357914D02*
X108963095Y-69453152D01*
X108963095Y-69453152D02*
X108915476Y-69500771D01*
X108915476Y-69500771D02*
X108820238Y-69548390D01*
X108820238Y-69548390D02*
X108629762Y-69548390D01*
X108629762Y-69548390D02*
X108534524Y-69596009D01*
X108534524Y-69596009D02*
X108486905Y-69643628D01*
X108486905Y-69643628D02*
X108439286Y-69738866D01*
X108439286Y-69738866D02*
X108439286Y-69929342D01*
X108439286Y-69929342D02*
X108486905Y-70024580D01*
X108486905Y-70024580D02*
X108534524Y-70072200D01*
X108534524Y-70072200D02*
X108629762Y-70119819D01*
X108629762Y-70119819D02*
X108820238Y-70119819D01*
X108820238Y-70119819D02*
X108915476Y-70072200D01*
X108915476Y-70072200D02*
X108963095Y-70024580D01*
X108963095Y-70024580D02*
X109010714Y-69929342D01*
X109010714Y-69929342D02*
X109010714Y-69738866D01*
X109010714Y-69738866D02*
X108963095Y-69643628D01*
X108963095Y-69643628D02*
X108915476Y-69596009D01*
X108915476Y-69596009D02*
X108820238Y-69548390D01*
D13*
X106269841Y-69968022D02*
X106269841Y-69271337D01*
X106618183Y-69619679D02*
X105921498Y-69619679D01*
D10*
X115518392Y-93924580D02*
X115470773Y-93972200D01*
X115470773Y-93972200D02*
X115327916Y-94019819D01*
X115327916Y-94019819D02*
X115232678Y-94019819D01*
X115232678Y-94019819D02*
X115089821Y-93972200D01*
X115089821Y-93972200D02*
X114994583Y-93876961D01*
X114994583Y-93876961D02*
X114946964Y-93781723D01*
X114946964Y-93781723D02*
X114899345Y-93591247D01*
X114899345Y-93591247D02*
X114899345Y-93448390D01*
X114899345Y-93448390D02*
X114946964Y-93257914D01*
X114946964Y-93257914D02*
X114994583Y-93162676D01*
X114994583Y-93162676D02*
X115089821Y-93067438D01*
X115089821Y-93067438D02*
X115232678Y-93019819D01*
X115232678Y-93019819D02*
X115327916Y-93019819D01*
X115327916Y-93019819D02*
X115470773Y-93067438D01*
X115470773Y-93067438D02*
X115518392Y-93115057D01*
X116470773Y-94019819D02*
X115899345Y-94019819D01*
X116185059Y-94019819D02*
X116185059Y-93019819D01*
X116185059Y-93019819D02*
X116089821Y-93162676D01*
X116089821Y-93162676D02*
X115994583Y-93257914D01*
X115994583Y-93257914D02*
X115899345Y-93305533D01*
X116851726Y-93115057D02*
X116899345Y-93067438D01*
X116899345Y-93067438D02*
X116994583Y-93019819D01*
X116994583Y-93019819D02*
X117232678Y-93019819D01*
X117232678Y-93019819D02*
X117327916Y-93067438D01*
X117327916Y-93067438D02*
X117375535Y-93115057D01*
X117375535Y-93115057D02*
X117423154Y-93210295D01*
X117423154Y-93210295D02*
X117423154Y-93305533D01*
X117423154Y-93305533D02*
X117375535Y-93448390D01*
X117375535Y-93448390D02*
X116804107Y-94019819D01*
X116804107Y-94019819D02*
X117423154Y-94019819D01*
D13*
X116149841Y-103748022D02*
X116149841Y-103051337D01*
X116498183Y-103399679D02*
X115801498Y-103399679D01*
D10*
X109698333Y-56814580D02*
X109650714Y-56862200D01*
X109650714Y-56862200D02*
X109507857Y-56909819D01*
X109507857Y-56909819D02*
X109412619Y-56909819D01*
X109412619Y-56909819D02*
X109269762Y-56862200D01*
X109269762Y-56862200D02*
X109174524Y-56766961D01*
X109174524Y-56766961D02*
X109126905Y-56671723D01*
X109126905Y-56671723D02*
X109079286Y-56481247D01*
X109079286Y-56481247D02*
X109079286Y-56338390D01*
X109079286Y-56338390D02*
X109126905Y-56147914D01*
X109126905Y-56147914D02*
X109174524Y-56052676D01*
X109174524Y-56052676D02*
X109269762Y-55957438D01*
X109269762Y-55957438D02*
X109412619Y-55909819D01*
X109412619Y-55909819D02*
X109507857Y-55909819D01*
X109507857Y-55909819D02*
X109650714Y-55957438D01*
X109650714Y-55957438D02*
X109698333Y-56005057D01*
X110031667Y-55909819D02*
X110698333Y-55909819D01*
X110698333Y-55909819D02*
X110269762Y-56909819D01*
D13*
X112949841Y-57108022D02*
X112949841Y-56411337D01*
X113298183Y-56759679D02*
X112601498Y-56759679D01*
D10*
X131158333Y-67489819D02*
X130825000Y-67013628D01*
X130586905Y-67489819D02*
X130586905Y-66489819D01*
X130586905Y-66489819D02*
X130967857Y-66489819D01*
X130967857Y-66489819D02*
X131063095Y-66537438D01*
X131063095Y-66537438D02*
X131110714Y-66585057D01*
X131110714Y-66585057D02*
X131158333Y-66680295D01*
X131158333Y-66680295D02*
X131158333Y-66823152D01*
X131158333Y-66823152D02*
X131110714Y-66918390D01*
X131110714Y-66918390D02*
X131063095Y-66966009D01*
X131063095Y-66966009D02*
X130967857Y-67013628D01*
X130967857Y-67013628D02*
X130586905Y-67013628D01*
X131491667Y-66489819D02*
X132110714Y-66489819D01*
X132110714Y-66489819D02*
X131777381Y-66870771D01*
X131777381Y-66870771D02*
X131920238Y-66870771D01*
X131920238Y-66870771D02*
X132015476Y-66918390D01*
X132015476Y-66918390D02*
X132063095Y-66966009D01*
X132063095Y-66966009D02*
X132110714Y-67061247D01*
X132110714Y-67061247D02*
X132110714Y-67299342D01*
X132110714Y-67299342D02*
X132063095Y-67394580D01*
X132063095Y-67394580D02*
X132015476Y-67442200D01*
X132015476Y-67442200D02*
X131920238Y-67489819D01*
X131920238Y-67489819D02*
X131634524Y-67489819D01*
X131634524Y-67489819D02*
X131539286Y-67442200D01*
X131539286Y-67442200D02*
X131491667Y-67394580D01*
X140129761Y-48289819D02*
X139796428Y-47813628D01*
X139558333Y-48289819D02*
X139558333Y-47289819D01*
X139558333Y-47289819D02*
X139939285Y-47289819D01*
X139939285Y-47289819D02*
X140034523Y-47337438D01*
X140034523Y-47337438D02*
X140082142Y-47385057D01*
X140082142Y-47385057D02*
X140129761Y-47480295D01*
X140129761Y-47480295D02*
X140129761Y-47623152D01*
X140129761Y-47623152D02*
X140082142Y-47718390D01*
X140082142Y-47718390D02*
X140034523Y-47766009D01*
X140034523Y-47766009D02*
X139939285Y-47813628D01*
X139939285Y-47813628D02*
X139558333Y-47813628D01*
X140415476Y-47289819D02*
X140748809Y-48289819D01*
X140748809Y-48289819D02*
X141082142Y-47289819D01*
X141939285Y-48289819D02*
X141367857Y-48289819D01*
X141653571Y-48289819D02*
X141653571Y-47289819D01*
X141653571Y-47289819D02*
X141558333Y-47432676D01*
X141558333Y-47432676D02*
X141463095Y-47527914D01*
X141463095Y-47527914D02*
X141367857Y-47575533D01*
X120963095Y-84289819D02*
X120963095Y-85099342D01*
X120963095Y-85099342D02*
X121010714Y-85194580D01*
X121010714Y-85194580D02*
X121058333Y-85242200D01*
X121058333Y-85242200D02*
X121153571Y-85289819D01*
X121153571Y-85289819D02*
X121344047Y-85289819D01*
X121344047Y-85289819D02*
X121439285Y-85242200D01*
X121439285Y-85242200D02*
X121486904Y-85194580D01*
X121486904Y-85194580D02*
X121534523Y-85099342D01*
X121534523Y-85099342D02*
X121534523Y-84289819D01*
X121963095Y-84385057D02*
X122010714Y-84337438D01*
X122010714Y-84337438D02*
X122105952Y-84289819D01*
X122105952Y-84289819D02*
X122344047Y-84289819D01*
X122344047Y-84289819D02*
X122439285Y-84337438D01*
X122439285Y-84337438D02*
X122486904Y-84385057D01*
X122486904Y-84385057D02*
X122534523Y-84480295D01*
X122534523Y-84480295D02*
X122534523Y-84575533D01*
X122534523Y-84575533D02*
X122486904Y-84718390D01*
X122486904Y-84718390D02*
X121915476Y-85289819D01*
X121915476Y-85289819D02*
X122534523Y-85289819D01*
X135329761Y-39285057D02*
X135234523Y-39237438D01*
X135234523Y-39237438D02*
X135139285Y-39142200D01*
X135139285Y-39142200D02*
X134996428Y-38999342D01*
X134996428Y-38999342D02*
X134901190Y-38951723D01*
X134901190Y-38951723D02*
X134805952Y-38951723D01*
X134853571Y-39189819D02*
X134758333Y-39142200D01*
X134758333Y-39142200D02*
X134663095Y-39046961D01*
X134663095Y-39046961D02*
X134615476Y-38856485D01*
X134615476Y-38856485D02*
X134615476Y-38523152D01*
X134615476Y-38523152D02*
X134663095Y-38332676D01*
X134663095Y-38332676D02*
X134758333Y-38237438D01*
X134758333Y-38237438D02*
X134853571Y-38189819D01*
X134853571Y-38189819D02*
X135044047Y-38189819D01*
X135044047Y-38189819D02*
X135139285Y-38237438D01*
X135139285Y-38237438D02*
X135234523Y-38332676D01*
X135234523Y-38332676D02*
X135282142Y-38523152D01*
X135282142Y-38523152D02*
X135282142Y-38856485D01*
X135282142Y-38856485D02*
X135234523Y-39046961D01*
X135234523Y-39046961D02*
X135139285Y-39142200D01*
X135139285Y-39142200D02*
X135044047Y-39189819D01*
X135044047Y-39189819D02*
X134853571Y-39189819D01*
X135663095Y-38285057D02*
X135710714Y-38237438D01*
X135710714Y-38237438D02*
X135805952Y-38189819D01*
X135805952Y-38189819D02*
X136044047Y-38189819D01*
X136044047Y-38189819D02*
X136139285Y-38237438D01*
X136139285Y-38237438D02*
X136186904Y-38285057D01*
X136186904Y-38285057D02*
X136234523Y-38380295D01*
X136234523Y-38380295D02*
X136234523Y-38475533D01*
X136234523Y-38475533D02*
X136186904Y-38618390D01*
X136186904Y-38618390D02*
X135615476Y-39189819D01*
X135615476Y-39189819D02*
X136234523Y-39189819D01*
X107882142Y-102894580D02*
X107834523Y-102942200D01*
X107834523Y-102942200D02*
X107691666Y-102989819D01*
X107691666Y-102989819D02*
X107596428Y-102989819D01*
X107596428Y-102989819D02*
X107453571Y-102942200D01*
X107453571Y-102942200D02*
X107358333Y-102846961D01*
X107358333Y-102846961D02*
X107310714Y-102751723D01*
X107310714Y-102751723D02*
X107263095Y-102561247D01*
X107263095Y-102561247D02*
X107263095Y-102418390D01*
X107263095Y-102418390D02*
X107310714Y-102227914D01*
X107310714Y-102227914D02*
X107358333Y-102132676D01*
X107358333Y-102132676D02*
X107453571Y-102037438D01*
X107453571Y-102037438D02*
X107596428Y-101989819D01*
X107596428Y-101989819D02*
X107691666Y-101989819D01*
X107691666Y-101989819D02*
X107834523Y-102037438D01*
X107834523Y-102037438D02*
X107882142Y-102085057D01*
X108834523Y-102989819D02*
X108263095Y-102989819D01*
X108548809Y-102989819D02*
X108548809Y-101989819D01*
X108548809Y-101989819D02*
X108453571Y-102132676D01*
X108453571Y-102132676D02*
X108358333Y-102227914D01*
X108358333Y-102227914D02*
X108263095Y-102275533D01*
X109453571Y-101989819D02*
X109548809Y-101989819D01*
X109548809Y-101989819D02*
X109644047Y-102037438D01*
X109644047Y-102037438D02*
X109691666Y-102085057D01*
X109691666Y-102085057D02*
X109739285Y-102180295D01*
X109739285Y-102180295D02*
X109786904Y-102370771D01*
X109786904Y-102370771D02*
X109786904Y-102608866D01*
X109786904Y-102608866D02*
X109739285Y-102799342D01*
X109739285Y-102799342D02*
X109691666Y-102894580D01*
X109691666Y-102894580D02*
X109644047Y-102942200D01*
X109644047Y-102942200D02*
X109548809Y-102989819D01*
X109548809Y-102989819D02*
X109453571Y-102989819D01*
X109453571Y-102989819D02*
X109358333Y-102942200D01*
X109358333Y-102942200D02*
X109310714Y-102894580D01*
X109310714Y-102894580D02*
X109263095Y-102799342D01*
X109263095Y-102799342D02*
X109215476Y-102608866D01*
X109215476Y-102608866D02*
X109215476Y-102370771D01*
X109215476Y-102370771D02*
X109263095Y-102180295D01*
X109263095Y-102180295D02*
X109310714Y-102085057D01*
X109310714Y-102085057D02*
X109358333Y-102037438D01*
X109358333Y-102037438D02*
X109453571Y-101989819D01*
X79304818Y-87703973D02*
X79257199Y-87751593D01*
X79257199Y-87751593D02*
X79114342Y-87799212D01*
X79114342Y-87799212D02*
X79019104Y-87799212D01*
X79019104Y-87799212D02*
X78876247Y-87751593D01*
X78876247Y-87751593D02*
X78781009Y-87656354D01*
X78781009Y-87656354D02*
X78733390Y-87561116D01*
X78733390Y-87561116D02*
X78685771Y-87370640D01*
X78685771Y-87370640D02*
X78685771Y-87227783D01*
X78685771Y-87227783D02*
X78733390Y-87037307D01*
X78733390Y-87037307D02*
X78781009Y-86942069D01*
X78781009Y-86942069D02*
X78876247Y-86846831D01*
X78876247Y-86846831D02*
X79019104Y-86799212D01*
X79019104Y-86799212D02*
X79114342Y-86799212D01*
X79114342Y-86799212D02*
X79257199Y-86846831D01*
X79257199Y-86846831D02*
X79304818Y-86894450D01*
X80161961Y-86799212D02*
X79971485Y-86799212D01*
X79971485Y-86799212D02*
X79876247Y-86846831D01*
X79876247Y-86846831D02*
X79828628Y-86894450D01*
X79828628Y-86894450D02*
X79733390Y-87037307D01*
X79733390Y-87037307D02*
X79685771Y-87227783D01*
X79685771Y-87227783D02*
X79685771Y-87608735D01*
X79685771Y-87608735D02*
X79733390Y-87703973D01*
X79733390Y-87703973D02*
X79781009Y-87751593D01*
X79781009Y-87751593D02*
X79876247Y-87799212D01*
X79876247Y-87799212D02*
X80066723Y-87799212D01*
X80066723Y-87799212D02*
X80161961Y-87751593D01*
X80161961Y-87751593D02*
X80209580Y-87703973D01*
X80209580Y-87703973D02*
X80257199Y-87608735D01*
X80257199Y-87608735D02*
X80257199Y-87370640D01*
X80257199Y-87370640D02*
X80209580Y-87275402D01*
X80209580Y-87275402D02*
X80161961Y-87227783D01*
X80161961Y-87227783D02*
X80066723Y-87180164D01*
X80066723Y-87180164D02*
X79876247Y-87180164D01*
X79876247Y-87180164D02*
X79781009Y-87227783D01*
X79781009Y-87227783D02*
X79733390Y-87275402D01*
X79733390Y-87275402D02*
X79685771Y-87370640D01*
X55134523Y-71294580D02*
X55086904Y-71342200D01*
X55086904Y-71342200D02*
X54944047Y-71389819D01*
X54944047Y-71389819D02*
X54848809Y-71389819D01*
X54848809Y-71389819D02*
X54705952Y-71342200D01*
X54705952Y-71342200D02*
X54610714Y-71246961D01*
X54610714Y-71246961D02*
X54563095Y-71151723D01*
X54563095Y-71151723D02*
X54515476Y-70961247D01*
X54515476Y-70961247D02*
X54515476Y-70818390D01*
X54515476Y-70818390D02*
X54563095Y-70627914D01*
X54563095Y-70627914D02*
X54610714Y-70532676D01*
X54610714Y-70532676D02*
X54705952Y-70437438D01*
X54705952Y-70437438D02*
X54848809Y-70389819D01*
X54848809Y-70389819D02*
X54944047Y-70389819D01*
X54944047Y-70389819D02*
X55086904Y-70437438D01*
X55086904Y-70437438D02*
X55134523Y-70485057D01*
X55563095Y-71389819D02*
X55563095Y-70389819D01*
X55563095Y-70389819D02*
X56134523Y-71389819D01*
X56134523Y-71389819D02*
X56134523Y-70389819D01*
X57134523Y-71389819D02*
X56563095Y-71389819D01*
X56848809Y-71389819D02*
X56848809Y-70389819D01*
X56848809Y-70389819D02*
X56753571Y-70532676D01*
X56753571Y-70532676D02*
X56658333Y-70627914D01*
X56658333Y-70627914D02*
X56563095Y-70675533D01*
X117728333Y-54299819D02*
X117395000Y-53823628D01*
X117156905Y-54299819D02*
X117156905Y-53299819D01*
X117156905Y-53299819D02*
X117537857Y-53299819D01*
X117537857Y-53299819D02*
X117633095Y-53347438D01*
X117633095Y-53347438D02*
X117680714Y-53395057D01*
X117680714Y-53395057D02*
X117728333Y-53490295D01*
X117728333Y-53490295D02*
X117728333Y-53633152D01*
X117728333Y-53633152D02*
X117680714Y-53728390D01*
X117680714Y-53728390D02*
X117633095Y-53776009D01*
X117633095Y-53776009D02*
X117537857Y-53823628D01*
X117537857Y-53823628D02*
X117156905Y-53823628D01*
X118680714Y-54299819D02*
X118109286Y-54299819D01*
X118395000Y-54299819D02*
X118395000Y-53299819D01*
X118395000Y-53299819D02*
X118299762Y-53442676D01*
X118299762Y-53442676D02*
X118204524Y-53537914D01*
X118204524Y-53537914D02*
X118109286Y-53585533D01*
X116956905Y-57749819D02*
X116956905Y-56749819D01*
X116956905Y-56749819D02*
X117195000Y-56749819D01*
X117195000Y-56749819D02*
X117337857Y-56797438D01*
X117337857Y-56797438D02*
X117433095Y-56892676D01*
X117433095Y-56892676D02*
X117480714Y-56987914D01*
X117480714Y-56987914D02*
X117528333Y-57178390D01*
X117528333Y-57178390D02*
X117528333Y-57321247D01*
X117528333Y-57321247D02*
X117480714Y-57511723D01*
X117480714Y-57511723D02*
X117433095Y-57606961D01*
X117433095Y-57606961D02*
X117337857Y-57702200D01*
X117337857Y-57702200D02*
X117195000Y-57749819D01*
X117195000Y-57749819D02*
X116956905Y-57749819D01*
X118433095Y-56749819D02*
X117956905Y-56749819D01*
X117956905Y-56749819D02*
X117909286Y-57226009D01*
X117909286Y-57226009D02*
X117956905Y-57178390D01*
X117956905Y-57178390D02*
X118052143Y-57130771D01*
X118052143Y-57130771D02*
X118290238Y-57130771D01*
X118290238Y-57130771D02*
X118385476Y-57178390D01*
X118385476Y-57178390D02*
X118433095Y-57226009D01*
X118433095Y-57226009D02*
X118480714Y-57321247D01*
X118480714Y-57321247D02*
X118480714Y-57559342D01*
X118480714Y-57559342D02*
X118433095Y-57654580D01*
X118433095Y-57654580D02*
X118385476Y-57702200D01*
X118385476Y-57702200D02*
X118290238Y-57749819D01*
X118290238Y-57749819D02*
X118052143Y-57749819D01*
X118052143Y-57749819D02*
X117956905Y-57702200D01*
X117956905Y-57702200D02*
X117909286Y-57654580D01*
X132673095Y-57859819D02*
X132673095Y-56859819D01*
X133244523Y-57859819D02*
X132815952Y-57288390D01*
X133244523Y-56859819D02*
X132673095Y-57431247D01*
X121572142Y-102689819D02*
X121238809Y-102213628D01*
X121000714Y-102689819D02*
X121000714Y-101689819D01*
X121000714Y-101689819D02*
X121381666Y-101689819D01*
X121381666Y-101689819D02*
X121476904Y-101737438D01*
X121476904Y-101737438D02*
X121524523Y-101785057D01*
X121524523Y-101785057D02*
X121572142Y-101880295D01*
X121572142Y-101880295D02*
X121572142Y-102023152D01*
X121572142Y-102023152D02*
X121524523Y-102118390D01*
X121524523Y-102118390D02*
X121476904Y-102166009D01*
X121476904Y-102166009D02*
X121381666Y-102213628D01*
X121381666Y-102213628D02*
X121000714Y-102213628D01*
X122524523Y-102689819D02*
X121953095Y-102689819D01*
X122238809Y-102689819D02*
X122238809Y-101689819D01*
X122238809Y-101689819D02*
X122143571Y-101832676D01*
X122143571Y-101832676D02*
X122048333Y-101927914D01*
X122048333Y-101927914D02*
X121953095Y-101975533D01*
X122857857Y-101689819D02*
X123476904Y-101689819D01*
X123476904Y-101689819D02*
X123143571Y-102070771D01*
X123143571Y-102070771D02*
X123286428Y-102070771D01*
X123286428Y-102070771D02*
X123381666Y-102118390D01*
X123381666Y-102118390D02*
X123429285Y-102166009D01*
X123429285Y-102166009D02*
X123476904Y-102261247D01*
X123476904Y-102261247D02*
X123476904Y-102499342D01*
X123476904Y-102499342D02*
X123429285Y-102594580D01*
X123429285Y-102594580D02*
X123381666Y-102642200D01*
X123381666Y-102642200D02*
X123286428Y-102689819D01*
X123286428Y-102689819D02*
X123000714Y-102689819D01*
X123000714Y-102689819D02*
X122905476Y-102642200D01*
X122905476Y-102642200D02*
X122857857Y-102594580D01*
X132758333Y-48294580D02*
X132710714Y-48342200D01*
X132710714Y-48342200D02*
X132567857Y-48389819D01*
X132567857Y-48389819D02*
X132472619Y-48389819D01*
X132472619Y-48389819D02*
X132329762Y-48342200D01*
X132329762Y-48342200D02*
X132234524Y-48246961D01*
X132234524Y-48246961D02*
X132186905Y-48151723D01*
X132186905Y-48151723D02*
X132139286Y-47961247D01*
X132139286Y-47961247D02*
X132139286Y-47818390D01*
X132139286Y-47818390D02*
X132186905Y-47627914D01*
X132186905Y-47627914D02*
X132234524Y-47532676D01*
X132234524Y-47532676D02*
X132329762Y-47437438D01*
X132329762Y-47437438D02*
X132472619Y-47389819D01*
X132472619Y-47389819D02*
X132567857Y-47389819D01*
X132567857Y-47389819D02*
X132710714Y-47437438D01*
X132710714Y-47437438D02*
X132758333Y-47485057D01*
X133139286Y-47485057D02*
X133186905Y-47437438D01*
X133186905Y-47437438D02*
X133282143Y-47389819D01*
X133282143Y-47389819D02*
X133520238Y-47389819D01*
X133520238Y-47389819D02*
X133615476Y-47437438D01*
X133615476Y-47437438D02*
X133663095Y-47485057D01*
X133663095Y-47485057D02*
X133710714Y-47580295D01*
X133710714Y-47580295D02*
X133710714Y-47675533D01*
X133710714Y-47675533D02*
X133663095Y-47818390D01*
X133663095Y-47818390D02*
X133091667Y-48389819D01*
X133091667Y-48389819D02*
X133710714Y-48389819D01*
X154658333Y-70289819D02*
X154325000Y-69813628D01*
X154086905Y-70289819D02*
X154086905Y-69289819D01*
X154086905Y-69289819D02*
X154467857Y-69289819D01*
X154467857Y-69289819D02*
X154563095Y-69337438D01*
X154563095Y-69337438D02*
X154610714Y-69385057D01*
X154610714Y-69385057D02*
X154658333Y-69480295D01*
X154658333Y-69480295D02*
X154658333Y-69623152D01*
X154658333Y-69623152D02*
X154610714Y-69718390D01*
X154610714Y-69718390D02*
X154563095Y-69766009D01*
X154563095Y-69766009D02*
X154467857Y-69813628D01*
X154467857Y-69813628D02*
X154086905Y-69813628D01*
X155515476Y-69289819D02*
X155325000Y-69289819D01*
X155325000Y-69289819D02*
X155229762Y-69337438D01*
X155229762Y-69337438D02*
X155182143Y-69385057D01*
X155182143Y-69385057D02*
X155086905Y-69527914D01*
X155086905Y-69527914D02*
X155039286Y-69718390D01*
X155039286Y-69718390D02*
X155039286Y-70099342D01*
X155039286Y-70099342D02*
X155086905Y-70194580D01*
X155086905Y-70194580D02*
X155134524Y-70242200D01*
X155134524Y-70242200D02*
X155229762Y-70289819D01*
X155229762Y-70289819D02*
X155420238Y-70289819D01*
X155420238Y-70289819D02*
X155515476Y-70242200D01*
X155515476Y-70242200D02*
X155563095Y-70194580D01*
X155563095Y-70194580D02*
X155610714Y-70099342D01*
X155610714Y-70099342D02*
X155610714Y-69861247D01*
X155610714Y-69861247D02*
X155563095Y-69766009D01*
X155563095Y-69766009D02*
X155515476Y-69718390D01*
X155515476Y-69718390D02*
X155420238Y-69670771D01*
X155420238Y-69670771D02*
X155229762Y-69670771D01*
X155229762Y-69670771D02*
X155134524Y-69718390D01*
X155134524Y-69718390D02*
X155086905Y-69766009D01*
X155086905Y-69766009D02*
X155039286Y-69861247D01*
X130082142Y-70689819D02*
X129748809Y-70213628D01*
X129510714Y-70689819D02*
X129510714Y-69689819D01*
X129510714Y-69689819D02*
X129891666Y-69689819D01*
X129891666Y-69689819D02*
X129986904Y-69737438D01*
X129986904Y-69737438D02*
X130034523Y-69785057D01*
X130034523Y-69785057D02*
X130082142Y-69880295D01*
X130082142Y-69880295D02*
X130082142Y-70023152D01*
X130082142Y-70023152D02*
X130034523Y-70118390D01*
X130034523Y-70118390D02*
X129986904Y-70166009D01*
X129986904Y-70166009D02*
X129891666Y-70213628D01*
X129891666Y-70213628D02*
X129510714Y-70213628D01*
X131034523Y-70689819D02*
X130463095Y-70689819D01*
X130748809Y-70689819D02*
X130748809Y-69689819D01*
X130748809Y-69689819D02*
X130653571Y-69832676D01*
X130653571Y-69832676D02*
X130558333Y-69927914D01*
X130558333Y-69927914D02*
X130463095Y-69975533D01*
X131415476Y-69785057D02*
X131463095Y-69737438D01*
X131463095Y-69737438D02*
X131558333Y-69689819D01*
X131558333Y-69689819D02*
X131796428Y-69689819D01*
X131796428Y-69689819D02*
X131891666Y-69737438D01*
X131891666Y-69737438D02*
X131939285Y-69785057D01*
X131939285Y-69785057D02*
X131986904Y-69880295D01*
X131986904Y-69880295D02*
X131986904Y-69975533D01*
X131986904Y-69975533D02*
X131939285Y-70118390D01*
X131939285Y-70118390D02*
X131367857Y-70689819D01*
X131367857Y-70689819D02*
X131986904Y-70689819D01*
X152822569Y-40484446D02*
X152774950Y-40532066D01*
X152774950Y-40532066D02*
X152632093Y-40579685D01*
X152632093Y-40579685D02*
X152536855Y-40579685D01*
X152536855Y-40579685D02*
X152393998Y-40532066D01*
X152393998Y-40532066D02*
X152298760Y-40436827D01*
X152298760Y-40436827D02*
X152251141Y-40341589D01*
X152251141Y-40341589D02*
X152203522Y-40151113D01*
X152203522Y-40151113D02*
X152203522Y-40008256D01*
X152203522Y-40008256D02*
X152251141Y-39817780D01*
X152251141Y-39817780D02*
X152298760Y-39722542D01*
X152298760Y-39722542D02*
X152393998Y-39627304D01*
X152393998Y-39627304D02*
X152536855Y-39579685D01*
X152536855Y-39579685D02*
X152632093Y-39579685D01*
X152632093Y-39579685D02*
X152774950Y-39627304D01*
X152774950Y-39627304D02*
X152822569Y-39674923D01*
X153155903Y-39579685D02*
X153774950Y-39579685D01*
X153774950Y-39579685D02*
X153441617Y-39960637D01*
X153441617Y-39960637D02*
X153584474Y-39960637D01*
X153584474Y-39960637D02*
X153679712Y-40008256D01*
X153679712Y-40008256D02*
X153727331Y-40055875D01*
X153727331Y-40055875D02*
X153774950Y-40151113D01*
X153774950Y-40151113D02*
X153774950Y-40389208D01*
X153774950Y-40389208D02*
X153727331Y-40484446D01*
X153727331Y-40484446D02*
X153679712Y-40532066D01*
X153679712Y-40532066D02*
X153584474Y-40579685D01*
X153584474Y-40579685D02*
X153298760Y-40579685D01*
X153298760Y-40579685D02*
X153203522Y-40532066D01*
X153203522Y-40532066D02*
X153155903Y-40484446D01*
D13*
X155312258Y-44390025D02*
X154615573Y-44390025D01*
X154963915Y-44041682D02*
X154963915Y-44738367D01*
D10*
X155451666Y-76799819D02*
X155451666Y-77514104D01*
X155451666Y-77514104D02*
X155404047Y-77656961D01*
X155404047Y-77656961D02*
X155308809Y-77752200D01*
X155308809Y-77752200D02*
X155165952Y-77799819D01*
X155165952Y-77799819D02*
X155070714Y-77799819D01*
X156451666Y-77799819D02*
X155880238Y-77799819D01*
X156165952Y-77799819D02*
X156165952Y-76799819D01*
X156165952Y-76799819D02*
X156070714Y-76942676D01*
X156070714Y-76942676D02*
X155975476Y-77037914D01*
X155975476Y-77037914D02*
X155880238Y-77085533D01*
X97431666Y-60609819D02*
X97431666Y-61324104D01*
X97431666Y-61324104D02*
X97384047Y-61466961D01*
X97384047Y-61466961D02*
X97288809Y-61562200D01*
X97288809Y-61562200D02*
X97145952Y-61609819D01*
X97145952Y-61609819D02*
X97050714Y-61609819D01*
X97812619Y-60609819D02*
X98431666Y-60609819D01*
X98431666Y-60609819D02*
X98098333Y-60990771D01*
X98098333Y-60990771D02*
X98241190Y-60990771D01*
X98241190Y-60990771D02*
X98336428Y-61038390D01*
X98336428Y-61038390D02*
X98384047Y-61086009D01*
X98384047Y-61086009D02*
X98431666Y-61181247D01*
X98431666Y-61181247D02*
X98431666Y-61419342D01*
X98431666Y-61419342D02*
X98384047Y-61514580D01*
X98384047Y-61514580D02*
X98336428Y-61562200D01*
X98336428Y-61562200D02*
X98241190Y-61609819D01*
X98241190Y-61609819D02*
X97955476Y-61609819D01*
X97955476Y-61609819D02*
X97860238Y-61562200D01*
X97860238Y-61562200D02*
X97812619Y-61514580D01*
%TO.C,C9*%
D14*
X114395000Y-66255000D02*
X114058000Y-66255000D01*
X114395000Y-61015000D02*
X114395000Y-66255000D01*
X114058000Y-61015000D02*
X114395000Y-61015000D01*
X111992000Y-66255000D02*
X111655000Y-66255000D01*
X111655000Y-66255000D02*
X111655000Y-61015000D01*
X111655000Y-61015000D02*
X111992000Y-61015000D01*
%TO.C,D2*%
X59110000Y-55215000D02*
X68850000Y-55215000D01*
X68850000Y-60655000D01*
X59110000Y-60655000D01*
X59110000Y-55215000D01*
X69760000Y-57935000D02*
X68850000Y-57935000D01*
X60775000Y-55215000D02*
X60775000Y-60655000D01*
X60655000Y-55215000D02*
X60655000Y-60655000D01*
X60535000Y-55215000D02*
X60535000Y-60655000D01*
X58200000Y-57935000D02*
X59110000Y-57935000D01*
%TO.C,LD1*%
D15*
X165067499Y-45843019D02*
G75*
G02*
X158409788Y-46977756I-3424995J-3301D01*
G01*
X158392499Y-44798940D02*
G75*
G02*
X165067500Y-45812271I3242153J-1134737D01*
G01*
D16*
X158392499Y-46939102D02*
X158392499Y-44789102D01*
%TO.C,RG1*%
D14*
X125140000Y-70135000D02*
G75*
G02*
X122400000Y-70135000I-1370000J0D01*
G01*
X122400000Y-70135000D02*
G75*
G02*
X125140000Y-70135000I1370000J0D01*
G01*
X122400000Y-70135000D02*
X122330000Y-70135000D01*
%TO.C,CN2*%
D15*
X149384000Y-62875000D02*
G75*
G02*
X145884000Y-62875000I-1750000J0D01*
G01*
X145884000Y-62875000D02*
G75*
G02*
X149384000Y-62875000I1750000J0D01*
G01*
X149384000Y-57795000D02*
G75*
G02*
X145884000Y-57795000I-1750000J0D01*
G01*
X145884000Y-57795000D02*
G75*
G02*
X149384000Y-57795000I1750000J0D01*
G01*
X158810000Y-65415000D02*
X158810000Y-55255000D01*
X158810000Y-65415000D02*
X144840000Y-65415000D01*
X158810000Y-55255000D02*
X144840000Y-55255000D01*
X158302000Y-64907000D02*
X158302000Y-60843000D01*
X158302000Y-64907000D02*
X158302000Y-60843000D01*
X158302000Y-64907000D02*
X150174000Y-64907000D01*
X158302000Y-64907000D02*
X150174000Y-64907000D01*
X158302000Y-60843000D02*
X150174000Y-60843000D01*
X158302000Y-60843000D02*
X150174000Y-60843000D01*
X158302000Y-59827000D02*
X158302000Y-55763000D01*
X158302000Y-59827000D02*
X158302000Y-55763000D01*
X158302000Y-59827000D02*
X150174000Y-59827000D01*
X158302000Y-59827000D02*
X150174000Y-59827000D01*
X158302000Y-55763000D02*
X150174000Y-55763000D01*
X158302000Y-55763000D02*
X150174000Y-55763000D01*
X157032000Y-65415000D02*
X157032000Y-55255000D01*
X155000000Y-64907000D02*
X155000000Y-60843000D01*
X155000000Y-64907000D02*
X155000000Y-60843000D01*
X155000000Y-59827000D02*
X155000000Y-55763000D01*
X155000000Y-59827000D02*
X155000000Y-55763000D01*
X150174000Y-64907000D02*
X150174000Y-60843000D01*
X150174000Y-64907000D02*
X150174000Y-60843000D01*
X150174000Y-59827000D02*
X150174000Y-55763000D01*
X150174000Y-59827000D02*
X150174000Y-55763000D01*
X149412000Y-62875000D02*
X145856000Y-62875000D01*
X149412000Y-57795000D02*
X145856000Y-57795000D01*
X147634000Y-64653000D02*
X147634000Y-61097000D01*
X147634000Y-59573000D02*
X147634000Y-56017000D01*
X144840000Y-65415000D02*
X144840000Y-55255000D01*
%TO.C,R11*%
D14*
X165595000Y-73805000D02*
X165595000Y-67265000D01*
X165595000Y-67265000D02*
X165265000Y-67265000D01*
X165265000Y-73805000D02*
X165595000Y-73805000D01*
X163185000Y-73805000D02*
X162855000Y-73805000D01*
X162855000Y-73805000D02*
X162855000Y-67265000D01*
X162855000Y-67265000D02*
X163185000Y-67265000D01*
%TO.C,Q4*%
D15*
X96204112Y-74624042D02*
G75*
G02*
X92250888Y-74624042I-1976612J1384041D01*
G01*
X96615100Y-73087600D02*
X96386500Y-71970000D01*
X96386500Y-71970000D02*
X94862500Y-71970000D01*
X93592500Y-71970000D02*
X92068500Y-71970000D01*
X92068500Y-71970000D02*
X91839900Y-73087600D01*
%TO.C,Q3*%
X106984112Y-81324042D02*
G75*
G02*
X103030888Y-81324042I-1976612J1384041D01*
G01*
X107395100Y-79787600D02*
X107166500Y-78670000D01*
X107166500Y-78670000D02*
X105642500Y-78670000D01*
X104372500Y-78670000D02*
X102848500Y-78670000D01*
X102848500Y-78670000D02*
X102619900Y-79787600D01*
%TO.C,Furo11*%
D10*
X53100000Y-105195000D02*
G75*
G02*
X47100000Y-105195000I-3000000J0D01*
G01*
X47100000Y-105195000D02*
G75*
G02*
X53100000Y-105195000I3000000J0D01*
G01*
%TO.C,R8*%
D14*
X98587500Y-79227500D02*
X98587500Y-78897500D01*
X98587500Y-76487500D02*
X98587500Y-76817500D01*
X92047500Y-79227500D02*
X98587500Y-79227500D01*
X92047500Y-78897500D02*
X92047500Y-79227500D01*
X92047500Y-76817500D02*
X92047500Y-76487500D01*
X92047500Y-76487500D02*
X98587500Y-76487500D01*
%TO.C,D3*%
X59110000Y-48215000D02*
X68850000Y-48215000D01*
X68850000Y-53655000D01*
X59110000Y-53655000D01*
X59110000Y-48215000D01*
X69760000Y-50935000D02*
X68850000Y-50935000D01*
X67425000Y-53655000D02*
X67425000Y-48215000D01*
X67305000Y-53655000D02*
X67305000Y-48215000D01*
X67185000Y-53655000D02*
X67185000Y-48215000D01*
X58200000Y-50935000D02*
X59110000Y-50935000D01*
D17*
%TO.C,REG1*%
G36*
X119680000Y-40470000D02*
G01*
X109520000Y-40470000D01*
X109520000Y-39835000D01*
X119680000Y-39835000D01*
X119680000Y-40470000D01*
G37*
D15*
X119680000Y-44915000D02*
X119680000Y-39835000D01*
X109520000Y-44915000D02*
X119680000Y-44915000D01*
X109520000Y-44915000D02*
X109520000Y-39835000D01*
X109520000Y-40470000D02*
X119680000Y-40470000D01*
X109520000Y-39835000D02*
X119680000Y-39835000D01*
%TO.C,Furo11*%
D10*
X166250000Y-105115000D02*
G75*
G02*
X160250000Y-105115000I-3000000J0D01*
G01*
X160250000Y-105115000D02*
G75*
G02*
X166250000Y-105115000I3000000J0D01*
G01*
%TO.C,C5*%
D14*
X108410000Y-49460000D02*
G75*
G02*
X92170000Y-49460000I-8120000J0D01*
G01*
X92170000Y-49460000D02*
G75*
G02*
X108410000Y-49460000I8120000J0D01*
G01*
D11*
X100315000Y-59785000D02*
X100315000Y-58185000D01*
X99515000Y-58985000D02*
X101115000Y-58985000D01*
D14*
X99483000Y-57510000D02*
X101013000Y-57510000D01*
X99151000Y-57470000D02*
X101345000Y-57470000D01*
X98897000Y-57430000D02*
X101599000Y-57430000D01*
X98684000Y-57390000D02*
X101812000Y-57390000D01*
X98497000Y-57350000D02*
X101999000Y-57350000D01*
X98328000Y-57310000D02*
X102168000Y-57310000D01*
X98174000Y-57270000D02*
X102322000Y-57270000D01*
X98031000Y-57230000D02*
X102465000Y-57230000D01*
X97897000Y-57190000D02*
X102599000Y-57190000D01*
X97771000Y-57150000D02*
X102725000Y-57150000D01*
X97651000Y-57110000D02*
X102845000Y-57110000D01*
X97538000Y-57070000D02*
X102958000Y-57070000D01*
X97429000Y-57030000D02*
X103067000Y-57030000D01*
X97325000Y-56990000D02*
X103171000Y-56990000D01*
X97225000Y-56950000D02*
X103271000Y-56950000D01*
X97128000Y-56910000D02*
X103368000Y-56910000D01*
X97035000Y-56870000D02*
X103461000Y-56870000D01*
X96945000Y-56830000D02*
X103551000Y-56830000D01*
X96858000Y-56790000D02*
X103638000Y-56790000D01*
X96773000Y-56750000D02*
X103723000Y-56750000D01*
X96691000Y-56710000D02*
X103805000Y-56710000D01*
X96611000Y-56670000D02*
X103885000Y-56670000D01*
X96534000Y-56630000D02*
X103962000Y-56630000D01*
X96458000Y-56590000D02*
X104038000Y-56590000D01*
X96384000Y-56550000D02*
X104112000Y-56550000D01*
X96312000Y-56510000D02*
X104184000Y-56510000D01*
X96242000Y-56470000D02*
X104254000Y-56470000D01*
X96173000Y-56430000D02*
X104323000Y-56430000D01*
X96106000Y-56390000D02*
X104390000Y-56390000D01*
X96040000Y-56350000D02*
X104456000Y-56350000D01*
X95975000Y-56310000D02*
X104521000Y-56310000D01*
X95912000Y-56270000D02*
X104584000Y-56270000D01*
X95850000Y-56230000D02*
X104646000Y-56230000D01*
X95789000Y-56190000D02*
X104707000Y-56190000D01*
X95730000Y-56150000D02*
X104766000Y-56150000D01*
X95672000Y-56110000D02*
X104824000Y-56110000D01*
X95614000Y-56070000D02*
X104882000Y-56070000D01*
X95558000Y-56030000D02*
X104938000Y-56030000D01*
X95503000Y-55990000D02*
X104993000Y-55990000D01*
X95448000Y-55950000D02*
X105048000Y-55950000D01*
X95395000Y-55910000D02*
X105101000Y-55910000D01*
X95342000Y-55870000D02*
X105154000Y-55870000D01*
X95291000Y-55830000D02*
X105205000Y-55830000D01*
X95240000Y-55790000D02*
X105256000Y-55790000D01*
X95190000Y-55750000D02*
X105306000Y-55750000D01*
X95141000Y-55710000D02*
X105355000Y-55710000D01*
X95092000Y-55670000D02*
X105404000Y-55670000D01*
X95044000Y-55630000D02*
X105452000Y-55630000D01*
X94998000Y-55590000D02*
X105498000Y-55590000D01*
X94951000Y-55550000D02*
X105545000Y-55550000D01*
X94906000Y-55510000D02*
X105590000Y-55510000D01*
X94861000Y-55470000D02*
X105635000Y-55470000D01*
X94817000Y-55430000D02*
X105679000Y-55430000D01*
X94773000Y-55390000D02*
X105723000Y-55390000D01*
X94730000Y-55350000D02*
X105766000Y-55350000D01*
X94688000Y-55310000D02*
X105808000Y-55310000D01*
X94646000Y-55270000D02*
X105850000Y-55270000D01*
X94605000Y-55230000D02*
X105891000Y-55230000D01*
X94565000Y-55190000D02*
X105931000Y-55190000D01*
X94525000Y-55150000D02*
X105971000Y-55150000D01*
X94485000Y-55110000D02*
X106011000Y-55110000D01*
X94446000Y-55070000D02*
X106050000Y-55070000D01*
X94408000Y-55030000D02*
X106088000Y-55030000D01*
X94370000Y-54990000D02*
X106126000Y-54990000D01*
X94333000Y-54950000D02*
X106163000Y-54950000D01*
X94296000Y-54910000D02*
X106200000Y-54910000D01*
X94260000Y-54870000D02*
X106236000Y-54870000D01*
X94224000Y-54830000D02*
X106272000Y-54830000D01*
%TO.C,Q1*%
X131400000Y-44465000D02*
X121180000Y-44465000D01*
X131400000Y-39845000D02*
X131400000Y-44465000D01*
X128140000Y-39845000D02*
X128140000Y-41225000D01*
X124440000Y-39845000D02*
X124440000Y-41225000D01*
X121180000Y-44465000D02*
X121180000Y-39845000D01*
X121180000Y-41225000D02*
X131400000Y-41225000D01*
X121180000Y-39845000D02*
X131400000Y-39845000D01*
%TO.C,ST1*%
D18*
X107280000Y-86342500D02*
X107280000Y-93327500D01*
X107280000Y-86342500D02*
X116170000Y-86342500D01*
X107280000Y-93327500D02*
X116170000Y-93327500D01*
X116170000Y-86342500D02*
X116170000Y-93327500D01*
%TO.C,C1*%
D14*
X91550000Y-49460000D02*
G75*
G02*
X75310000Y-49460000I-8120000J0D01*
G01*
X75310000Y-49460000D02*
G75*
G02*
X91550000Y-49460000I8120000J0D01*
G01*
D11*
X83455000Y-59660000D02*
X83455000Y-58060000D01*
D14*
X82665000Y-57495000D02*
X84195000Y-57495000D01*
D11*
X82655000Y-58860000D02*
X84255000Y-58860000D01*
D14*
X82333000Y-57455000D02*
X84527000Y-57455000D01*
X82079000Y-57415000D02*
X84781000Y-57415000D01*
X81866000Y-57375000D02*
X84994000Y-57375000D01*
X81679000Y-57335000D02*
X85181000Y-57335000D01*
X81510000Y-57295000D02*
X85350000Y-57295000D01*
X81356000Y-57255000D02*
X85504000Y-57255000D01*
X81213000Y-57215000D02*
X85647000Y-57215000D01*
X81079000Y-57175000D02*
X85781000Y-57175000D01*
X80953000Y-57135000D02*
X85907000Y-57135000D01*
X80833000Y-57095000D02*
X86027000Y-57095000D01*
X80720000Y-57055000D02*
X86140000Y-57055000D01*
X80611000Y-57015000D02*
X86249000Y-57015000D01*
X80507000Y-56975000D02*
X86353000Y-56975000D01*
X80407000Y-56935000D02*
X86453000Y-56935000D01*
X80310000Y-56895000D02*
X86550000Y-56895000D01*
X80217000Y-56855000D02*
X86643000Y-56855000D01*
X80127000Y-56815000D02*
X86733000Y-56815000D01*
X80040000Y-56775000D02*
X86820000Y-56775000D01*
X79955000Y-56735000D02*
X86905000Y-56735000D01*
X79873000Y-56695000D02*
X86987000Y-56695000D01*
X79793000Y-56655000D02*
X87067000Y-56655000D01*
X79716000Y-56615000D02*
X87144000Y-56615000D01*
X79640000Y-56575000D02*
X87220000Y-56575000D01*
X79566000Y-56535000D02*
X87294000Y-56535000D01*
X79494000Y-56495000D02*
X87366000Y-56495000D01*
X79424000Y-56455000D02*
X87436000Y-56455000D01*
X79355000Y-56415000D02*
X87505000Y-56415000D01*
X79288000Y-56375000D02*
X87572000Y-56375000D01*
X79222000Y-56335000D02*
X87638000Y-56335000D01*
X79157000Y-56295000D02*
X87703000Y-56295000D01*
X79094000Y-56255000D02*
X87766000Y-56255000D01*
X79032000Y-56215000D02*
X87828000Y-56215000D01*
X78971000Y-56175000D02*
X87889000Y-56175000D01*
X78912000Y-56135000D02*
X87948000Y-56135000D01*
X78854000Y-56095000D02*
X88006000Y-56095000D01*
X78796000Y-56055000D02*
X88064000Y-56055000D01*
X78740000Y-56015000D02*
X88120000Y-56015000D01*
X78685000Y-55975000D02*
X88175000Y-55975000D01*
X78630000Y-55935000D02*
X88230000Y-55935000D01*
X78577000Y-55895000D02*
X88283000Y-55895000D01*
X78524000Y-55855000D02*
X88336000Y-55855000D01*
X78473000Y-55815000D02*
X88387000Y-55815000D01*
X78422000Y-55775000D02*
X88438000Y-55775000D01*
X78372000Y-55735000D02*
X88488000Y-55735000D01*
X78323000Y-55695000D02*
X88537000Y-55695000D01*
X78274000Y-55655000D02*
X88586000Y-55655000D01*
X78226000Y-55615000D02*
X88634000Y-55615000D01*
X78180000Y-55575000D02*
X88680000Y-55575000D01*
X78133000Y-55535000D02*
X88727000Y-55535000D01*
X78088000Y-55495000D02*
X88772000Y-55495000D01*
X78043000Y-55455000D02*
X88817000Y-55455000D01*
X77999000Y-55415000D02*
X88861000Y-55415000D01*
X77955000Y-55375000D02*
X88905000Y-55375000D01*
X77912000Y-55335000D02*
X88948000Y-55335000D01*
X77870000Y-55295000D02*
X88990000Y-55295000D01*
X77828000Y-55255000D02*
X89032000Y-55255000D01*
X77787000Y-55215000D02*
X89073000Y-55215000D01*
X77747000Y-55175000D02*
X89113000Y-55175000D01*
X77707000Y-55135000D02*
X89153000Y-55135000D01*
X77667000Y-55095000D02*
X89193000Y-55095000D01*
X77628000Y-55055000D02*
X89232000Y-55055000D01*
X77590000Y-55015000D02*
X89270000Y-55015000D01*
X77552000Y-54975000D02*
X89308000Y-54975000D01*
X77515000Y-54935000D02*
X89345000Y-54935000D01*
X77478000Y-54895000D02*
X89382000Y-54895000D01*
X77442000Y-54855000D02*
X89418000Y-54855000D01*
X77406000Y-54815000D02*
X89454000Y-54815000D01*
%TO.C,RF1*%
X131095000Y-80090000D02*
G75*
G02*
X128355000Y-80090000I-1370000J0D01*
G01*
X128355000Y-80090000D02*
G75*
G02*
X131095000Y-80090000I1370000J0D01*
G01*
X129725000Y-81460000D02*
X129725000Y-81530000D01*
%TO.C,C4*%
X125745000Y-51505000D02*
X120505000Y-51505000D01*
X125745000Y-51168000D02*
X125745000Y-51505000D01*
X125745000Y-48765000D02*
X125745000Y-49102000D01*
X120505000Y-51505000D02*
X120505000Y-51168000D01*
X120505000Y-49102000D02*
X120505000Y-48765000D01*
X120505000Y-48765000D02*
X125745000Y-48765000D01*
%TO.C,D4*%
X59110000Y-61715000D02*
X68850000Y-61715000D01*
X68850000Y-67155000D01*
X59110000Y-67155000D01*
X59110000Y-61715000D01*
X69760000Y-64435000D02*
X68850000Y-64435000D01*
X67425000Y-67155000D02*
X67425000Y-61715000D01*
X67305000Y-67155000D02*
X67305000Y-61715000D01*
X67185000Y-67155000D02*
X67185000Y-61715000D01*
X58200000Y-64435000D02*
X59110000Y-64435000D01*
%TO.C,C11*%
X124455000Y-92615000D02*
X124792000Y-92615000D01*
X124455000Y-97855000D02*
X124455000Y-92615000D01*
X124792000Y-97855000D02*
X124455000Y-97855000D01*
X126858000Y-92615000D02*
X127195000Y-92615000D01*
X127195000Y-92615000D02*
X127195000Y-97855000D01*
X127195000Y-97855000D02*
X126858000Y-97855000D01*
%TO.C,J2*%
X90745000Y-87305000D02*
X90745000Y-89965000D01*
X103505000Y-87305000D02*
X90745000Y-87305000D01*
X103505000Y-87305000D02*
X103505000Y-89965000D01*
X103505000Y-89965000D02*
X90745000Y-89965000D01*
X106105000Y-88635000D02*
X106105000Y-89965000D01*
X106105000Y-89965000D02*
X104775000Y-89965000D01*
%TO.C,R9*%
X98587500Y-83252500D02*
X92047500Y-83252500D01*
X98587500Y-82922500D02*
X98587500Y-83252500D01*
X98587500Y-80842500D02*
X98587500Y-80512500D01*
X98587500Y-80512500D02*
X92047500Y-80512500D01*
X92047500Y-83252500D02*
X92047500Y-82922500D01*
X92047500Y-80512500D02*
X92047500Y-80842500D01*
%TO.C,C13*%
X113645000Y-85505000D02*
X108405000Y-85505000D01*
X113645000Y-85168000D02*
X113645000Y-85505000D01*
X113645000Y-82765000D02*
X113645000Y-83102000D01*
X108405000Y-85505000D02*
X108405000Y-85168000D01*
X108405000Y-83102000D02*
X108405000Y-82765000D01*
X108405000Y-82765000D02*
X113645000Y-82765000D01*
%TO.C,D1*%
X59110000Y-41715000D02*
X68850000Y-41715000D01*
X68850000Y-47155000D01*
X59110000Y-47155000D01*
X59110000Y-41715000D01*
X69760000Y-44435000D02*
X68850000Y-44435000D01*
X60775000Y-41715000D02*
X60775000Y-47155000D01*
X60655000Y-41715000D02*
X60655000Y-47155000D01*
X60535000Y-41715000D02*
X60535000Y-47155000D01*
X58200000Y-44435000D02*
X59110000Y-44435000D01*
%TO.C,R2*%
X154045000Y-51635000D02*
G75*
G02*
X148805000Y-51635000I-2620000J0D01*
G01*
X148805000Y-51635000D02*
G75*
G02*
X154045000Y-51635000I2620000J0D01*
G01*
X148805000Y-51635000D02*
X147845000Y-51635000D01*
%TO.C,R10*%
X162195000Y-73785000D02*
X162195000Y-67245000D01*
X162195000Y-67245000D02*
X161865000Y-67245000D01*
X161865000Y-73785000D02*
X162195000Y-73785000D01*
X159785000Y-73785000D02*
X159455000Y-73785000D01*
X159455000Y-73785000D02*
X159455000Y-67245000D01*
X159455000Y-67245000D02*
X159785000Y-67245000D01*
%TO.C,C8*%
D19*
X110225000Y-64865000D02*
G75*
G02*
X102225000Y-64865000I-4000000J0D01*
G01*
X102225000Y-64865000D02*
G75*
G02*
X110225000Y-64865000I4000000J0D01*
G01*
D15*
X108765000Y-67938400D02*
X103812000Y-67938400D01*
X108384000Y-68167000D02*
X104066000Y-68167000D01*
D20*
X108125000Y-68303000D02*
X104325000Y-68303000D01*
X108028400Y-68378200D02*
X104370800Y-68378200D01*
X107926800Y-68479800D02*
X104548600Y-68479800D01*
X107525000Y-68603000D02*
X104825000Y-68603000D01*
X107425000Y-68703000D02*
X105025000Y-68703000D01*
X107025000Y-68803000D02*
X105325000Y-68803000D01*
%TO.C,Furo11*%
D10*
X53070000Y-36975000D02*
G75*
G02*
X47070000Y-36975000I-3000000J0D01*
G01*
X47070000Y-36975000D02*
G75*
G02*
X53070000Y-36975000I3000000J0D01*
G01*
%TO.C,C12*%
D20*
X116925000Y-102543000D02*
X115225000Y-102543000D01*
X117325000Y-102443000D02*
X114925000Y-102443000D01*
X117425000Y-102343000D02*
X114725000Y-102343000D01*
X117826800Y-102219800D02*
X114448600Y-102219800D01*
X117928400Y-102118200D02*
X114270800Y-102118200D01*
X118025000Y-102043000D02*
X114225000Y-102043000D01*
D15*
X118284000Y-101907000D02*
X113966000Y-101907000D01*
X118665000Y-101678400D02*
X113712000Y-101678400D01*
D19*
X120125000Y-98605000D02*
G75*
G02*
X112125000Y-98605000I-4000000J0D01*
G01*
X112125000Y-98605000D02*
G75*
G02*
X120125000Y-98605000I4000000J0D01*
G01*
%TO.C,C7*%
X116925000Y-51965000D02*
G75*
G02*
X108925000Y-51965000I-4000000J0D01*
G01*
X108925000Y-51965000D02*
G75*
G02*
X116925000Y-51965000I4000000J0D01*
G01*
D15*
X115465000Y-55038400D02*
X110512000Y-55038400D01*
X115084000Y-55267000D02*
X110766000Y-55267000D01*
D20*
X114825000Y-55403000D02*
X111025000Y-55403000D01*
X114728400Y-55478200D02*
X111070800Y-55478200D01*
X114626800Y-55579800D02*
X111248600Y-55579800D01*
X114225000Y-55703000D02*
X111525000Y-55703000D01*
X114125000Y-55803000D02*
X111725000Y-55803000D01*
X113725000Y-55903000D02*
X112025000Y-55903000D01*
%TO.C,R3*%
D14*
X140695000Y-68305000D02*
X134155000Y-68305000D01*
X140695000Y-67975000D02*
X140695000Y-68305000D01*
X140695000Y-65895000D02*
X140695000Y-65565000D01*
X140695000Y-65565000D02*
X134155000Y-65565000D01*
X134155000Y-68305000D02*
X134155000Y-67975000D01*
X134155000Y-65565000D02*
X134155000Y-65895000D01*
%TO.C,Furo11*%
D10*
X166290000Y-36995000D02*
G75*
G02*
X160290000Y-36995000I-3000000J0D01*
G01*
X160290000Y-36995000D02*
G75*
G02*
X166290000Y-36995000I3000000J0D01*
G01*
D17*
%TO.C,G\u002A\u002A\u002A*%
G36*
X63045918Y-101362871D02*
G01*
X63105140Y-101366495D01*
X63117404Y-101369272D01*
X63119826Y-101401404D01*
X63123448Y-101487019D01*
X63127965Y-101617057D01*
X63133072Y-101782456D01*
X63138462Y-101974158D01*
X63140865Y-102065270D01*
X63158651Y-102753447D01*
X63595307Y-102762193D01*
X63779085Y-102766866D01*
X63909463Y-102774404D01*
X63995601Y-102787918D01*
X64046660Y-102810516D01*
X64071801Y-102845310D01*
X64080185Y-102895408D01*
X64080955Y-102927056D01*
X64078071Y-102978554D01*
X64063504Y-103017184D01*
X64029435Y-103044786D01*
X63968046Y-103063201D01*
X63871519Y-103074271D01*
X63732035Y-103079838D01*
X63541776Y-103081742D01*
X63423495Y-103081896D01*
X63238552Y-103080826D01*
X63075537Y-103077852D01*
X62944618Y-103073323D01*
X62855964Y-103067593D01*
X62819775Y-103061042D01*
X62814250Y-103025421D01*
X62809275Y-102935594D01*
X62805051Y-102799915D01*
X62801783Y-102626739D01*
X62799672Y-102424420D01*
X62798922Y-102201311D01*
X62798922Y-102200820D01*
X62798922Y-101361452D01*
X62955326Y-101361452D01*
X63045918Y-101362871D01*
G37*
G36*
X59522815Y-101230919D02*
G01*
X59671075Y-101233045D01*
X59779083Y-101236482D01*
X59837564Y-101241320D01*
X59845030Y-101243685D01*
X59851066Y-101274857D01*
X59823625Y-101327731D01*
X59759300Y-101406262D01*
X59654682Y-101514405D01*
X59506363Y-101656112D01*
X59423432Y-101732823D01*
X59078381Y-102049630D01*
X58146841Y-102049151D01*
X57910052Y-102048127D01*
X57692504Y-102045466D01*
X57502356Y-102041402D01*
X57347773Y-102036171D01*
X57236917Y-102030011D01*
X57177949Y-102023156D01*
X57171510Y-102020946D01*
X57146991Y-101992789D01*
X57163425Y-101950902D01*
X57187151Y-101919648D01*
X57233122Y-101868855D01*
X57310758Y-101789214D01*
X57409676Y-101690759D01*
X57519491Y-101583521D01*
X57629818Y-101477536D01*
X57730275Y-101382835D01*
X57810477Y-101309452D01*
X57860039Y-101267420D01*
X57867330Y-101262452D01*
X57907872Y-101256300D01*
X58000931Y-101250580D01*
X58137230Y-101245379D01*
X58307494Y-101240786D01*
X58502445Y-101236889D01*
X58712806Y-101233775D01*
X58929300Y-101231533D01*
X59142651Y-101230251D01*
X59343582Y-101230017D01*
X59522815Y-101230919D01*
G37*
G36*
X73727828Y-101367492D02*
G01*
X73816737Y-101371874D01*
X73873642Y-101379400D01*
X73906179Y-101390521D01*
X73921985Y-101405690D01*
X73924976Y-101412036D01*
X73936113Y-101473577D01*
X73909733Y-101516125D01*
X73839122Y-101542803D01*
X73717566Y-101556732D01*
X73605746Y-101560463D01*
X73324907Y-101564777D01*
X73316495Y-102298396D01*
X73312974Y-102543970D01*
X73308158Y-102733691D01*
X73301175Y-102874268D01*
X73291156Y-102972407D01*
X73277231Y-103034816D01*
X73258530Y-103068204D01*
X73234184Y-103079277D01*
X73215424Y-103077788D01*
X73175218Y-103068070D01*
X73145603Y-103060441D01*
X73128346Y-103051146D01*
X73114976Y-103028465D01*
X73104876Y-102984946D01*
X73097429Y-102913136D01*
X73092017Y-102805583D01*
X73088023Y-102654835D01*
X73084828Y-102453441D01*
X73083042Y-102305510D01*
X73074660Y-101564777D01*
X72777493Y-101549137D01*
X72639864Y-101541231D01*
X72553033Y-101532622D01*
X72505305Y-101519619D01*
X72484988Y-101498527D01*
X72480390Y-101465656D01*
X72480326Y-101455295D01*
X72480326Y-101377093D01*
X73192719Y-101368683D01*
X73423455Y-101366348D01*
X73599279Y-101365800D01*
X73727828Y-101367492D01*
G37*
G36*
X62249103Y-101370197D02*
G01*
X62331947Y-101380426D01*
X62383058Y-101398313D01*
X62410140Y-101425541D01*
X62420900Y-101463795D01*
X62423043Y-101514759D01*
X62423073Y-101519420D01*
X62419027Y-101575706D01*
X62400392Y-101616482D01*
X62358595Y-101644217D01*
X62285062Y-101661381D01*
X62171219Y-101670444D01*
X62008491Y-101673876D01*
X61885523Y-101674260D01*
X61422567Y-101674260D01*
X61422567Y-101893226D01*
X61422567Y-102112191D01*
X61841511Y-102112191D01*
X62014695Y-102113229D01*
X62135092Y-102117077D01*
X62212454Y-102124836D01*
X62256532Y-102137610D01*
X62277078Y-102156498D01*
X62279442Y-102161671D01*
X62296262Y-102241853D01*
X62295519Y-102328284D01*
X62278781Y-102394037D01*
X62264918Y-102410737D01*
X62222450Y-102418187D01*
X62130400Y-102423711D01*
X62001732Y-102426832D01*
X61849411Y-102427072D01*
X61826987Y-102426849D01*
X61422567Y-102422250D01*
X61422567Y-102733086D01*
X61420852Y-102880263D01*
X61414589Y-102976121D01*
X61402102Y-103031835D01*
X61381714Y-103058581D01*
X61373087Y-103062909D01*
X61287359Y-103079483D01*
X61190902Y-103077105D01*
X61118614Y-103056746D01*
X61117049Y-103055782D01*
X61104623Y-103033883D01*
X61095278Y-102982094D01*
X61088800Y-102894546D01*
X61084973Y-102765370D01*
X61083582Y-102588695D01*
X61084410Y-102358654D01*
X61085768Y-102203860D01*
X61094119Y-101377093D01*
X61733117Y-101368607D01*
X61957394Y-101365971D01*
X62126820Y-101365940D01*
X62249103Y-101370197D01*
G37*
G36*
X70272355Y-101369064D02*
G01*
X70305848Y-101387663D01*
X70306311Y-101390392D01*
X70289605Y-101427605D01*
X70244949Y-101502470D01*
X70180535Y-101601575D01*
X70148694Y-101648459D01*
X70056075Y-101783429D01*
X69947581Y-101942025D01*
X69842461Y-102096098D01*
X69812426Y-102140220D01*
X69633774Y-102402855D01*
X69623196Y-102723616D01*
X69617706Y-102868073D01*
X69610717Y-102961760D01*
X69599263Y-103016451D01*
X69580375Y-103043918D01*
X69551085Y-103055937D01*
X69538784Y-103058490D01*
X69468391Y-103057029D01*
X69432059Y-103039713D01*
X69417453Y-102995183D01*
X69406249Y-102903330D01*
X69399977Y-102779364D01*
X69399168Y-102712564D01*
X69399168Y-102418306D01*
X69200381Y-102132305D01*
X69048445Y-101913118D01*
X68929401Y-101739895D01*
X68839927Y-101607587D01*
X68776698Y-101511144D01*
X68736390Y-101445517D01*
X68715681Y-101405658D01*
X68710991Y-101388868D01*
X68738398Y-101371119D01*
X68806382Y-101366137D01*
X68827669Y-101367384D01*
X68893243Y-101378168D01*
X68944552Y-101405832D01*
X68996555Y-101462739D01*
X69064210Y-101561253D01*
X69066505Y-101564777D01*
X69150270Y-101689983D01*
X69241900Y-101821721D01*
X69304931Y-101908866D01*
X69370002Y-102000877D01*
X69419960Y-102079692D01*
X69440483Y-102120011D01*
X69464889Y-102161359D01*
X69500079Y-102167136D01*
X69550167Y-102133577D01*
X69619270Y-102056913D01*
X69711505Y-101933378D01*
X69825022Y-101768102D01*
X69929091Y-101614087D01*
X70005908Y-101504760D01*
X70062543Y-101432499D01*
X70106061Y-101389684D01*
X70143530Y-101368693D01*
X70182018Y-101361904D01*
X70202106Y-101361452D01*
X70272355Y-101369064D01*
G37*
G36*
X75051491Y-101354984D02*
G01*
X75253626Y-101358639D01*
X75401920Y-101362822D01*
X75505091Y-101368570D01*
X75571857Y-101376922D01*
X75610939Y-101388917D01*
X75631053Y-101405593D01*
X75640025Y-101425086D01*
X75647411Y-101489733D01*
X75639858Y-101517576D01*
X75601503Y-101530122D01*
X75508965Y-101539933D01*
X75370582Y-101546447D01*
X75194695Y-101549104D01*
X75171186Y-101549137D01*
X75006477Y-101550412D01*
X74861687Y-101553912D01*
X74749550Y-101559154D01*
X74682799Y-101565652D01*
X74672539Y-101568124D01*
X74645430Y-101592709D01*
X74630088Y-101648888D01*
X74623967Y-101749255D01*
X74623539Y-101810550D01*
X74627005Y-101926669D01*
X74635661Y-102020011D01*
X74647668Y-102071143D01*
X74648273Y-102072165D01*
X74686601Y-102090159D01*
X74777995Y-102103832D01*
X74925700Y-102113515D01*
X75109186Y-102119086D01*
X75545843Y-102127832D01*
X75545843Y-102221674D01*
X75545843Y-102315516D01*
X75085962Y-102324164D01*
X74626080Y-102332812D01*
X74637447Y-102605691D01*
X74648813Y-102878570D01*
X75154071Y-102887175D01*
X75659330Y-102895780D01*
X75649507Y-102981017D01*
X75639685Y-103066255D01*
X75060091Y-103074740D01*
X74835073Y-103076722D01*
X74666644Y-103075003D01*
X74548924Y-103069301D01*
X74476034Y-103059335D01*
X74442296Y-103045023D01*
X74429739Y-103002107D01*
X74419466Y-102907583D01*
X74411471Y-102771683D01*
X74405749Y-102604642D01*
X74402295Y-102416694D01*
X74401102Y-102218071D01*
X74402165Y-102019009D01*
X74405479Y-101829741D01*
X74411038Y-101660500D01*
X74418836Y-101521521D01*
X74428869Y-101423037D01*
X74441131Y-101375281D01*
X74443195Y-101373103D01*
X74485791Y-101364852D01*
X74580194Y-101358621D01*
X74715674Y-101354730D01*
X74881500Y-101353497D01*
X75051491Y-101354984D01*
G37*
G36*
X71583443Y-101363409D02*
G01*
X71716112Y-101394222D01*
X71832972Y-101437061D01*
X71919753Y-101486411D01*
X71962185Y-101536757D01*
X71964193Y-101549159D01*
X71945024Y-101622628D01*
X71886485Y-101649858D01*
X71787029Y-101631236D01*
X71728748Y-101608105D01*
X71631584Y-101571633D01*
X71536414Y-101554333D01*
X71417571Y-101552762D01*
X71344633Y-101556581D01*
X71218930Y-101567373D01*
X71138987Y-101583415D01*
X71088002Y-101609885D01*
X71053393Y-101646381D01*
X71002319Y-101754370D01*
X71008286Y-101861504D01*
X71065473Y-101949007D01*
X71129769Y-101988476D01*
X71238843Y-102034075D01*
X71376218Y-102079222D01*
X71427172Y-102093494D01*
X71620740Y-102150376D01*
X71764047Y-102206063D01*
X71868939Y-102266870D01*
X71947266Y-102339113D01*
X71987547Y-102392215D01*
X72047965Y-102531554D01*
X72050860Y-102674692D01*
X71999686Y-102811447D01*
X71897897Y-102931635D01*
X71777447Y-103011514D01*
X71637557Y-103057697D01*
X71464515Y-103079470D01*
X71283102Y-103076037D01*
X71118099Y-103046602D01*
X71079164Y-103033942D01*
X70947669Y-102973957D01*
X70846151Y-102904770D01*
X70786409Y-102835578D01*
X70775523Y-102797257D01*
X70792856Y-102738105D01*
X70847096Y-102721724D01*
X70941604Y-102748018D01*
X71029956Y-102789895D01*
X71206531Y-102859959D01*
X71386227Y-102892108D01*
X71553167Y-102885514D01*
X71691474Y-102839349D01*
X71713946Y-102825537D01*
X71806170Y-102735513D01*
X71838038Y-102635003D01*
X71808850Y-102530333D01*
X71754372Y-102460612D01*
X71685558Y-102406728D01*
X71592612Y-102365193D01*
X71458523Y-102328920D01*
X71416092Y-102319743D01*
X71205306Y-102267462D01*
X71048108Y-102207829D01*
X70935564Y-102135856D01*
X70858746Y-102046553D01*
X70830393Y-101992607D01*
X70790034Y-101837199D01*
X70806436Y-101693821D01*
X70874123Y-101568157D01*
X70987616Y-101465896D01*
X71141438Y-101392724D01*
X71330113Y-101354327D01*
X71449237Y-101350139D01*
X71583443Y-101363409D01*
G37*
G36*
X67823222Y-101378919D02*
G01*
X67951651Y-101407334D01*
X68059461Y-101446529D01*
X68137497Y-101494146D01*
X68176603Y-101547827D01*
X68167624Y-101605211D01*
X68136689Y-101639333D01*
X68093700Y-101654514D01*
X68024549Y-101640472D01*
X67943674Y-101608061D01*
X67801339Y-101565422D01*
X67643730Y-101550260D01*
X67490172Y-101561509D01*
X67359992Y-101598102D01*
X67286244Y-101644361D01*
X67226363Y-101734797D01*
X67210212Y-101838483D01*
X67239073Y-101933169D01*
X67267618Y-101967394D01*
X67322239Y-101997362D01*
X67421418Y-102034812D01*
X67548590Y-102073888D01*
X67627883Y-102094800D01*
X67849342Y-102157855D01*
X68015398Y-102226132D01*
X68133212Y-102305156D01*
X68209940Y-102400456D01*
X68252744Y-102517559D01*
X68263621Y-102585650D01*
X68250427Y-102734389D01*
X68180435Y-102866161D01*
X68058813Y-102972615D01*
X68006078Y-103001822D01*
X67874671Y-103044192D01*
X67707020Y-103067378D01*
X67526793Y-103070219D01*
X67357654Y-103051554D01*
X67294644Y-103036745D01*
X67142148Y-102981008D01*
X67040142Y-102917168D01*
X66991861Y-102849006D01*
X67000540Y-102780304D01*
X67038299Y-102737118D01*
X67075984Y-102719130D01*
X67127990Y-102727426D01*
X67210842Y-102765684D01*
X67242322Y-102782541D01*
X67372081Y-102838162D01*
X67513720Y-102876976D01*
X67564601Y-102884728D01*
X67724749Y-102883371D01*
X67860512Y-102848673D01*
X67964516Y-102787293D01*
X68029388Y-102705891D01*
X68047754Y-102611127D01*
X68012238Y-102509661D01*
X67999875Y-102491632D01*
X67955822Y-102445063D01*
X67892840Y-102405597D01*
X67800589Y-102369289D01*
X67668733Y-102332192D01*
X67486933Y-102290360D01*
X67453969Y-102283273D01*
X67314770Y-102248719D01*
X67216878Y-102209963D01*
X67139265Y-102157467D01*
X67102060Y-102123638D01*
X67035452Y-102051959D01*
X67002330Y-101987389D01*
X66991319Y-101901729D01*
X66990547Y-101847199D01*
X67015852Y-101684938D01*
X67093461Y-101554039D01*
X67225917Y-101450834D01*
X67286421Y-101420250D01*
X67405773Y-101381951D01*
X67541127Y-101363869D01*
X67683329Y-101363644D01*
X67823222Y-101378919D01*
G37*
G36*
X79253801Y-101347628D02*
G01*
X79399021Y-101351800D01*
X79503053Y-101364700D01*
X79587100Y-101390432D01*
X79660103Y-101426248D01*
X79761034Y-101493001D01*
X79805185Y-101554675D01*
X79796846Y-101619774D01*
X79775405Y-101654807D01*
X79746733Y-101687740D01*
X79713954Y-101695574D01*
X79657490Y-101677844D01*
X79594637Y-101650531D01*
X79442169Y-101590249D01*
X79316852Y-101561670D01*
X79194682Y-101560480D01*
X79133988Y-101567784D01*
X78999157Y-101607544D01*
X78905509Y-101674043D01*
X78857246Y-101757404D01*
X78858572Y-101847748D01*
X78913688Y-101935197D01*
X78961273Y-101973775D01*
X79046853Y-102016177D01*
X79164859Y-102056457D01*
X79258440Y-102079272D01*
X79488304Y-102136255D01*
X79661382Y-102208314D01*
X79782441Y-102299336D01*
X79856248Y-102413208D01*
X79887570Y-102553818D01*
X79889324Y-102593746D01*
X79868092Y-102756908D01*
X79796508Y-102886479D01*
X79670636Y-102988596D01*
X79617891Y-103016649D01*
X79459343Y-103066296D01*
X79267786Y-103084702D01*
X79064236Y-103072178D01*
X78869706Y-103029036D01*
X78802208Y-103004550D01*
X78681926Y-102952662D01*
X78610471Y-102912270D01*
X78577803Y-102873698D01*
X78573880Y-102827268D01*
X78581171Y-102791516D01*
X78611052Y-102722326D01*
X78661211Y-102697542D01*
X78741586Y-102715770D01*
X78827859Y-102756927D01*
X78987331Y-102824775D01*
X79154181Y-102867165D01*
X79308333Y-102880473D01*
X79421191Y-102864075D01*
X79540582Y-102805747D01*
X79624000Y-102726874D01*
X79658923Y-102639736D01*
X79659266Y-102630571D01*
X79648217Y-102556856D01*
X79609695Y-102496805D01*
X79535639Y-102445290D01*
X79417987Y-102397184D01*
X79248677Y-102347363D01*
X79190055Y-102332188D01*
X79032784Y-102290968D01*
X78922435Y-102257060D01*
X78844893Y-102224046D01*
X78786046Y-102185505D01*
X78731778Y-102135019D01*
X78713023Y-102115237D01*
X78641599Y-102030162D01*
X78606567Y-101957318D01*
X78595963Y-101869243D01*
X78595720Y-101845962D01*
X78616102Y-101685909D01*
X78682183Y-101560120D01*
X78801368Y-101455995D01*
X78838320Y-101433051D01*
X78920039Y-101389194D01*
X78994732Y-101363202D01*
X79083482Y-101350739D01*
X79207376Y-101347469D01*
X79253801Y-101347628D01*
G37*
G36*
X58896058Y-99830043D02*
G01*
X60812592Y-99831392D01*
X60390301Y-100238018D01*
X60251677Y-100370425D01*
X60123629Y-100490738D01*
X60014842Y-100590950D01*
X59934004Y-100663051D01*
X59891234Y-100698061D01*
X59867835Y-100710886D01*
X59833951Y-100721675D01*
X59783983Y-100730687D01*
X59712333Y-100738184D01*
X59613403Y-100744425D01*
X59481595Y-100749671D01*
X59311311Y-100754181D01*
X59096953Y-100758216D01*
X58832922Y-100762036D01*
X58513621Y-100765901D01*
X58405396Y-100767117D01*
X56996335Y-100782758D01*
X56987889Y-101468745D01*
X56986539Y-101670211D01*
X56987480Y-101850617D01*
X56990487Y-102000576D01*
X56995337Y-102110698D01*
X57001803Y-102171596D01*
X57004940Y-102180229D01*
X57041652Y-102186951D01*
X57132803Y-102193366D01*
X57270270Y-102199204D01*
X57445929Y-102204196D01*
X57651657Y-102208070D01*
X57879332Y-102210558D01*
X57926749Y-102210865D01*
X58157950Y-102212808D01*
X58368929Y-102215760D01*
X58551542Y-102219514D01*
X58697645Y-102223861D01*
X58799092Y-102228593D01*
X58847739Y-102233503D01*
X58850404Y-102234480D01*
X58871889Y-102256539D01*
X58888413Y-102294570D01*
X58900308Y-102355160D01*
X58907907Y-102444895D01*
X58911541Y-102570363D01*
X58911544Y-102738149D01*
X58908247Y-102954839D01*
X58901983Y-103227022D01*
X58901481Y-103246826D01*
X58879296Y-104116818D01*
X58464533Y-104525079D01*
X58328806Y-104657712D01*
X58204477Y-104777406D01*
X58099919Y-104876242D01*
X58023505Y-104946298D01*
X57984898Y-104978778D01*
X57920027Y-105024216D01*
X57911753Y-104060876D01*
X57903478Y-103097536D01*
X57449907Y-103097536D01*
X56996335Y-103097536D01*
X56980695Y-103566748D01*
X56972599Y-103749471D01*
X56962122Y-103893000D01*
X56949986Y-103990112D01*
X56936915Y-104033587D01*
X56933774Y-104035239D01*
X56903361Y-104013579D01*
X56836652Y-103953557D01*
X56740693Y-103861930D01*
X56622530Y-103745451D01*
X56489208Y-103610875D01*
X56460647Y-103581668D01*
X56018800Y-103128817D01*
X55998985Y-101997636D01*
X55994951Y-101721857D01*
X55992805Y-101469129D01*
X55992501Y-101246295D01*
X55993992Y-101060198D01*
X55997233Y-100917681D01*
X56002176Y-100825587D01*
X56007120Y-100793325D01*
X56037716Y-100750323D01*
X56106972Y-100672541D01*
X56207546Y-100567595D01*
X56332093Y-100443103D01*
X56473271Y-100306684D01*
X56507297Y-100274445D01*
X56979524Y-99828694D01*
X58896058Y-99830043D01*
G37*
G36*
X66232483Y-101361169D02*
G01*
X66252421Y-101361452D01*
X66353461Y-101370858D01*
X66403382Y-101400940D01*
X66408506Y-101410932D01*
X66413760Y-101454920D01*
X66418456Y-101552313D01*
X66422383Y-101693952D01*
X66425330Y-101870681D01*
X66427086Y-102073344D01*
X66427493Y-102233617D01*
X66426493Y-102498916D01*
X66423350Y-102706246D01*
X66417855Y-102860169D01*
X66409796Y-102965247D01*
X66398961Y-103026041D01*
X66389956Y-103044359D01*
X66333466Y-103071282D01*
X66255449Y-103081896D01*
X66195481Y-103078832D01*
X66151331Y-103064123D01*
X66120587Y-103029490D01*
X66100837Y-102966656D01*
X66089666Y-102867340D01*
X66084664Y-102723267D01*
X66083417Y-102526157D01*
X66083404Y-102491582D01*
X66083404Y-101976342D01*
X65994786Y-102114648D01*
X65936929Y-102206269D01*
X65860382Y-102329258D01*
X65778892Y-102461489D01*
X65753370Y-102503201D01*
X65650358Y-102665962D01*
X65569531Y-102778218D01*
X65505389Y-102845568D01*
X65452430Y-102873609D01*
X65405153Y-102867939D01*
X65398267Y-102864557D01*
X65361599Y-102826796D01*
X65301970Y-102745078D01*
X65226669Y-102630205D01*
X65142985Y-102492983D01*
X65113431Y-102442312D01*
X65005026Y-102254863D01*
X64924469Y-102122014D01*
X64867814Y-102044486D01*
X64831113Y-102023000D01*
X64810421Y-102058275D01*
X64801791Y-102151032D01*
X64801275Y-102301992D01*
X64804683Y-102498674D01*
X64807525Y-102697147D01*
X64807169Y-102841776D01*
X64803049Y-102941224D01*
X64794598Y-103004153D01*
X64781253Y-103039226D01*
X64768571Y-103051920D01*
X64688718Y-103078002D01*
X64598921Y-103075685D01*
X64530169Y-103046605D01*
X64522659Y-103038943D01*
X64510698Y-103000378D01*
X64501967Y-102915161D01*
X64496356Y-102779803D01*
X64493752Y-102590812D01*
X64494043Y-102344697D01*
X64495368Y-102186542D01*
X64503725Y-101377093D01*
X64666196Y-101367698D01*
X64765989Y-101365789D01*
X64824317Y-101378919D01*
X64861651Y-101413286D01*
X64872800Y-101430260D01*
X64903870Y-101481095D01*
X64960765Y-101574347D01*
X65036769Y-101699004D01*
X65125167Y-101844050D01*
X65178949Y-101932327D01*
X65268623Y-102077459D01*
X65347781Y-102201682D01*
X65410508Y-102296016D01*
X65450888Y-102351481D01*
X65462355Y-102362437D01*
X65486085Y-102337435D01*
X65535539Y-102269137D01*
X65603774Y-102167601D01*
X65683850Y-102042890D01*
X65694349Y-102026169D01*
X65822238Y-101821648D01*
X65921358Y-101663775D01*
X65996742Y-101546553D01*
X66053425Y-101463989D01*
X66096438Y-101410085D01*
X66130818Y-101378847D01*
X66161596Y-101364278D01*
X66193806Y-101360385D01*
X66232483Y-101361169D01*
G37*
G36*
X77930338Y-101361747D02*
G01*
X77960456Y-101381958D01*
X77980923Y-101429302D01*
X77993796Y-101511111D01*
X78001133Y-101634717D01*
X78004990Y-101807451D01*
X78007029Y-101993906D01*
X78008953Y-102197741D01*
X78010842Y-102394576D01*
X78012557Y-102570211D01*
X78013959Y-102710442D01*
X78014849Y-102795448D01*
X78014382Y-102915708D01*
X78006703Y-102988488D01*
X77987297Y-103028810D01*
X77951647Y-103051696D01*
X77935986Y-103057823D01*
X77891002Y-103069724D01*
X77857361Y-103063133D01*
X77833588Y-103030994D01*
X77818206Y-102966253D01*
X77809740Y-102861855D01*
X77806712Y-102710745D01*
X77807648Y-102505867D01*
X77808302Y-102447568D01*
X77809026Y-102259010D01*
X77806816Y-102087888D01*
X77802046Y-101945728D01*
X77795090Y-101844052D01*
X77787137Y-101796318D01*
X77767577Y-101750745D01*
X77750219Y-101749534D01*
X77723054Y-101797864D01*
X77707489Y-101830664D01*
X77653881Y-101935784D01*
X77582046Y-102064584D01*
X77498514Y-102206687D01*
X77409811Y-102351717D01*
X77322467Y-102489298D01*
X77243009Y-102609051D01*
X77177965Y-102700602D01*
X77133863Y-102753572D01*
X77121298Y-102762440D01*
X77098756Y-102760862D01*
X77072157Y-102743603D01*
X77037272Y-102704543D01*
X76989875Y-102637563D01*
X76925737Y-102536543D01*
X76840631Y-102395362D01*
X76730329Y-102207902D01*
X76687285Y-102134164D01*
X76610947Y-102008451D01*
X76544158Y-101908166D01*
X76493612Y-101842682D01*
X76466001Y-101821374D01*
X76464558Y-101822220D01*
X76456158Y-101860174D01*
X76448011Y-101950656D01*
X76440661Y-102083631D01*
X76434651Y-102249065D01*
X76430522Y-102436924D01*
X76430225Y-102457144D01*
X76421705Y-103066255D01*
X76342332Y-103075511D01*
X76274003Y-103074677D01*
X76240670Y-103062478D01*
X76234763Y-103026464D01*
X76229444Y-102936264D01*
X76224929Y-102800248D01*
X76221436Y-102626792D01*
X76219181Y-102424268D01*
X76218380Y-102201048D01*
X76218380Y-102200820D01*
X76218380Y-101361452D01*
X76338655Y-101361452D01*
X76446970Y-101378431D01*
X76506335Y-101416194D01*
X76552726Y-101481200D01*
X76625572Y-101598971D01*
X76723081Y-101766452D01*
X76843462Y-101980587D01*
X76937838Y-102151961D01*
X77002062Y-102263424D01*
X77058153Y-102349950D01*
X77097979Y-102399499D01*
X77109882Y-102406641D01*
X77137100Y-102380179D01*
X77188253Y-102310079D01*
X77256079Y-102206932D01*
X77333314Y-102081328D01*
X77335182Y-102078193D01*
X77463539Y-101864012D01*
X77565214Y-101698012D01*
X77644546Y-101574047D01*
X77705877Y-101485971D01*
X77753547Y-101427637D01*
X77791897Y-101392899D01*
X77825267Y-101375610D01*
X77832921Y-101373399D01*
X77888512Y-101361338D01*
X77930338Y-101361747D01*
G37*
%TO.C,RV1*%
D15*
X142730000Y-63929000D02*
X142730000Y-49929000D01*
X142730000Y-49929000D02*
X141245000Y-48929000D01*
X141245000Y-64929000D02*
X142730000Y-63929000D01*
X141245000Y-64929000D02*
X139975000Y-64929000D01*
X141245000Y-48929000D02*
X139975000Y-48929000D01*
X139935000Y-64929000D02*
X138730000Y-63929000D01*
X138730000Y-63929000D02*
X138730000Y-49929000D01*
X138730000Y-49929000D02*
X139935000Y-48929000D01*
%TO.C,U2*%
D16*
X120963000Y-83725000D02*
G75*
G02*
X122487000Y-83725000I762000J0D01*
G01*
X124265000Y-83725000D02*
X122487000Y-83725000D01*
X124265000Y-73945000D02*
X124265000Y-83725000D01*
X124265000Y-73945000D02*
X119185000Y-73945000D01*
X120963000Y-83725000D02*
X119185000Y-83725000D01*
X119185000Y-73945000D02*
X119185000Y-83725000D01*
%TO.C,Q2*%
D15*
X134633458Y-45111612D02*
G75*
G02*
X134633458Y-41158388I1384041J1976612D01*
G01*
X137287500Y-45294000D02*
X137287500Y-43770000D01*
X137287500Y-42500000D02*
X137287500Y-40976000D01*
X137287500Y-40976000D02*
X136169900Y-40747400D01*
X136169900Y-45522600D02*
X137287500Y-45294000D01*
%TO.C,C10*%
D14*
X107155000Y-94915000D02*
X107492000Y-94915000D01*
X107155000Y-100155000D02*
X107155000Y-94915000D01*
X107492000Y-100155000D02*
X107155000Y-100155000D01*
X109558000Y-94915000D02*
X109895000Y-94915000D01*
X109895000Y-94915000D02*
X109895000Y-100155000D01*
X109895000Y-100155000D02*
X109558000Y-100155000D01*
D17*
%TO.C,C6*%
G36*
X84430885Y-88076393D02*
G01*
X85980285Y-88660593D01*
X87148685Y-89447993D01*
X88240885Y-90413193D01*
X88291685Y-90514793D01*
X77522085Y-90463993D01*
X77776085Y-90184593D01*
X78563485Y-89422593D01*
X79452485Y-88812993D01*
X80519285Y-88330393D01*
X82017885Y-87974793D01*
X83211685Y-87923993D01*
X84430885Y-88076393D01*
G37*
D15*
X89866485Y-94934393D02*
G75*
G02*
X75896485Y-94934393I-6985000J0D01*
G01*
X75896485Y-94934393D02*
G75*
G02*
X89866485Y-94934393I6985000J0D01*
G01*
X82881485Y-85409393D02*
X82881485Y-87314393D01*
X81928985Y-86361893D02*
X83833985Y-86361893D01*
X77483985Y-90489393D02*
X88278985Y-90489393D01*
%TO.C,CN1*%
X63955000Y-74817000D02*
G75*
G02*
X60455000Y-74817000I-1750000J0D01*
G01*
X60455000Y-74817000D02*
G75*
G02*
X63955000Y-74817000I1750000J0D01*
G01*
X58875000Y-74817000D02*
G75*
G02*
X55375000Y-74817000I-1750000J0D01*
G01*
X55375000Y-74817000D02*
G75*
G02*
X58875000Y-74817000I1750000J0D01*
G01*
X64745000Y-85993000D02*
X64745000Y-72023000D01*
X64237000Y-85485000D02*
X64237000Y-77357000D01*
X64237000Y-85485000D02*
X64237000Y-77357000D01*
X62205000Y-76595000D02*
X62205000Y-73039000D01*
X60427000Y-74817000D02*
X63983000Y-74817000D01*
X60173000Y-85485000D02*
X64237000Y-85485000D01*
X60173000Y-85485000D02*
X64237000Y-85485000D01*
X60173000Y-85485000D02*
X60173000Y-77357000D01*
X60173000Y-85485000D02*
X60173000Y-77357000D01*
X60173000Y-82183000D02*
X64237000Y-82183000D01*
X60173000Y-82183000D02*
X64237000Y-82183000D01*
X60173000Y-77357000D02*
X64237000Y-77357000D01*
X60173000Y-77357000D02*
X64237000Y-77357000D01*
X59157000Y-85485000D02*
X59157000Y-77357000D01*
X59157000Y-85485000D02*
X59157000Y-77357000D01*
X57125000Y-76595000D02*
X57125000Y-73039000D01*
X55347000Y-74817000D02*
X58903000Y-74817000D01*
X55093000Y-85485000D02*
X59157000Y-85485000D01*
X55093000Y-85485000D02*
X59157000Y-85485000D01*
X55093000Y-85485000D02*
X55093000Y-77357000D01*
X55093000Y-85485000D02*
X55093000Y-77357000D01*
X55093000Y-82183000D02*
X59157000Y-82183000D01*
X55093000Y-82183000D02*
X59157000Y-82183000D01*
X55093000Y-77357000D02*
X59157000Y-77357000D01*
X55093000Y-77357000D02*
X59157000Y-77357000D01*
X54585000Y-85993000D02*
X64745000Y-85993000D01*
X54585000Y-85993000D02*
X54585000Y-72023000D01*
X54585000Y-84215000D02*
X64745000Y-84215000D01*
X54585000Y-72023000D02*
X64745000Y-72023000D01*
%TO.C,R1*%
D14*
X127705000Y-55405000D02*
X127705000Y-55075000D01*
X127705000Y-52665000D02*
X127705000Y-52995000D01*
X121165000Y-55405000D02*
X127705000Y-55405000D01*
X121165000Y-55075000D02*
X121165000Y-55405000D01*
X121165000Y-52995000D02*
X121165000Y-52665000D01*
X121165000Y-52665000D02*
X127705000Y-52665000D01*
%TO.C,D5*%
X122905000Y-55965000D02*
X128345000Y-55965000D01*
X128345000Y-58905000D01*
X122905000Y-58905000D01*
X122905000Y-55965000D01*
X129365000Y-57435000D02*
X128345000Y-57435000D01*
X127565000Y-58905000D02*
X127565000Y-55965000D01*
X127445000Y-58905000D02*
X127445000Y-55965000D01*
X127325000Y-58905000D02*
X127325000Y-55965000D01*
X121885000Y-57435000D02*
X122905000Y-57435000D01*
%TO.C,R13*%
X120655000Y-92965000D02*
X120655000Y-99505000D01*
X120655000Y-99505000D02*
X120985000Y-99505000D01*
X120985000Y-92965000D02*
X120655000Y-92965000D01*
X123065000Y-92965000D02*
X123395000Y-92965000D01*
X123395000Y-92965000D02*
X123395000Y-99505000D01*
X123395000Y-99505000D02*
X123065000Y-99505000D01*
%TO.C,C2*%
X135445000Y-51605000D02*
X130205000Y-51605000D01*
X135445000Y-51268000D02*
X135445000Y-51605000D01*
X135445000Y-48865000D02*
X135445000Y-49202000D01*
X130205000Y-51605000D02*
X130205000Y-51268000D01*
X130205000Y-49202000D02*
X130205000Y-48865000D01*
X130205000Y-48865000D02*
X135445000Y-48865000D01*
%TO.C,R6*%
X149455000Y-69935000D02*
G75*
G02*
X144215000Y-69935000I-2620000J0D01*
G01*
X144215000Y-69935000D02*
G75*
G02*
X149455000Y-69935000I2620000J0D01*
G01*
X149455000Y-69935000D02*
X150415000Y-69935000D01*
%TO.C,R12*%
X140695000Y-71935000D02*
X140695000Y-71605000D01*
X140695000Y-69195000D02*
X140695000Y-69525000D01*
X134155000Y-71935000D02*
X140695000Y-71935000D01*
X134155000Y-71605000D02*
X134155000Y-71935000D01*
X134155000Y-69525000D02*
X134155000Y-69195000D01*
X134155000Y-69195000D02*
X140695000Y-69195000D01*
%TO.C,C3*%
D19*
X154169236Y-44414866D02*
G75*
G02*
X146169236Y-44414866I-4000000J0D01*
G01*
X146169236Y-44414866D02*
G75*
G02*
X154169236Y-44414866I4000000J0D01*
G01*
D20*
X154107236Y-43614866D02*
X154107236Y-45314866D01*
X154007236Y-43214866D02*
X154007236Y-45614866D01*
X153907236Y-43114866D02*
X153907236Y-45814866D01*
X153784036Y-42713066D02*
X153784036Y-46091266D01*
X153682436Y-42611466D02*
X153682436Y-46269066D01*
X153607236Y-42514866D02*
X153607236Y-46314866D01*
D15*
X153471236Y-42255866D02*
X153471236Y-46573866D01*
X153242636Y-41874866D02*
X153242636Y-46827866D01*
%TO.C,J1*%
D14*
X157105000Y-81003250D02*
X157105000Y-88733250D01*
X154345000Y-88733250D02*
X157105000Y-88733250D01*
X154345000Y-81003250D02*
X157105000Y-81003250D01*
X154345000Y-81003250D02*
X154345000Y-88733250D01*
X154345000Y-79733250D02*
X154345000Y-78353250D01*
X154345000Y-78353250D02*
X155725000Y-78353250D01*
%TO.C,J3*%
X98955000Y-64835000D02*
X98955000Y-62235000D01*
X98955000Y-64835000D02*
X96295000Y-64835000D01*
X98955000Y-62235000D02*
X96295000Y-62235000D01*
X97625000Y-67435000D02*
X96295000Y-67435000D01*
X96295000Y-67435000D02*
X96295000Y-66105000D01*
X96295000Y-64835000D02*
X96295000Y-62235000D01*
%TD*%
D21*
X46706666Y-33585333D02*
X166706666Y-33585333D01*
X166706666Y-108585333D01*
X46706666Y-108585333D01*
X46706666Y-33585333D01*
M02*
