%TF.GenerationSoftware,KiCad,Pcbnew,10.0.1*%
%TF.CreationDate,2026-05-10T17:07:14-03:00*%
%TF.ProjectId,PCB-FLM-FTE-12V,5043422d-464c-44d2-9d46-54452d313256,01*%
%TF.SameCoordinates,Original*%
%TF.FileFunction,Copper,L2,Bot*%
%TF.FilePolarity,Positive*%
%FSLAX46Y46*%
G04 Gerber Fmt 4.6, Leading zero omitted, Abs format (unit mm)*
G04 Created by KiCad (PCBNEW 10.0.1) date 2026-05-10 17:07:14*
%MOMM*%
%LPD*%
G01*
G04 APERTURE LIST*
G04 Aperture macros list*
%AMRoundRect*
0 Rectangle with rounded corners*
0 $1 Rounding radius*
0 $2 $3 $4 $5 $6 $7 $8 $9 X,Y pos of 4 corners*
0 Add a 4 corners polygon primitive as box body*
4,1,4,$2,$3,$4,$5,$6,$7,$8,$9,$2,$3,0*
0 Add four circle primitives for the rounded corners*
1,1,$1+$1,$2,$3*
1,1,$1+$1,$4,$5*
1,1,$1+$1,$6,$7*
1,1,$1+$1,$8,$9*
0 Add four rect primitives between the rounded corners*
20,1,$1+$1,$2,$3,$4,$5,0*
20,1,$1+$1,$4,$5,$6,$7,0*
20,1,$1+$1,$6,$7,$8,$9,0*
20,1,$1+$1,$8,$9,$2,$3,0*%
G04 Aperture macros list end*
%TA.AperFunction,ComponentPad*%
%ADD10O,1.600000X3.000000*%
%TD*%
%TA.AperFunction,ComponentPad*%
%ADD11RoundRect,0.250000X1.350000X1.350000X-1.350000X1.350000X-1.350000X-1.350000X1.350000X-1.350000X0*%
%TD*%
%TA.AperFunction,ComponentPad*%
%ADD12C,3.200000*%
%TD*%
%TA.AperFunction,ComponentPad*%
%ADD13C,2.400000*%
%TD*%
%TA.AperFunction,ComponentPad*%
%ADD14O,3.000000X1.600000*%
%TD*%
%TA.AperFunction,ComponentPad*%
%ADD15C,2.100000*%
%TD*%
%TA.AperFunction,ComponentPad*%
%ADD16RoundRect,0.250000X-1.350000X-1.350000X1.350000X-1.350000X1.350000X1.350000X-1.350000X1.350000X0*%
%TD*%
%TA.AperFunction,ComponentPad*%
%ADD17RoundRect,0.249999X0.850001X0.850001X-0.850001X0.850001X-0.850001X-0.850001X0.850001X-0.850001X0*%
%TD*%
%TA.AperFunction,ComponentPad*%
%ADD18C,2.200000*%
%TD*%
%TA.AperFunction,SMDPad,CuDef*%
%ADD19R,5.400000X5.000000*%
%TD*%
%TA.AperFunction,SMDPad,CuDef*%
%ADD20R,3.000000X1.600000*%
%TD*%
%TA.AperFunction,SMDPad,CuDef*%
%ADD21R,6.700000X6.700000*%
%TD*%
%TA.AperFunction,SMDPad,CuDef*%
%ADD22R,2.260000X2.160000*%
%TD*%
%TA.AperFunction,SMDPad,CuDef*%
%ADD23R,2.600000X1.000000*%
%TD*%
%TA.AperFunction,SMDPad,CuDef*%
%ADD24R,7.300000X10.200000*%
%TD*%
%TA.AperFunction,SMDPad,CuDef*%
%ADD25R,1.500000X0.900000*%
%TD*%
%TA.AperFunction,SMDPad,CuDef*%
%ADD26R,0.900000X1.500000*%
%TD*%
%TA.AperFunction,ViaPad*%
%ADD27C,2.100000*%
%TD*%
%TA.AperFunction,Conductor*%
%ADD28C,1.000000*%
%TD*%
%TA.AperFunction,Conductor*%
%ADD29C,1.500000*%
%TD*%
G04 APERTURE END LIST*
D10*
%TO.P,Q1,1,B_1*%
%TO.N,Net-(Q1-B)*%
X123750000Y-43105000D03*
%TO.P,Q1,2,C_2*%
%TO.N,+15V*%
X126290000Y-43105000D03*
%TO.P,Q1,3,E_3*%
%TO.N,Net-(Q1-E)*%
X128830000Y-43105000D03*
%TD*%
D11*
%TO.P,D4,1,K_1*%
%TO.N,+15V*%
X67245000Y-64435000D03*
D12*
%TO.P,D4,2,A_2*%
%TO.N,Net-(D2-K)*%
X52005000Y-64435000D03*
%TD*%
D13*
%TO.P,C1,1*%
%TO.N,+15V*%
X79958540Y-53187134D03*
%TO.P,C1,2*%
%TO.N,GND*%
X79958540Y-45687134D03*
%TD*%
D14*
%TO.P,RF1,1*%
%TO.N,Net-(U2A--)*%
X129725000Y-80090000D03*
%TO.P,RF1,2*%
%TO.N,Ler_I*%
X129725000Y-82630000D03*
%TD*%
D15*
%TO.P,C4,1*%
%TO.N,+15V*%
X120625000Y-50135000D03*
%TO.P,C4,2*%
%TO.N,GND*%
X125625000Y-50135000D03*
%TD*%
%TO.P,ST1,1,1_1*%
%TO.N,unconnected-(ST1-Pad1)*%
X114900000Y-87612500D03*
%TO.P,ST1,2,2_2*%
%TO.N,CHIP_CPU*%
X108550000Y-87612500D03*
%TO.P,ST1,3,3_3*%
%TO.N,GND*%
X108550000Y-92057500D03*
%TO.P,ST1,4,4_4*%
%TO.N,unconnected-(ST1-Pad4)*%
X114900000Y-92057500D03*
%TD*%
%TO.P,C13,1*%
%TO.N,GND*%
X113525000Y-84135000D03*
%TO.P,C13,2*%
%TO.N,CHIP_CPU*%
X108525000Y-84135000D03*
%TD*%
%TO.P,R10,1*%
%TO.N,Led_Red*%
X160825000Y-74325000D03*
%TO.P,R10,2*%
%TO.N,Net-(LD1-A1)*%
X160825000Y-66705000D03*
%TD*%
D14*
%TO.P,C8,1*%
%TO.N,+12V*%
X106225000Y-66135000D03*
%TO.P,C8,2*%
%TO.N,GND*%
X106225000Y-63595000D03*
%TD*%
D10*
%TO.P,J2,1,Pin_1_1*%
%TO.N,+3V3*%
X104775000Y-88635000D03*
%TO.P,J2,2,Pin_2_2*%
%TO.N,GND*%
X102235000Y-88635000D03*
%TO.P,J2,3,Pin_3_3*%
%TO.N,RXD0*%
X99695000Y-88635000D03*
%TO.P,J2,4,Pin_4_4*%
%TO.N,TXD0*%
X97155000Y-88635000D03*
%TO.P,J2,5,Pin_5_5*%
%TO.N,RTS*%
X94615000Y-88635000D03*
%TO.P,J2,6,Pin_6_6*%
%TO.N,DTR*%
X92075000Y-88635000D03*
%TD*%
D16*
%TO.P,D1,1,K_1*%
%TO.N,Net-(D1-K)*%
X52005000Y-44435000D03*
D12*
%TO.P,D1,2,A_2*%
%TO.N,GND*%
X67245000Y-44435000D03*
%TD*%
D15*
%TO.P,R9,1*%
%TO.N,RTS*%
X100435000Y-81635000D03*
%TO.P,R9,2*%
%TO.N,Net-(Q4-B)*%
X92815000Y-81635000D03*
%TD*%
%TO.P,C11,1*%
%TO.N,CHIP_CPU*%
X125825000Y-92735000D03*
%TO.P,C11,2*%
%TO.N,GND*%
X125825000Y-97735000D03*
%TD*%
D14*
%TO.P,C7,1*%
%TO.N,+15V*%
X112925000Y-53235000D03*
%TO.P,C7,2*%
%TO.N,GND*%
X112925000Y-50695000D03*
%TD*%
%TO.P,C12,1*%
%TO.N,+3V3*%
X116125000Y-99875000D03*
%TO.P,C12,2*%
%TO.N,GND*%
X116125000Y-97335000D03*
%TD*%
D15*
%TO.P,R3,1*%
%TO.N,Vout*%
X141235000Y-66935000D03*
%TO.P,R3,2*%
%TO.N,Net-(U2B-+)*%
X133615000Y-66935000D03*
%TD*%
D13*
%TO.P,R2,1*%
%TO.N,Net-(Q1-E)*%
X151425000Y-51635000D03*
%TO.P,R2,2*%
%TO.N,Vout*%
X146345000Y-51635000D03*
%TD*%
D14*
%TO.P,U2,1,OUT_1*%
%TO.N,Ler_I*%
X125535000Y-82645000D03*
%TO.P,U2,2,-_2*%
%TO.N,Net-(U2A--)*%
X125535000Y-80105000D03*
%TO.P,U2,3,+_3*%
%TO.N,Ler_IRef*%
X125535000Y-77565000D03*
%TO.P,U2,4,GND_4*%
%TO.N,GND*%
X125535000Y-75025000D03*
%TO.P,U2,5,+_5*%
%TO.N,Net-(U2B-+)*%
X117915000Y-75025000D03*
%TO.P,U2,6,-_6*%
%TO.N,Ler_V*%
X117915000Y-77565000D03*
%TO.P,U2,7,OUT_7*%
X117915000Y-80105000D03*
%TO.P,U2,8,V+_8*%
%TO.N,+12V*%
X117915000Y-82645000D03*
%TD*%
D15*
%TO.P,RV1,1,1_1*%
%TO.N,Net-(D5-K)*%
X140730000Y-61849000D03*
%TO.P,RV1,2,2_2*%
%TO.N,Net-(Q1-B)*%
X140730000Y-56849000D03*
%TO.P,RV1,3,3_3*%
%TO.N,GND*%
X140730000Y-51849000D03*
%TD*%
%TO.P,Q2,1,C_1*%
%TO.N,Net-(Q1-B)*%
X135382500Y-45675000D03*
%TO.P,Q2,2,B_2*%
%TO.N,Net-(Q1-E)*%
X137922500Y-43135000D03*
%TO.P,Q2,3,E_3*%
%TO.N,Vout*%
X135382500Y-40595000D03*
%TD*%
%TO.P,C10,1*%
%TO.N,+3V3*%
X108525000Y-100035000D03*
%TO.P,C10,2*%
%TO.N,GND*%
X108525000Y-95035000D03*
%TD*%
%TO.P,CN1,1,1_1*%
%TO.N,Net-(D1-K)*%
X53185000Y-78962000D03*
%TO.P,CN1,2,2_2*%
%TO.N,Net-(D2-K)*%
X58265000Y-78962000D03*
%TD*%
%TO.P,C6,1*%
%TO.N,+5V*%
X82881485Y-92394393D03*
%TO.P,C6,2*%
%TO.N,GND*%
X82881485Y-97474393D03*
%TD*%
%TO.P,C2,1*%
%TO.N,Net-(Q1-B)*%
X135325000Y-50235000D03*
%TO.P,C2,2*%
%TO.N,GND*%
X130325000Y-50235000D03*
%TD*%
D14*
%TO.P,J3,1,Pin_1_1*%
%TO.N,+12V*%
X97625000Y-66105000D03*
%TO.P,J3,2,Pin_2_2*%
%TO.N,GND*%
X97625000Y-63565000D03*
%TD*%
D15*
%TO.P,R12,1*%
%TO.N,Net-(U2B-+)*%
X133615000Y-70565000D03*
%TO.P,R12,2*%
%TO.N,GND*%
X141235000Y-70565000D03*
%TD*%
%TO.P,R1,1*%
%TO.N,+15V*%
X120625000Y-54035000D03*
%TO.P,R1,2*%
%TO.N,Net-(D5-K)*%
X128245000Y-54035000D03*
%TD*%
D13*
%TO.P,R6,1*%
%TO.N,GND*%
X146835000Y-69935000D03*
%TO.P,R6,2*%
%TO.N,Ler_IRef*%
X151915000Y-69935000D03*
%TD*%
D17*
%TO.P,D5,1,K_1*%
%TO.N,Net-(D5-K)*%
X130705000Y-57435000D03*
D18*
%TO.P,D5,2,A_2*%
%TO.N,GND*%
X120545000Y-57435000D03*
%TD*%
D15*
%TO.P,R13,1*%
%TO.N,CHIP_CPU*%
X122025000Y-92425000D03*
%TO.P,R13,2*%
%TO.N,+3V3*%
X122025000Y-100045000D03*
%TD*%
D10*
%TO.P,C3,1*%
%TO.N,Net-(Q1-E)*%
X151439236Y-44414866D03*
%TO.P,C3,2*%
%TO.N,GND*%
X148899236Y-44414866D03*
%TD*%
%TO.P,RG1,1*%
%TO.N,GND*%
X123770000Y-70135000D03*
%TO.P,RG1,2*%
%TO.N,Net-(U2A--)*%
X121230000Y-70135000D03*
%TD*%
D15*
%TO.P,Q3,1,C_1*%
%TO.N,CHIP_CPU*%
X108365000Y-80575000D03*
%TO.P,Q3,2,B_2*%
%TO.N,Net-(Q3-B)*%
X105825000Y-78035000D03*
%TO.P,Q3,3,E_3*%
%TO.N,RTS*%
X103285000Y-80575000D03*
%TD*%
D11*
%TO.P,D3,1,K_1*%
%TO.N,+15V*%
X67245000Y-50935000D03*
D12*
%TO.P,D3,2,A_2*%
%TO.N,Net-(D1-K)*%
X52005000Y-50935000D03*
%TD*%
D15*
%TO.P,R11,1*%
%TO.N,Led_Green*%
X164225000Y-74345000D03*
%TO.P,R11,2*%
%TO.N,Net-(LD1-A2)*%
X164225000Y-66725000D03*
%TD*%
%TO.P,R8,1*%
%TO.N,DTR*%
X92815000Y-77835000D03*
%TO.P,R8,2*%
%TO.N,Net-(Q3-B)*%
X100435000Y-77835000D03*
%TD*%
D10*
%TO.P,REG1,1,VIN_1*%
%TO.N,+15V*%
X112060000Y-42375000D03*
%TO.P,REG1,2,GND_2*%
%TO.N,GND*%
X114600000Y-42375000D03*
%TO.P,REG1,3,VOUT_3*%
%TO.N,+12V*%
X117140000Y-42375000D03*
%TD*%
D15*
%TO.P,Q4,1,C_1*%
%TO.N,GPIO0*%
X97865000Y-73875000D03*
%TO.P,Q4,2,B_2*%
%TO.N,Net-(Q4-B)*%
X95325000Y-71335000D03*
%TO.P,Q4,3,E_3*%
%TO.N,DTR*%
X92785000Y-73875000D03*
%TD*%
%TO.P,CN2,1,1_1*%
%TO.N,Ler_IRef*%
X151952000Y-62875000D03*
%TO.P,CN2,2,2_2*%
%TO.N,Vout*%
X151952000Y-57795000D03*
%TD*%
D14*
%TO.P,J1,1,Pin_1_1*%
%TO.N,GND*%
X155725000Y-79733250D03*
%TO.P,J1,2,Pin_2_2*%
%TO.N,+5V*%
X155725000Y-82273250D03*
%TO.P,J1,3,Pin_3_3*%
%TO.N,SDA*%
X155725000Y-84813250D03*
%TO.P,J1,4,Pin_4_4*%
%TO.N,SCL*%
X155725000Y-87353250D03*
%TD*%
D13*
%TO.P,C5,1*%
%TO.N,+15V*%
X99121525Y-53187134D03*
%TO.P,C5,2*%
%TO.N,GND*%
X99121525Y-45687134D03*
%TD*%
D15*
%TO.P,C9,1*%
%TO.N,+12V*%
X113025000Y-66135000D03*
%TO.P,C9,2*%
%TO.N,GND*%
X113025000Y-61135000D03*
%TD*%
D10*
%TO.P,LD1,1,A1_1*%
%TO.N,Net-(LD1-A1)*%
X159152499Y-45739102D03*
%TO.P,LD1,2,A2_2*%
%TO.N,Net-(LD1-A2)*%
X164232499Y-45739102D03*
%TO.P,LD1,3,K_3*%
%TO.N,GND*%
X161692499Y-45739102D03*
%TD*%
D16*
%TO.P,D2,1,K_1*%
%TO.N,Net-(D2-K)*%
X52005000Y-57935000D03*
D12*
%TO.P,D2,2,A_2*%
%TO.N,GND*%
X67245000Y-57935000D03*
%TD*%
D19*
%TO.P,L1,1,1_1*%
%TO.N,Net-(D6-K)*%
X68033351Y-90290482D03*
%TO.P,L1,2,2_2*%
%TO.N,+5V*%
X68033351Y-102090482D03*
%TD*%
D20*
%TO.P,REG3,1,GND_1*%
%TO.N,GND*%
X94588000Y-100235000D03*
D21*
%TO.P,REG3,2,VOUT_2*%
%TO.N,+3V3*%
X101238000Y-97935000D03*
D20*
%TO.P,REG3,3,VIN_3*%
%TO.N,+5V*%
X94588000Y-95635000D03*
%TD*%
D22*
%TO.P,D6,1,K_1*%
%TO.N,Net-(D6-K)*%
X58993351Y-91474482D03*
%TO.P,D6,2,A_2*%
%TO.N,GND*%
X58993351Y-96374482D03*
%TD*%
D23*
%TO.P,REG2,1,VIN_1*%
%TO.N,+12V*%
X84175000Y-71735000D03*
%TO.P,REG2,2,OUT_2*%
%TO.N,Net-(D6-K)*%
X84175000Y-73866250D03*
%TO.P,REG2,3,GND_3*%
%TO.N,GND*%
X84175000Y-75997500D03*
%TO.P,REG2,4,FB_4*%
%TO.N,+5V*%
X84175000Y-78128750D03*
%TO.P,REG2,5,~{ON}/OFF_5*%
%TO.N,GND*%
X84175000Y-80260000D03*
D24*
%TO.P,REG2,6,GND_6*%
X73625000Y-75935000D03*
%TD*%
D25*
%TO.P,U1,2,3V3_2*%
%TO.N,+3V3*%
X133835000Y-96055000D03*
%TO.P,U1,3,EN_3*%
%TO.N,CHIP_CPU*%
X133835000Y-94785000D03*
%TO.P,U1,6,IO34_6*%
%TO.N,Ler_V*%
X133835000Y-90975000D03*
%TO.P,U1,9,IO33_9*%
%TO.N,Ler_I*%
X133835000Y-87165000D03*
%TO.P,U1,14,IO12_14*%
%TO.N,unconnected-(U1-IO12-Pad14)*%
X133835000Y-80815000D03*
D26*
%TO.P,U1,15,GND_15*%
%TO.N,GND*%
X136870000Y-79565000D03*
%TO.P,U1,24,IO2_24*%
%TO.N,unconnected-(U1-IO2-Pad24)*%
X148300000Y-79565000D03*
D25*
%TO.P,U1,25,IO0_25*%
%TO.N,GPIO0*%
X151335000Y-80815000D03*
%TO.P,U1,27,IO16_27*%
%TO.N,SDA*%
X151335000Y-83355000D03*
%TO.P,U1,29,IO5_29*%
%TO.N,Led_Green*%
X151335000Y-85895000D03*
%TO.P,U1,31,IO19_31*%
%TO.N,SCL*%
X151335000Y-88435000D03*
%TO.P,U1,34,RXD0_34*%
%TO.N,RXD0*%
X151335000Y-92245000D03*
%TO.P,U1,35,TXD0_35*%
%TO.N,TXD0*%
X151335000Y-93515000D03*
%TO.P,U1,37,IO23_37*%
%TO.N,Led_Red*%
X151335000Y-96055000D03*
%TD*%
D27*
%TO.N,RXD0*%
X99925000Y-103085002D03*
X155125000Y-101435000D03*
X99996209Y-91758717D03*
X155125000Y-91135000D03*
%TO.N,TXD0*%
X97155000Y-91535000D03*
X158175003Y-91235000D03*
X158125000Y-101435000D03*
X97075863Y-103014760D03*
%TO.N,+5V*%
X161156666Y-82235000D03*
X161156666Y-101403334D03*
%TO.N,GPIO0*%
X111125000Y-72935000D03*
X155825000Y-73035000D03*
%TD*%
%TO.N,Net-(Q1-B)*%
D28*
X135325000Y-50235000D02*
X135325000Y-45732500D01*
X123750000Y-45160000D02*
X124725000Y-46135000D01*
X135325000Y-45732500D02*
X135382500Y-45675000D01*
X140730000Y-56849000D02*
X140239000Y-56849000D01*
X135325000Y-51935000D02*
X135325000Y-50235000D01*
X134922500Y-46135000D02*
X135382500Y-45675000D01*
X140239000Y-56849000D02*
X135325000Y-51935000D01*
X123750000Y-43105000D02*
X123750000Y-45160000D01*
X124725000Y-46135000D02*
X134922500Y-46135000D01*
%TO.N,+15V*%
D29*
X74870000Y-64435000D02*
X83430000Y-55875000D01*
X67245000Y-64435000D02*
X74870000Y-64435000D01*
X67245000Y-50935000D02*
X71600000Y-50935000D01*
X83425000Y-53205000D02*
X83430000Y-53210000D01*
X100290000Y-53210000D02*
X83430000Y-53210000D01*
X100290000Y-53210000D02*
X108405000Y-53210000D01*
X126290000Y-41212309D02*
X126290000Y-43105000D01*
X113647309Y-39375000D02*
X119465000Y-39375000D01*
X83430000Y-55875000D02*
X83430000Y-53210000D01*
X120525000Y-39375000D02*
X124452691Y-39375000D01*
X73870000Y-53205000D02*
X83425000Y-53205000D01*
X112060000Y-42375000D02*
X112060000Y-40962309D01*
X112925000Y-53235000D02*
X108430000Y-53235000D01*
X112060000Y-40962309D02*
X113647309Y-39375000D01*
X112060000Y-42375000D02*
X108405000Y-46030000D01*
X124452691Y-39375000D02*
X126290000Y-41212309D01*
X119465000Y-39375000D02*
X120525000Y-39375000D01*
X108405000Y-46030000D02*
X108405000Y-53210000D01*
X120625000Y-39475000D02*
X120525000Y-39375000D01*
X71600000Y-50935000D02*
X73870000Y-53205000D01*
X120625000Y-54035000D02*
X120625000Y-39475000D01*
%TO.N,Net-(Q1-E)*%
D28*
X151425000Y-51635000D02*
X151425000Y-44429102D01*
X151439236Y-40949236D02*
X151439236Y-44414866D01*
X128830000Y-43105000D02*
X137892500Y-43105000D01*
X131225000Y-38135000D02*
X148625000Y-38135000D01*
X137892500Y-43105000D02*
X137922500Y-43135000D01*
X151425000Y-44429102D02*
X151439236Y-44414866D01*
X128830000Y-40530000D02*
X131225000Y-38135000D01*
X128830000Y-43105000D02*
X128830000Y-40530000D01*
X148625000Y-38135000D02*
X151439236Y-40949236D01*
%TO.N,Net-(D2-K)*%
D29*
X58265000Y-78962000D02*
X58265000Y-69995000D01*
X52005000Y-57935000D02*
X52005000Y-58635000D01*
X52005000Y-64435000D02*
X51925000Y-64355000D01*
X52705000Y-64435000D02*
X52005000Y-64435000D01*
X51925000Y-58015000D02*
X52005000Y-57935000D01*
X51925000Y-64355000D02*
X51925000Y-58015000D01*
X58265000Y-69995000D02*
X52705000Y-64435000D01*
%TO.N,GND*%
D28*
X136870000Y-79565000D02*
X136870000Y-76175000D01*
%TO.N,Net-(U2A--)*%
X121230000Y-76859138D02*
X121230000Y-69735000D01*
X124475862Y-80105000D02*
X121230000Y-76859138D01*
X129710000Y-80105000D02*
X129725000Y-80090000D01*
X125535000Y-80105000D02*
X124475862Y-80105000D01*
X125535000Y-80105000D02*
X129710000Y-80105000D01*
%TO.N,Ler_I*%
X131755000Y-87165000D02*
X133835000Y-87165000D01*
X129710000Y-82645000D02*
X129725000Y-82630000D01*
X125535000Y-82645000D02*
X129710000Y-82645000D01*
X129725000Y-82630000D02*
X129725000Y-85135000D01*
X129725000Y-85135000D02*
X131755000Y-87165000D01*
%TO.N,CHIP_CPU*%
X122335000Y-92735000D02*
X122025000Y-92425000D01*
X107547500Y-83157500D02*
X108525000Y-84135000D01*
X122025000Y-92425000D02*
X120092500Y-94357500D01*
X108525000Y-84135000D02*
X108525000Y-87587500D01*
X127645000Y-94355000D02*
X134055000Y-94355000D01*
X125825000Y-92735000D02*
X126025000Y-92735000D01*
X108525000Y-87587500D02*
X108550000Y-87612500D01*
X134055000Y-94355000D02*
X134105000Y-94305000D01*
X111325000Y-90387500D02*
X108550000Y-87612500D01*
X111325000Y-93035000D02*
X111325000Y-90387500D01*
X126025000Y-92735000D02*
X127645000Y-94355000D01*
X125825000Y-92735000D02*
X122335000Y-92735000D01*
X120092500Y-94357500D02*
X112647500Y-94357500D01*
X107547500Y-80575000D02*
X107547500Y-83157500D01*
X112647500Y-94357500D02*
X111325000Y-93035000D01*
%TO.N,Led_Red*%
X163456666Y-92420768D02*
X158492434Y-97385000D01*
X163456666Y-76956666D02*
X163456666Y-92420768D01*
X153975000Y-97385000D02*
X152645000Y-96055000D01*
X152645000Y-96055000D02*
X151335000Y-96055000D01*
X160825000Y-74325000D02*
X163456666Y-76956666D01*
X158492434Y-97385000D02*
X153975000Y-97385000D01*
%TO.N,Net-(LD1-A1)*%
X159152499Y-45739102D02*
X159152499Y-65032499D01*
X159152499Y-65032499D02*
X160825000Y-66705000D01*
%TO.N,+12V*%
X117915000Y-82645000D02*
X116815000Y-82645000D01*
X115025000Y-66135000D02*
X113025000Y-66135000D01*
X106225000Y-66135000D02*
X105425000Y-66135000D01*
X117190000Y-63970000D02*
X117190000Y-42425000D01*
X105425000Y-66135000D02*
X105395000Y-66105000D01*
X113025000Y-66135000D02*
X106225000Y-66135000D01*
X85025000Y-71735000D02*
X84175000Y-71735000D01*
X115055000Y-80885000D02*
X115055000Y-66105000D01*
X116815000Y-82645000D02*
X115055000Y-80885000D01*
X117190000Y-42425000D02*
X117140000Y-42375000D01*
X115055000Y-66105000D02*
X117190000Y-63970000D01*
X105395000Y-66105000D02*
X90655000Y-66105000D01*
X90655000Y-66105000D02*
X85025000Y-71735000D01*
X115055000Y-66105000D02*
X115025000Y-66135000D01*
%TO.N,+3V3*%
X103338000Y-100035000D02*
X101238000Y-97935000D01*
X101275000Y-98935000D02*
X101275000Y-100472000D01*
X128715000Y-100045000D02*
X132275000Y-96485000D01*
X104775000Y-95435000D02*
X104775000Y-88635000D01*
X101275000Y-100472000D02*
X101338000Y-100535000D01*
X116125000Y-99875000D02*
X108685000Y-99875000D01*
X108525000Y-100035000D02*
X103338000Y-100035000D01*
X132275000Y-96485000D02*
X133835000Y-96485000D01*
X101275000Y-98935000D02*
X104775000Y-95435000D01*
X122025000Y-100045000D02*
X116295000Y-100045000D01*
X116295000Y-100045000D02*
X116125000Y-99875000D01*
X122025000Y-100045000D02*
X128715000Y-100045000D01*
X101275000Y-98710000D02*
X101275000Y-98935000D01*
X108685000Y-99875000D02*
X108525000Y-100035000D01*
%TO.N,RXD0*%
X155125000Y-101435000D02*
X155125000Y-102335000D01*
X155125000Y-91135000D02*
X154445000Y-91815000D01*
X153624667Y-103835333D02*
X100675331Y-103835333D01*
X155125000Y-101435000D02*
X155025000Y-101535000D01*
X99996209Y-91758717D02*
X99695000Y-91457508D01*
X154445000Y-91815000D02*
X151335000Y-91815000D01*
X155125000Y-102335000D02*
X153624667Y-103835333D01*
X100675331Y-103835333D02*
X99925000Y-103085002D01*
X99695000Y-91457508D02*
X99695000Y-88635000D01*
%TO.N,TXD0*%
X158175003Y-92237689D02*
X156477692Y-93935000D01*
X158225000Y-101535000D02*
X158225000Y-101735000D01*
X153335000Y-93935000D02*
X153335000Y-93945000D01*
X154374667Y-105585333D02*
X99172639Y-105585333D01*
X158225000Y-101735000D02*
X154374667Y-105585333D01*
X158125000Y-101435000D02*
X158225000Y-101535000D01*
X99172639Y-105585333D02*
X97075863Y-103488557D01*
X97155000Y-91535000D02*
X97155000Y-88635000D01*
X158175003Y-91235000D02*
X158175003Y-92237689D01*
X97075863Y-103488557D02*
X97075863Y-103014760D01*
X156477692Y-93935000D02*
X153335000Y-93935000D01*
X153335000Y-93945000D02*
X151335000Y-93945000D01*
%TO.N,RTS*%
X94615000Y-86345000D02*
X94615000Y-88635000D01*
X99077500Y-81882500D02*
X94615000Y-86345000D01*
X101977500Y-81882500D02*
X99077500Y-81882500D01*
X103285000Y-80575000D02*
X101977500Y-81882500D01*
%TO.N,DTR*%
X90515000Y-87075000D02*
X90515000Y-80135000D01*
X92815000Y-73905000D02*
X92785000Y-73875000D01*
X92075000Y-88635000D02*
X90515000Y-87075000D01*
X90515000Y-80135000D02*
X92815000Y-77835000D01*
X92815000Y-77835000D02*
X92815000Y-73905000D01*
%TO.N,Net-(D1-K)*%
D29*
X52705000Y-50935000D02*
X52705000Y-44435000D01*
X48825000Y-74602000D02*
X48825000Y-54815000D01*
X48825000Y-54815000D02*
X52705000Y-50935000D01*
X53185000Y-78962000D02*
X48825000Y-74602000D01*
%TO.N,Net-(Q4-B)*%
D28*
X95325000Y-79125000D02*
X95325000Y-71335000D01*
X92815000Y-81635000D02*
X95325000Y-79125000D01*
%TO.N,Vout*%
X146345000Y-47504808D02*
X146345000Y-51635000D01*
X151952000Y-57795000D02*
X146385000Y-57795000D01*
X135382500Y-40595000D02*
X139435192Y-40595000D01*
X146345000Y-57835000D02*
X146345000Y-61825000D01*
X146345000Y-51635000D02*
X146345000Y-57835000D01*
X146345000Y-61825000D02*
X141235000Y-66935000D01*
X139435192Y-40595000D02*
X146345000Y-47504808D01*
X146385000Y-57795000D02*
X146345000Y-57835000D01*
%TO.N,Net-(U2B-+)*%
X133615000Y-70565000D02*
X133615000Y-66935000D01*
X133615000Y-66935000D02*
X120725000Y-66935000D01*
X120725000Y-66935000D02*
X117915000Y-69745000D01*
X117915000Y-69745000D02*
X117915000Y-75025000D01*
%TO.N,Ler_IRef*%
X131735000Y-74425000D02*
X128595000Y-77565000D01*
X128595000Y-77565000D02*
X125535000Y-77565000D01*
X151952000Y-62875000D02*
X151952000Y-69898000D01*
X151952000Y-69898000D02*
X151915000Y-69935000D01*
X147425000Y-74425000D02*
X131735000Y-74425000D01*
X151915000Y-69935000D02*
X147425000Y-74425000D01*
%TO.N,Ler_V*%
X129885000Y-90975000D02*
X133835000Y-90975000D01*
X119015000Y-80105000D02*
X129885000Y-90975000D01*
X117915000Y-80105000D02*
X119015000Y-80105000D01*
X117915000Y-77565000D02*
X117915000Y-80105000D01*
%TO.N,Net-(D5-K)*%
X135499000Y-61849000D02*
X131085000Y-57435000D01*
X140730000Y-61849000D02*
X135499000Y-61849000D01*
X131085000Y-57435000D02*
X130705000Y-57435000D01*
X128245000Y-54555000D02*
X128245000Y-54035000D01*
X130705000Y-57015000D02*
X128245000Y-54555000D01*
X130705000Y-57435000D02*
X130705000Y-57015000D01*
%TO.N,+5V*%
X94588000Y-95635000D02*
X91425000Y-95635000D01*
X92014369Y-107335333D02*
X85869518Y-101190482D01*
X87125000Y-78910000D02*
X86343750Y-78128750D01*
X155524667Y-107335333D02*
X92014369Y-107335333D01*
X86343750Y-78128750D02*
X84175000Y-78128750D01*
X91425000Y-95635000D02*
X85869518Y-101190482D01*
X155724998Y-107135002D02*
X155524667Y-107335333D01*
X68033351Y-101190482D02*
X74069518Y-101190482D01*
X161156666Y-101703334D02*
X155724998Y-107135002D01*
X85869518Y-101190482D02*
X74069518Y-101190482D01*
X74069518Y-101190482D02*
X87125000Y-88135000D01*
X161118416Y-82273250D02*
X161156666Y-82235000D01*
X161156666Y-101403334D02*
X161156666Y-101703334D01*
X155725000Y-82273250D02*
X161118416Y-82273250D01*
X87125000Y-88135000D02*
X87125000Y-78910000D01*
%TO.N,Net-(Q3-B)*%
X105647500Y-77857500D02*
X105825000Y-78035000D01*
X100435000Y-77835000D02*
X100457500Y-77857500D01*
X100457500Y-77857500D02*
X105647500Y-77857500D01*
%TO.N,Led_Green*%
X150525000Y-99135000D02*
X148325000Y-96935000D01*
X149470000Y-85895000D02*
X151335000Y-85895000D01*
X148325000Y-87040000D02*
X149470000Y-85895000D01*
X165206666Y-75326666D02*
X165206666Y-93145642D01*
X165206666Y-93145642D02*
X159217308Y-99135000D01*
X164225000Y-74345000D02*
X165206666Y-75326666D01*
X148325000Y-96935000D02*
X148325000Y-87040000D01*
X159217308Y-99135000D02*
X150525000Y-99135000D01*
%TO.N,Net-(LD1-A2)*%
X164225000Y-66725000D02*
X164232499Y-66717501D01*
X164232499Y-66717501D02*
X164232499Y-45739102D01*
%TO.N,GPIO0*%
X98805000Y-72935000D02*
X97865000Y-73875000D01*
X111125000Y-72935000D02*
X98805000Y-72935000D01*
X151335000Y-80815000D02*
X151335000Y-77525000D01*
X151335000Y-77525000D02*
X155825000Y-73035000D01*
%TO.N,SDA*%
X153875000Y-84025000D02*
X153875000Y-84022388D01*
X153875000Y-84022388D02*
X153207612Y-83355000D01*
X156510000Y-84813250D02*
X154663250Y-84813250D01*
X154663250Y-84813250D02*
X153875000Y-84025000D01*
X153207612Y-83355000D02*
X151335000Y-83355000D01*
%TO.N,SCL*%
X155428250Y-88435000D02*
X151335000Y-88435000D01*
X156510000Y-87353250D02*
X155428250Y-88435000D01*
%TO.N,Net-(D6-K)*%
X80125000Y-75616250D02*
X81875000Y-73866250D01*
X59023869Y-91505000D02*
X70057250Y-91505000D01*
X81875000Y-73866250D02*
X84175000Y-73866250D01*
X70057250Y-91505000D02*
X80125000Y-81437250D01*
X80125000Y-81437250D02*
X80125000Y-75616250D01*
X58993351Y-91474482D02*
X59023869Y-91505000D01*
%TD*%
%TA.AperFunction,Conductor*%
%TO.N,GND*%
G36*
X161524729Y-34355518D02*
G01*
X161570484Y-34408322D01*
X161580428Y-34477480D01*
X161551403Y-34541036D01*
X161535003Y-34556780D01*
X161287477Y-34754174D01*
X161049174Y-34992477D01*
X160839053Y-35255962D01*
X160659752Y-35541316D01*
X160513532Y-35844945D01*
X160402227Y-36163034D01*
X160402223Y-36163046D01*
X160327233Y-36491602D01*
X160327231Y-36491618D01*
X160289500Y-36826491D01*
X160289500Y-37163508D01*
X160327231Y-37498381D01*
X160327233Y-37498397D01*
X160402223Y-37826953D01*
X160402227Y-37826965D01*
X160513532Y-38145054D01*
X160659752Y-38448683D01*
X160715216Y-38536953D01*
X160839054Y-38734039D01*
X160906436Y-38818533D01*
X161033225Y-38977523D01*
X161049175Y-38997523D01*
X161287477Y-39235825D01*
X161550961Y-39445946D01*
X161836314Y-39625246D01*
X162139949Y-39771469D01*
X162378848Y-39855063D01*
X162458034Y-39882772D01*
X162458046Y-39882776D01*
X162786606Y-39957767D01*
X163121492Y-39995499D01*
X163121493Y-39995500D01*
X163121496Y-39995500D01*
X163458507Y-39995500D01*
X163458507Y-39995499D01*
X163793394Y-39957767D01*
X164121954Y-39882776D01*
X164440051Y-39771469D01*
X164743686Y-39625246D01*
X165029039Y-39445946D01*
X165292523Y-39235825D01*
X165530825Y-38997523D01*
X165735219Y-38741219D01*
X165792407Y-38701080D01*
X165862219Y-38698230D01*
X165922489Y-38733575D01*
X165954082Y-38795894D01*
X165956166Y-38818533D01*
X165956166Y-44543578D01*
X165936481Y-44610617D01*
X165883677Y-44656372D01*
X165814519Y-44666316D01*
X165750963Y-44637291D01*
X165714235Y-44581896D01*
X165669403Y-44443917D01*
X165558605Y-44226463D01*
X165540278Y-44201238D01*
X165415159Y-44029025D01*
X165415155Y-44029020D01*
X165242580Y-43856445D01*
X165242575Y-43856441D01*
X165045141Y-43712998D01*
X165045140Y-43712997D01*
X165045138Y-43712996D01*
X164827684Y-43602198D01*
X164595575Y-43526781D01*
X164595573Y-43526780D01*
X164595571Y-43526780D01*
X164427268Y-43500123D01*
X164354526Y-43488602D01*
X164110472Y-43488602D01*
X164054592Y-43497452D01*
X163869426Y-43526780D01*
X163637311Y-43602199D01*
X163419856Y-43712998D01*
X163222422Y-43856441D01*
X163222417Y-43856445D01*
X163049842Y-44029020D01*
X163049838Y-44029025D01*
X162906395Y-44226459D01*
X162795596Y-44443914D01*
X162795595Y-44443916D01*
X162795595Y-44443917D01*
X162782091Y-44485478D01*
X162720177Y-44676029D01*
X162690276Y-44864815D01*
X162681999Y-44917075D01*
X162681999Y-46561129D01*
X162720178Y-46802178D01*
X162795595Y-47034287D01*
X162906393Y-47251741D01*
X162958318Y-47323209D01*
X162981797Y-47389013D01*
X162981999Y-47396093D01*
X162981999Y-65370347D01*
X162962314Y-65437386D01*
X162945680Y-65458028D01*
X162868412Y-65535295D01*
X162868406Y-65535302D01*
X162724732Y-65722542D01*
X162724728Y-65722547D01*
X162724727Y-65722550D01*
X162711595Y-65745295D01*
X162638160Y-65872487D01*
X162587592Y-65920702D01*
X162518985Y-65933924D01*
X162454120Y-65907956D01*
X162423386Y-65872486D01*
X162371393Y-65782433D01*
X162325273Y-65702550D01*
X162181592Y-65515301D01*
X162181587Y-65515295D01*
X162014704Y-65348412D01*
X162014697Y-65348406D01*
X161827454Y-65204730D01*
X161827453Y-65204729D01*
X161827450Y-65204727D01*
X161734690Y-65151172D01*
X161623056Y-65086719D01*
X161623045Y-65086714D01*
X161404993Y-64996394D01*
X161217365Y-64946119D01*
X161177014Y-64935307D01*
X161177013Y-64935306D01*
X161177010Y-64935306D01*
X160943020Y-64904501D01*
X160943017Y-64904500D01*
X160943011Y-64904500D01*
X160943004Y-64904500D01*
X160844336Y-64904500D01*
X160777297Y-64884815D01*
X160756655Y-64868181D01*
X160439318Y-64550844D01*
X160405833Y-64489521D01*
X160402999Y-64463163D01*
X160402999Y-47396093D01*
X160422684Y-47329054D01*
X160426664Y-47323231D01*
X160478605Y-47251741D01*
X160589403Y-47034287D01*
X160664820Y-46802178D01*
X160702999Y-46561129D01*
X160702999Y-44917075D01*
X160664820Y-44676026D01*
X160589403Y-44443917D01*
X160478605Y-44226463D01*
X160460278Y-44201238D01*
X160335159Y-44029025D01*
X160335155Y-44029020D01*
X160162580Y-43856445D01*
X160162575Y-43856441D01*
X159965141Y-43712998D01*
X159965140Y-43712997D01*
X159965138Y-43712996D01*
X159747684Y-43602198D01*
X159515575Y-43526781D01*
X159515573Y-43526780D01*
X159515571Y-43526780D01*
X159347268Y-43500123D01*
X159274526Y-43488602D01*
X159030472Y-43488602D01*
X158974592Y-43497452D01*
X158789426Y-43526780D01*
X158557311Y-43602199D01*
X158339856Y-43712998D01*
X158142422Y-43856441D01*
X158142417Y-43856445D01*
X157969842Y-44029020D01*
X157969838Y-44029025D01*
X157826395Y-44226459D01*
X157715596Y-44443914D01*
X157715595Y-44443916D01*
X157715595Y-44443917D01*
X157702091Y-44485478D01*
X157640177Y-44676029D01*
X157610276Y-44864815D01*
X157601999Y-44917075D01*
X157601999Y-46561129D01*
X157640178Y-46802178D01*
X157715595Y-47034287D01*
X157826393Y-47251741D01*
X157878318Y-47323209D01*
X157901797Y-47389013D01*
X157901999Y-47396093D01*
X157901999Y-65130921D01*
X157932789Y-65325325D01*
X157993616Y-65512529D01*
X158062735Y-65648181D01*
X158082975Y-65687904D01*
X158198671Y-65847145D01*
X158198673Y-65847147D01*
X158988181Y-66636655D01*
X159021666Y-66697978D01*
X159024500Y-66724336D01*
X159024500Y-66823004D01*
X159024501Y-66823020D01*
X159055306Y-67057010D01*
X159116394Y-67284993D01*
X159206714Y-67503045D01*
X159206719Y-67503056D01*
X159238160Y-67557512D01*
X159324727Y-67707450D01*
X159324729Y-67707453D01*
X159324730Y-67707454D01*
X159468406Y-67894697D01*
X159468412Y-67894704D01*
X159635295Y-68061587D01*
X159635302Y-68061593D01*
X159661367Y-68081593D01*
X159822550Y-68205273D01*
X159913857Y-68257989D01*
X160026943Y-68323280D01*
X160026948Y-68323282D01*
X160026951Y-68323284D01*
X160245007Y-68413606D01*
X160472986Y-68474693D01*
X160706989Y-68505500D01*
X160706996Y-68505500D01*
X160943004Y-68505500D01*
X160943011Y-68505500D01*
X161177014Y-68474693D01*
X161404993Y-68413606D01*
X161623049Y-68323284D01*
X161827450Y-68205273D01*
X162014699Y-68061592D01*
X162181592Y-67894699D01*
X162325273Y-67707450D01*
X162411840Y-67557510D01*
X162462406Y-67509296D01*
X162531013Y-67496073D01*
X162595878Y-67522041D01*
X162626613Y-67557512D01*
X162724727Y-67727450D01*
X162724729Y-67727453D01*
X162724730Y-67727454D01*
X162868406Y-67914697D01*
X162868412Y-67914704D01*
X163035295Y-68081587D01*
X163035302Y-68081593D01*
X163091479Y-68124699D01*
X163222550Y-68225273D01*
X163337409Y-68291587D01*
X163426943Y-68343280D01*
X163426948Y-68343282D01*
X163426951Y-68343284D01*
X163645007Y-68433606D01*
X163872986Y-68494693D01*
X164106989Y-68525500D01*
X164106996Y-68525500D01*
X164343004Y-68525500D01*
X164343011Y-68525500D01*
X164577014Y-68494693D01*
X164804993Y-68433606D01*
X165023049Y-68343284D01*
X165227450Y-68225273D01*
X165414699Y-68081592D01*
X165581592Y-67914699D01*
X165725273Y-67727450D01*
X165725275Y-67727446D01*
X165727522Y-67724084D01*
X165727742Y-67724231D01*
X165727744Y-67724230D01*
X165727767Y-67724247D01*
X165728513Y-67724746D01*
X165775336Y-67680094D01*
X165843942Y-67666864D01*
X165908809Y-67692826D01*
X165949342Y-67749737D01*
X165956166Y-67790304D01*
X165956166Y-73279695D01*
X165936481Y-73346734D01*
X165883677Y-73392489D01*
X165814519Y-73402433D01*
X165750963Y-73373408D01*
X165727998Y-73345597D01*
X165727767Y-73345752D01*
X165727744Y-73345770D01*
X165727742Y-73345768D01*
X165727522Y-73345916D01*
X165725274Y-73342551D01*
X165581593Y-73155302D01*
X165581587Y-73155295D01*
X165414704Y-72988412D01*
X165414697Y-72988406D01*
X165227454Y-72844730D01*
X165227453Y-72844729D01*
X165227450Y-72844727D01*
X165144310Y-72796726D01*
X165023056Y-72726719D01*
X165023045Y-72726714D01*
X164804993Y-72636394D01*
X164720705Y-72613809D01*
X164577014Y-72575307D01*
X164577013Y-72575306D01*
X164577010Y-72575306D01*
X164343020Y-72544501D01*
X164343017Y-72544500D01*
X164343011Y-72544500D01*
X164106989Y-72544500D01*
X164106983Y-72544500D01*
X164106979Y-72544501D01*
X163872989Y-72575306D01*
X163645006Y-72636394D01*
X163426954Y-72726714D01*
X163426943Y-72726719D01*
X163222545Y-72844730D01*
X163035302Y-72988406D01*
X163035295Y-72988412D01*
X162868412Y-73155295D01*
X162868406Y-73155302D01*
X162724732Y-73342542D01*
X162724728Y-73342547D01*
X162724727Y-73342550D01*
X162717264Y-73355476D01*
X162638160Y-73492487D01*
X162587592Y-73540702D01*
X162518985Y-73553924D01*
X162454120Y-73527956D01*
X162423386Y-73492486D01*
X162362491Y-73387014D01*
X162325273Y-73322550D01*
X162220584Y-73186116D01*
X162181593Y-73135302D01*
X162181587Y-73135295D01*
X162014704Y-72968412D01*
X162014697Y-72968406D01*
X161827454Y-72824730D01*
X161827453Y-72824729D01*
X161827450Y-72824727D01*
X161745957Y-72777677D01*
X161623056Y-72706719D01*
X161623045Y-72706714D01*
X161404993Y-72616394D01*
X161177010Y-72555306D01*
X160943020Y-72524501D01*
X160943017Y-72524500D01*
X160943011Y-72524500D01*
X160706989Y-72524500D01*
X160706983Y-72524500D01*
X160706979Y-72524501D01*
X160472989Y-72555306D01*
X160245006Y-72616394D01*
X160026954Y-72706714D01*
X160026943Y-72706719D01*
X159822545Y-72824730D01*
X159635302Y-72968406D01*
X159635295Y-72968412D01*
X159468412Y-73135295D01*
X159468406Y-73135302D01*
X159324730Y-73322545D01*
X159206719Y-73526943D01*
X159206714Y-73526954D01*
X159116394Y-73745006D01*
X159055306Y-73972989D01*
X159024501Y-74206979D01*
X159024500Y-74206995D01*
X159024500Y-74443004D01*
X159024501Y-74443020D01*
X159055306Y-74677010D01*
X159116394Y-74904993D01*
X159206714Y-75123045D01*
X159206719Y-75123056D01*
X159266036Y-75225794D01*
X159324727Y-75327450D01*
X159324729Y-75327453D01*
X159324730Y-75327454D01*
X159468406Y-75514697D01*
X159468412Y-75514704D01*
X159635295Y-75681587D01*
X159635302Y-75681593D01*
X159740464Y-75762286D01*
X159822550Y-75825273D01*
X159953918Y-75901118D01*
X160026943Y-75943280D01*
X160026948Y-75943282D01*
X160026951Y-75943284D01*
X160245007Y-76033606D01*
X160472986Y-76094693D01*
X160706989Y-76125500D01*
X160805664Y-76125500D01*
X160872703Y-76145185D01*
X160893345Y-76161819D01*
X162169847Y-77438321D01*
X162203332Y-77499644D01*
X162206166Y-77526002D01*
X162206166Y-80547116D01*
X162186481Y-80614155D01*
X162133677Y-80659910D01*
X162064519Y-80669854D01*
X162020167Y-80654504D01*
X161954717Y-80616717D01*
X161954711Y-80616714D01*
X161736659Y-80526394D01*
X161508676Y-80465306D01*
X161274686Y-80434501D01*
X161274683Y-80434500D01*
X161274677Y-80434500D01*
X161038655Y-80434500D01*
X161038649Y-80434500D01*
X161038645Y-80434501D01*
X160804655Y-80465306D01*
X160576672Y-80526394D01*
X160358620Y-80616714D01*
X160358609Y-80616719D01*
X160154211Y-80734730D01*
X159966969Y-80878405D01*
X159932939Y-80912436D01*
X159858942Y-80986432D01*
X159797622Y-81019916D01*
X159771263Y-81022750D01*
X157381992Y-81022750D01*
X157314953Y-81003065D01*
X157309106Y-80999068D01*
X157287571Y-80983422D01*
X157237639Y-80947144D01*
X157020185Y-80836346D01*
X156788076Y-80760929D01*
X156788074Y-80760928D01*
X156788072Y-80760928D01*
X156603490Y-80731693D01*
X156547027Y-80722750D01*
X154902973Y-80722750D01*
X154847093Y-80731600D01*
X154661927Y-80760928D01*
X154429812Y-80836347D01*
X154212357Y-80947146D01*
X154014923Y-81090589D01*
X154014918Y-81090593D01*
X153842343Y-81263168D01*
X153842339Y-81263173D01*
X153698896Y-81460607D01*
X153588097Y-81678062D01*
X153512678Y-81910176D01*
X153496994Y-82009201D01*
X153467064Y-82072335D01*
X153407753Y-82109266D01*
X153355123Y-82112275D01*
X153306034Y-82104500D01*
X153306029Y-82104500D01*
X152979272Y-82104500D01*
X152912233Y-82084815D01*
X152866478Y-82032011D01*
X152855272Y-81980587D01*
X152852498Y-78049708D01*
X152841803Y-78039027D01*
X152811153Y-78030044D01*
X152765372Y-77977264D01*
X152755393Y-77908110D01*
X152784386Y-77844540D01*
X152790445Y-77838028D01*
X155756655Y-74871819D01*
X155817978Y-74838334D01*
X155844336Y-74835500D01*
X155943004Y-74835500D01*
X155943011Y-74835500D01*
X156177014Y-74804693D01*
X156404993Y-74743606D01*
X156623049Y-74653284D01*
X156827450Y-74535273D01*
X157014699Y-74391592D01*
X157181592Y-74224699D01*
X157325273Y-74037450D01*
X157443284Y-73833049D01*
X157533606Y-73614993D01*
X157594693Y-73387014D01*
X157625500Y-73153011D01*
X157625500Y-72916989D01*
X157594693Y-72682986D01*
X157533606Y-72455007D01*
X157443284Y-72236951D01*
X157443282Y-72236948D01*
X157443280Y-72236943D01*
X157401118Y-72163918D01*
X157325273Y-72032550D01*
X157240128Y-71921587D01*
X157181593Y-71845302D01*
X157181587Y-71845295D01*
X157014704Y-71678412D01*
X157014697Y-71678406D01*
X156827454Y-71534730D01*
X156827453Y-71534729D01*
X156827450Y-71534727D01*
X156745957Y-71487677D01*
X156623056Y-71416719D01*
X156623045Y-71416714D01*
X156404993Y-71326394D01*
X156177014Y-71265307D01*
X156177013Y-71265306D01*
X156177010Y-71265306D01*
X155943020Y-71234501D01*
X155943017Y-71234500D01*
X155943011Y-71234500D01*
X155706989Y-71234500D01*
X155706983Y-71234500D01*
X155706979Y-71234501D01*
X155472989Y-71265306D01*
X155245006Y-71326394D01*
X155026954Y-71416714D01*
X155026943Y-71416719D01*
X154822545Y-71534730D01*
X154635302Y-71678406D01*
X154635295Y-71678412D01*
X154468412Y-71845295D01*
X154468406Y-71845302D01*
X154324730Y-72032545D01*
X154206719Y-72236943D01*
X154206714Y-72236954D01*
X154116394Y-72455006D01*
X154055306Y-72682989D01*
X154024501Y-72916979D01*
X154024500Y-72916995D01*
X154024500Y-73015664D01*
X154004815Y-73082703D01*
X153988181Y-73103345D01*
X150381174Y-76710351D01*
X150381174Y-76710352D01*
X150381172Y-76710354D01*
X150350655Y-76752357D01*
X150265476Y-76869594D01*
X150176117Y-77044969D01*
X150148341Y-77130453D01*
X150133893Y-77174922D01*
X150129677Y-77187899D01*
X150115291Y-77232173D01*
X150084500Y-77426577D01*
X150084500Y-77927195D01*
X150064815Y-77994234D01*
X150012011Y-78039989D01*
X149960564Y-78051195D01*
X132289206Y-78060291D01*
X132298377Y-85640391D01*
X132278773Y-85707454D01*
X132226025Y-85753273D01*
X132156878Y-85763300D01*
X132093288Y-85734352D01*
X132086696Y-85728222D01*
X131011819Y-84653345D01*
X130978334Y-84592022D01*
X130975500Y-84565664D01*
X130975500Y-84165659D01*
X130995185Y-84098620D01*
X131043206Y-84055174D01*
X131237639Y-83956106D01*
X131435083Y-83812655D01*
X131607655Y-83640083D01*
X131751106Y-83442639D01*
X131861904Y-83225185D01*
X131937321Y-82993076D01*
X131975500Y-82752027D01*
X131975500Y-82507973D01*
X131937321Y-82266924D01*
X131861904Y-82034815D01*
X131751106Y-81817361D01*
X131712845Y-81764699D01*
X131607660Y-81619923D01*
X131607656Y-81619918D01*
X131435419Y-81447681D01*
X131401934Y-81386358D01*
X131406918Y-81316666D01*
X131435419Y-81272319D01*
X131444571Y-81263167D01*
X131607655Y-81100083D01*
X131751106Y-80902639D01*
X131861904Y-80685185D01*
X131937321Y-80453076D01*
X131975500Y-80212027D01*
X131975500Y-79967973D01*
X131971013Y-79939646D01*
X131958072Y-79857939D01*
X131937321Y-79726924D01*
X131861904Y-79494815D01*
X131751106Y-79277361D01*
X131688792Y-79191593D01*
X131607660Y-79079923D01*
X131607656Y-79079918D01*
X131435081Y-78907343D01*
X131435076Y-78907339D01*
X131237642Y-78763896D01*
X131237641Y-78763895D01*
X131237639Y-78763894D01*
X131020185Y-78653096D01*
X130788076Y-78577679D01*
X130788074Y-78577678D01*
X130788072Y-78577678D01*
X130619769Y-78551021D01*
X130547027Y-78539500D01*
X130547026Y-78539500D01*
X129688336Y-78539500D01*
X129621297Y-78519815D01*
X129575542Y-78467011D01*
X129565598Y-78397853D01*
X129594623Y-78334297D01*
X129600655Y-78327819D01*
X132216655Y-75711819D01*
X132277978Y-75678334D01*
X132304336Y-75675500D01*
X147523422Y-75675500D01*
X147717826Y-75644709D01*
X147717875Y-75644693D01*
X147905026Y-75583884D01*
X148080405Y-75494524D01*
X148239646Y-75378828D01*
X151696654Y-71921818D01*
X151757977Y-71888334D01*
X151784335Y-71885500D01*
X152042836Y-71885500D01*
X152042843Y-71885500D01*
X152296340Y-71852126D01*
X152543313Y-71785950D01*
X152779535Y-71688104D01*
X153000965Y-71560261D01*
X153203813Y-71404610D01*
X153384610Y-71223813D01*
X153540261Y-71020965D01*
X153668104Y-70799535D01*
X153765950Y-70563313D01*
X153832126Y-70316340D01*
X153865500Y-70062843D01*
X153865500Y-69807157D01*
X153832126Y-69553660D01*
X153765950Y-69306687D01*
X153668104Y-69070465D01*
X153668102Y-69070462D01*
X153668100Y-69070457D01*
X153540265Y-68849042D01*
X153540261Y-68849035D01*
X153384610Y-68646187D01*
X153384605Y-68646181D01*
X153238819Y-68500395D01*
X153205334Y-68439072D01*
X153202500Y-68412714D01*
X153202500Y-64222153D01*
X153222185Y-64155114D01*
X153238814Y-64134476D01*
X153308592Y-64064699D01*
X153452273Y-63877450D01*
X153570284Y-63673049D01*
X153660606Y-63454993D01*
X153721693Y-63227014D01*
X153752500Y-62993011D01*
X153752500Y-62756989D01*
X153721693Y-62522986D01*
X153660606Y-62295007D01*
X153570284Y-62076951D01*
X153570282Y-62076948D01*
X153570280Y-62076943D01*
X153506806Y-61967004D01*
X153452273Y-61872550D01*
X153308592Y-61685301D01*
X153308587Y-61685295D01*
X153141704Y-61518412D01*
X153141697Y-61518406D01*
X152954454Y-61374730D01*
X152954453Y-61374729D01*
X152954450Y-61374727D01*
X152864342Y-61322703D01*
X152750056Y-61256719D01*
X152750045Y-61256714D01*
X152531993Y-61166394D01*
X152304010Y-61105306D01*
X152070020Y-61074501D01*
X152070017Y-61074500D01*
X152070011Y-61074500D01*
X151833989Y-61074500D01*
X151833983Y-61074500D01*
X151833979Y-61074501D01*
X151599989Y-61105306D01*
X151372006Y-61166394D01*
X151153954Y-61256714D01*
X151153943Y-61256719D01*
X150949545Y-61374730D01*
X150762302Y-61518406D01*
X150762295Y-61518412D01*
X150595412Y-61685295D01*
X150595406Y-61685302D01*
X150451730Y-61872545D01*
X150333719Y-62076943D01*
X150333714Y-62076954D01*
X150243394Y-62295006D01*
X150182306Y-62522989D01*
X150151501Y-62756979D01*
X150151500Y-62756995D01*
X150151500Y-62993004D01*
X150151501Y-62993020D01*
X150182306Y-63227010D01*
X150243394Y-63454993D01*
X150333714Y-63673045D01*
X150333719Y-63673056D01*
X150404677Y-63795957D01*
X150451727Y-63877450D01*
X150451729Y-63877453D01*
X150451730Y-63877454D01*
X150595405Y-64064696D01*
X150595407Y-64064698D01*
X150595408Y-64064699D01*
X150665182Y-64134473D01*
X150698666Y-64195794D01*
X150701500Y-64222153D01*
X150701500Y-68346450D01*
X150681815Y-68413489D01*
X150652988Y-68444824D01*
X150626189Y-68465388D01*
X150626178Y-68465398D01*
X150445394Y-68646181D01*
X150445388Y-68646188D01*
X150289745Y-68849026D01*
X150289734Y-68849042D01*
X150161899Y-69070457D01*
X150161894Y-69070468D01*
X150064053Y-69306677D01*
X150064050Y-69306687D01*
X149997874Y-69553661D01*
X149964500Y-69807149D01*
X149964500Y-70065663D01*
X149944815Y-70132702D01*
X149928181Y-70153344D01*
X146943345Y-73138181D01*
X146882022Y-73171666D01*
X146855664Y-73174500D01*
X131636579Y-73174500D01*
X131577910Y-73183792D01*
X131563242Y-73186116D01*
X131563241Y-73186116D01*
X131442174Y-73205290D01*
X131442173Y-73205290D01*
X131254969Y-73266117D01*
X131079594Y-73355476D01*
X131028651Y-73392489D01*
X130920355Y-73471171D01*
X130920353Y-73471173D01*
X130920352Y-73471173D01*
X128113345Y-76278181D01*
X128052022Y-76311666D01*
X128025664Y-76314500D01*
X127191992Y-76314500D01*
X127124953Y-76294815D01*
X127119106Y-76290818D01*
X127047639Y-76238894D01*
X126830187Y-76128097D01*
X126830186Y-76128096D01*
X126830185Y-76128096D01*
X126598076Y-76052679D01*
X126598074Y-76052678D01*
X126598072Y-76052678D01*
X126429769Y-76026021D01*
X126357027Y-76014500D01*
X124712973Y-76014500D01*
X124657093Y-76023350D01*
X124471927Y-76052678D01*
X124239812Y-76128097D01*
X124022357Y-76238896D01*
X123824923Y-76382339D01*
X123824918Y-76382343D01*
X123652343Y-76554918D01*
X123652339Y-76554923D01*
X123508896Y-76752357D01*
X123398096Y-76969813D01*
X123389764Y-76995457D01*
X123350326Y-77053131D01*
X123285966Y-77080328D01*
X123217120Y-77068412D01*
X123184153Y-77044817D01*
X122516819Y-76377483D01*
X122483334Y-76316160D01*
X122480500Y-76289802D01*
X122480500Y-71791991D01*
X122500185Y-71724952D01*
X122504165Y-71719129D01*
X122556106Y-71647639D01*
X122666904Y-71430185D01*
X122742321Y-71198076D01*
X122780500Y-70957027D01*
X122780500Y-69312973D01*
X122742321Y-69071924D01*
X122666904Y-68839815D01*
X122556106Y-68622361D01*
X122471202Y-68505500D01*
X122412660Y-68424923D01*
X122412656Y-68424918D01*
X122384919Y-68397181D01*
X122351434Y-68335858D01*
X122356418Y-68266166D01*
X122398290Y-68210233D01*
X122463754Y-68185816D01*
X122472600Y-68185500D01*
X132240500Y-68185500D01*
X132307539Y-68205185D01*
X132353294Y-68257989D01*
X132364500Y-68309500D01*
X132364500Y-69217846D01*
X132344815Y-69284885D01*
X132328181Y-69305527D01*
X132258412Y-69375295D01*
X132258406Y-69375302D01*
X132114730Y-69562545D01*
X131996719Y-69766943D01*
X131996714Y-69766954D01*
X131906394Y-69985006D01*
X131845306Y-70212989D01*
X131814501Y-70446979D01*
X131814500Y-70446995D01*
X131814500Y-70683004D01*
X131814501Y-70683020D01*
X131845129Y-70915668D01*
X131845307Y-70917014D01*
X131862984Y-70982986D01*
X131906394Y-71144993D01*
X131996714Y-71363045D01*
X131996719Y-71363056D01*
X132048661Y-71453020D01*
X132114727Y-71567450D01*
X132114729Y-71567453D01*
X132114730Y-71567454D01*
X132258406Y-71754697D01*
X132258412Y-71754704D01*
X132425295Y-71921587D01*
X132425301Y-71921592D01*
X132612550Y-72065273D01*
X132736686Y-72136943D01*
X132816943Y-72183280D01*
X132816948Y-72183282D01*
X132816951Y-72183284D01*
X133035007Y-72273606D01*
X133262986Y-72334693D01*
X133496989Y-72365500D01*
X133496996Y-72365500D01*
X133733004Y-72365500D01*
X133733011Y-72365500D01*
X133967014Y-72334693D01*
X134194993Y-72273606D01*
X134413049Y-72183284D01*
X134617450Y-72065273D01*
X134804699Y-71921592D01*
X134971592Y-71754699D01*
X135115273Y-71567450D01*
X135233284Y-71363049D01*
X135323606Y-71144993D01*
X135384693Y-70917014D01*
X135415500Y-70683011D01*
X135415500Y-70446989D01*
X135384693Y-70212986D01*
X135323606Y-69985007D01*
X135233284Y-69766951D01*
X135233282Y-69766948D01*
X135233280Y-69766943D01*
X135163786Y-69646577D01*
X135115273Y-69562550D01*
X134971592Y-69375301D01*
X134971587Y-69375295D01*
X134901819Y-69305527D01*
X134868334Y-69244204D01*
X134865500Y-69217846D01*
X134865500Y-68282153D01*
X134885185Y-68215114D01*
X134901814Y-68194476D01*
X134971592Y-68124699D01*
X135115273Y-67937450D01*
X135233284Y-67733049D01*
X135323606Y-67514993D01*
X135384693Y-67287014D01*
X135415500Y-67053011D01*
X135415500Y-66816989D01*
X135384693Y-66582986D01*
X135323606Y-66355007D01*
X135233284Y-66136951D01*
X135233282Y-66136948D01*
X135233280Y-66136943D01*
X135191118Y-66063918D01*
X135115273Y-65932550D01*
X134971592Y-65745301D01*
X134971587Y-65745295D01*
X134804704Y-65578412D01*
X134804697Y-65578406D01*
X134617454Y-65434730D01*
X134617453Y-65434729D01*
X134617450Y-65434727D01*
X134505941Y-65370347D01*
X134413056Y-65316719D01*
X134413045Y-65316714D01*
X134194993Y-65226394D01*
X133967010Y-65165306D01*
X133733020Y-65134501D01*
X133733017Y-65134500D01*
X133733011Y-65134500D01*
X133496989Y-65134500D01*
X133496983Y-65134500D01*
X133496979Y-65134501D01*
X133262989Y-65165306D01*
X133035006Y-65226394D01*
X132816954Y-65316714D01*
X132816943Y-65316719D01*
X132612545Y-65434730D01*
X132425303Y-65578405D01*
X132390416Y-65613293D01*
X132355526Y-65648182D01*
X132294206Y-65681666D01*
X132267847Y-65684500D01*
X120626578Y-65684500D01*
X120432173Y-65715290D01*
X120244969Y-65776117D01*
X120069594Y-65865476D01*
X119993583Y-65920702D01*
X119910354Y-65981172D01*
X119910352Y-65981174D01*
X119910351Y-65981174D01*
X116961174Y-68930351D01*
X116961174Y-68930352D01*
X116961172Y-68930354D01*
X116911485Y-68998741D01*
X116845476Y-69089594D01*
X116756117Y-69264970D01*
X116748147Y-69289501D01*
X116695290Y-69452173D01*
X116664500Y-69646577D01*
X116664500Y-73489340D01*
X116660212Y-73503942D01*
X116660864Y-73519148D01*
X116650568Y-73536786D01*
X116644815Y-73556379D01*
X116632770Y-73567276D01*
X116625641Y-73579490D01*
X116596795Y-73599825D01*
X116485795Y-73656382D01*
X116417125Y-73669278D01*
X116352385Y-73643001D01*
X116312128Y-73585895D01*
X116305500Y-73545897D01*
X116305500Y-66674336D01*
X116325185Y-66607297D01*
X116341819Y-66586655D01*
X117240570Y-65687904D01*
X118143828Y-64784646D01*
X118259524Y-64625405D01*
X118348884Y-64450026D01*
X118409709Y-64262826D01*
X118426769Y-64155114D01*
X118440500Y-64068422D01*
X118440500Y-43963171D01*
X118460185Y-43896132D01*
X118464167Y-43890307D01*
X118466106Y-43887639D01*
X118576904Y-43670185D01*
X118652321Y-43438076D01*
X118690500Y-43197027D01*
X118690500Y-41552973D01*
X118652321Y-41311924D01*
X118576904Y-41079815D01*
X118576902Y-41079812D01*
X118576902Y-41079810D01*
X118564666Y-41055796D01*
X118551769Y-40987127D01*
X118578045Y-40922386D01*
X118635151Y-40882129D01*
X118675150Y-40875500D01*
X119000500Y-40875500D01*
X119067539Y-40895185D01*
X119113294Y-40947989D01*
X119124500Y-40999500D01*
X119124500Y-49099717D01*
X119107887Y-49161717D01*
X119006719Y-49336943D01*
X119006714Y-49336954D01*
X118916394Y-49555006D01*
X118855306Y-49782989D01*
X118824501Y-50016979D01*
X118824500Y-50016995D01*
X118824500Y-50253004D01*
X118824501Y-50253020D01*
X118855306Y-50487010D01*
X118916394Y-50714993D01*
X118939372Y-50770468D01*
X119006716Y-50933049D01*
X119107887Y-51108282D01*
X119124500Y-51170281D01*
X119124500Y-52999717D01*
X119107887Y-53061717D01*
X119006719Y-53236943D01*
X119006714Y-53236954D01*
X118916394Y-53455006D01*
X118855306Y-53682989D01*
X118824501Y-53916979D01*
X118824500Y-53916995D01*
X118824500Y-54153004D01*
X118824501Y-54153020D01*
X118855306Y-54387010D01*
X118916394Y-54614993D01*
X119006714Y-54833045D01*
X119006719Y-54833056D01*
X119068602Y-54940239D01*
X119124727Y-55037450D01*
X119124729Y-55037453D01*
X119124730Y-55037454D01*
X119268406Y-55224697D01*
X119268412Y-55224704D01*
X119435295Y-55391587D01*
X119435302Y-55391593D01*
X119530929Y-55464970D01*
X119622550Y-55535273D01*
X119753918Y-55611118D01*
X119826943Y-55653280D01*
X119826948Y-55653282D01*
X119826951Y-55653284D01*
X120045007Y-55743606D01*
X120272986Y-55804693D01*
X120506989Y-55835500D01*
X120506996Y-55835500D01*
X120743004Y-55835500D01*
X120743011Y-55835500D01*
X120977014Y-55804693D01*
X121204993Y-55743606D01*
X121423049Y-55653284D01*
X121627450Y-55535273D01*
X121814699Y-55391592D01*
X121981592Y-55224699D01*
X122125273Y-55037450D01*
X122243284Y-54833049D01*
X122333606Y-54614993D01*
X122394693Y-54387014D01*
X122425500Y-54153011D01*
X122425500Y-53916995D01*
X126444500Y-53916995D01*
X126444500Y-54153004D01*
X126444501Y-54153020D01*
X126475306Y-54387010D01*
X126536394Y-54614993D01*
X126626714Y-54833045D01*
X126626719Y-54833056D01*
X126688602Y-54940239D01*
X126744727Y-55037450D01*
X126744729Y-55037453D01*
X126744730Y-55037454D01*
X126888406Y-55224697D01*
X126888412Y-55224704D01*
X127055295Y-55391587D01*
X127055302Y-55391593D01*
X127150929Y-55464970D01*
X127242550Y-55535273D01*
X127373918Y-55611118D01*
X127446943Y-55653280D01*
X127446948Y-55653282D01*
X127446951Y-55653284D01*
X127446955Y-55653285D01*
X127446960Y-55653288D01*
X127642432Y-55734255D01*
X127682661Y-55761135D01*
X128818181Y-56896655D01*
X128851666Y-56957978D01*
X128854500Y-56984336D01*
X128854500Y-58343038D01*
X128857341Y-58374993D01*
X128865113Y-58462414D01*
X128865113Y-58462416D01*
X128865114Y-58462419D01*
X128887550Y-58540830D01*
X128921089Y-58658046D01*
X128921090Y-58658049D01*
X128921091Y-58658050D01*
X129015302Y-58838408D01*
X129015304Y-58838410D01*
X129143890Y-58996109D01*
X129237803Y-59072685D01*
X129301592Y-59124698D01*
X129481950Y-59218909D01*
X129677581Y-59274886D01*
X129796962Y-59285500D01*
X131115664Y-59285500D01*
X131182703Y-59305185D01*
X131203345Y-59321819D01*
X134684355Y-62802829D01*
X134843595Y-62918524D01*
X135018974Y-63007884D01*
X135018976Y-63007884D01*
X135018979Y-63007886D01*
X135018977Y-63007886D01*
X135132309Y-63044709D01*
X135132310Y-63044709D01*
X135169242Y-63056709D01*
X135206173Y-63068709D01*
X135400578Y-63099500D01*
X135400583Y-63099500D01*
X135400584Y-63099500D01*
X135597417Y-63099500D01*
X139382847Y-63099500D01*
X139449886Y-63119185D01*
X139470523Y-63135814D01*
X139540296Y-63205587D01*
X139540303Y-63205594D01*
X139678890Y-63311935D01*
X139727550Y-63349273D01*
X139816562Y-63400664D01*
X139931943Y-63467280D01*
X139931948Y-63467282D01*
X139931951Y-63467284D01*
X140150007Y-63557606D01*
X140377986Y-63618693D01*
X140611989Y-63649500D01*
X140611996Y-63649500D01*
X140848004Y-63649500D01*
X140848011Y-63649500D01*
X141082014Y-63618693D01*
X141309993Y-63557606D01*
X141528049Y-63467284D01*
X141732450Y-63349273D01*
X141919699Y-63205592D01*
X142086592Y-63038699D01*
X142230273Y-62851450D01*
X142348284Y-62647049D01*
X142438606Y-62428993D01*
X142499693Y-62201014D01*
X142530500Y-61967011D01*
X142530500Y-61730989D01*
X142499693Y-61496986D01*
X142438606Y-61269007D01*
X142348284Y-61050951D01*
X142348282Y-61050948D01*
X142348280Y-61050943D01*
X142306118Y-60977918D01*
X142230273Y-60846550D01*
X142086592Y-60659301D01*
X142086587Y-60659295D01*
X141919704Y-60492412D01*
X141919697Y-60492406D01*
X141732454Y-60348730D01*
X141732453Y-60348729D01*
X141732450Y-60348727D01*
X141622141Y-60285040D01*
X141528056Y-60230719D01*
X141528045Y-60230714D01*
X141309993Y-60140394D01*
X141082010Y-60079306D01*
X140848020Y-60048501D01*
X140848017Y-60048500D01*
X140848011Y-60048500D01*
X140611989Y-60048500D01*
X140611983Y-60048500D01*
X140611979Y-60048501D01*
X140377989Y-60079306D01*
X140150006Y-60140394D01*
X139931954Y-60230714D01*
X139931943Y-60230719D01*
X139727545Y-60348730D01*
X139540303Y-60492405D01*
X139505416Y-60527293D01*
X139470526Y-60562182D01*
X139409206Y-60595666D01*
X139382847Y-60598500D01*
X136068336Y-60598500D01*
X136001297Y-60578815D01*
X135980655Y-60562181D01*
X132591819Y-57173345D01*
X132558334Y-57112022D01*
X132555500Y-57085664D01*
X132555500Y-56526968D01*
X132555500Y-56526962D01*
X132544886Y-56407581D01*
X132488909Y-56211950D01*
X132394698Y-56031592D01*
X132342685Y-55967803D01*
X132266109Y-55873890D01*
X132150933Y-55779977D01*
X132108408Y-55745302D01*
X131928050Y-55651091D01*
X131928049Y-55651090D01*
X131928046Y-55651089D01*
X131810830Y-55617550D01*
X131732419Y-55595114D01*
X131732416Y-55595113D01*
X131732414Y-55595113D01*
X131659632Y-55588642D01*
X131613038Y-55584500D01*
X131613034Y-55584500D01*
X131094336Y-55584500D01*
X131027297Y-55564815D01*
X131006655Y-55548181D01*
X130029558Y-54571084D01*
X129996073Y-54509761D01*
X129997463Y-54451312D01*
X130014693Y-54387014D01*
X130045500Y-54153011D01*
X130045500Y-53916989D01*
X130014693Y-53682986D01*
X129953606Y-53455007D01*
X129863284Y-53236951D01*
X129863282Y-53236948D01*
X129863280Y-53236943D01*
X129799946Y-53127247D01*
X129745273Y-53032550D01*
X129601592Y-52845301D01*
X129601587Y-52845295D01*
X129434704Y-52678412D01*
X129434697Y-52678406D01*
X129247454Y-52534730D01*
X129247453Y-52534729D01*
X129247450Y-52534727D01*
X129165957Y-52487677D01*
X129043056Y-52416719D01*
X129043045Y-52416714D01*
X128824993Y-52326394D01*
X128597010Y-52265306D01*
X128363020Y-52234501D01*
X128363017Y-52234500D01*
X128363011Y-52234500D01*
X128126989Y-52234500D01*
X128126983Y-52234500D01*
X128126979Y-52234501D01*
X127892989Y-52265306D01*
X127665006Y-52326394D01*
X127446954Y-52416714D01*
X127446943Y-52416719D01*
X127242545Y-52534730D01*
X127055302Y-52678406D01*
X127055295Y-52678412D01*
X126888412Y-52845295D01*
X126888406Y-52845302D01*
X126744730Y-53032545D01*
X126626719Y-53236943D01*
X126626714Y-53236954D01*
X126536394Y-53455006D01*
X126475306Y-53682989D01*
X126444501Y-53916979D01*
X126444500Y-53916995D01*
X122425500Y-53916995D01*
X122425500Y-53916989D01*
X122394693Y-53682986D01*
X122333606Y-53455007D01*
X122243284Y-53236951D01*
X122243282Y-53236948D01*
X122243280Y-53236943D01*
X122142113Y-53061717D01*
X122125500Y-52999717D01*
X122125500Y-51170281D01*
X122142112Y-51108282D01*
X122243284Y-50933049D01*
X122333606Y-50714993D01*
X122394693Y-50487014D01*
X122425500Y-50253011D01*
X122425500Y-50016989D01*
X122394693Y-49782986D01*
X122333606Y-49555007D01*
X122243284Y-49336951D01*
X122243282Y-49336948D01*
X122243280Y-49336943D01*
X122142113Y-49161717D01*
X122125500Y-49099717D01*
X122125500Y-44548505D01*
X122126188Y-44546160D01*
X122125590Y-44543792D01*
X122135980Y-44512812D01*
X122145185Y-44481466D01*
X122147030Y-44479866D01*
X122147808Y-44477549D01*
X122173310Y-44457094D01*
X122197989Y-44435711D01*
X122200406Y-44435363D01*
X122202313Y-44433834D01*
X122234820Y-44430415D01*
X122267147Y-44425767D01*
X122269368Y-44426781D01*
X122271799Y-44426526D01*
X122300985Y-44441220D01*
X122330703Y-44454792D01*
X122332700Y-44457188D01*
X122334206Y-44457946D01*
X122342277Y-44468673D01*
X122356288Y-44485478D01*
X122358239Y-44488785D01*
X122423894Y-44617639D01*
X122479292Y-44693888D01*
X122482288Y-44698964D01*
X122489459Y-44727338D01*
X122499298Y-44754911D01*
X122499500Y-44761991D01*
X122499500Y-45258422D01*
X122530290Y-45452826D01*
X122591117Y-45640030D01*
X122669062Y-45793004D01*
X122680476Y-45815405D01*
X122796172Y-45974646D01*
X123910354Y-47088828D01*
X124069595Y-47204524D01*
X124152454Y-47246742D01*
X124244969Y-47293882D01*
X124244971Y-47293882D01*
X124244974Y-47293884D01*
X124335220Y-47323207D01*
X124432172Y-47354709D01*
X124626578Y-47385500D01*
X124626583Y-47385500D01*
X133950500Y-47385500D01*
X134017539Y-47405185D01*
X134063294Y-47457989D01*
X134074500Y-47509500D01*
X134074500Y-48887846D01*
X134054815Y-48954885D01*
X134038181Y-48975527D01*
X133968412Y-49045295D01*
X133968406Y-49045302D01*
X133824730Y-49232545D01*
X133706719Y-49436943D01*
X133706714Y-49436954D01*
X133616394Y-49655006D01*
X133555306Y-49882989D01*
X133524501Y-50116979D01*
X133524500Y-50116995D01*
X133524500Y-50353004D01*
X133524501Y-50353020D01*
X133550307Y-50549042D01*
X133555307Y-50587014D01*
X133607271Y-50780946D01*
X133616394Y-50814993D01*
X133706714Y-51033045D01*
X133706719Y-51033056D01*
X133766764Y-51137056D01*
X133824727Y-51237450D01*
X133824729Y-51237453D01*
X133824730Y-51237454D01*
X133968405Y-51424696D01*
X133968407Y-51424698D01*
X133968408Y-51424699D01*
X134038182Y-51494473D01*
X134071666Y-51555794D01*
X134074500Y-51582153D01*
X134074500Y-52033422D01*
X134105290Y-52227826D01*
X134166117Y-52415030D01*
X134227108Y-52534730D01*
X134255476Y-52590405D01*
X134371172Y-52749646D01*
X134371174Y-52749648D01*
X138987238Y-57365712D01*
X139019330Y-57421292D01*
X139021394Y-57428993D01*
X139058805Y-57519312D01*
X139111714Y-57647045D01*
X139111719Y-57647056D01*
X139129005Y-57676995D01*
X139229727Y-57851450D01*
X139229729Y-57851453D01*
X139229730Y-57851454D01*
X139373406Y-58038697D01*
X139373412Y-58038704D01*
X139540295Y-58205587D01*
X139540301Y-58205592D01*
X139727550Y-58349273D01*
X139858918Y-58425118D01*
X139931943Y-58467280D01*
X139931948Y-58467282D01*
X139931951Y-58467284D01*
X140150007Y-58557606D01*
X140377986Y-58618693D01*
X140611989Y-58649500D01*
X140611996Y-58649500D01*
X140848004Y-58649500D01*
X140848011Y-58649500D01*
X141082014Y-58618693D01*
X141309993Y-58557606D01*
X141528049Y-58467284D01*
X141732450Y-58349273D01*
X141919699Y-58205592D01*
X142086592Y-58038699D01*
X142230273Y-57851450D01*
X142348284Y-57647049D01*
X142438606Y-57428993D01*
X142499693Y-57201014D01*
X142530500Y-56967011D01*
X142530500Y-56730989D01*
X142499693Y-56496986D01*
X142438606Y-56269007D01*
X142348284Y-56050951D01*
X142348282Y-56050948D01*
X142348280Y-56050943D01*
X142306118Y-55977918D01*
X142230273Y-55846550D01*
X142086592Y-55659301D01*
X142086587Y-55659295D01*
X141919704Y-55492412D01*
X141919697Y-55492406D01*
X141732454Y-55348730D01*
X141732453Y-55348729D01*
X141732450Y-55348727D01*
X141594619Y-55269150D01*
X141528056Y-55230719D01*
X141528045Y-55230714D01*
X141309993Y-55140394D01*
X141192587Y-55108935D01*
X141082014Y-55079307D01*
X141082013Y-55079306D01*
X141082010Y-55079306D01*
X140848020Y-55048501D01*
X140848017Y-55048500D01*
X140848011Y-55048500D01*
X140611989Y-55048500D01*
X140611983Y-55048500D01*
X140611979Y-55048501D01*
X140377989Y-55079306D01*
X140377971Y-55079310D01*
X140336559Y-55090406D01*
X140266709Y-55088743D01*
X140216786Y-55058312D01*
X136715755Y-51557281D01*
X136682270Y-51495958D01*
X136687254Y-51426266D01*
X136705056Y-51394119D01*
X136825273Y-51237450D01*
X136943284Y-51033049D01*
X137033606Y-50814993D01*
X137094693Y-50587014D01*
X137125500Y-50353011D01*
X137125500Y-50116989D01*
X137094693Y-49882986D01*
X137033606Y-49655007D01*
X136943284Y-49436951D01*
X136943282Y-49436948D01*
X136943280Y-49436943D01*
X136889971Y-49344611D01*
X136825273Y-49232550D01*
X136681592Y-49045301D01*
X136681587Y-49045295D01*
X136611819Y-48975527D01*
X136578334Y-48914204D01*
X136575500Y-48887846D01*
X136575500Y-47079653D01*
X136595185Y-47012614D01*
X136611814Y-46991976D01*
X136739092Y-46864699D01*
X136882773Y-46677450D01*
X137000784Y-46473049D01*
X137091106Y-46254993D01*
X137152193Y-46027014D01*
X137183000Y-45793011D01*
X137183000Y-45556989D01*
X137152193Y-45322986D01*
X137091106Y-45095007D01*
X137027898Y-44942411D01*
X137020430Y-44872944D01*
X137051705Y-44810464D01*
X137111794Y-44774812D01*
X137181619Y-44777306D01*
X137189905Y-44780396D01*
X137342507Y-44843606D01*
X137570486Y-44904693D01*
X137804489Y-44935500D01*
X137804496Y-44935500D01*
X138040504Y-44935500D01*
X138040511Y-44935500D01*
X138274514Y-44904693D01*
X138502493Y-44843606D01*
X138720549Y-44753284D01*
X138924950Y-44635273D01*
X139112199Y-44491592D01*
X139279092Y-44324699D01*
X139422773Y-44137450D01*
X139540784Y-43933049D01*
X139631106Y-43714993D01*
X139692193Y-43487014D01*
X139723000Y-43253011D01*
X139723000Y-43016989D01*
X139715234Y-42958001D01*
X139725999Y-42888968D01*
X139772379Y-42836712D01*
X139839648Y-42817826D01*
X139906448Y-42838306D01*
X139925854Y-42854136D01*
X145058181Y-47986463D01*
X145091666Y-48047786D01*
X145094500Y-48074144D01*
X145094500Y-50075714D01*
X145074815Y-50142753D01*
X145058181Y-50163395D01*
X144875394Y-50346181D01*
X144875388Y-50346188D01*
X144719745Y-50549026D01*
X144719734Y-50549042D01*
X144591899Y-50770457D01*
X144591894Y-50770468D01*
X144494053Y-51006677D01*
X144494050Y-51006687D01*
X144432217Y-51237454D01*
X144427874Y-51253661D01*
X144394500Y-51507149D01*
X144394500Y-51762850D01*
X144420457Y-51960007D01*
X144427874Y-52016340D01*
X144486330Y-52234500D01*
X144494050Y-52263312D01*
X144494053Y-52263322D01*
X144591894Y-52499531D01*
X144591899Y-52499542D01*
X144719734Y-52720957D01*
X144719745Y-52720973D01*
X144875388Y-52923811D01*
X144875394Y-52923818D01*
X145058181Y-53106605D01*
X145091666Y-53167928D01*
X145094500Y-53194286D01*
X145094500Y-61255664D01*
X145074815Y-61322703D01*
X145058181Y-61343345D01*
X141303345Y-65098181D01*
X141242022Y-65131666D01*
X141215664Y-65134500D01*
X141116989Y-65134500D01*
X141116983Y-65134500D01*
X141116979Y-65134501D01*
X140882989Y-65165306D01*
X140655006Y-65226394D01*
X140436954Y-65316714D01*
X140436943Y-65316719D01*
X140232545Y-65434730D01*
X140045302Y-65578406D01*
X140045295Y-65578412D01*
X139878412Y-65745295D01*
X139878406Y-65745302D01*
X139734730Y-65932545D01*
X139616719Y-66136943D01*
X139616714Y-66136954D01*
X139526394Y-66355006D01*
X139465306Y-66582989D01*
X139434501Y-66816979D01*
X139434500Y-66816995D01*
X139434500Y-67053004D01*
X139434501Y-67053020D01*
X139465040Y-67284993D01*
X139465307Y-67287014D01*
X139493390Y-67391819D01*
X139526394Y-67514993D01*
X139616714Y-67733045D01*
X139616719Y-67733056D01*
X139680546Y-67843606D01*
X139734727Y-67937450D01*
X139734729Y-67937453D01*
X139734730Y-67937454D01*
X139878406Y-68124697D01*
X139878412Y-68124704D01*
X140045295Y-68291587D01*
X140045302Y-68291593D01*
X140086603Y-68323284D01*
X140232550Y-68435273D01*
X140345345Y-68500395D01*
X140436943Y-68553280D01*
X140436948Y-68553282D01*
X140436951Y-68553284D01*
X140655007Y-68643606D01*
X140882986Y-68704693D01*
X141116989Y-68735500D01*
X141116996Y-68735500D01*
X141353004Y-68735500D01*
X141353011Y-68735500D01*
X141587014Y-68704693D01*
X141814993Y-68643606D01*
X142033049Y-68553284D01*
X142237450Y-68435273D01*
X142424699Y-68291592D01*
X142591592Y-68124699D01*
X142735273Y-67937450D01*
X142853284Y-67733049D01*
X142943606Y-67514993D01*
X143004693Y-67287014D01*
X143035500Y-67053011D01*
X143035500Y-66954336D01*
X143055185Y-66887297D01*
X143071819Y-66866655D01*
X145160069Y-64778405D01*
X147298828Y-62639646D01*
X147414524Y-62480405D01*
X147416536Y-62476455D01*
X147416550Y-62476440D01*
X147416545Y-62476438D01*
X147468795Y-62373891D01*
X147503884Y-62305025D01*
X147507139Y-62295006D01*
X147544945Y-62178653D01*
X147544945Y-62178652D01*
X147553901Y-62151089D01*
X147564709Y-62117827D01*
X147588597Y-61967004D01*
X147595500Y-61923422D01*
X147595500Y-59169500D01*
X147615185Y-59102461D01*
X147667989Y-59056706D01*
X147719500Y-59045500D01*
X150604847Y-59045500D01*
X150671886Y-59065185D01*
X150692523Y-59081814D01*
X150735404Y-59124695D01*
X150762303Y-59151594D01*
X150900890Y-59257935D01*
X150949550Y-59295273D01*
X151032273Y-59343033D01*
X151153943Y-59413280D01*
X151153948Y-59413282D01*
X151153951Y-59413284D01*
X151372007Y-59503606D01*
X151599986Y-59564693D01*
X151833989Y-59595500D01*
X151833996Y-59595500D01*
X152070004Y-59595500D01*
X152070011Y-59595500D01*
X152304014Y-59564693D01*
X152531993Y-59503606D01*
X152750049Y-59413284D01*
X152954450Y-59295273D01*
X153141699Y-59151592D01*
X153308592Y-58984699D01*
X153452273Y-58797450D01*
X153570284Y-58593049D01*
X153660606Y-58374993D01*
X153721693Y-58147014D01*
X153752500Y-57913011D01*
X153752500Y-57676989D01*
X153721693Y-57442986D01*
X153660606Y-57215007D01*
X153570284Y-56996951D01*
X153570282Y-56996948D01*
X153570280Y-56996943D01*
X153512378Y-56896655D01*
X153452273Y-56792550D01*
X153308592Y-56605301D01*
X153308587Y-56605295D01*
X153141704Y-56438412D01*
X153141697Y-56438406D01*
X152954454Y-56294730D01*
X152954453Y-56294729D01*
X152954450Y-56294727D01*
X152836049Y-56226368D01*
X152750056Y-56176719D01*
X152750045Y-56176714D01*
X152531993Y-56086394D01*
X152304014Y-56025307D01*
X152304013Y-56025306D01*
X152304010Y-56025306D01*
X152070020Y-55994501D01*
X152070017Y-55994500D01*
X152070011Y-55994500D01*
X151833989Y-55994500D01*
X151833983Y-55994500D01*
X151833979Y-55994501D01*
X151599989Y-56025306D01*
X151372006Y-56086394D01*
X151153954Y-56176714D01*
X151153943Y-56176719D01*
X150949545Y-56294730D01*
X150762303Y-56438405D01*
X150728698Y-56472011D01*
X150692526Y-56508182D01*
X150631206Y-56541666D01*
X150604847Y-56544500D01*
X147719500Y-56544500D01*
X147652461Y-56524815D01*
X147606706Y-56472011D01*
X147595500Y-56420500D01*
X147595500Y-53194286D01*
X147615185Y-53127247D01*
X147631819Y-53106605D01*
X147814605Y-52923818D01*
X147814610Y-52923813D01*
X147970261Y-52720965D01*
X148098104Y-52499535D01*
X148195950Y-52263313D01*
X148262126Y-52016340D01*
X148295500Y-51762843D01*
X148295500Y-51507157D01*
X148262126Y-51253660D01*
X148195950Y-51006687D01*
X148098104Y-50770465D01*
X148098102Y-50770462D01*
X148098100Y-50770457D01*
X147970265Y-50549042D01*
X147970261Y-50549035D01*
X147814610Y-50346187D01*
X147814605Y-50346181D01*
X147631819Y-50163395D01*
X147598334Y-50102072D01*
X147595500Y-50075714D01*
X147595500Y-47406385D01*
X147564710Y-47211989D01*
X147564709Y-47211982D01*
X147562286Y-47204524D01*
X147503884Y-47024782D01*
X147503882Y-47024779D01*
X147503882Y-47024777D01*
X147425320Y-46870592D01*
X147414524Y-46849403D01*
X147298828Y-46690162D01*
X140249838Y-39641172D01*
X140206682Y-39609817D01*
X140164017Y-39554488D01*
X140158038Y-39484875D01*
X140190644Y-39423080D01*
X140251482Y-39388723D01*
X140279568Y-39385500D01*
X148055664Y-39385500D01*
X148122703Y-39405185D01*
X148143345Y-39421819D01*
X150152417Y-41430891D01*
X150185902Y-41492214D01*
X150188736Y-41518572D01*
X150188736Y-42757872D01*
X150169051Y-42824911D01*
X150165055Y-42830756D01*
X150113130Y-42902226D01*
X150113129Y-42902228D01*
X150002333Y-43119678D01*
X149926914Y-43351793D01*
X149888736Y-43592839D01*
X149888736Y-45236892D01*
X149921899Y-45446276D01*
X149926915Y-45477942D01*
X149992123Y-45678632D01*
X150002333Y-45710053D01*
X150113132Y-45927509D01*
X150150817Y-45979377D01*
X150174298Y-46045183D01*
X150174500Y-46052263D01*
X150174500Y-50075714D01*
X150154815Y-50142753D01*
X150138181Y-50163395D01*
X149955394Y-50346181D01*
X149955388Y-50346188D01*
X149799745Y-50549026D01*
X149799734Y-50549042D01*
X149671899Y-50770457D01*
X149671894Y-50770468D01*
X149574053Y-51006677D01*
X149574050Y-51006687D01*
X149512217Y-51237454D01*
X149507874Y-51253661D01*
X149474500Y-51507149D01*
X149474500Y-51762850D01*
X149500457Y-51960007D01*
X149507874Y-52016340D01*
X149566330Y-52234500D01*
X149574050Y-52263312D01*
X149574053Y-52263322D01*
X149671894Y-52499531D01*
X149671899Y-52499542D01*
X149799734Y-52720957D01*
X149799745Y-52720973D01*
X149955388Y-52923811D01*
X149955394Y-52923818D01*
X150136181Y-53104605D01*
X150136188Y-53104611D01*
X150215586Y-53165535D01*
X150339035Y-53260261D01*
X150339042Y-53260265D01*
X150560457Y-53388100D01*
X150560462Y-53388102D01*
X150560465Y-53388104D01*
X150796687Y-53485950D01*
X151043660Y-53552126D01*
X151297157Y-53585500D01*
X151297164Y-53585500D01*
X151552836Y-53585500D01*
X151552843Y-53585500D01*
X151806340Y-53552126D01*
X152053313Y-53485950D01*
X152289535Y-53388104D01*
X152510965Y-53260261D01*
X152713813Y-53104610D01*
X152894610Y-52923813D01*
X153050261Y-52720965D01*
X153178104Y-52499535D01*
X153275950Y-52263313D01*
X153342126Y-52016340D01*
X153375500Y-51762843D01*
X153375500Y-51507157D01*
X153342126Y-51253660D01*
X153275950Y-51006687D01*
X153178104Y-50770465D01*
X153178102Y-50770462D01*
X153178100Y-50770457D01*
X153050265Y-50549042D01*
X153050261Y-50549035D01*
X152894610Y-50346187D01*
X152894605Y-50346181D01*
X152711819Y-50163395D01*
X152678334Y-50102072D01*
X152675500Y-50075714D01*
X152675500Y-46091451D01*
X152695185Y-46024412D01*
X152699164Y-46018590D01*
X152765342Y-45927505D01*
X152876140Y-45710051D01*
X152951557Y-45477942D01*
X152989736Y-45236893D01*
X152989736Y-43592839D01*
X152951557Y-43351790D01*
X152876140Y-43119681D01*
X152765342Y-42902227D01*
X152754911Y-42887870D01*
X152713417Y-42830756D01*
X152689938Y-42764949D01*
X152689736Y-42757872D01*
X152689736Y-40850813D01*
X152667911Y-40713020D01*
X152658945Y-40656410D01*
X152652416Y-40636317D01*
X152644171Y-40610940D01*
X152598122Y-40469215D01*
X152598120Y-40469209D01*
X152555881Y-40386312D01*
X152508760Y-40293831D01*
X152471819Y-40242986D01*
X152393070Y-40134596D01*
X152393066Y-40134591D01*
X149439648Y-37181174D01*
X149439647Y-37181173D01*
X149439646Y-37181172D01*
X149280405Y-37065476D01*
X149105030Y-36976117D01*
X148917826Y-36915290D01*
X148723422Y-36884500D01*
X148723417Y-36884500D01*
X131323416Y-36884500D01*
X131126583Y-36884500D01*
X131126578Y-36884500D01*
X130932172Y-36915291D01*
X130871348Y-36935053D01*
X130871348Y-36935054D01*
X130828103Y-36949105D01*
X130744970Y-36976117D01*
X130611799Y-37043972D01*
X130569595Y-37065476D01*
X130569594Y-37065477D01*
X130561696Y-37071215D01*
X130561691Y-37071217D01*
X130410352Y-37181173D01*
X127876174Y-39715351D01*
X127876174Y-39715352D01*
X127876172Y-39715354D01*
X127849934Y-39751467D01*
X127760476Y-39874594D01*
X127671113Y-40049978D01*
X127634496Y-40162678D01*
X127634494Y-40162685D01*
X127630294Y-40175609D01*
X127590854Y-40233283D01*
X127526494Y-40260477D01*
X127457648Y-40248560D01*
X127424684Y-40224966D01*
X125430202Y-38230484D01*
X125285087Y-38125051D01*
X125239125Y-38091657D01*
X125028687Y-37984433D01*
X124804059Y-37911446D01*
X124570788Y-37874500D01*
X124570783Y-37874500D01*
X120643092Y-37874500D01*
X119583092Y-37874500D01*
X113765401Y-37874500D01*
X113529217Y-37874500D01*
X113529212Y-37874500D01*
X113295940Y-37911446D01*
X113071312Y-37984433D01*
X112860875Y-38091657D01*
X112751859Y-38170862D01*
X112669799Y-38230483D01*
X112669797Y-38230485D01*
X112669796Y-38230485D01*
X110915484Y-39984797D01*
X110776657Y-40175874D01*
X110669433Y-40386312D01*
X110596446Y-40610940D01*
X110559500Y-40844211D01*
X110559500Y-41255902D01*
X110553431Y-41294220D01*
X110547679Y-41311922D01*
X110509500Y-41552973D01*
X110509500Y-41752110D01*
X110489815Y-41819149D01*
X110473181Y-41839791D01*
X107260484Y-45052488D01*
X107121657Y-45243565D01*
X107018374Y-45446272D01*
X107014432Y-45454008D01*
X106941446Y-45678631D01*
X106904500Y-45911902D01*
X106904500Y-51585500D01*
X106884815Y-51652539D01*
X106832011Y-51698294D01*
X106780500Y-51709500D01*
X100441973Y-51709500D01*
X100374934Y-51689815D01*
X100366500Y-51683886D01*
X100207490Y-51561873D01*
X100207484Y-51561869D01*
X100207482Y-51561868D01*
X99986067Y-51434033D01*
X99986056Y-51434028D01*
X99749847Y-51336187D01*
X99749840Y-51336185D01*
X99749838Y-51336184D01*
X99502865Y-51270008D01*
X99446532Y-51262591D01*
X99249375Y-51236634D01*
X99249368Y-51236634D01*
X98993682Y-51236634D01*
X98993674Y-51236634D01*
X98768351Y-51266299D01*
X98740185Y-51270008D01*
X98493212Y-51336184D01*
X98493202Y-51336187D01*
X98256993Y-51434028D01*
X98256982Y-51434033D01*
X98035567Y-51561868D01*
X98035561Y-51561872D01*
X98035560Y-51561873D01*
X97876561Y-51683876D01*
X97811394Y-51709070D01*
X97801077Y-51709500D01*
X83584419Y-51709500D01*
X83565021Y-51707973D01*
X83554550Y-51706314D01*
X83543094Y-51704500D01*
X83543092Y-51704500D01*
X81272472Y-51704500D01*
X81205433Y-51684815D01*
X81196999Y-51678885D01*
X81044505Y-51561873D01*
X81044499Y-51561869D01*
X81044497Y-51561868D01*
X80823082Y-51434033D01*
X80823071Y-51434028D01*
X80586862Y-51336187D01*
X80586855Y-51336185D01*
X80586853Y-51336184D01*
X80339880Y-51270008D01*
X80283547Y-51262591D01*
X80086390Y-51236634D01*
X80086383Y-51236634D01*
X79830697Y-51236634D01*
X79830689Y-51236634D01*
X79605366Y-51266299D01*
X79577200Y-51270008D01*
X79330227Y-51336184D01*
X79330217Y-51336187D01*
X79094008Y-51434028D01*
X79093997Y-51434033D01*
X78872582Y-51561868D01*
X78872576Y-51561872D01*
X78872575Y-51561873D01*
X78720092Y-51678876D01*
X78654925Y-51704070D01*
X78644608Y-51704500D01*
X74542890Y-51704500D01*
X74475851Y-51684815D01*
X74455209Y-51668181D01*
X72577512Y-49790485D01*
X72577511Y-49790484D01*
X72386434Y-49651657D01*
X72175996Y-49544433D01*
X71951368Y-49471446D01*
X71718097Y-49434500D01*
X71718092Y-49434500D01*
X69686083Y-49434500D01*
X69619044Y-49414815D01*
X69573289Y-49362011D01*
X69566870Y-49344620D01*
X69528909Y-49211951D01*
X69434698Y-49031593D01*
X69317488Y-48887846D01*
X69306109Y-48873890D01*
X69190933Y-48779977D01*
X69148407Y-48745302D01*
X68968049Y-48651091D01*
X68968048Y-48651090D01*
X68968045Y-48651089D01*
X68850829Y-48617550D01*
X68772418Y-48595114D01*
X68772415Y-48595113D01*
X68772413Y-48595113D01*
X68706102Y-48589217D01*
X68653037Y-48584500D01*
X68653032Y-48584500D01*
X65836971Y-48584500D01*
X65836965Y-48584500D01*
X65836964Y-48584501D01*
X65825316Y-48585536D01*
X65717584Y-48595113D01*
X65521954Y-48651089D01*
X65431772Y-48698196D01*
X65341593Y-48745302D01*
X65341591Y-48745303D01*
X65341590Y-48745304D01*
X65183890Y-48873890D01*
X65055304Y-49031590D01*
X64961089Y-49211954D01*
X64905114Y-49407583D01*
X64905113Y-49407586D01*
X64894500Y-49526966D01*
X64894500Y-52343028D01*
X64894501Y-52343034D01*
X64905113Y-52462415D01*
X64961089Y-52658045D01*
X64961090Y-52658048D01*
X64961091Y-52658049D01*
X65055302Y-52838407D01*
X65060924Y-52845302D01*
X65183890Y-52996109D01*
X65247068Y-53047623D01*
X65341593Y-53124698D01*
X65521951Y-53218909D01*
X65717582Y-53274886D01*
X65836963Y-53285500D01*
X68653036Y-53285499D01*
X68772418Y-53274886D01*
X68968049Y-53218909D01*
X69148407Y-53124698D01*
X69306109Y-52996109D01*
X69434698Y-52838407D01*
X69528909Y-52658049D01*
X69566868Y-52525386D01*
X69604234Y-52466351D01*
X69667587Y-52436887D01*
X69686083Y-52435500D01*
X70927111Y-52435500D01*
X70994150Y-52455185D01*
X71014792Y-52471819D01*
X72892491Y-54349519D01*
X72892496Y-54349523D01*
X73032592Y-54451308D01*
X73083567Y-54488343D01*
X73217659Y-54556666D01*
X73294003Y-54595566D01*
X73294005Y-54595566D01*
X73294008Y-54595568D01*
X73353792Y-54614993D01*
X73518631Y-54668553D01*
X73751903Y-54705500D01*
X73751908Y-54705500D01*
X73988092Y-54705500D01*
X78691174Y-54705500D01*
X78758213Y-54725185D01*
X78766660Y-54731124D01*
X78814016Y-54767461D01*
X78872575Y-54812395D01*
X78872582Y-54812399D01*
X79093997Y-54940234D01*
X79094002Y-54940236D01*
X79094005Y-54940238D01*
X79330227Y-55038084D01*
X79577200Y-55104260D01*
X79830697Y-55137634D01*
X79830704Y-55137634D01*
X80086376Y-55137634D01*
X80086383Y-55137634D01*
X80339880Y-55104260D01*
X80586853Y-55038084D01*
X80823075Y-54940238D01*
X81044505Y-54812395D01*
X81129311Y-54747321D01*
X81150420Y-54731124D01*
X81215589Y-54705930D01*
X81225906Y-54705500D01*
X81805500Y-54705500D01*
X81872539Y-54725185D01*
X81918294Y-54777989D01*
X81929500Y-54829500D01*
X81929500Y-55202111D01*
X81909815Y-55269150D01*
X81893181Y-55289792D01*
X74284792Y-62898181D01*
X74223469Y-62931666D01*
X74197111Y-62934500D01*
X69686083Y-62934500D01*
X69619044Y-62914815D01*
X69573289Y-62862011D01*
X69566870Y-62844620D01*
X69528909Y-62711951D01*
X69434698Y-62531593D01*
X69351039Y-62428993D01*
X69306109Y-62373890D01*
X69148409Y-62245304D01*
X69148410Y-62245304D01*
X69148407Y-62245302D01*
X68968049Y-62151091D01*
X68968048Y-62151090D01*
X68968045Y-62151089D01*
X68850829Y-62117550D01*
X68772418Y-62095114D01*
X68772415Y-62095113D01*
X68772413Y-62095113D01*
X68706102Y-62089217D01*
X68653037Y-62084500D01*
X68653032Y-62084500D01*
X65836971Y-62084500D01*
X65836965Y-62084500D01*
X65836964Y-62084501D01*
X65825316Y-62085536D01*
X65717584Y-62095113D01*
X65521954Y-62151089D01*
X65469188Y-62178652D01*
X65341593Y-62245302D01*
X65341591Y-62245303D01*
X65341590Y-62245304D01*
X65183890Y-62373890D01*
X65055304Y-62531590D01*
X64961089Y-62711954D01*
X64905114Y-62907583D01*
X64905113Y-62907586D01*
X64894500Y-63026966D01*
X64894500Y-65843028D01*
X64894500Y-65843033D01*
X64894501Y-65843036D01*
X64896496Y-65865476D01*
X64905113Y-65962415D01*
X64961089Y-66158045D01*
X64961090Y-66158048D01*
X64961091Y-66158049D01*
X65055302Y-66338407D01*
X65055304Y-66338409D01*
X65183890Y-66496109D01*
X65247068Y-66547623D01*
X65341593Y-66624698D01*
X65521951Y-66718909D01*
X65717582Y-66774886D01*
X65836963Y-66785500D01*
X68653036Y-66785499D01*
X68772418Y-66774886D01*
X68968049Y-66718909D01*
X69148407Y-66624698D01*
X69306109Y-66496109D01*
X69434698Y-66338407D01*
X69528909Y-66158049D01*
X69566868Y-66025386D01*
X69604234Y-65966351D01*
X69667587Y-65936887D01*
X69686083Y-65935500D01*
X74988097Y-65935500D01*
X75221368Y-65898553D01*
X75445992Y-65825568D01*
X75656434Y-65718343D01*
X75847510Y-65579517D01*
X84574517Y-56852510D01*
X84713343Y-56661434D01*
X84820568Y-56450992D01*
X84893553Y-56226368D01*
X84901417Y-56176716D01*
X84930500Y-55993097D01*
X84930500Y-54834500D01*
X84950185Y-54767461D01*
X85002989Y-54721706D01*
X85054500Y-54710500D01*
X97860676Y-54710500D01*
X97927715Y-54730185D01*
X97936148Y-54736114D01*
X98035560Y-54812395D01*
X98035567Y-54812399D01*
X98256982Y-54940234D01*
X98256987Y-54940236D01*
X98256990Y-54940238D01*
X98493212Y-55038084D01*
X98740185Y-55104260D01*
X98993682Y-55137634D01*
X98993689Y-55137634D01*
X99249361Y-55137634D01*
X99249368Y-55137634D01*
X99502865Y-55104260D01*
X99749838Y-55038084D01*
X99986060Y-54940238D01*
X100207490Y-54812395D01*
X100306889Y-54736123D01*
X100372056Y-54710930D01*
X100382374Y-54710500D01*
X108144306Y-54710500D01*
X108163704Y-54712027D01*
X108311903Y-54735500D01*
X108311908Y-54735500D01*
X111805904Y-54735500D01*
X111844220Y-54741568D01*
X111861924Y-54747321D01*
X112102973Y-54785500D01*
X112102974Y-54785500D01*
X113747026Y-54785500D01*
X113747027Y-54785500D01*
X113988076Y-54747321D01*
X114220185Y-54671904D01*
X114437639Y-54561106D01*
X114635083Y-54417655D01*
X114807655Y-54245083D01*
X114951106Y-54047639D01*
X115061904Y-53830185D01*
X115137321Y-53598076D01*
X115175500Y-53357027D01*
X115175500Y-53112973D01*
X115137321Y-52871924D01*
X115061904Y-52639815D01*
X114951106Y-52422361D01*
X114893472Y-52343034D01*
X114807660Y-52224923D01*
X114807656Y-52224918D01*
X114635081Y-52052343D01*
X114635076Y-52052339D01*
X114437642Y-51908896D01*
X114437641Y-51908895D01*
X114437639Y-51908894D01*
X114220185Y-51798096D01*
X113988076Y-51722679D01*
X113988074Y-51722678D01*
X113988072Y-51722678D01*
X113780584Y-51689815D01*
X113747027Y-51684500D01*
X112102973Y-51684500D01*
X112069416Y-51689815D01*
X111861927Y-51722678D01*
X111861926Y-51722678D01*
X111851139Y-51726183D01*
X111844220Y-51728431D01*
X111805904Y-51734500D01*
X110029500Y-51734500D01*
X109962461Y-51714815D01*
X109916706Y-51662011D01*
X109905500Y-51610500D01*
X109905500Y-46702888D01*
X109925185Y-46635849D01*
X109941814Y-46615212D01*
X111895207Y-44661818D01*
X111956530Y-44628334D01*
X111982888Y-44625500D01*
X112182026Y-44625500D01*
X112182027Y-44625500D01*
X112423076Y-44587321D01*
X112655185Y-44511904D01*
X112872639Y-44401106D01*
X113070083Y-44257655D01*
X113242655Y-44085083D01*
X113386106Y-43887639D01*
X113496904Y-43670185D01*
X113572321Y-43438076D01*
X113610500Y-43197027D01*
X113610500Y-41585197D01*
X113630185Y-41518158D01*
X113646819Y-41497516D01*
X114232517Y-40911819D01*
X114293840Y-40878334D01*
X114320198Y-40875500D01*
X115604850Y-40875500D01*
X115671889Y-40895185D01*
X115717644Y-40947989D01*
X115727588Y-41017147D01*
X115715334Y-41055796D01*
X115703097Y-41079810D01*
X115627678Y-41311927D01*
X115592117Y-41536452D01*
X115589500Y-41552973D01*
X115589500Y-43197027D01*
X115627679Y-43438076D01*
X115703096Y-43670185D01*
X115813894Y-43887639D01*
X115915819Y-44027926D01*
X115939298Y-44093730D01*
X115939500Y-44100810D01*
X115939500Y-63400664D01*
X115919815Y-63467703D01*
X115903181Y-63488345D01*
X114543345Y-64848181D01*
X114516417Y-64862884D01*
X114490599Y-64879477D01*
X114484398Y-64880368D01*
X114482022Y-64881666D01*
X114455664Y-64884500D01*
X114372153Y-64884500D01*
X114305114Y-64864815D01*
X114284476Y-64848185D01*
X114214699Y-64778408D01*
X114214698Y-64778407D01*
X114214696Y-64778405D01*
X114027454Y-64634730D01*
X114027453Y-64634729D01*
X114027450Y-64634727D01*
X113940454Y-64584500D01*
X113823056Y-64516719D01*
X113823045Y-64516714D01*
X113604993Y-64426394D01*
X113377010Y-64365306D01*
X113143020Y-64334501D01*
X113143017Y-64334500D01*
X113143011Y-64334500D01*
X112906989Y-64334500D01*
X112906983Y-64334500D01*
X112906979Y-64334501D01*
X112672989Y-64365306D01*
X112445006Y-64426394D01*
X112226954Y-64516714D01*
X112226943Y-64516719D01*
X112022545Y-64634730D01*
X111835303Y-64778405D01*
X111804815Y-64808894D01*
X111765526Y-64848182D01*
X111704206Y-64881666D01*
X111677847Y-64884500D01*
X107881992Y-64884500D01*
X107814953Y-64864815D01*
X107809106Y-64860818D01*
X107737639Y-64808894D01*
X107520187Y-64698097D01*
X107520186Y-64698096D01*
X107520185Y-64698096D01*
X107288076Y-64622679D01*
X107288074Y-64622678D01*
X107288072Y-64622678D01*
X107098660Y-64592678D01*
X107047027Y-64584500D01*
X105402973Y-64584500D01*
X105351340Y-64592678D01*
X105161927Y-64622678D01*
X104929812Y-64698097D01*
X104712357Y-64808896D01*
X104682184Y-64830818D01*
X104616378Y-64854298D01*
X104609299Y-64854500D01*
X99281992Y-64854500D01*
X99214953Y-64834815D01*
X99209106Y-64830818D01*
X99178930Y-64808894D01*
X99137639Y-64778894D01*
X98979065Y-64698097D01*
X98920187Y-64668097D01*
X98920186Y-64668096D01*
X98920185Y-64668096D01*
X98688076Y-64592679D01*
X98688074Y-64592678D01*
X98688072Y-64592678D01*
X98519769Y-64566021D01*
X98447027Y-64554500D01*
X96802973Y-64554500D01*
X96747093Y-64563350D01*
X96561927Y-64592678D01*
X96329812Y-64668097D01*
X96112360Y-64778894D01*
X96040894Y-64830818D01*
X95975087Y-64854298D01*
X95968008Y-64854500D01*
X90556578Y-64854500D01*
X90362176Y-64885290D01*
X90362171Y-64885291D01*
X90333695Y-64894543D01*
X90333696Y-64894544D01*
X90174974Y-64946116D01*
X90174967Y-64946119D01*
X90088954Y-64989945D01*
X89999595Y-65035474D01*
X89840352Y-65151173D01*
X89840351Y-65151174D01*
X84543345Y-70448181D01*
X84482022Y-70481666D01*
X84455664Y-70484500D01*
X82824998Y-70484500D01*
X82824981Y-70484501D01*
X82722203Y-70495000D01*
X82722200Y-70495001D01*
X82555668Y-70550185D01*
X82555663Y-70550187D01*
X82406342Y-70642289D01*
X82282289Y-70766342D01*
X82190187Y-70915663D01*
X82190185Y-70915668D01*
X82176480Y-70957027D01*
X82135001Y-71082203D01*
X82135001Y-71082204D01*
X82135000Y-71082204D01*
X82124500Y-71184983D01*
X82124500Y-72285001D01*
X82124501Y-72285019D01*
X82135000Y-72387796D01*
X82135001Y-72387799D01*
X82156523Y-72452746D01*
X82158925Y-72522574D01*
X82123193Y-72582616D01*
X82060673Y-72613809D01*
X82038817Y-72615750D01*
X81776578Y-72615750D01*
X81582173Y-72646540D01*
X81394969Y-72707367D01*
X81219591Y-72796728D01*
X81060360Y-72912415D01*
X81060355Y-72912419D01*
X79171174Y-74801601D01*
X79171172Y-74801604D01*
X79146545Y-74835500D01*
X79055476Y-74960844D01*
X78966117Y-75136219D01*
X78956938Y-75164471D01*
X78938048Y-75222610D01*
X78932512Y-75239647D01*
X78905290Y-75323423D01*
X78874500Y-75517827D01*
X78874500Y-80867913D01*
X78854815Y-80934952D01*
X78838181Y-80955594D01*
X71695531Y-88098244D01*
X71634208Y-88131729D01*
X71564516Y-88126745D01*
X71508583Y-88084873D01*
X71484166Y-88019409D01*
X71483850Y-88010563D01*
X71483850Y-87740480D01*
X71483849Y-87740463D01*
X71473350Y-87637685D01*
X71473349Y-87637682D01*
X71471699Y-87632703D01*
X71418165Y-87471148D01*
X71326063Y-87321826D01*
X71202007Y-87197770D01*
X71079749Y-87122361D01*
X71052687Y-87105669D01*
X71052682Y-87105667D01*
X70974916Y-87079898D01*
X70886148Y-87050483D01*
X70886146Y-87050482D01*
X70783361Y-87039982D01*
X65283349Y-87039982D01*
X65283332Y-87039983D01*
X65180554Y-87050482D01*
X65180551Y-87050483D01*
X65014019Y-87105667D01*
X65014014Y-87105669D01*
X64864693Y-87197771D01*
X64740640Y-87321824D01*
X64648538Y-87471145D01*
X64648536Y-87471150D01*
X64620743Y-87555026D01*
X64593352Y-87637685D01*
X64593352Y-87637686D01*
X64593351Y-87637686D01*
X64582851Y-87740465D01*
X64582851Y-90130500D01*
X64563166Y-90197539D01*
X64510362Y-90243294D01*
X64458851Y-90254500D01*
X60957138Y-90254500D01*
X60890099Y-90234815D01*
X60844344Y-90182011D01*
X60839432Y-90169505D01*
X60827186Y-90132550D01*
X60808165Y-90075148D01*
X60716063Y-89925826D01*
X60592007Y-89801770D01*
X60466732Y-89724500D01*
X60442687Y-89709669D01*
X60442682Y-89709667D01*
X60429156Y-89705185D01*
X60276148Y-89654483D01*
X60276146Y-89654482D01*
X60173361Y-89643982D01*
X57813349Y-89643982D01*
X57813332Y-89643983D01*
X57710554Y-89654482D01*
X57710551Y-89654483D01*
X57544019Y-89709667D01*
X57544014Y-89709669D01*
X57394693Y-89801771D01*
X57270640Y-89925824D01*
X57178538Y-90075145D01*
X57178536Y-90075150D01*
X57171059Y-90097714D01*
X57123352Y-90241685D01*
X57123352Y-90241686D01*
X57123351Y-90241686D01*
X57112851Y-90344465D01*
X57112851Y-92604483D01*
X57112852Y-92604500D01*
X57123351Y-92707278D01*
X57123352Y-92707281D01*
X57178536Y-92873813D01*
X57178538Y-92873818D01*
X57213420Y-92930370D01*
X57270639Y-93023138D01*
X57394695Y-93147194D01*
X57544017Y-93239296D01*
X57710554Y-93294481D01*
X57813342Y-93304982D01*
X60173359Y-93304981D01*
X60176179Y-93304693D01*
X60191246Y-93303153D01*
X60276148Y-93294481D01*
X60442685Y-93239296D01*
X60592007Y-93147194D01*
X60716063Y-93023138D01*
X60808165Y-92873816D01*
X60819206Y-92840493D01*
X60858979Y-92783051D01*
X60923495Y-92756228D01*
X60936912Y-92755500D01*
X64462192Y-92755500D01*
X64529231Y-92775185D01*
X64574986Y-92827989D01*
X64585549Y-92866897D01*
X64588072Y-92891587D01*
X64593352Y-92943278D01*
X64593352Y-92943281D01*
X64648536Y-93109813D01*
X64648538Y-93109818D01*
X64671592Y-93147194D01*
X64740639Y-93259138D01*
X64864695Y-93383194D01*
X65014017Y-93475296D01*
X65180554Y-93530481D01*
X65283342Y-93540982D01*
X70783359Y-93540981D01*
X70886148Y-93530481D01*
X71052685Y-93475296D01*
X71202007Y-93383194D01*
X71326063Y-93259138D01*
X71418165Y-93109816D01*
X71473350Y-92943279D01*
X71478630Y-92891593D01*
X71483851Y-92840495D01*
X71483851Y-92840490D01*
X71483850Y-91898233D01*
X71503534Y-91831195D01*
X71520164Y-91810558D01*
X81078829Y-82251895D01*
X81194524Y-82092655D01*
X81283884Y-81917276D01*
X81344709Y-81730076D01*
X81356267Y-81657103D01*
X81362156Y-81619923D01*
X81375500Y-81535671D01*
X81375500Y-76185586D01*
X81395185Y-76118547D01*
X81411819Y-76097905D01*
X82356656Y-75153069D01*
X82417979Y-75119584D01*
X82444337Y-75116750D01*
X84283407Y-75116750D01*
X84283419Y-75116749D01*
X85525002Y-75116749D01*
X85525008Y-75116749D01*
X85627797Y-75106249D01*
X85794334Y-75051064D01*
X85943656Y-74958962D01*
X86067712Y-74834906D01*
X86159814Y-74685584D01*
X86214999Y-74519047D01*
X86225500Y-74416259D01*
X86225499Y-73316242D01*
X86214999Y-73213453D01*
X86159814Y-73046916D01*
X86067712Y-72897594D01*
X86058424Y-72888306D01*
X86024939Y-72826983D01*
X86029923Y-72757291D01*
X86058424Y-72712944D01*
X86067712Y-72703656D01*
X86159814Y-72554334D01*
X86214999Y-72387797D01*
X86218972Y-72348902D01*
X86245367Y-72284211D01*
X86254640Y-72273832D01*
X91136655Y-67391819D01*
X91197978Y-67358334D01*
X91224336Y-67355500D01*
X95968008Y-67355500D01*
X96035047Y-67375185D01*
X96040886Y-67379176D01*
X96112361Y-67431106D01*
X96329815Y-67541904D01*
X96561924Y-67617321D01*
X96802973Y-67655500D01*
X96802974Y-67655500D01*
X98447026Y-67655500D01*
X98447027Y-67655500D01*
X98688076Y-67617321D01*
X98920185Y-67541904D01*
X99137639Y-67431106D01*
X99209106Y-67379181D01*
X99274913Y-67355702D01*
X99281992Y-67355500D01*
X104526716Y-67355500D01*
X104593755Y-67375185D01*
X104599601Y-67379182D01*
X104616995Y-67391819D01*
X104712361Y-67461106D01*
X104929815Y-67571904D01*
X105161924Y-67647321D01*
X105402973Y-67685500D01*
X105402974Y-67685500D01*
X107047026Y-67685500D01*
X107047027Y-67685500D01*
X107288076Y-67647321D01*
X107520185Y-67571904D01*
X107737639Y-67461106D01*
X107809106Y-67409181D01*
X107874913Y-67385702D01*
X107881992Y-67385500D01*
X111677847Y-67385500D01*
X111744886Y-67405185D01*
X111765523Y-67421814D01*
X111804812Y-67461103D01*
X111835303Y-67491594D01*
X111900866Y-67541902D01*
X112022550Y-67635273D01*
X112109546Y-67685500D01*
X112226943Y-67753280D01*
X112226948Y-67753282D01*
X112226951Y-67753284D01*
X112445007Y-67843606D01*
X112672986Y-67904693D01*
X112906989Y-67935500D01*
X112906996Y-67935500D01*
X113143004Y-67935500D01*
X113143011Y-67935500D01*
X113377014Y-67904693D01*
X113604993Y-67843606D01*
X113633049Y-67831984D01*
X113702515Y-67824516D01*
X113764995Y-67855790D01*
X113800648Y-67915879D01*
X113804500Y-67946546D01*
X113804500Y-80983422D01*
X113835290Y-81177826D01*
X113896117Y-81365030D01*
X113983062Y-81535667D01*
X113985476Y-81540405D01*
X114101172Y-81699646D01*
X114101174Y-81699648D01*
X115960978Y-83559452D01*
X115973615Y-83574248D01*
X116032342Y-83655079D01*
X116032347Y-83655085D01*
X116204918Y-83827656D01*
X116204923Y-83827660D01*
X116364509Y-83943605D01*
X116402361Y-83971106D01*
X116619815Y-84081904D01*
X116851924Y-84157321D01*
X117092973Y-84195500D01*
X117092974Y-84195500D01*
X118737026Y-84195500D01*
X118737027Y-84195500D01*
X118978076Y-84157321D01*
X119210185Y-84081904D01*
X119427639Y-83971106D01*
X119625083Y-83827655D01*
X119797655Y-83655083D01*
X119941106Y-83457639D01*
X120051904Y-83240185D01*
X120070255Y-83183703D01*
X120109692Y-83126029D01*
X120174050Y-83098830D01*
X120242897Y-83110744D01*
X120275867Y-83134341D01*
X128931171Y-91789645D01*
X128931172Y-91789646D01*
X129070354Y-91928828D01*
X129229595Y-92044524D01*
X129404975Y-92133884D01*
X129500737Y-92164999D01*
X129592173Y-92194709D01*
X129665076Y-92206255D01*
X129786578Y-92225500D01*
X129786583Y-92225500D01*
X129983416Y-92225500D01*
X132182495Y-92225500D01*
X132249534Y-92245185D01*
X132295289Y-92297989D01*
X132306494Y-92349349D01*
X132307173Y-92909834D01*
X132307259Y-92980350D01*
X132287656Y-93047413D01*
X132234907Y-93093232D01*
X132183259Y-93104500D01*
X128214336Y-93104500D01*
X128147297Y-93084815D01*
X128126655Y-93068181D01*
X127647688Y-92589214D01*
X127614203Y-92527891D01*
X127612430Y-92517718D01*
X127611732Y-92512413D01*
X127594693Y-92382986D01*
X127533606Y-92155007D01*
X127443284Y-91936951D01*
X127443282Y-91936948D01*
X127443280Y-91936943D01*
X127401118Y-91863918D01*
X127325273Y-91732550D01*
X127254791Y-91640696D01*
X127181593Y-91545302D01*
X127181587Y-91545295D01*
X127014704Y-91378412D01*
X127014697Y-91378406D01*
X126827454Y-91234730D01*
X126827453Y-91234729D01*
X126827450Y-91234727D01*
X126730448Y-91178723D01*
X126623056Y-91116719D01*
X126623045Y-91116714D01*
X126404993Y-91026394D01*
X126177010Y-90965306D01*
X125943020Y-90934501D01*
X125943017Y-90934500D01*
X125943011Y-90934500D01*
X125706989Y-90934500D01*
X125706983Y-90934500D01*
X125706979Y-90934501D01*
X125472989Y-90965306D01*
X125245006Y-91026394D01*
X125026954Y-91116714D01*
X125026943Y-91116719D01*
X124822545Y-91234730D01*
X124635303Y-91378405D01*
X124607006Y-91406703D01*
X124565526Y-91448182D01*
X124504206Y-91481666D01*
X124477847Y-91484500D01*
X123632631Y-91484500D01*
X123565592Y-91464815D01*
X123528126Y-91425521D01*
X123527526Y-91425923D01*
X123525279Y-91422560D01*
X123525273Y-91422550D01*
X123381592Y-91235301D01*
X123381587Y-91235295D01*
X123214704Y-91068412D01*
X123214697Y-91068406D01*
X123027454Y-90924730D01*
X123027453Y-90924729D01*
X123027450Y-90924727D01*
X122945957Y-90877677D01*
X122823056Y-90806719D01*
X122823045Y-90806714D01*
X122604993Y-90716394D01*
X122547191Y-90700906D01*
X122377014Y-90655307D01*
X122377013Y-90655306D01*
X122377010Y-90655306D01*
X122143020Y-90624501D01*
X122143017Y-90624500D01*
X122143011Y-90624500D01*
X121906989Y-90624500D01*
X121906983Y-90624500D01*
X121906979Y-90624501D01*
X121672989Y-90655306D01*
X121445006Y-90716394D01*
X121226954Y-90806714D01*
X121226943Y-90806719D01*
X121022545Y-90924730D01*
X120835302Y-91068406D01*
X120835295Y-91068412D01*
X120668412Y-91235295D01*
X120668406Y-91235302D01*
X120524730Y-91422545D01*
X120406719Y-91626943D01*
X120406714Y-91626954D01*
X120316394Y-91845006D01*
X120255306Y-92072989D01*
X120224501Y-92306979D01*
X120224500Y-92306995D01*
X120224500Y-92405664D01*
X120204815Y-92472703D01*
X120188181Y-92493345D01*
X119610845Y-93070681D01*
X119549522Y-93104166D01*
X119523164Y-93107000D01*
X116587883Y-93107000D01*
X116520844Y-93087315D01*
X116475089Y-93034511D01*
X116465145Y-92965353D01*
X116480496Y-92920999D01*
X116518284Y-92855549D01*
X116608606Y-92637493D01*
X116669693Y-92409514D01*
X116700500Y-92175511D01*
X116700500Y-91939489D01*
X116669693Y-91705486D01*
X116608606Y-91477507D01*
X116518284Y-91259451D01*
X116518282Y-91259448D01*
X116518280Y-91259443D01*
X116471676Y-91178723D01*
X116400273Y-91055050D01*
X116300273Y-90924727D01*
X116256593Y-90867802D01*
X116256587Y-90867795D01*
X116089704Y-90700912D01*
X116089697Y-90700906D01*
X115902454Y-90557230D01*
X115902453Y-90557229D01*
X115902450Y-90557227D01*
X115789493Y-90492011D01*
X115698056Y-90439219D01*
X115698045Y-90439214D01*
X115479993Y-90348894D01*
X115256776Y-90289083D01*
X115252014Y-90287807D01*
X115252013Y-90287806D01*
X115252010Y-90287806D01*
X115018020Y-90257001D01*
X115018017Y-90257000D01*
X115018011Y-90257000D01*
X114781989Y-90257000D01*
X114781983Y-90257000D01*
X114781979Y-90257001D01*
X114547989Y-90287806D01*
X114320006Y-90348894D01*
X114101954Y-90439214D01*
X114101943Y-90439219D01*
X113897545Y-90557230D01*
X113710302Y-90700906D01*
X113710295Y-90700912D01*
X113543412Y-90867795D01*
X113543406Y-90867802D01*
X113399730Y-91055045D01*
X113281719Y-91259443D01*
X113281714Y-91259454D01*
X113191394Y-91477506D01*
X113130306Y-91705489D01*
X113099501Y-91939479D01*
X113099500Y-91939495D01*
X113099500Y-92175504D01*
X113099501Y-92175520D01*
X113130306Y-92409510D01*
X113191394Y-92637493D01*
X113281714Y-92855545D01*
X113281719Y-92855556D01*
X113313057Y-92909834D01*
X113329530Y-92977734D01*
X113306678Y-93043761D01*
X113251756Y-93086952D01*
X113182203Y-93093593D01*
X113120100Y-93061577D01*
X113117989Y-93059515D01*
X112611819Y-92553345D01*
X112578334Y-92492022D01*
X112575500Y-92465664D01*
X112575500Y-90289077D01*
X112544709Y-90094677D01*
X112544709Y-90094674D01*
X112498659Y-89952948D01*
X112483884Y-89907474D01*
X112394524Y-89732095D01*
X112278829Y-89572855D01*
X110386819Y-87680845D01*
X110372115Y-87653917D01*
X110355523Y-87628099D01*
X110354631Y-87621898D01*
X110353334Y-87619522D01*
X110350500Y-87593164D01*
X110350500Y-87494495D01*
X113099500Y-87494495D01*
X113099500Y-87730504D01*
X113099501Y-87730520D01*
X113130306Y-87964510D01*
X113191394Y-88192493D01*
X113281714Y-88410545D01*
X113281719Y-88410556D01*
X113326426Y-88487989D01*
X113399727Y-88614950D01*
X113399729Y-88614953D01*
X113399730Y-88614954D01*
X113543406Y-88802197D01*
X113543412Y-88802204D01*
X113710295Y-88969087D01*
X113710301Y-88969092D01*
X113897550Y-89112773D01*
X114028918Y-89188618D01*
X114101943Y-89230780D01*
X114101948Y-89230782D01*
X114101951Y-89230784D01*
X114320007Y-89321106D01*
X114547986Y-89382193D01*
X114781989Y-89413000D01*
X114781996Y-89413000D01*
X115018004Y-89413000D01*
X115018011Y-89413000D01*
X115252014Y-89382193D01*
X115479993Y-89321106D01*
X115698049Y-89230784D01*
X115902450Y-89112773D01*
X116089699Y-88969092D01*
X116256592Y-88802199D01*
X116400273Y-88614950D01*
X116518284Y-88410549D01*
X116608606Y-88192493D01*
X116669693Y-87964514D01*
X116700500Y-87730511D01*
X116700500Y-87494489D01*
X116669693Y-87260486D01*
X116608606Y-87032507D01*
X116518284Y-86814451D01*
X116518282Y-86814448D01*
X116518280Y-86814443D01*
X116470912Y-86732400D01*
X116400273Y-86610050D01*
X116256592Y-86422801D01*
X116256587Y-86422795D01*
X116089704Y-86255912D01*
X116089697Y-86255906D01*
X115902454Y-86112230D01*
X115902453Y-86112229D01*
X115902450Y-86112227D01*
X115806607Y-86056892D01*
X115698056Y-85994219D01*
X115698045Y-85994214D01*
X115479993Y-85903894D01*
X115252010Y-85842806D01*
X115018020Y-85812001D01*
X115018017Y-85812000D01*
X115018011Y-85812000D01*
X114781989Y-85812000D01*
X114781983Y-85812000D01*
X114781979Y-85812001D01*
X114547989Y-85842806D01*
X114320006Y-85903894D01*
X114101954Y-85994214D01*
X114101943Y-85994219D01*
X113897545Y-86112230D01*
X113710302Y-86255906D01*
X113710295Y-86255912D01*
X113543412Y-86422795D01*
X113543406Y-86422802D01*
X113399730Y-86610045D01*
X113281719Y-86814443D01*
X113281714Y-86814454D01*
X113191394Y-87032506D01*
X113130306Y-87260489D01*
X113099501Y-87494479D01*
X113099500Y-87494495D01*
X110350500Y-87494495D01*
X110350500Y-87494489D01*
X110319693Y-87260486D01*
X110258606Y-87032507D01*
X110168284Y-86814451D01*
X110168282Y-86814448D01*
X110168280Y-86814443D01*
X110120912Y-86732400D01*
X110050273Y-86610050D01*
X109906592Y-86422801D01*
X109906587Y-86422795D01*
X109811819Y-86328027D01*
X109778334Y-86266704D01*
X109775500Y-86240346D01*
X109775500Y-85482153D01*
X109795185Y-85415114D01*
X109811814Y-85394476D01*
X109881592Y-85324699D01*
X110025273Y-85137450D01*
X110143284Y-84933049D01*
X110233606Y-84714993D01*
X110294693Y-84487014D01*
X110325500Y-84253011D01*
X110325500Y-84016989D01*
X110294693Y-83782986D01*
X110233606Y-83555007D01*
X110143284Y-83336951D01*
X110143282Y-83336948D01*
X110143280Y-83336943D01*
X110094978Y-83253283D01*
X110025273Y-83132550D01*
X109917112Y-82991592D01*
X109881593Y-82945302D01*
X109881587Y-82945295D01*
X109714704Y-82778412D01*
X109714697Y-82778406D01*
X109527454Y-82634730D01*
X109527453Y-82634729D01*
X109527450Y-82634727D01*
X109445957Y-82587677D01*
X109323056Y-82516719D01*
X109323045Y-82516714D01*
X109129207Y-82436424D01*
X109074804Y-82392583D01*
X109052739Y-82326289D01*
X109070018Y-82258590D01*
X109121155Y-82210979D01*
X109129208Y-82207302D01*
X109163039Y-82193288D01*
X109163049Y-82193284D01*
X109367450Y-82075273D01*
X109554699Y-81931592D01*
X109721592Y-81764699D01*
X109865273Y-81577450D01*
X109983284Y-81373049D01*
X110073606Y-81154993D01*
X110134693Y-80927014D01*
X110165500Y-80693011D01*
X110165500Y-80456989D01*
X110134693Y-80222986D01*
X110073606Y-79995007D01*
X109983284Y-79776951D01*
X109983282Y-79776948D01*
X109983280Y-79776943D01*
X109941118Y-79703918D01*
X109865273Y-79572550D01*
X109721592Y-79385301D01*
X109721587Y-79385295D01*
X109554704Y-79218412D01*
X109554697Y-79218406D01*
X109367454Y-79074730D01*
X109367453Y-79074729D01*
X109367450Y-79074727D01*
X109280796Y-79024697D01*
X109163056Y-78956719D01*
X109163045Y-78956714D01*
X108944993Y-78866394D01*
X108820548Y-78833049D01*
X108717014Y-78805307D01*
X108717013Y-78805306D01*
X108717010Y-78805306D01*
X108483020Y-78774501D01*
X108483017Y-78774500D01*
X108483011Y-78774500D01*
X108246989Y-78774500D01*
X108246983Y-78774500D01*
X108246979Y-78774501D01*
X108012989Y-78805306D01*
X107785003Y-78866395D01*
X107632412Y-78929600D01*
X107562943Y-78937069D01*
X107500464Y-78905794D01*
X107464812Y-78845704D01*
X107467306Y-78775879D01*
X107470392Y-78767603D01*
X107533606Y-78614993D01*
X107594693Y-78387014D01*
X107625500Y-78153011D01*
X107625500Y-77916989D01*
X107594693Y-77682986D01*
X107533606Y-77455007D01*
X107443284Y-77236951D01*
X107443282Y-77236948D01*
X107443280Y-77236943D01*
X107398909Y-77160092D01*
X107325273Y-77032550D01*
X107214932Y-76888750D01*
X107181593Y-76845302D01*
X107181587Y-76845295D01*
X107014704Y-76678412D01*
X107014697Y-76678406D01*
X106827454Y-76534730D01*
X106827451Y-76534728D01*
X106827450Y-76534727D01*
X106729899Y-76478406D01*
X106623056Y-76416719D01*
X106623045Y-76416714D01*
X106404993Y-76326394D01*
X106360604Y-76314500D01*
X106177014Y-76265307D01*
X106177013Y-76265306D01*
X106177010Y-76265306D01*
X105943020Y-76234501D01*
X105943017Y-76234500D01*
X105943011Y-76234500D01*
X105706989Y-76234500D01*
X105706983Y-76234500D01*
X105706979Y-76234501D01*
X105472989Y-76265306D01*
X105245006Y-76326394D01*
X105026954Y-76416714D01*
X105026943Y-76416719D01*
X104822557Y-76534722D01*
X104822551Y-76534726D01*
X104822550Y-76534727D01*
X104761754Y-76581376D01*
X104696588Y-76606570D01*
X104686270Y-76607000D01*
X101804653Y-76607000D01*
X101737614Y-76587315D01*
X101716976Y-76570685D01*
X101624699Y-76478408D01*
X101624698Y-76478407D01*
X101624696Y-76478405D01*
X101437454Y-76334730D01*
X101437453Y-76334729D01*
X101437450Y-76334727D01*
X101343928Y-76280732D01*
X101233056Y-76216719D01*
X101233045Y-76216714D01*
X101014993Y-76126394D01*
X100787010Y-76065306D01*
X100553020Y-76034501D01*
X100553017Y-76034500D01*
X100553011Y-76034500D01*
X100316989Y-76034500D01*
X100316983Y-76034500D01*
X100316979Y-76034501D01*
X100082989Y-76065306D01*
X99855006Y-76126394D01*
X99636954Y-76216714D01*
X99636943Y-76216719D01*
X99432545Y-76334730D01*
X99245302Y-76478406D01*
X99245295Y-76478412D01*
X99078412Y-76645295D01*
X99078406Y-76645302D01*
X98934730Y-76832545D01*
X98816719Y-77036943D01*
X98816714Y-77036954D01*
X98726394Y-77255006D01*
X98665306Y-77482989D01*
X98634501Y-77716979D01*
X98634500Y-77716995D01*
X98634500Y-77953004D01*
X98634501Y-77953020D01*
X98662270Y-78163951D01*
X98665307Y-78187014D01*
X98716385Y-78377639D01*
X98726394Y-78414993D01*
X98816714Y-78633045D01*
X98816719Y-78633056D01*
X98843112Y-78678769D01*
X98934727Y-78837450D01*
X98934729Y-78837453D01*
X98934730Y-78837454D01*
X99078406Y-79024697D01*
X99078412Y-79024704D01*
X99245295Y-79191587D01*
X99245302Y-79191593D01*
X99284226Y-79221460D01*
X99432550Y-79335273D01*
X99519203Y-79385302D01*
X99636943Y-79453280D01*
X99636948Y-79453282D01*
X99636951Y-79453284D01*
X99855007Y-79543606D01*
X100082986Y-79604693D01*
X100138952Y-79612061D01*
X100202848Y-79640328D01*
X100241319Y-79698652D01*
X100242150Y-79768517D01*
X100205078Y-79827740D01*
X100141872Y-79857519D01*
X100138952Y-79857939D01*
X100082988Y-79865306D01*
X99855006Y-79926394D01*
X99636954Y-80016714D01*
X99636943Y-80016719D01*
X99432545Y-80134730D01*
X99245302Y-80278406D01*
X99245295Y-80278412D01*
X99078412Y-80445295D01*
X99078406Y-80445302D01*
X98959187Y-80600672D01*
X98902759Y-80641875D01*
X98880210Y-80647659D01*
X98784676Y-80662790D01*
X98597471Y-80723617D01*
X98422094Y-80812976D01*
X98346481Y-80867913D01*
X98262854Y-80928672D01*
X98262852Y-80928674D01*
X98262851Y-80928674D01*
X93661174Y-85530351D01*
X93661174Y-85530352D01*
X93661172Y-85530354D01*
X93614475Y-85594627D01*
X93545476Y-85689594D01*
X93456117Y-85864971D01*
X93423778Y-85964500D01*
X93423778Y-85964501D01*
X93395290Y-86052173D01*
X93364500Y-86246577D01*
X93364500Y-86732400D01*
X93344815Y-86799439D01*
X93292011Y-86845194D01*
X93222853Y-86855138D01*
X93159297Y-86826113D01*
X93152819Y-86820081D01*
X93085081Y-86752343D01*
X93085076Y-86752339D01*
X92887642Y-86608896D01*
X92887641Y-86608895D01*
X92887639Y-86608894D01*
X92670185Y-86498096D01*
X92438076Y-86422679D01*
X92438074Y-86422678D01*
X92438072Y-86422678D01*
X92269769Y-86396021D01*
X92197027Y-86384500D01*
X91952973Y-86384500D01*
X91916171Y-86390328D01*
X91908896Y-86391481D01*
X91839602Y-86382524D01*
X91786151Y-86337527D01*
X91765513Y-86270775D01*
X91765500Y-86269007D01*
X91765500Y-83322883D01*
X91785185Y-83255844D01*
X91837989Y-83210089D01*
X91907147Y-83200145D01*
X91951499Y-83215495D01*
X92016951Y-83253284D01*
X92235007Y-83343606D01*
X92462986Y-83404693D01*
X92696989Y-83435500D01*
X92696996Y-83435500D01*
X92933004Y-83435500D01*
X92933011Y-83435500D01*
X93167014Y-83404693D01*
X93394993Y-83343606D01*
X93613049Y-83253284D01*
X93817450Y-83135273D01*
X94004699Y-82991592D01*
X94171592Y-82824699D01*
X94315273Y-82637450D01*
X94433284Y-82433049D01*
X94523606Y-82214993D01*
X94584693Y-81987014D01*
X94615500Y-81753011D01*
X94615500Y-81654336D01*
X94635185Y-81587297D01*
X94651819Y-81566655D01*
X95457546Y-80760928D01*
X96278828Y-79939646D01*
X96394524Y-79780405D01*
X96483884Y-79605026D01*
X96544709Y-79417826D01*
X96549860Y-79385302D01*
X96575500Y-79223422D01*
X96575500Y-75406459D01*
X96595185Y-75339420D01*
X96647989Y-75293665D01*
X96717147Y-75283721D01*
X96774986Y-75308083D01*
X96862550Y-75375273D01*
X96993918Y-75451118D01*
X97066943Y-75493280D01*
X97066948Y-75493282D01*
X97066951Y-75493284D01*
X97285007Y-75583606D01*
X97512986Y-75644693D01*
X97746989Y-75675500D01*
X97746996Y-75675500D01*
X97983004Y-75675500D01*
X97983011Y-75675500D01*
X98217014Y-75644693D01*
X98444993Y-75583606D01*
X98663049Y-75493284D01*
X98867450Y-75375273D01*
X99054699Y-75231592D01*
X99221592Y-75064699D01*
X99365273Y-74877450D01*
X99483284Y-74673049D01*
X99573606Y-74454993D01*
X99621190Y-74277404D01*
X99657555Y-74217746D01*
X99720402Y-74187217D01*
X99740965Y-74185500D01*
X109777847Y-74185500D01*
X109844886Y-74205185D01*
X109865523Y-74221814D01*
X109921115Y-74277406D01*
X109935303Y-74291594D01*
X110065617Y-74391587D01*
X110122550Y-74435273D01*
X110253918Y-74511118D01*
X110326943Y-74553280D01*
X110326948Y-74553282D01*
X110326951Y-74553284D01*
X110545007Y-74643606D01*
X110772986Y-74704693D01*
X111006989Y-74735500D01*
X111006996Y-74735500D01*
X111243004Y-74735500D01*
X111243011Y-74735500D01*
X111477014Y-74704693D01*
X111704993Y-74643606D01*
X111923049Y-74553284D01*
X112127450Y-74435273D01*
X112314699Y-74291592D01*
X112481592Y-74124699D01*
X112625273Y-73937450D01*
X112743284Y-73733049D01*
X112833606Y-73514993D01*
X112894693Y-73287014D01*
X112925500Y-73053011D01*
X112925500Y-72816989D01*
X112894693Y-72582986D01*
X112833606Y-72355007D01*
X112743284Y-72136951D01*
X112743282Y-72136948D01*
X112743280Y-72136943D01*
X112653344Y-71981171D01*
X112625273Y-71932550D01*
X112558320Y-71845295D01*
X112481593Y-71745302D01*
X112481587Y-71745295D01*
X112314704Y-71578412D01*
X112314697Y-71578406D01*
X112127454Y-71434730D01*
X112127453Y-71434729D01*
X112127450Y-71434727D01*
X112045957Y-71387677D01*
X111923056Y-71316719D01*
X111923045Y-71316714D01*
X111704993Y-71226394D01*
X111550475Y-71184991D01*
X111477014Y-71165307D01*
X111477013Y-71165306D01*
X111477010Y-71165306D01*
X111243020Y-71134501D01*
X111243017Y-71134500D01*
X111243011Y-71134500D01*
X111006989Y-71134500D01*
X111006983Y-71134500D01*
X111006979Y-71134501D01*
X110772989Y-71165306D01*
X110545006Y-71226394D01*
X110326954Y-71316714D01*
X110326943Y-71316719D01*
X110122545Y-71434730D01*
X109935303Y-71578405D01*
X109900416Y-71613293D01*
X109865526Y-71648182D01*
X109804206Y-71681666D01*
X109777847Y-71684500D01*
X98706578Y-71684500D01*
X98512173Y-71715290D01*
X98324969Y-71776117D01*
X98149591Y-71865478D01*
X97990360Y-71981165D01*
X97990355Y-71981169D01*
X97933344Y-72038181D01*
X97872021Y-72071666D01*
X97845663Y-72074500D01*
X97746989Y-72074500D01*
X97746983Y-72074500D01*
X97746979Y-72074501D01*
X97512989Y-72105306D01*
X97285003Y-72166395D01*
X97132412Y-72229600D01*
X97062943Y-72237069D01*
X97000464Y-72205794D01*
X96964812Y-72145704D01*
X96967306Y-72075879D01*
X96970392Y-72067603D01*
X97033606Y-71914993D01*
X97094693Y-71687014D01*
X97125500Y-71453011D01*
X97125500Y-71216989D01*
X97094693Y-70982986D01*
X97033606Y-70755007D01*
X96943284Y-70536951D01*
X96943282Y-70536948D01*
X96943280Y-70536943D01*
X96901118Y-70463918D01*
X96825273Y-70332550D01*
X96733531Y-70212989D01*
X96681593Y-70145302D01*
X96681587Y-70145295D01*
X96514704Y-69978412D01*
X96514697Y-69978406D01*
X96327454Y-69834730D01*
X96327453Y-69834729D01*
X96327450Y-69834727D01*
X96210045Y-69766943D01*
X96123056Y-69716719D01*
X96123045Y-69716714D01*
X95904993Y-69626394D01*
X95677010Y-69565306D01*
X95443020Y-69534501D01*
X95443017Y-69534500D01*
X95443011Y-69534500D01*
X95206989Y-69534500D01*
X95206983Y-69534500D01*
X95206979Y-69534501D01*
X94972989Y-69565306D01*
X94745006Y-69626394D01*
X94526954Y-69716714D01*
X94526943Y-69716719D01*
X94322545Y-69834730D01*
X94135302Y-69978406D01*
X94135295Y-69978412D01*
X93968412Y-70145295D01*
X93968406Y-70145302D01*
X93824730Y-70332545D01*
X93706719Y-70536943D01*
X93706714Y-70536954D01*
X93616394Y-70755006D01*
X93555306Y-70982989D01*
X93524501Y-71216979D01*
X93524500Y-71216995D01*
X93524500Y-71453004D01*
X93524501Y-71453020D01*
X93554602Y-71681666D01*
X93555307Y-71687014D01*
X93570923Y-71745295D01*
X93616394Y-71914993D01*
X93679600Y-72067586D01*
X93687069Y-72137056D01*
X93655794Y-72199535D01*
X93595705Y-72235187D01*
X93525880Y-72232693D01*
X93517586Y-72229600D01*
X93364993Y-72166394D01*
X93255122Y-72136954D01*
X93137014Y-72105307D01*
X93137013Y-72105306D01*
X93137010Y-72105306D01*
X92903020Y-72074501D01*
X92903017Y-72074500D01*
X92903011Y-72074500D01*
X92666989Y-72074500D01*
X92666983Y-72074500D01*
X92666979Y-72074501D01*
X92432989Y-72105306D01*
X92205006Y-72166394D01*
X91986954Y-72256714D01*
X91986943Y-72256719D01*
X91782545Y-72374730D01*
X91595302Y-72518406D01*
X91595295Y-72518412D01*
X91428412Y-72685295D01*
X91428406Y-72685302D01*
X91284730Y-72872545D01*
X91166719Y-73076943D01*
X91166714Y-73076954D01*
X91076394Y-73295006D01*
X91015306Y-73522989D01*
X90984501Y-73756979D01*
X90984500Y-73756995D01*
X90984500Y-73993004D01*
X90984501Y-73993020D01*
X91015306Y-74227010D01*
X91076394Y-74454993D01*
X91166714Y-74673045D01*
X91166719Y-74673056D01*
X91207452Y-74743606D01*
X91284727Y-74877450D01*
X91284729Y-74877453D01*
X91284730Y-74877454D01*
X91428405Y-75064696D01*
X91428406Y-75064697D01*
X91428408Y-75064699D01*
X91528182Y-75164473D01*
X91561666Y-75225794D01*
X91564500Y-75252153D01*
X91564500Y-76487846D01*
X91544815Y-76554885D01*
X91528181Y-76575527D01*
X91458412Y-76645295D01*
X91458406Y-76645302D01*
X91314730Y-76832545D01*
X91196719Y-77036943D01*
X91196714Y-77036954D01*
X91106394Y-77255006D01*
X91045306Y-77482989D01*
X91014501Y-77716979D01*
X91014500Y-77716995D01*
X91014500Y-77815664D01*
X90994815Y-77882703D01*
X90978181Y-77903345D01*
X89561174Y-79320351D01*
X89561174Y-79320352D01*
X89561172Y-79320354D01*
X89526012Y-79368748D01*
X89445476Y-79479594D01*
X89356115Y-79654973D01*
X89356114Y-79654976D01*
X89311291Y-79792931D01*
X89295291Y-79842172D01*
X89295290Y-79842177D01*
X89264500Y-80036577D01*
X89264500Y-87173422D01*
X89295290Y-87367826D01*
X89356117Y-87555030D01*
X89398233Y-87637686D01*
X89445476Y-87730405D01*
X89561172Y-87889646D01*
X89561174Y-87889648D01*
X90488181Y-88816655D01*
X90521666Y-88877978D01*
X90524500Y-88904336D01*
X90524500Y-89457027D01*
X90525842Y-89465498D01*
X90562467Y-89696742D01*
X90562679Y-89698076D01*
X90638096Y-89930185D01*
X90741203Y-90132545D01*
X90748896Y-90147642D01*
X90892339Y-90345076D01*
X90892343Y-90345081D01*
X91064918Y-90517656D01*
X91064923Y-90517660D01*
X91165949Y-90591059D01*
X91262361Y-90661106D01*
X91479815Y-90771904D01*
X91711924Y-90847321D01*
X91952973Y-90885500D01*
X91952974Y-90885500D01*
X92197026Y-90885500D01*
X92197027Y-90885500D01*
X92438076Y-90847321D01*
X92670185Y-90771904D01*
X92887639Y-90661106D01*
X93085083Y-90517655D01*
X93257319Y-90345419D01*
X93318642Y-90311934D01*
X93388334Y-90316918D01*
X93432681Y-90345419D01*
X93604918Y-90517656D01*
X93604923Y-90517660D01*
X93705949Y-90591059D01*
X93802361Y-90661106D01*
X94019815Y-90771904D01*
X94251924Y-90847321D01*
X94492973Y-90885500D01*
X94492974Y-90885500D01*
X94737026Y-90885500D01*
X94737027Y-90885500D01*
X94978076Y-90847321D01*
X95210185Y-90771904D01*
X95210188Y-90771901D01*
X95210192Y-90771901D01*
X95210193Y-90771900D01*
X95306232Y-90722966D01*
X95374901Y-90710069D01*
X95439641Y-90736345D01*
X95479899Y-90793451D01*
X95482891Y-90863257D01*
X95477089Y-90880901D01*
X95446394Y-90955007D01*
X95385306Y-91182989D01*
X95354501Y-91416979D01*
X95354500Y-91416995D01*
X95354500Y-91653004D01*
X95354501Y-91653020D01*
X95383952Y-91876728D01*
X95385307Y-91887014D01*
X95398688Y-91936951D01*
X95446394Y-92114993D01*
X95536714Y-92333045D01*
X95536719Y-92333056D01*
X95580863Y-92409514D01*
X95654727Y-92537450D01*
X95654729Y-92537453D01*
X95654730Y-92537454D01*
X95798406Y-92724697D01*
X95798412Y-92724704D01*
X95965295Y-92891587D01*
X95965302Y-92891593D01*
X96039362Y-92948421D01*
X96152550Y-93035273D01*
X96271876Y-93104166D01*
X96356943Y-93153280D01*
X96356948Y-93153282D01*
X96356951Y-93153284D01*
X96575007Y-93243606D01*
X96802986Y-93304693D01*
X97036989Y-93335500D01*
X97036996Y-93335500D01*
X97273004Y-93335500D01*
X97273011Y-93335500D01*
X97507014Y-93304693D01*
X97734993Y-93243606D01*
X97953049Y-93153284D01*
X98157450Y-93035273D01*
X98344699Y-92891592D01*
X98386918Y-92849372D01*
X98448240Y-92815887D01*
X98517931Y-92820871D01*
X98572975Y-92861567D01*
X98639615Y-92948414D01*
X98639621Y-92948421D01*
X98806504Y-93115304D01*
X98806510Y-93115309D01*
X98993759Y-93258990D01*
X99125127Y-93334835D01*
X99198152Y-93376997D01*
X99198157Y-93376999D01*
X99198160Y-93377001D01*
X99416216Y-93467323D01*
X99644195Y-93528410D01*
X99878198Y-93559217D01*
X99878205Y-93559217D01*
X100114213Y-93559217D01*
X100114220Y-93559217D01*
X100348223Y-93528410D01*
X100576202Y-93467323D01*
X100794258Y-93377001D01*
X100998659Y-93258990D01*
X101185908Y-93115309D01*
X101352801Y-92948416D01*
X101496482Y-92761167D01*
X101614493Y-92556766D01*
X101704815Y-92338710D01*
X101765902Y-92110731D01*
X101796709Y-91876728D01*
X101796709Y-91640706D01*
X101765902Y-91406703D01*
X101704815Y-91178724D01*
X101614493Y-90960668D01*
X101614491Y-90960665D01*
X101614489Y-90960660D01*
X101525610Y-90806719D01*
X101496482Y-90756267D01*
X101395527Y-90624700D01*
X101352802Y-90569019D01*
X101352796Y-90569012D01*
X101185913Y-90402129D01*
X101185906Y-90402123D01*
X101056026Y-90302463D01*
X101014823Y-90246035D01*
X101010668Y-90176289D01*
X101021027Y-90147792D01*
X101021102Y-90147643D01*
X101021106Y-90147639D01*
X101131904Y-89930185D01*
X101207321Y-89698076D01*
X101245500Y-89457027D01*
X101245500Y-87812973D01*
X101207321Y-87571924D01*
X101131904Y-87339815D01*
X101021106Y-87122361D01*
X100990255Y-87079898D01*
X100877660Y-86924923D01*
X100877656Y-86924918D01*
X100705081Y-86752343D01*
X100705076Y-86752339D01*
X100507642Y-86608896D01*
X100507641Y-86608895D01*
X100507639Y-86608894D01*
X100290185Y-86498096D01*
X100058076Y-86422679D01*
X100058074Y-86422678D01*
X100058072Y-86422678D01*
X99889769Y-86396021D01*
X99817027Y-86384500D01*
X99572973Y-86384500D01*
X99517093Y-86393350D01*
X99331927Y-86422678D01*
X99099812Y-86498097D01*
X98882357Y-86608896D01*
X98684923Y-86752339D01*
X98684918Y-86752343D01*
X98512681Y-86924581D01*
X98451358Y-86958066D01*
X98381666Y-86953082D01*
X98337319Y-86924581D01*
X98165081Y-86752343D01*
X98165076Y-86752339D01*
X97967642Y-86608896D01*
X97967641Y-86608895D01*
X97967639Y-86608894D01*
X97750185Y-86498096D01*
X97518076Y-86422679D01*
X97518074Y-86422678D01*
X97518072Y-86422678D01*
X97349769Y-86396021D01*
X97277027Y-86384500D01*
X97032973Y-86384500D01*
X96977093Y-86393350D01*
X96791927Y-86422678D01*
X96791926Y-86422678D01*
X96563034Y-86497050D01*
X96493193Y-86499045D01*
X96433360Y-86462965D01*
X96402532Y-86400264D01*
X96410497Y-86330849D01*
X96437033Y-86291440D01*
X99467119Y-83261353D01*
X99528440Y-83227870D01*
X99598132Y-83232854D01*
X99616796Y-83241647D01*
X99636951Y-83253284D01*
X99855007Y-83343606D01*
X100082986Y-83404693D01*
X100316989Y-83435500D01*
X100316996Y-83435500D01*
X100553004Y-83435500D01*
X100553011Y-83435500D01*
X100787014Y-83404693D01*
X101014993Y-83343606D01*
X101233049Y-83253284D01*
X101233056Y-83253280D01*
X101412613Y-83149613D01*
X101474613Y-83133000D01*
X102075922Y-83133000D01*
X102270326Y-83102209D01*
X102280725Y-83098830D01*
X102457526Y-83041384D01*
X102632905Y-82952024D01*
X102792146Y-82836328D01*
X103216655Y-82411819D01*
X103277978Y-82378334D01*
X103304336Y-82375500D01*
X103403004Y-82375500D01*
X103403011Y-82375500D01*
X103637014Y-82344693D01*
X103864993Y-82283606D01*
X104083049Y-82193284D01*
X104287450Y-82075273D01*
X104474699Y-81931592D01*
X104641592Y-81764699D01*
X104785273Y-81577450D01*
X104903284Y-81373049D01*
X104993606Y-81154993D01*
X105054693Y-80927014D01*
X105085500Y-80693011D01*
X105085500Y-80456989D01*
X105054693Y-80222986D01*
X104993606Y-79995007D01*
X104930398Y-79842411D01*
X104922930Y-79772944D01*
X104954205Y-79710464D01*
X105014294Y-79674812D01*
X105084119Y-79677306D01*
X105092405Y-79680396D01*
X105245007Y-79743606D01*
X105472986Y-79804693D01*
X105706989Y-79835500D01*
X105706996Y-79835500D01*
X105943004Y-79835500D01*
X105943011Y-79835500D01*
X106177014Y-79804693D01*
X106324347Y-79765215D01*
X106394195Y-79766878D01*
X106452058Y-79806040D01*
X106479562Y-79870269D01*
X106467976Y-79939171D01*
X106466924Y-79941284D01*
X106388618Y-80094967D01*
X106327790Y-80282173D01*
X106297000Y-80476577D01*
X106297000Y-83255922D01*
X106327790Y-83450326D01*
X106388617Y-83637530D01*
X106462733Y-83782989D01*
X106477976Y-83812905D01*
X106593672Y-83972146D01*
X106593674Y-83972148D01*
X106688181Y-84066655D01*
X106721666Y-84127978D01*
X106724500Y-84154336D01*
X106724500Y-84253004D01*
X106724501Y-84253020D01*
X106755306Y-84487010D01*
X106816394Y-84714993D01*
X106906714Y-84933045D01*
X106906719Y-84933056D01*
X106938216Y-84987609D01*
X107024727Y-85137450D01*
X107024729Y-85137453D01*
X107024730Y-85137454D01*
X107168405Y-85324696D01*
X107168407Y-85324698D01*
X107168408Y-85324699D01*
X107238182Y-85394473D01*
X107271666Y-85455794D01*
X107274500Y-85482153D01*
X107274500Y-86290346D01*
X107254815Y-86357385D01*
X107238181Y-86378027D01*
X107193412Y-86422795D01*
X107193406Y-86422802D01*
X107049730Y-86610045D01*
X106931719Y-86814443D01*
X106931714Y-86814454D01*
X106841394Y-87032506D01*
X106780306Y-87260489D01*
X106749501Y-87494479D01*
X106749500Y-87494495D01*
X106749500Y-87730504D01*
X106749501Y-87730520D01*
X106780306Y-87964510D01*
X106841394Y-88192493D01*
X106931714Y-88410545D01*
X106931719Y-88410556D01*
X106976426Y-88487989D01*
X107049727Y-88614950D01*
X107049729Y-88614953D01*
X107049730Y-88614954D01*
X107193406Y-88802197D01*
X107193412Y-88802204D01*
X107360295Y-88969087D01*
X107360301Y-88969092D01*
X107547550Y-89112773D01*
X107678918Y-89188618D01*
X107751943Y-89230780D01*
X107751948Y-89230782D01*
X107751951Y-89230784D01*
X107970007Y-89321106D01*
X108197986Y-89382193D01*
X108431989Y-89413000D01*
X108530664Y-89413000D01*
X108597703Y-89432685D01*
X108618345Y-89449319D01*
X110038181Y-90869155D01*
X110071666Y-90930478D01*
X110074500Y-90956836D01*
X110074500Y-93133422D01*
X110105290Y-93327826D01*
X110166117Y-93515030D01*
X110201309Y-93584097D01*
X110255476Y-93690405D01*
X110371172Y-93849646D01*
X111693671Y-95172145D01*
X111693672Y-95172146D01*
X111832854Y-95311328D01*
X111992095Y-95427024D01*
X112167475Y-95516384D01*
X112286298Y-95554992D01*
X112354673Y-95577209D01*
X112410218Y-95586006D01*
X112549078Y-95608000D01*
X112549083Y-95608000D01*
X120190922Y-95608000D01*
X120385326Y-95577209D01*
X120393020Y-95574709D01*
X120572526Y-95516384D01*
X120747905Y-95427024D01*
X120907146Y-95311328D01*
X121956655Y-94261819D01*
X122017978Y-94228334D01*
X122044336Y-94225500D01*
X122143004Y-94225500D01*
X122143011Y-94225500D01*
X122377014Y-94194693D01*
X122604993Y-94133606D01*
X122823049Y-94043284D01*
X122894359Y-94002112D01*
X122956359Y-93985500D01*
X124477847Y-93985500D01*
X124544886Y-94005185D01*
X124565523Y-94021814D01*
X124628209Y-94084500D01*
X124635303Y-94091594D01*
X124729777Y-94164086D01*
X124822550Y-94235273D01*
X124953918Y-94311118D01*
X125026943Y-94353280D01*
X125026948Y-94353282D01*
X125026951Y-94353284D01*
X125245007Y-94443606D01*
X125472986Y-94504693D01*
X125706989Y-94535500D01*
X125706996Y-94535500D01*
X125943005Y-94535500D01*
X125943011Y-94535500D01*
X125983133Y-94530217D01*
X126052168Y-94540981D01*
X126087001Y-94565475D01*
X126830354Y-95308828D01*
X126989595Y-95424524D01*
X126994500Y-95427023D01*
X127164969Y-95513882D01*
X127164971Y-95513882D01*
X127164974Y-95513884D01*
X127225106Y-95533422D01*
X127352173Y-95574709D01*
X127546578Y-95605500D01*
X127546583Y-95605500D01*
X127743417Y-95605500D01*
X131086664Y-95605500D01*
X131153703Y-95625185D01*
X131199458Y-95677989D01*
X131209402Y-95747147D01*
X131180377Y-95810703D01*
X131174345Y-95817181D01*
X128233345Y-98758181D01*
X128172022Y-98791666D01*
X128145664Y-98794500D01*
X123372153Y-98794500D01*
X123305114Y-98774815D01*
X123284476Y-98758185D01*
X123214699Y-98688408D01*
X123214698Y-98688407D01*
X123214696Y-98688405D01*
X123027454Y-98544730D01*
X123027453Y-98544729D01*
X123027450Y-98544727D01*
X122945957Y-98497677D01*
X122823056Y-98426719D01*
X122823045Y-98426714D01*
X122604993Y-98336394D01*
X122377010Y-98275306D01*
X122143020Y-98244501D01*
X122143017Y-98244500D01*
X122143011Y-98244500D01*
X121906989Y-98244500D01*
X121906983Y-98244500D01*
X121906979Y-98244501D01*
X121672989Y-98275306D01*
X121445006Y-98336394D01*
X121226954Y-98426714D01*
X121226943Y-98426719D01*
X121022545Y-98544730D01*
X120835303Y-98688405D01*
X120811698Y-98712011D01*
X120765526Y-98758182D01*
X120704206Y-98791666D01*
X120677847Y-98794500D01*
X117988600Y-98794500D01*
X117921561Y-98774815D01*
X117900919Y-98758181D01*
X117835081Y-98692343D01*
X117835076Y-98692339D01*
X117637642Y-98548896D01*
X117637641Y-98548895D01*
X117637639Y-98548894D01*
X117420185Y-98438096D01*
X117188076Y-98362679D01*
X117188074Y-98362678D01*
X117188072Y-98362678D01*
X117019769Y-98336021D01*
X116947027Y-98324500D01*
X115302973Y-98324500D01*
X115247093Y-98333350D01*
X115061927Y-98362678D01*
X114829812Y-98438097D01*
X114612360Y-98548894D01*
X114540894Y-98600818D01*
X114475087Y-98624298D01*
X114468008Y-98624500D01*
X109686537Y-98624500D01*
X109619498Y-98604815D01*
X109611051Y-98598876D01*
X109527449Y-98534726D01*
X109323056Y-98416719D01*
X109323045Y-98416714D01*
X109104993Y-98326394D01*
X108914334Y-98275307D01*
X108877014Y-98265307D01*
X108877013Y-98265306D01*
X108877010Y-98265306D01*
X108643020Y-98234501D01*
X108643017Y-98234500D01*
X108643011Y-98234500D01*
X108406989Y-98234500D01*
X108406983Y-98234500D01*
X108406979Y-98234501D01*
X108172989Y-98265306D01*
X107945006Y-98326394D01*
X107726954Y-98416714D01*
X107726943Y-98416719D01*
X107522545Y-98534730D01*
X107335303Y-98678405D01*
X107301698Y-98712011D01*
X107265526Y-98748182D01*
X107204206Y-98781666D01*
X107177847Y-98784500D01*
X105462500Y-98784500D01*
X105395461Y-98764815D01*
X105349706Y-98712011D01*
X105338500Y-98660500D01*
X105338499Y-96691336D01*
X105358184Y-96624297D01*
X105374818Y-96603655D01*
X105493464Y-96485009D01*
X105728828Y-96249646D01*
X105812487Y-96134500D01*
X105844524Y-96090405D01*
X105933884Y-95915025D01*
X105983549Y-95762174D01*
X105994709Y-95727827D01*
X106010966Y-95625185D01*
X106025500Y-95533422D01*
X106025500Y-90291991D01*
X106045185Y-90224952D01*
X106049165Y-90219129D01*
X106101106Y-90147639D01*
X106211904Y-89930185D01*
X106287321Y-89698076D01*
X106325500Y-89457027D01*
X106325500Y-87812973D01*
X106287321Y-87571924D01*
X106211904Y-87339815D01*
X106101106Y-87122361D01*
X106070255Y-87079898D01*
X105957660Y-86924923D01*
X105957656Y-86924918D01*
X105785081Y-86752343D01*
X105785076Y-86752339D01*
X105587642Y-86608896D01*
X105587641Y-86608895D01*
X105587639Y-86608894D01*
X105370185Y-86498096D01*
X105138076Y-86422679D01*
X105138074Y-86422678D01*
X105138072Y-86422678D01*
X104969769Y-86396021D01*
X104897027Y-86384500D01*
X104652973Y-86384500D01*
X104597093Y-86393350D01*
X104411927Y-86422678D01*
X104179812Y-86498097D01*
X103962357Y-86608896D01*
X103764923Y-86752339D01*
X103764918Y-86752343D01*
X103592343Y-86924918D01*
X103592339Y-86924923D01*
X103448896Y-87122357D01*
X103338097Y-87339812D01*
X103262678Y-87571927D01*
X103235984Y-87740465D01*
X103224500Y-87812973D01*
X103224500Y-89457027D01*
X103225842Y-89465498D01*
X103262467Y-89696742D01*
X103262679Y-89698076D01*
X103338096Y-89930185D01*
X103448894Y-90147639D01*
X103500819Y-90219107D01*
X103524298Y-90284911D01*
X103524500Y-90291991D01*
X103524500Y-93710500D01*
X103504815Y-93777539D01*
X103452011Y-93823294D01*
X103400500Y-93834500D01*
X97837998Y-93834500D01*
X97837981Y-93834501D01*
X97735203Y-93845000D01*
X97735200Y-93845001D01*
X97568668Y-93900185D01*
X97568663Y-93900187D01*
X97419342Y-93992289D01*
X97295289Y-94116342D01*
X97203187Y-94265663D01*
X97203186Y-94265666D01*
X97148001Y-94432203D01*
X97148001Y-94432204D01*
X97148000Y-94432204D01*
X97137500Y-94534983D01*
X97137500Y-94534996D01*
X97137501Y-101090260D01*
X97117816Y-101157299D01*
X97065012Y-101203054D01*
X97013501Y-101214260D01*
X96957852Y-101214260D01*
X96957846Y-101214260D01*
X96957842Y-101214261D01*
X96723852Y-101245066D01*
X96495869Y-101306154D01*
X96277817Y-101396474D01*
X96277806Y-101396479D01*
X96073408Y-101514490D01*
X95886165Y-101658166D01*
X95886158Y-101658172D01*
X95719275Y-101825055D01*
X95719269Y-101825062D01*
X95575593Y-102012305D01*
X95457582Y-102216703D01*
X95457577Y-102216714D01*
X95367257Y-102434766D01*
X95306169Y-102662749D01*
X95275364Y-102896739D01*
X95275363Y-102896755D01*
X95275363Y-103132764D01*
X95275364Y-103132780D01*
X95306169Y-103366770D01*
X95367257Y-103594753D01*
X95457577Y-103812805D01*
X95457582Y-103812816D01*
X95528540Y-103935717D01*
X95575590Y-104017210D01*
X95575592Y-104017213D01*
X95575593Y-104017214D01*
X95719269Y-104204457D01*
X95719275Y-104204464D01*
X95886158Y-104371347D01*
X95886164Y-104371352D01*
X96073413Y-104515033D01*
X96170105Y-104570858D01*
X96277806Y-104633040D01*
X96277811Y-104633042D01*
X96277814Y-104633044D01*
X96495870Y-104723366D01*
X96527062Y-104731723D01*
X96582649Y-104763817D01*
X97691984Y-105873152D01*
X97725469Y-105934475D01*
X97720485Y-106004167D01*
X97678613Y-106060100D01*
X97613149Y-106084517D01*
X97604303Y-106084833D01*
X92583705Y-106084833D01*
X92516666Y-106065148D01*
X92496024Y-106048514D01*
X87725673Y-101278163D01*
X87692188Y-101216840D01*
X87697172Y-101147148D01*
X87725673Y-101102801D01*
X91906655Y-96921819D01*
X91967978Y-96888334D01*
X91994336Y-96885500D01*
X92425769Y-96885500D01*
X92492808Y-96905185D01*
X92513450Y-96921818D01*
X92619344Y-97027712D01*
X92768666Y-97119814D01*
X92935203Y-97174999D01*
X93037991Y-97185500D01*
X96138008Y-97185499D01*
X96240797Y-97174999D01*
X96407334Y-97119814D01*
X96556656Y-97027712D01*
X96680712Y-96903656D01*
X96772814Y-96754334D01*
X96827999Y-96587797D01*
X96838500Y-96485009D01*
X96838499Y-94784992D01*
X96827999Y-94682203D01*
X96772814Y-94515666D01*
X96680712Y-94366344D01*
X96556656Y-94242288D01*
X96407334Y-94150186D01*
X96240797Y-94095001D01*
X96240795Y-94095000D01*
X96138010Y-94084500D01*
X93037998Y-94084500D01*
X93037981Y-94084501D01*
X92935203Y-94095000D01*
X92935200Y-94095001D01*
X92768668Y-94150185D01*
X92768663Y-94150187D01*
X92619345Y-94242287D01*
X92513450Y-94348182D01*
X92452127Y-94381666D01*
X92425769Y-94384500D01*
X91326578Y-94384500D01*
X91132173Y-94415290D01*
X90944969Y-94476117D01*
X90769594Y-94565476D01*
X90678741Y-94631485D01*
X90610354Y-94681172D01*
X90610352Y-94681174D01*
X90610351Y-94681174D01*
X85387863Y-99903663D01*
X85326540Y-99937148D01*
X85300182Y-99939982D01*
X77387854Y-99939982D01*
X77320815Y-99920297D01*
X77275060Y-99867493D01*
X77265116Y-99798335D01*
X77294141Y-99734779D01*
X77300173Y-99728301D01*
X82797262Y-94231212D01*
X82858585Y-94197727D01*
X82884943Y-94194893D01*
X82999489Y-94194893D01*
X82999496Y-94194893D01*
X83233499Y-94164086D01*
X83461478Y-94102999D01*
X83679534Y-94012677D01*
X83883935Y-93894666D01*
X84071184Y-93750985D01*
X84238077Y-93584092D01*
X84381758Y-93396843D01*
X84499769Y-93192442D01*
X84590091Y-92974386D01*
X84651178Y-92746407D01*
X84681985Y-92512404D01*
X84681985Y-92397851D01*
X84701670Y-92330812D01*
X84718304Y-92310170D01*
X86373468Y-90655006D01*
X88078829Y-88949645D01*
X88194524Y-88790405D01*
X88283884Y-88615026D01*
X88344709Y-88427826D01*
X88354580Y-88365500D01*
X88375500Y-88233417D01*
X88375500Y-78811583D01*
X88375500Y-78811578D01*
X88365322Y-78747319D01*
X88352774Y-78668096D01*
X88344709Y-78617173D01*
X88299757Y-78478828D01*
X88283884Y-78429975D01*
X88267517Y-78397853D01*
X88194525Y-78254596D01*
X88145420Y-78187010D01*
X88078828Y-78095354D01*
X87939646Y-77956172D01*
X87158396Y-77174922D01*
X86999155Y-77059226D01*
X86955438Y-77036951D01*
X86823780Y-76969867D01*
X86636576Y-76909040D01*
X86442172Y-76878250D01*
X86442167Y-76878250D01*
X84076583Y-76878250D01*
X84076579Y-76878250D01*
X82824998Y-76878250D01*
X82824981Y-76878251D01*
X82722203Y-76888750D01*
X82722200Y-76888751D01*
X82555668Y-76943935D01*
X82555663Y-76943937D01*
X82406342Y-77036039D01*
X82282289Y-77160092D01*
X82190187Y-77309413D01*
X82190186Y-77309416D01*
X82135001Y-77475953D01*
X82135001Y-77475954D01*
X82135000Y-77475954D01*
X82124500Y-77578733D01*
X82124500Y-78678751D01*
X82124501Y-78678769D01*
X82135000Y-78781546D01*
X82135001Y-78781549D01*
X82163117Y-78866395D01*
X82190186Y-78948084D01*
X82282288Y-79097406D01*
X82406344Y-79221462D01*
X82555666Y-79313564D01*
X82722203Y-79368749D01*
X82824991Y-79379250D01*
X84066580Y-79379249D01*
X84066594Y-79379250D01*
X84076583Y-79379250D01*
X85750500Y-79379250D01*
X85817539Y-79398935D01*
X85863294Y-79451739D01*
X85874500Y-79503250D01*
X85874500Y-87565664D01*
X85854815Y-87632703D01*
X85838181Y-87653345D01*
X82933952Y-90557574D01*
X82872629Y-90591059D01*
X82846271Y-90593893D01*
X82763474Y-90593893D01*
X82763468Y-90593893D01*
X82763464Y-90593894D01*
X82529474Y-90624699D01*
X82301491Y-90685787D01*
X82083439Y-90776107D01*
X82083428Y-90776112D01*
X81879030Y-90894123D01*
X81691787Y-91037799D01*
X81691780Y-91037805D01*
X81524897Y-91204688D01*
X81524891Y-91204695D01*
X81381215Y-91391938D01*
X81263204Y-91596336D01*
X81263199Y-91596347D01*
X81172879Y-91814399D01*
X81111791Y-92042382D01*
X81080986Y-92276372D01*
X81080985Y-92276388D01*
X81080985Y-92359179D01*
X81061300Y-92426218D01*
X81044666Y-92446860D01*
X73587863Y-99903663D01*
X73526540Y-99937148D01*
X73500182Y-99939982D01*
X71607850Y-99939982D01*
X71540811Y-99920297D01*
X71495056Y-99867493D01*
X71483850Y-99815982D01*
X71483850Y-99540480D01*
X71483849Y-99540463D01*
X71473350Y-99437685D01*
X71473349Y-99437682D01*
X71468643Y-99423479D01*
X71418165Y-99271148D01*
X71326063Y-99121826D01*
X71202007Y-98997770D01*
X71052685Y-98905668D01*
X70886148Y-98850483D01*
X70886146Y-98850482D01*
X70783361Y-98839982D01*
X65283349Y-98839982D01*
X65283332Y-98839983D01*
X65180554Y-98850482D01*
X65180551Y-98850483D01*
X65014019Y-98905667D01*
X65014014Y-98905669D01*
X64864693Y-98997771D01*
X64740640Y-99121824D01*
X64648538Y-99271145D01*
X64648537Y-99271148D01*
X64593352Y-99437685D01*
X64593352Y-99437686D01*
X64593351Y-99437686D01*
X64582851Y-99540465D01*
X64582851Y-104640483D01*
X64582852Y-104640500D01*
X64593351Y-104743278D01*
X64593352Y-104743281D01*
X64648536Y-104909813D01*
X64648537Y-104909816D01*
X64740639Y-105059138D01*
X64864695Y-105183194D01*
X65014017Y-105275296D01*
X65180554Y-105330481D01*
X65283342Y-105340982D01*
X70783359Y-105340981D01*
X70886148Y-105330481D01*
X71052685Y-105275296D01*
X71202007Y-105183194D01*
X71326063Y-105059138D01*
X71418165Y-104909816D01*
X71473350Y-104743279D01*
X71483851Y-104640491D01*
X71483851Y-102564982D01*
X71503536Y-102497943D01*
X71556340Y-102452188D01*
X71607851Y-102440982D01*
X73971101Y-102440982D01*
X74167935Y-102440982D01*
X85300182Y-102440982D01*
X85367221Y-102460667D01*
X85387863Y-102477301D01*
X90533714Y-107623152D01*
X90567199Y-107684475D01*
X90562215Y-107754167D01*
X90520343Y-107810100D01*
X90454879Y-107834517D01*
X90446033Y-107834833D01*
X51956554Y-107834833D01*
X51889515Y-107815148D01*
X51843760Y-107762344D01*
X51833816Y-107693186D01*
X51862841Y-107629630D01*
X51879241Y-107613886D01*
X51939356Y-107565946D01*
X52102523Y-107435825D01*
X52340825Y-107197523D01*
X52550946Y-106934039D01*
X52730246Y-106648686D01*
X52876469Y-106345051D01*
X52987776Y-106026954D01*
X53062767Y-105698394D01*
X53100500Y-105363504D01*
X53100500Y-105026496D01*
X53062767Y-104691606D01*
X52987776Y-104363046D01*
X52876469Y-104044949D01*
X52730246Y-103741314D01*
X52550946Y-103455961D01*
X52340825Y-103192477D01*
X52102523Y-102954175D01*
X51839039Y-102744054D01*
X51641953Y-102620216D01*
X51553683Y-102564752D01*
X51250054Y-102418532D01*
X50931965Y-102307227D01*
X50931953Y-102307223D01*
X50603397Y-102232233D01*
X50603381Y-102232231D01*
X50268508Y-102194500D01*
X50268504Y-102194500D01*
X49931496Y-102194500D01*
X49931491Y-102194500D01*
X49596618Y-102232231D01*
X49596602Y-102232233D01*
X49268046Y-102307223D01*
X49268034Y-102307227D01*
X48949945Y-102418532D01*
X48646316Y-102564752D01*
X48360962Y-102744053D01*
X48097477Y-102954174D01*
X47859174Y-103192477D01*
X47678113Y-103419522D01*
X47620925Y-103459662D01*
X47551113Y-103462512D01*
X47490843Y-103427167D01*
X47459250Y-103364848D01*
X47457166Y-103342209D01*
X47457166Y-75653772D01*
X47476851Y-75586733D01*
X47529655Y-75540978D01*
X47598813Y-75531034D01*
X47662369Y-75560059D01*
X47677038Y-75576044D01*
X47677319Y-75575805D01*
X47680485Y-75579512D01*
X51391929Y-79290956D01*
X51424023Y-79346543D01*
X51476394Y-79541993D01*
X51566714Y-79760045D01*
X51566719Y-79760056D01*
X51637677Y-79882957D01*
X51684727Y-79964450D01*
X51684729Y-79964453D01*
X51684730Y-79964454D01*
X51828406Y-80151697D01*
X51828412Y-80151704D01*
X51995295Y-80318587D01*
X51995301Y-80318592D01*
X52182550Y-80462273D01*
X52293611Y-80526394D01*
X52386943Y-80580280D01*
X52386948Y-80580282D01*
X52386951Y-80580284D01*
X52605007Y-80670606D01*
X52832986Y-80731693D01*
X53066989Y-80762500D01*
X53066996Y-80762500D01*
X53303004Y-80762500D01*
X53303011Y-80762500D01*
X53537014Y-80731693D01*
X53764993Y-80670606D01*
X53983049Y-80580284D01*
X54187450Y-80462273D01*
X54374699Y-80318592D01*
X54541592Y-80151699D01*
X54685273Y-79964450D01*
X54803284Y-79760049D01*
X54893606Y-79541993D01*
X54954693Y-79314014D01*
X54985500Y-79080011D01*
X54985500Y-78843989D01*
X54954693Y-78609986D01*
X54893606Y-78382007D01*
X54803284Y-78163951D01*
X54803282Y-78163948D01*
X54803280Y-78163943D01*
X54737405Y-78049845D01*
X54685273Y-77959550D01*
X54541592Y-77772301D01*
X54541587Y-77772295D01*
X54374704Y-77605412D01*
X54374697Y-77605406D01*
X54187454Y-77461730D01*
X54187453Y-77461729D01*
X54187450Y-77461727D01*
X54105957Y-77414677D01*
X53983056Y-77343719D01*
X53983045Y-77343714D01*
X53764993Y-77253394D01*
X53569543Y-77201023D01*
X53513956Y-77168929D01*
X50361819Y-74016792D01*
X50328334Y-73955469D01*
X50325500Y-73929111D01*
X50325500Y-66360461D01*
X50345185Y-66293422D01*
X50397989Y-66247667D01*
X50467147Y-66237723D01*
X50524984Y-66262084D01*
X50696330Y-66393562D01*
X50804617Y-66456081D01*
X50963162Y-66547618D01*
X50963167Y-66547620D01*
X50963170Y-66547622D01*
X51247836Y-66665535D01*
X51545456Y-66745282D01*
X51850940Y-66785500D01*
X51850947Y-66785500D01*
X52159053Y-66785500D01*
X52159060Y-66785500D01*
X52464544Y-66745282D01*
X52733508Y-66673213D01*
X52803355Y-66674876D01*
X52853280Y-66705307D01*
X56728181Y-70580208D01*
X56761666Y-70641531D01*
X56764500Y-70667889D01*
X56764500Y-77926717D01*
X56747887Y-77988717D01*
X56646719Y-78163943D01*
X56646714Y-78163954D01*
X56556394Y-78382006D01*
X56495306Y-78609989D01*
X56464501Y-78843979D01*
X56464500Y-78843995D01*
X56464500Y-79080004D01*
X56464501Y-79080020D01*
X56495247Y-79313564D01*
X56495307Y-79314014D01*
X56497005Y-79320351D01*
X56556394Y-79541993D01*
X56646714Y-79760045D01*
X56646719Y-79760056D01*
X56717677Y-79882957D01*
X56764727Y-79964450D01*
X56764729Y-79964453D01*
X56764730Y-79964454D01*
X56908406Y-80151697D01*
X56908412Y-80151704D01*
X57075295Y-80318587D01*
X57075301Y-80318592D01*
X57262550Y-80462273D01*
X57373611Y-80526394D01*
X57466943Y-80580280D01*
X57466948Y-80580282D01*
X57466951Y-80580284D01*
X57685007Y-80670606D01*
X57912986Y-80731693D01*
X58146989Y-80762500D01*
X58146996Y-80762500D01*
X58383004Y-80762500D01*
X58383011Y-80762500D01*
X58617014Y-80731693D01*
X58844993Y-80670606D01*
X59063049Y-80580284D01*
X59267450Y-80462273D01*
X59454699Y-80318592D01*
X59621592Y-80151699D01*
X59765273Y-79964450D01*
X59883284Y-79760049D01*
X59973606Y-79541993D01*
X60034693Y-79314014D01*
X60065500Y-79080011D01*
X60065500Y-78843989D01*
X60034693Y-78609986D01*
X59973606Y-78382007D01*
X59883284Y-78163951D01*
X59883282Y-78163948D01*
X59883280Y-78163943D01*
X59782113Y-77988717D01*
X59765500Y-77926717D01*
X59765500Y-69876902D01*
X59728553Y-69643631D01*
X59657075Y-69423647D01*
X59656012Y-69419880D01*
X59655568Y-69419008D01*
X59655568Y-69419007D01*
X59548343Y-69208566D01*
X59409517Y-69017490D01*
X54319669Y-63927642D01*
X54287575Y-63872054D01*
X54235535Y-63677837D01*
X54223797Y-63649500D01*
X54117622Y-63393170D01*
X54117620Y-63393167D01*
X54117618Y-63393162D01*
X54062578Y-63297830D01*
X53963562Y-63126330D01*
X53861257Y-62993004D01*
X53775992Y-62881884D01*
X53775986Y-62881877D01*
X53558122Y-62664013D01*
X53558112Y-62664005D01*
X53474013Y-62599472D01*
X53432811Y-62543044D01*
X53425500Y-62501097D01*
X53425500Y-60397834D01*
X53445185Y-60330795D01*
X53497989Y-60285040D01*
X53526849Y-60275920D01*
X53532399Y-60274887D01*
X53532418Y-60274886D01*
X53728049Y-60218909D01*
X53908407Y-60124698D01*
X54066109Y-59996109D01*
X54194698Y-59838407D01*
X54288909Y-59658049D01*
X54344886Y-59462418D01*
X54355500Y-59343037D01*
X54355499Y-56526964D01*
X54344886Y-56407582D01*
X54288909Y-56211951D01*
X54194698Y-56031593D01*
X54142684Y-55967803D01*
X54066109Y-55873890D01*
X53950933Y-55779977D01*
X53908407Y-55745302D01*
X53728049Y-55651091D01*
X53728048Y-55651090D01*
X53728045Y-55651089D01*
X53610829Y-55617550D01*
X53532418Y-55595114D01*
X53532415Y-55595113D01*
X53532413Y-55595113D01*
X53466102Y-55589217D01*
X53413037Y-55584500D01*
X53413032Y-55584500D01*
X50596971Y-55584500D01*
X50596963Y-55584501D01*
X50476687Y-55595193D01*
X50408168Y-55581522D01*
X50357918Y-55532976D01*
X50341890Y-55464970D01*
X50365173Y-55399094D01*
X50378021Y-55384005D01*
X52512359Y-53249666D01*
X52567942Y-53217575D01*
X52762164Y-53165535D01*
X53046830Y-53047622D01*
X53313670Y-52893562D01*
X53558117Y-52705991D01*
X53775991Y-52488117D01*
X53963562Y-52243670D01*
X54117622Y-51976830D01*
X54235535Y-51692164D01*
X54315282Y-51394544D01*
X54355500Y-51089060D01*
X54355500Y-50780940D01*
X54315282Y-50475456D01*
X54235535Y-50177836D01*
X54230380Y-50165390D01*
X54214939Y-50128112D01*
X54205500Y-50080659D01*
X54205500Y-46348163D01*
X54219591Y-46290752D01*
X54239010Y-46253574D01*
X54288909Y-46158049D01*
X54344886Y-45962418D01*
X54355500Y-45843037D01*
X54355499Y-43026964D01*
X54344886Y-42907582D01*
X54288909Y-42711951D01*
X54194698Y-42531593D01*
X54142684Y-42467803D01*
X54066109Y-42373890D01*
X53908409Y-42245304D01*
X53908410Y-42245304D01*
X53908407Y-42245302D01*
X53728049Y-42151091D01*
X53728048Y-42151090D01*
X53728045Y-42151089D01*
X53610829Y-42117550D01*
X53532418Y-42095114D01*
X53532415Y-42095113D01*
X53532413Y-42095113D01*
X53466102Y-42089217D01*
X53413037Y-42084500D01*
X53413032Y-42084500D01*
X50596971Y-42084500D01*
X50596965Y-42084500D01*
X50596964Y-42084501D01*
X50585316Y-42085536D01*
X50477584Y-42095113D01*
X50281954Y-42151089D01*
X50191772Y-42198196D01*
X50101593Y-42245302D01*
X50101591Y-42245303D01*
X50101590Y-42245304D01*
X49943890Y-42373890D01*
X49815304Y-42531590D01*
X49721089Y-42711954D01*
X49685392Y-42836712D01*
X49666647Y-42902227D01*
X49665114Y-42907583D01*
X49665113Y-42907586D01*
X49660631Y-42958003D01*
X49655388Y-43016981D01*
X49654500Y-43026966D01*
X49654500Y-45843028D01*
X49654501Y-45843034D01*
X49665113Y-45962415D01*
X49721089Y-46158045D01*
X49721090Y-46158047D01*
X49721091Y-46158049D01*
X49815302Y-46338407D01*
X49815304Y-46338409D01*
X49943890Y-46496109D01*
X50023632Y-46561129D01*
X50101593Y-46624698D01*
X50281951Y-46718909D01*
X50477582Y-46774886D01*
X50596963Y-46785500D01*
X51080500Y-46785499D01*
X51147539Y-46805183D01*
X51193294Y-46857987D01*
X51204500Y-46909499D01*
X51204500Y-48639560D01*
X51184815Y-48706599D01*
X51132011Y-48752354D01*
X51127954Y-48754121D01*
X50963169Y-48822378D01*
X50963162Y-48822381D01*
X50696325Y-48976441D01*
X50451884Y-49164007D01*
X50451877Y-49164013D01*
X50234013Y-49381877D01*
X50234007Y-49381884D01*
X50046441Y-49626325D01*
X49892381Y-49893162D01*
X49892376Y-49893173D01*
X49774464Y-50177837D01*
X49694717Y-50475457D01*
X49654501Y-50780930D01*
X49654500Y-50780946D01*
X49654500Y-51089053D01*
X49654501Y-51089069D01*
X49694717Y-51394542D01*
X49766786Y-51663505D01*
X49765123Y-51733354D01*
X49734692Y-51783279D01*
X47680485Y-53837487D01*
X47677319Y-53841195D01*
X47676168Y-53840212D01*
X47626150Y-53878780D01*
X47556536Y-53884756D01*
X47494742Y-53852148D01*
X47460387Y-53791308D01*
X47457166Y-53763227D01*
X47457166Y-38865409D01*
X47476851Y-38798370D01*
X47529655Y-38752615D01*
X47598813Y-38742671D01*
X47662369Y-38771696D01*
X47678113Y-38788097D01*
X47829168Y-38977516D01*
X47829174Y-38977522D01*
X47829175Y-38977523D01*
X48067477Y-39215825D01*
X48330961Y-39425946D01*
X48616314Y-39605246D01*
X48919949Y-39751469D01*
X49049938Y-39796954D01*
X49238034Y-39862772D01*
X49238046Y-39862776D01*
X49566606Y-39937767D01*
X49901492Y-39975499D01*
X49901493Y-39975500D01*
X49901496Y-39975500D01*
X50238507Y-39975500D01*
X50238507Y-39975499D01*
X50573394Y-39937767D01*
X50901954Y-39862776D01*
X51220051Y-39751469D01*
X51523686Y-39605246D01*
X51809039Y-39425946D01*
X52072523Y-39215825D01*
X52310825Y-38977523D01*
X52520946Y-38714039D01*
X52700246Y-38428686D01*
X52846469Y-38125051D01*
X52957776Y-37806954D01*
X53032767Y-37478394D01*
X53070500Y-37143504D01*
X53070500Y-36806496D01*
X53032767Y-36471606D01*
X52957776Y-36143046D01*
X52846469Y-35824949D01*
X52709878Y-35541316D01*
X52700247Y-35521316D01*
X52682834Y-35493603D01*
X52520946Y-35235961D01*
X52310825Y-34972477D01*
X52072523Y-34734175D01*
X51850075Y-34556779D01*
X51809936Y-34499592D01*
X51807086Y-34429780D01*
X51842431Y-34369510D01*
X51904750Y-34337917D01*
X51927389Y-34335833D01*
X161457690Y-34335833D01*
X161524729Y-34355518D01*
G37*
%TD.AperFunction*%
%TD*%
M02*
